<svg width="88" height="27" viewBox="0 0 88 27" fill="none" xmlns="http://www.w3.org/2000/svg">
<g clip-path="url(#clip0_174_3509)">
<path d="M0.986793 20.5895C1.48102 21.4412 2.23473 21.8403 3.18149 21.9459C6.57933 22.3297 16.7157 22.1202 16.7311 22.1202C19.1359 22.1202 21.0665 21.0299 21.5885 18.7775C21.7213 18.2041 21.8264 16.2606 21.7059 14.1994C21.5792 12.0586 20.5939 10.6442 17.6532 10.4454C13.7472 10.1839 8.22264 10.3078 5.98779 10.5356C4.79392 10.6579 4.0989 11.4653 4.11435 12.5663C4.14987 15.1902 4.17922 15.5939 4.20702 15.7361C5.39317 15.9043 5.37927 15.915 5.41479 15.8508C5.51829 15.6627 5.66641 15.5024 5.84641 15.3836C6.02641 15.2648 6.23288 15.1911 6.44805 15.1688C6.95154 15.1031 6.5716 15.1229 17.0586 14.9654C17.4679 14.9654 17.7119 15.1489 17.7876 15.548C17.8745 16.066 17.8906 16.5932 17.8354 17.1154C17.8015 17.5604 17.4308 18.2699 16.7543 18.279C16.7389 18.279 9.242 18.3142 5.665 18.1506C4.58387 18.1017 3.39926 17.0466 3.39926 15.0832C3.39926 14.2498 3.39926 11.5662 3.4703 10.7329C3.50823 10.2405 3.71118 9.77477 4.04696 9.40964C4.38274 9.04452 4.83209 8.8009 5.32367 8.71748C6.65809 8.47741 19.0926 8.62267 19.8819 8.80158C22.126 9.30925 22.3144 11.9714 22.3221 12.028C22.5322 13.5571 22.5523 15.282 22.5337 16.8401C22.4874 20.3571 21.1607 21.1293 20.7174 21.637C20.5846 21.7899 20.756 21.8602 21.0186 22.0483C22.1337 21.8419 23.7291 20.6339 24.0411 18.0726C24.1616 17.0833 24.2543 14.8186 24.0612 10.7558C23.9361 8.11806 22.8164 5.8458 19.1035 5.42682C15.8832 5.06442 8.79101 5.35342 5.60631 5.42682C0.0462083 5.55221 0.151233 8.69454 0.149688 9.97441C0.128066 18.0772 0.135788 19.1262 0.986793 20.5895Z" fill="white"/>
<path d="M39.4041 10.0745C39.5743 10.0677 39.7418 10.1178 39.8798 10.2167C40.0065 10.3149 40.1046 10.4447 40.164 10.5928L42.944 17.3515H40.7432C40.6768 17.3377 40.6412 17.2751 40.6119 17.165L40.2397 16.0013C40.2242 15.8759 40.1547 15.8484 39.9972 15.8484H37.8241C37.6697 15.8484 37.5971 15.8774 37.5816 16.0013L37.2094 17.1711C37.1816 17.2812 37.1461 17.3439 37.0781 17.3576H34.8711L37.6589 10.5989C37.706 10.4837 37.7771 10.3795 37.8674 10.2931C38.019 10.155 38.219 10.081 38.4249 10.0867L39.4041 10.0745ZM38.1562 14.3086H39.6651L38.9099 12.1418L38.1562 14.3086Z" fill="white"/>
<path d="M32.1588 15.6269C32.3534 15.6269 32.3998 15.5703 32.3936 15.3868V14.2644C32.3936 13.9877 32.2577 13.8348 32.0183 13.7063C31.9534 13.6727 31.6785 13.4815 31.8546 13.4815H34.0956C34.281 13.4815 34.3396 13.5244 34.3381 13.7155V16.315C34.3381 16.841 33.9736 17.3517 33.3759 17.3517H29.5703C29.1857 17.3517 27.5733 17.1147 27.5733 15.2339V12.1986C27.5733 10.3178 29.1857 10.0716 29.5703 10.0747H34.1018C34.2964 10.0747 34.3412 10.1343 34.3381 10.3178V11.4708C34.3381 11.6542 34.2964 11.7108 34.1018 11.7108H30.7317C29.9873 11.7108 29.6197 12.0977 29.6197 12.5763V14.7614C29.6197 15.2385 29.9873 15.6269 30.7317 15.6269C30.8028 15.6269 30.6468 15.6223 32.1588 15.6269Z" fill="white"/>
<path d="M70.6998 15.6272C69.9569 15.6272 69.5893 15.2388 69.5893 14.7617V12.5766C69.5893 12.098 69.9569 11.7111 70.7014 11.7111H71.645C72.3879 11.7111 72.7555 12.098 72.7555 12.5766V14.7617C72.7555 15.2388 72.3895 15.6272 71.645 15.6272H70.6998ZM72.8049 17.352C73.191 17.352 74.8035 17.115 74.8035 15.2342V12.1989C74.8035 10.3181 73.191 10.0719 72.8065 10.075H69.5399C69.1538 10.075 67.5429 10.3181 67.5429 12.1989V15.2373C67.5429 17.1181 69.1538 17.3582 69.5399 17.3551L72.8049 17.352Z" fill="white"/>
<path d="M48.4503 17.2988L50.9987 13.0097V17.123C50.9987 17.2346 50.9987 17.3524 51.2119 17.3524H52.8644C53.0189 17.3524 53.0776 17.305 53.0776 17.1276C53.0776 13.6106 53.0961 14.6948 53.0776 11.1166C53.0776 10.5906 52.7131 10.0753 52.1154 10.0753H51.3292C51.2246 10.064 51.1189 10.0809 51.0232 10.1243C50.9275 10.1676 50.8454 10.2357 50.7856 10.3215C48.3268 14.0663 48.489 13.8706 48.3561 13.8996C48.2233 13.8706 48.387 14.0693 45.9267 10.3215C45.8669 10.2357 45.7848 10.1676 45.6891 10.1243C45.5934 10.0809 45.4876 10.064 45.383 10.0753H44.5892C43.9899 10.0753 43.63 10.5906 43.627 11.1166V17.1276C43.627 17.305 43.6795 17.3524 43.8401 17.3524H45.4927C45.6471 17.3524 45.7058 17.305 45.7058 17.1276V13.0097L48.2542 17.2988C48.2629 17.3174 48.2767 17.333 48.2941 17.344C48.3115 17.355 48.3317 17.3608 48.3523 17.3608C48.3729 17.3608 48.3931 17.355 48.4104 17.344C48.4278 17.333 48.4417 17.3174 48.4503 17.2988Z" fill="white"/>
<path d="M66.6004 15.774C66.5464 15.7339 66.479 15.7159 66.412 15.7235H64.0767C64.0472 15.7235 64.0179 15.7177 63.9907 15.7065C63.9634 15.6952 63.9386 15.6788 63.9178 15.658C63.897 15.6373 63.8805 15.6126 63.8694 15.5856C63.8582 15.5585 63.8526 15.5295 63.8528 15.5003V10.312C63.8528 10.1988 63.8528 10.075 63.6396 10.075H61.9871C61.8326 10.075 61.7739 10.1285 61.7739 10.3058V16.3168C61.7739 16.8443 62.1369 17.352 62.7361 17.352H67.3696C67.0077 16.8831 66.746 16.3462 66.6004 15.774Z" fill="white"/>
<path d="M87.6796 11.4604C87.3089 10.2631 86.1058 10.0719 85.7799 10.075H76.8945C76.2968 10.075 75.9385 10.5903 75.9323 11.1163V17.1273C75.9323 17.3046 75.9848 17.352 76.1454 17.352H77.6899C77.8444 17.352 77.9031 17.3046 77.9031 17.1273V14.7082C77.9031 14.649 77.9268 14.5922 77.9691 14.5503C78.0114 14.5085 78.0687 14.485 78.1285 14.485H79.9031C80.0977 14.485 80.1395 14.4314 80.1395 14.2449V13.1883C80.1395 13.0017 80.0977 12.9482 79.9031 12.9482H78.127C78.0975 12.9484 78.0682 12.9428 78.0408 12.9318C78.0135 12.9207 77.9886 12.9044 77.9677 12.8838C77.9467 12.8632 77.9301 12.8387 77.9187 12.8117C77.9074 12.7847 77.9015 12.7557 77.9015 12.7265V11.9329C77.9015 11.9036 77.9074 11.8747 77.9187 11.8477C77.9301 11.8207 77.9467 11.7961 77.9677 11.7755C77.9886 11.7549 78.0135 11.7386 78.0408 11.7276C78.0682 11.7165 78.0975 11.7109 78.127 11.7111H82.4824V17.1273C82.4824 17.3046 82.5349 17.352 82.694 17.352H84.3481C84.5026 17.352 84.5613 17.3046 84.5613 17.1273V11.7111H87.4464C87.641 11.7111 87.7429 11.6653 87.6796 11.4604Z" fill="white"/>
<path d="M60.1415 14.2452C60.1415 14.4318 60.0998 14.4868 59.9052 14.4853H56.4626C56.4029 14.4857 56.3458 14.5093 56.3036 14.5511C56.2614 14.5929 56.2375 14.6494 56.2371 14.7085V15.5006C56.2371 15.5598 56.2608 15.6166 56.3031 15.6585C56.3454 15.7003 56.4028 15.7239 56.4626 15.7239H60.3238C60.5184 15.7239 60.5601 15.7866 60.5601 15.9639V17.1169C60.5601 17.3004 60.5184 17.3539 60.3253 17.3524H55.2285C54.6308 17.3524 54.2725 16.8447 54.2679 16.3172V11.1182C54.2679 10.5922 54.6308 10.0768 55.2301 10.0768H60.3268C60.5199 10.0768 60.5662 10.1365 60.5632 10.32V11.4729C60.5632 11.6503 60.5215 11.713 60.3284 11.713H56.4626C56.403 11.713 56.3459 11.7363 56.3037 11.7778C56.2614 11.8194 56.2375 11.8758 56.2371 11.9347V12.7283C56.2375 12.7873 56.2614 12.8437 56.3037 12.8852C56.3459 12.9267 56.403 12.9501 56.4626 12.9501H59.9052C60.0998 12.9501 60.1415 13.0036 60.1415 13.1901V14.2452Z" fill="white"/>
</g>
<defs>
<clipPath id="clip0_174_3509">
<rect width="87.5542" height="19.3301" fill="white" transform="translate(0.144775 3.71906)"/>
</clipPath>
</defs>
</svg>
