<svg width="134" height="32" viewBox="0 0 134 32" fill="none" xmlns="http://www.w3.org/2000/svg">
<g clip-path="url(#clip0_2_1963)">
<path d="M24.5377 0H18.426L15.1791 15.6276C14.0232 16.9709 11.8056 18.358 9.65271 18.358C6.95572 18.358 6.21162 16.4648 7.01454 12.6235L9.65271 0H3.35874L0.217635 15.3294C-1.02645 21.4058 3.3058 23.5617 7.19101 23.5617C9.6086 23.5617 12.3879 22.6288 14.0556 21.2909L13.685 23.1404H19.8054L24.5377 0Z" fill="white"/>
<path d="M50.99 23.1403H45.549L48.8018 7.19812H54.2458L50.99 23.1403Z" fill="white"/>
<path d="M73.9869 13.4032H68.7693C68.6076 12.7357 68.2429 12.2022 67.6752 11.8027C67.1076 11.4033 66.3929 11.2035 65.5371 11.2035C64.2165 11.2035 63.0783 11.6577 62.1283 12.5633C61.1783 13.4689 60.7019 14.5797 60.7019 15.8957C60.7019 16.8669 60.9607 17.6439 61.4842 18.2239C62.0077 18.8067 62.7665 19.0967 63.7636 19.0967C65.4547 19.0967 66.7664 18.3635 67.6929 16.897H73.2575C72.6398 19.0638 71.3663 20.544 69.6281 21.7505C67.887 22.9598 65.6282 23.5617 63.2401 23.5617C60.8519 23.5617 59.0049 22.9106 57.4843 21.6055C55.9637 20.3005 55.2079 18.6343 55.2079 16.607C55.2079 13.8246 56.2373 11.4853 58.3019 9.58662C60.3636 7.68789 62.9489 6.73853 66.0576 6.73853C68.4223 6.73853 70.334 7.35958 71.7957 8.59895C73.2545 9.83832 73.9869 11.4416 73.9869 13.4032Z" fill="white"/>
<path d="M94.2594 13.6932C94.2594 16.4757 93.227 18.8176 91.1653 20.7136C89.1036 22.6123 86.5154 23.5617 83.4096 23.5617C81.092 23.5617 79.1744 22.9106 77.6539 21.6055C76.1333 20.3005 75.3774 18.6343 75.3774 16.607C75.3774 13.8246 76.4098 11.4853 78.4715 9.58662C80.5332 7.68789 83.1214 6.73853 86.2272 6.73853C88.5448 6.73853 90.4624 7.39241 91.9829 8.69744C93.5006 10.0025 94.2623 11.6687 94.2623 13.6932H94.2594ZM83.9331 19.0967C85.3243 19.0967 86.4772 18.6507 87.3919 17.7561C88.3066 16.8614 88.7654 15.7452 88.7654 14.4073C88.7654 13.4361 88.4889 12.6618 87.9301 12.079C87.3742 11.4963 86.6301 11.2063 85.7066 11.2063C84.3155 11.2063 83.1596 11.655 82.2449 12.5496C81.3273 13.4443 80.8714 14.5633 80.8714 15.8984C80.8714 16.8696 81.1508 17.6466 81.7067 18.2267C82.2626 18.8094 83.0037 19.0994 83.9331 19.0994V19.0967Z" fill="white"/>
<path d="M126.412 13.2062C125.709 13.1077 124.545 13.0174 123.933 12.8286C123.333 12.6453 123.283 12.4128 123.295 12.2568C123.324 11.9449 123.515 11.6905 123.88 11.4798C124.256 11.2582 124.942 11.0339 125.868 11.0339C127.089 11.0339 127.845 11.4525 127.95 12.183L127.968 12.421H133.247V12.1364C133.183 11.1324 133.018 10.0599 131.641 8.67824C131.174 8.2104 129.397 6.74942 126.474 6.74942C125.989 6.74942 125.974 6.74121 125.462 6.74121C123.312 6.74121 121.327 7.41698 119.954 8.34446C118.256 9.49355 117.468 10.7849 117.321 12.6563C117.177 14.503 118.498 15.8983 120.851 16.3853C121.73 16.5686 122.456 16.6945 123.098 16.8094C123.809 16.9352 124.695 17.0556 125.28 17.1842C125.615 17.2554 126.5 17.5043 126.439 18.1883C126.389 18.7464 125.368 19.4687 123.98 19.4687C123.03 19.4687 122.048 19.1595 121.636 18.7464C121.195 18.3059 121.236 17.7724 121.236 17.7642L121.248 17.6083H115.442L115.421 17.7287C115.409 17.8244 115.092 20.0816 117.33 21.9201C118.804 23.1321 121.056 23.5616 122.536 23.5616H124.103C125.815 23.5616 128.074 23.0528 129.55 22.128C131.05 21.1869 132.215 19.8025 132.391 17.7889C132.471 16.8887 132.203 16.1063 131.544 15.3238C130.636 14.2431 129 13.5701 126.4 13.2035L126.412 13.2062Z" fill="white"/>
<path d="M74.6686 30.0103H1.17029V30.7572H74.6686V30.0103Z" fill="white"/>
<path d="M108.412 6.96838C106.53 6.96838 104.536 7.80558 103.11 8.81239L103.439 7.1982H98.0685L94.8038 23.1404H100.174L102.089 13.7918C102.089 13.7918 103.592 11.8547 105.58 11.4197C106.145 11.2966 107.401 11.2775 107.971 11.9396C108.439 12.4785 108.462 13.365 108.148 14.8588L106.454 23.1431H111.756L113.662 13.8273C114.636 9.07504 112.112 6.97112 108.406 6.97112L108.412 6.96838Z" fill="white"/>
<path d="M37.8669 6.96838C35.9846 6.96838 33.9906 7.80558 32.5641 8.81239L32.8935 7.1982H27.5231L24.2584 23.1404H29.6289L31.5436 13.7918C31.5436 13.7918 33.0465 11.8547 35.0346 11.4197C35.5993 11.2966 36.8552 11.2775 37.4258 11.9396C37.8934 12.4785 37.9169 13.365 37.6022 14.8588L35.9082 23.1431H41.211L43.1168 13.8273C44.0903 9.07504 41.5669 6.97112 37.864 6.97112L37.8669 6.96838Z" fill="white"/>
<path d="M55.8403 2.90281C55.7138 4.50606 54.0786 5.80562 52.1845 5.80562C50.2904 5.80562 48.8611 4.50606 48.9875 2.90281C49.114 1.29956 50.7522 0 52.6433 0C54.5345 0 55.9668 1.29956 55.8403 2.90281Z" fill="white"/>
<path d="M109.58 31.7749C109.327 31.7749 109.095 31.7448 108.886 31.6873C108.677 31.6299 108.492 31.5451 108.33 31.4302C108.168 31.318 108.062 31.2304 107.933 31.069L108.445 30.437C108.636 30.6833 108.827 30.8529 109.015 30.9404C109.203 31.0307 109.409 31.0745 109.633 31.0745C109.753 31.0745 109.862 31.0581 109.956 31.0252C110.053 30.9924 110.127 30.9486 110.183 30.8912C110.239 30.8337 110.265 30.7681 110.265 30.686C110.265 30.6285 110.25 30.5738 110.224 30.5246C110.198 30.4753 110.156 30.4316 110.106 30.3932C110.056 30.3549 109.995 30.3194 109.924 30.2893C109.853 30.2592 109.777 30.2318 109.689 30.2072C109.603 30.1826 109.509 30.1634 109.406 30.1498C109.189 30.1032 108.998 30.0458 108.833 29.9774C108.668 29.909 108.533 29.8269 108.424 29.7257C108.315 29.6272 108.233 29.5123 108.18 29.3864C108.127 29.2606 108.1 29.1156 108.1 28.9569C108.1 28.7982 108.139 28.6423 108.218 28.5027C108.298 28.3632 108.403 28.2428 108.542 28.1416C108.68 28.0404 108.842 27.961 109.021 27.9063C109.203 27.8516 109.395 27.8242 109.598 27.8242C109.848 27.8242 110.065 27.8488 110.253 27.9008C110.442 27.9528 110.603 28.0267 110.742 28.1279C110.88 28.2291 110.912 28.2592 111.021 28.3933L110.536 28.9897C110.453 28.8885 110.365 28.8037 110.268 28.7325C110.171 28.6641 110.068 28.6122 109.959 28.5766C109.848 28.541 109.733 28.5246 109.618 28.5246C109.489 28.5246 109.377 28.541 109.286 28.5711C109.192 28.6012 109.118 28.6477 109.065 28.7079C109.012 28.7681 108.986 28.8365 108.986 28.9186C108.986 28.9842 109.003 29.0417 109.039 29.0937C109.074 29.1457 109.124 29.1894 109.192 29.2277C109.259 29.266 109.339 29.2989 109.433 29.329C109.527 29.3591 109.63 29.3837 109.745 29.4056C109.959 29.4466 110.153 29.4986 110.324 29.5643C110.495 29.6299 110.642 29.7093 110.765 29.8023C110.889 29.8953 110.983 30.0047 111.05 30.1279C111.118 30.2537 111.15 30.3932 111.15 30.5492C111.15 30.8064 111.083 31.028 110.95 31.2086C110.818 31.3891 110.636 31.5287 110.4 31.6244C110.165 31.7202 109.892 31.7694 109.58 31.7694V31.7749Z" fill="white"/>
<path d="M82.4893 27.8051C81.3188 27.8051 80.3688 28.6888 80.3688 29.7777C80.3688 30.8665 81.3188 31.7503 82.4893 31.7503C83.6599 31.7503 84.6098 30.8665 84.6098 29.7777C84.6098 28.6888 83.6599 27.8051 82.4893 27.8051ZM82.4893 31.0745C81.7187 31.0745 81.0952 30.4945 81.0952 29.7777C81.0952 29.0608 81.7187 28.4808 82.4893 28.4808C83.2599 28.4808 83.8834 29.0608 83.8834 29.7777C83.8834 30.4945 83.2599 31.0745 82.4893 31.0745Z" fill="white"/>
<path d="M78.6808 31.0717C77.9103 31.0717 77.2868 30.4917 77.2868 29.7749C77.2868 29.0581 77.9103 28.4781 78.6808 28.4781C79.1161 28.4781 79.5014 28.6614 79.7573 28.9514L80.2073 28.4097C79.822 28.0376 79.2808 27.8051 78.6808 27.8051C77.5103 27.8051 76.5603 28.6888 76.5603 29.7777C76.5603 30.8665 77.5103 31.7503 78.6808 31.7503C79.2779 31.7503 79.8161 31.5204 80.2014 31.1511L79.7514 30.6094C79.4955 30.8939 79.1102 31.0745 78.6808 31.0745V31.0717Z" fill="white"/>
<path d="M93.5804 31.0717C92.8098 31.0717 92.1863 30.4917 92.1863 29.7749C92.1863 29.0581 92.8098 28.4781 93.5804 28.4781C94.0157 28.4781 94.4009 28.6614 94.6568 28.9514L95.1068 28.4097C94.7215 28.0376 94.1804 27.8051 93.5804 27.8051C92.4098 27.8051 91.4598 28.6888 91.4598 29.7777C91.4598 30.8665 92.4098 31.7503 93.5804 31.7503C94.1774 31.7503 94.7156 31.5204 95.1009 31.1511L94.6509 30.6094C94.3951 30.8939 94.0098 31.0745 93.5804 31.0745V31.0717Z" fill="white"/>
<path d="M97.3915 31.0717C96.621 31.0717 95.9975 30.4917 95.9975 29.7749C95.9975 29.0581 96.621 28.4781 97.3915 28.4781C97.8268 28.4781 98.2121 28.6614 98.468 28.9514L98.918 28.4097C98.5327 28.0376 97.9915 27.8051 97.3915 27.8051C96.221 27.8051 95.271 28.6888 95.271 29.7777C95.271 30.8665 96.221 31.7503 97.3915 31.7503C97.9886 31.7503 98.5268 31.5204 98.9121 31.1511L98.4621 30.6094C98.2062 30.8939 97.8209 31.0745 97.3915 31.0745V31.0717Z" fill="white"/>
<path d="M101.183 27.8051C100.012 27.8051 99.0624 28.6888 99.0624 29.7777C99.0624 30.8665 100.012 31.7503 101.183 31.7503C102.353 31.7503 103.303 30.8665 103.303 29.7777C103.303 28.6888 102.353 27.8051 101.183 27.8051ZM101.183 31.0745C100.412 31.0745 99.7888 30.4945 99.7888 29.7777C99.7888 29.0608 100.412 28.4808 101.183 28.4808C101.953 28.4808 102.577 29.0608 102.577 29.7777C102.577 30.4945 101.953 31.0745 101.183 31.0745Z" fill="white"/>
<path d="M85.8071 31.712V28.5219H84.6218V27.8625H87.7923V28.5219H86.5747V31.712H85.8071Z" fill="white"/>
<path d="M89.0718 31.0636V30.0622H90.7218V29.4248H89.0718V28.511H91.0218V27.8625H88.313V31.712H91.0453V31.0636H89.0718Z" fill="white"/>
<path d="M107.442 27.8517H106.748L104.586 30.5602V29.0719C104.586 29.0528 104.586 29.0309 104.586 29.0117V27.8517H103.821V31.7175H104.527L106.677 29.0746V30.1307C106.677 30.1608 106.677 30.1909 106.677 30.221V31.7175L107.374 31.7203L107.442 31.7175V27.8517Z" fill="white"/>
<path d="M115.086 31.6408C114.753 31.6408 114.45 31.5888 114.174 31.4849C113.898 31.3809 113.659 31.2359 113.459 31.0471C113.259 30.8611 113.103 30.6422 112.995 30.3905C112.886 30.1388 112.833 29.8679 112.833 29.5752C112.833 29.2825 112.889 29.0116 113.001 28.7626C113.112 28.5137 113.271 28.2975 113.48 28.1115C113.686 27.9282 113.93 27.7832 114.206 27.6792C114.486 27.5752 114.789 27.526 115.121 27.526C115.35 27.526 115.568 27.5534 115.777 27.6108C115.986 27.6683 116.177 27.7449 116.348 27.8461C116.518 27.9446 116.662 28.0595 116.777 28.1881L116.206 28.7462C116.1 28.6505 115.989 28.5711 115.871 28.5027C115.753 28.4371 115.633 28.3851 115.506 28.3495C115.38 28.3139 115.248 28.2948 115.112 28.2948C114.921 28.2948 114.742 28.3276 114.58 28.3906C114.418 28.4562 114.277 28.5438 114.153 28.6587C114.03 28.7736 113.936 28.9076 113.868 29.0636C113.801 29.2195 113.768 29.3892 113.768 29.5725C113.768 29.7558 113.803 29.9199 113.877 30.0786C113.948 30.2373 114.048 30.3741 114.171 30.489C114.295 30.6039 114.442 30.6969 114.609 30.7626C114.777 30.8283 114.956 30.8638 115.15 30.8638C115.286 30.8638 115.415 30.8447 115.539 30.8064C115.662 30.7681 115.768 30.7133 115.862 30.645C115.953 30.5738 116.027 30.4917 116.077 30.396C116.127 30.3002 116.153 30.199 116.153 30.0923V29.9555L116.277 30.1142H115.05V29.4001H117.039C117.042 29.4411 117.047 29.4931 117.053 29.5533C117.059 29.6135 117.062 29.6737 117.065 29.7339C117.065 29.7941 117.068 29.8406 117.068 29.8734C117.068 30.1333 117.018 30.3714 116.918 30.5875C116.818 30.8036 116.68 30.9924 116.5 31.1484C116.324 31.3043 116.112 31.4247 115.871 31.5122C115.63 31.5971 115.368 31.6408 115.086 31.6408Z" fill="white"/>
<path d="M117.418 31.5834V27.5862H119.321C119.586 27.5862 119.827 27.6436 120.045 27.7558C120.263 27.868 120.433 28.0185 120.557 28.21C120.68 28.4015 120.745 28.6176 120.745 28.8611C120.745 29.1046 120.683 29.318 120.557 29.515C120.433 29.712 120.26 29.8652 120.045 29.9801C119.827 30.095 119.586 30.1525 119.321 30.1525H118.31V31.5861H117.418V31.5834ZM118.31 29.4521H119.28C119.392 29.4521 119.489 29.4275 119.571 29.3809C119.657 29.3344 119.718 29.266 119.765 29.1812C119.81 29.0964 119.833 29.0007 119.833 28.894C119.833 28.779 119.807 28.6805 119.754 28.5985C119.701 28.5137 119.621 28.448 119.521 28.4015C119.418 28.355 119.301 28.3304 119.165 28.3304H118.313V29.4548L118.31 29.4521ZM119.857 31.5834L118.765 29.7777L119.71 29.6354L120.924 31.5888L119.857 31.5834Z" fill="white"/>
<path d="M123.097 31.6409C122.782 31.6409 122.491 31.5889 122.226 31.4877C121.959 31.3837 121.729 31.2414 121.529 31.0554C121.329 30.8693 121.179 30.6532 121.073 30.3988C120.967 30.1471 120.914 29.8707 120.914 29.5725C120.914 29.2743 120.967 28.9952 121.073 28.7463C121.179 28.4973 121.332 28.2784 121.529 28.0924C121.726 27.9063 121.959 27.7613 122.226 27.6574C122.491 27.5534 122.782 27.5042 123.097 27.5042C123.411 27.5042 123.708 27.5561 123.97 27.6574C124.235 27.7613 124.464 27.9063 124.664 28.0924C124.861 28.2784 125.014 28.4973 125.12 28.749C125.226 29.0007 125.279 29.2743 125.279 29.5725C125.279 29.8707 125.226 30.1443 125.12 30.3933C125.014 30.645 124.861 30.8639 124.664 31.0499C124.464 31.2359 124.235 31.381 123.97 31.4849C123.706 31.5889 123.414 31.6381 123.097 31.6381V31.6409ZM123.097 30.831C123.276 30.831 123.444 30.8009 123.597 30.7407C123.75 30.6806 123.882 30.593 123.994 30.4781C124.106 30.3632 124.191 30.2291 124.256 30.0787C124.317 29.9254 124.35 29.7585 124.35 29.5752C124.35 29.3919 124.317 29.225 124.256 29.0718C124.191 28.9186 124.106 28.7873 123.994 28.6751C123.882 28.563 123.753 28.4754 123.597 28.4125C123.444 28.3495 123.276 28.3195 123.097 28.3195C122.917 28.3195 122.75 28.3523 122.6 28.4125C122.447 28.4754 122.314 28.563 122.2 28.6751C122.085 28.7873 121.997 28.9186 121.938 29.0718C121.879 29.225 121.85 29.3919 121.85 29.5752C121.85 29.7585 121.879 29.9254 121.938 30.0787C121.997 30.2319 122.085 30.3632 122.2 30.4781C122.314 30.593 122.447 30.6806 122.6 30.7407C122.75 30.8009 122.917 30.831 123.097 30.831Z" fill="white"/>
<path d="M127.424 31.6192C127.077 31.6192 126.765 31.5508 126.494 31.4167C126.224 31.2826 126.009 31.0966 125.853 30.8558C125.697 30.6178 125.621 30.3497 125.621 30.0487V27.5809H126.547V29.9968C126.547 30.1582 126.586 30.3004 126.665 30.429C126.742 30.5576 126.847 30.6588 126.983 30.7354C127.115 30.8121 127.265 30.8504 127.427 30.8504C127.589 30.8504 127.747 30.8121 127.883 30.7354C128.021 30.6588 128.127 30.5576 128.209 30.429C128.292 30.3004 128.33 30.1582 128.33 29.9968V27.5809H129.227V30.0487C129.227 30.3497 129.15 30.6178 128.994 30.8558C128.839 31.0939 128.624 31.2799 128.353 31.4167C128.08 31.5508 127.774 31.6192 127.43 31.6192H127.424Z" fill="white"/>
<path d="M129.842 31.5834V27.5862H131.665C131.918 27.5862 132.151 27.6436 132.356 27.7558C132.562 27.868 132.727 28.0212 132.848 28.2154C132.968 28.4097 133.03 28.6286 133.03 28.8721C133.03 29.1156 132.968 29.3426 132.848 29.5396C132.727 29.7366 132.562 29.8953 132.356 30.0102C132.151 30.1251 131.918 30.1853 131.665 30.1853H130.762V31.5834H129.842ZM130.751 29.4138H131.562C131.659 29.4138 131.748 29.3892 131.827 29.3426C131.904 29.2961 131.968 29.2305 132.015 29.1511C132.062 29.0718 132.086 28.9788 132.086 28.8775C132.086 28.7763 132.062 28.6833 132.015 28.6067C131.968 28.5273 131.906 28.4671 131.827 28.4234C131.751 28.3796 131.662 28.3577 131.562 28.3577H130.751V29.4138Z" fill="white"/>
</g>
<defs>
<clipPath id="clip0_2_1963">
<rect width="133.25" height="31.775" fill="white"/>
</clipPath>
</defs>
</svg>
