<svg width="87" height="27" viewBox="0 0 87 27" fill="none" xmlns="http://www.w3.org/2000/svg">
<path d="M3.10419 17.7466C2.94811 17.7466 2.86298 17.5764 2.94811 17.4629L8.07031 10.5529C8.3399 10.184 8.87908 9.97112 9.33312 9.97112C9.78717 9.97112 10.3405 10.184 10.6101 10.5529L15.7181 17.4629C15.8174 17.5764 15.7323 17.7466 15.5762 17.7466H14.6256C14.3134 17.7466 14.0155 17.6048 13.831 17.3494L9.43244 11.4184C9.38988 11.3474 9.29055 11.3474 9.2338 11.4184L4.84943 17.3494C4.65078 17.6048 4.36701 17.7466 4.05485 17.7466H3.10419ZM31.9574 9.97112C32.1845 9.97112 32.3547 10.1556 32.3547 10.3684C32.3547 10.4961 32.298 10.6096 32.1986 10.6948L28.2258 13.7738C28.169 13.8163 28.169 13.9156 28.2258 13.9582L32.1986 17.023C32.298 17.1081 32.3547 17.2217 32.3547 17.3494C32.3547 17.5764 32.1845 17.7466 31.9574 17.7466H31.4183C31.0919 17.7466 30.7798 17.6473 30.5102 17.4487L27.2751 14.9514C27.0197 14.7528 26.6934 14.6393 26.367 14.6393H25.3738C25.0474 14.6393 24.7353 14.7528 24.4799 14.9514L21.2306 17.4487C20.9752 17.6473 20.6631 17.7466 20.3367 17.7466H19.7975C19.5705 17.7466 19.4003 17.5764 19.4003 17.3494C19.4003 17.2217 19.457 17.1081 19.5563 17.023L23.5292 13.9582C23.586 13.9156 23.586 13.8163 23.5292 13.7738L19.5421 10.6948C19.457 10.6096 19.4003 10.4961 19.4003 10.3684C19.4003 10.1556 19.5705 9.97112 19.7975 9.97112C20.0246 9.97112 20.1948 9.97112 20.3367 9.97112C20.6631 9.97112 20.9894 10.0846 21.2448 10.2833L24.4657 12.7805C24.7211 12.9792 25.0474 13.0785 25.3738 13.0785H26.3812C26.7075 13.0785 27.0339 12.9792 27.2893 12.7805L30.5102 10.2833C30.7656 10.0846 31.0777 9.97112 31.4183 9.97112C31.546 9.97112 31.7304 9.97112 31.9574 9.97112ZM35.9698 10.7089C35.9698 10.2975 36.2961 9.97112 36.7076 9.97112H48.683C48.8249 9.97112 48.9243 10.0846 48.9243 10.2123V10.7799C48.9243 11.1914 48.5979 11.5319 48.1864 11.5319H43.2913C43.2203 11.5319 43.1636 11.5887 43.1636 11.6454V17.0088C43.1636 17.4203 42.8372 17.7466 42.4257 17.7466H41.9717C41.8298 17.7466 41.7305 17.6473 41.7305 17.5054V11.6454C41.7305 11.5887 41.6737 11.5319 41.6028 11.5319H36.211C36.0691 11.5319 35.9698 11.4184 35.9698 11.2765V10.7089ZM65.9822 17.023C66.0673 17.094 66.1383 17.1791 66.1525 17.2926C66.1808 17.548 65.9964 17.7608 65.7552 17.7608H65.0883C64.762 17.7608 64.4498 17.6473 64.1944 17.4487L60.9451 14.9514C60.6897 14.7528 60.3634 14.6393 60.037 14.6393H54.7588C54.6878 14.6393 54.6311 14.696 54.6311 14.767V17.0088C54.6311 17.4203 54.3047 17.7466 53.8933 17.7466H53.4392C53.2973 17.7466 53.198 17.6473 53.198 17.5054V13.944C53.198 13.5467 53.5243 13.2062 53.9358 13.2062H63.939C64.3789 13.2062 64.7336 12.8515 64.7194 12.4116C64.7052 11.9859 64.3363 11.5319 63.9106 11.5319H53.9358C53.5243 11.5319 53.198 11.1914 53.198 10.7799V10.2123C53.198 10.0846 53.2973 9.97112 53.4392 9.97112H63.8255C65.1451 9.97112 66.2092 11.1914 66.1525 12.5109C66.1099 13.7738 65.0315 14.6393 63.7687 14.6393H63.1019C63.0309 14.6393 63.0025 14.7244 63.0593 14.767L65.9822 17.023ZM70.4183 17.7466C70.2623 17.7466 70.1771 17.5764 70.2623 17.4629L75.3845 10.5529C75.654 10.184 76.1932 9.97112 76.6473 9.97112C77.1013 9.97112 77.6547 10.184 77.9243 10.5529L83.0323 17.4629C83.1316 17.5764 83.0465 17.7466 82.8904 17.7466H81.9397C81.6276 17.7466 81.3296 17.6048 81.1452 17.3494L76.7466 11.4184C76.704 11.3474 76.6047 11.3474 76.5479 11.4184L72.1636 17.3494C71.9649 17.6048 71.6812 17.7466 71.369 17.7466H70.4183Z" fill="white"/>
<path d="M86.6867 11.4903H86.3952L86.3979 10.7639L86.4057 10.6L86.2666 10.7235L85.786 11.116L85.2713 10.7498L85.1216 10.6122L85.1269 10.8044V11.4903H84.8275V10.0376L85.786 10.7862L86.6867 10.0376V11.4903Z" fill="white"/>
<path d="M83.225 10.0787H84.622V10.2811H84.0706V11.4889H83.7607V10.2811H83.225V10.0787Z" fill="white"/>
</svg>
