<svg width="153" height="19" viewBox="0 0 153 19" fill="none" xmlns="http://www.w3.org/2000/svg">
<path fill-rule="evenodd" clip-rule="evenodd" d="M92.7437 18.1088C86.5284 18.1088 82.0797 14.3072 82.0797 9.04254C82.0797 3.77791 86.5554 0 92.7944 0C99.0333 0 103.536 3.73039 103.536 9.04254C103.536 13.4043 100.185 18.1088 92.7437 18.1088ZM92.7944 3.94762C90.1089 3.94762 88.295 5.87222 88.295 9.04254C88.295 12.2129 90.163 14.185 92.7944 14.185C95.4258 14.185 97.3208 12.2366 97.3208 9.04254C97.3208 5.84846 95.5034 3.94762 92.7944 3.94762Z" fill="white"/>
<path d="M5.70865 18.5511C3.42519 18.5511 1.36805 18.0283 0.341168 17.2884C0.263476 17.2307 0.219564 17.139 0.219564 17.044L0.199296 13.0828C0.199296 12.8112 0.516819 12.6721 0.716115 12.8554C1.8038 13.8669 3.33737 14.7087 4.92498 14.7087C6.68825 14.7087 7.10711 14.0671 7.1544 13.4765C7.1544 13.4511 7.16031 13.4265 7.16622 13.4018C7.17213 13.3772 7.17804 13.3526 7.17804 13.3272C7.17804 12.835 6.88416 12.2681 5.63434 11.6266C4.48248 11.0597 3.6988 10.666 3.01309 10.3198C1.12484 9.31166 0 7.9064 0 5.51678C0 2.70966 2.37804 0.272521 7.10711 0.272521C9.57973 0.272521 10.9883 0.852954 11.8767 1.46054C11.9612 1.51825 12.0084 1.61329 12.0084 1.71512V5.32331C12.0084 5.58128 11.7146 5.72384 11.5153 5.5677C10.61 4.86507 9.29937 4.16244 7.76918 4.16244C6.0532 4.16244 5.75932 4.70554 5.68501 5.17396V5.32331C5.68501 5.71705 5.90457 6.18547 7.08346 6.85076C8.49187 7.59477 9.2944 8.05852 10.0844 8.51503L10.1472 8.55133C10.9545 9.04351 12.8191 10.2519 12.8191 13.2287C12.8191 16.2056 10.2452 18.5477 5.71203 18.5477L5.70865 18.5511Z" fill="white"/>
<path d="M26.4251 18.5366L26.4217 18.5264H15.0889C14.9099 18.5264 14.7612 18.3805 14.7612 18.1972V5.57023C14.7612 3.79838 14.4977 2.48817 13.3324 1.99599C13.204 1.94168 13.1162 1.82627 13.1162 1.6871V1.60564C13.1162 1.42573 13.2614 1.27638 13.4438 1.27638H25.03C25.1652 1.27638 25.2868 1.36124 25.3374 1.49023L26.5332 4.68431C26.6143 4.89815 26.4555 5.12897 26.2258 5.12897H20.6388C20.4597 5.12897 20.3111 5.27492 20.3111 5.45822V7.71206C20.3111 7.89196 20.4564 8.04132 20.6388 8.04132H24.5436C24.7767 8.04132 24.9355 8.27892 24.8443 8.49616L23.6755 11.3203C23.6248 11.4424 23.5066 11.5239 23.3749 11.5239H20.6422C20.4631 11.5239 20.3145 11.6699 20.3145 11.8532V14.3548C20.3145 14.5347 20.4597 14.684 20.6422 14.684H25.2293C25.3645 14.684 25.4861 14.7689 25.5367 14.8979L26.7325 18.092C26.8136 18.3058 26.6548 18.5366 26.4251 18.5366Z" fill="white"/>
<path d="M27.861 18.1972C27.861 18.3805 28.0096 18.5264 28.1886 18.5264H39.5215L39.5249 18.5366C39.7546 18.5366 39.9133 18.3058 39.8322 18.092L38.6365 14.8979C38.5858 14.7689 38.4642 14.684 38.3291 14.684H33.7419C33.5595 14.684 33.4142 14.5347 33.4142 14.3548V11.8532C33.4142 11.6699 33.5629 11.5239 33.7419 11.5239H36.4746C36.6063 11.5239 36.7246 11.4424 36.7752 11.3203L37.944 8.49616C38.0352 8.27892 37.8764 8.04132 37.6434 8.04132H33.7385C33.5561 8.04132 33.4109 7.89196 33.4109 7.71206V5.45822C33.4109 5.27492 33.5595 5.12897 33.7385 5.12897H39.3256C39.5553 5.12897 39.714 4.89815 39.633 4.68431L38.4372 1.49023C38.3865 1.36124 38.2649 1.27638 38.1298 1.27638H26.5436C26.3612 1.27638 26.2159 1.42573 26.2159 1.60564V1.6871C26.2159 1.82627 26.3037 1.94168 26.4321 1.99599C27.5975 2.48817 27.861 3.79838 27.861 5.57023V18.1972Z" fill="white"/>
<path fill-rule="evenodd" clip-rule="evenodd" d="M48.9493 18.5502L41.2916 18.5264C41.1126 18.5264 40.964 18.3805 40.964 18.1972V5.57023C40.964 3.79838 40.7005 2.48817 39.5351 1.99599C39.4068 1.94168 39.319 1.82627 39.319 1.6871V1.60564C39.319 1.42573 39.4642 1.27638 39.6466 1.27638H48.946C55.2086 1.27638 57.9582 5.62115 57.9582 9.91499C57.9582 14.2088 55.1343 18.5536 48.946 18.5536L48.9493 18.5502ZM52.1178 9.89123C52.1178 8.4113 51.699 4.90494 47.7705 4.90494V4.90154H46.8213C46.6422 4.90154 46.4936 5.0475 46.4936 5.2308V14.5211C46.4936 14.701 46.6389 14.8504 46.8213 14.8504H47.7705C51.699 14.8504 52.1178 11.3712 52.1178 9.89123Z" fill="white"/>
<path d="M84.6028 1.80945C84.7447 1.74835 84.8427 1.61597 84.8427 1.45983V1.42589C84.8427 1.22223 84.6771 1.05591 84.4745 1.05591L80.3771 1.06609H78.499L75.3913 5.50929L76.7965 10.818C76.7965 10.818 76.4891 11.076 76.2054 10.8961C76.1952 10.8927 76.1817 10.8859 76.1716 10.8757C76.0567 10.8113 75.9689 10.6992 75.9419 10.5567C75.8878 10.2851 75.8169 9.99322 75.7325 9.70131L74.9285 6.59887L74.6482 5.50929L73.5639 1.33085C73.5166 1.17471 73.3544 1.0016 73.1923 1.0016H68.8584C68.8282 1.0016 68.7708 0.998644 68.6971 0.994852C68.3758 0.978322 67.745 0.94587 67.7066 1.07288L64.2983 5.76386L65.842 12.2369C65.842 12.2369 65.4805 12.5254 65.1867 12.2437C65.1799 12.2437 65.1698 12.2335 65.163 12.2267C65.0617 12.1622 64.984 12.057 64.9536 11.928C64.9398 11.8649 64.9257 11.8009 64.9114 11.7362L64.911 11.7344C64.8624 11.5145 64.8121 11.2868 64.7678 11.059L62.5012 1.35122C62.4607 1.18489 62.3121 1.06609 62.1398 1.06609L55.5833 1.0627C55.3806 1.0627 55.2151 1.22902 55.2151 1.43268V1.46662C55.2151 1.62276 55.313 1.75514 55.4549 1.81624C55.6303 1.89014 55.7275 1.85456 55.808 1.82509C55.8237 1.81936 55.8387 1.81387 55.8535 1.80945L55.8561 1.81084L55.8574 1.81158C55.859 1.81257 55.8605 1.81355 55.862 1.81454C55.8645 1.81624 55.867 1.81794 55.8704 1.81963C55.9548 1.85697 56.0359 1.8977 56.117 1.94183C56.6845 2.26429 57.0932 2.79721 57.4344 3.49984C57.5154 3.67634 57.5965 3.85964 57.6708 4.05651C57.8262 4.45025 57.9681 4.88473 58.1066 5.35654L61.7142 17.79L61.7885 18.048C61.8358 18.2075 61.9776 18.3162 62.1432 18.3162L62.5688 17.79L70.5609 7.94982L71.5236 17.7968L71.5979 18.0548C71.6452 18.2143 71.831 18.3229 71.9965 18.3229L72.3782 17.7968H72.3714L72.3782 17.79L73.1146 16.7785L76.9789 11.5444L82.9916 3.21132C83.0929 3.04499 83.4983 2.50529 83.6131 2.36612L83.9408 1.93504C84.0872 1.75841 84.1573 1.78424 84.2515 1.81899C84.3312 1.84834 84.428 1.88406 84.6028 1.80945Z" fill="white"/>
<path fill-rule="evenodd" clip-rule="evenodd" d="M115.105 18.1332C115.163 18.2452 115.274 18.3165 115.399 18.3165H120.774C121.024 18.3165 121.182 18.045 121.057 17.8243L118.318 13.0112C117.757 12.0268 117.183 11.056 116.416 10.4654C116.22 10.3127 116.254 10.0106 116.477 9.90873C117.909 9.25702 118.784 7.7058 118.784 6.27339C118.784 3.11664 116.497 1.06646 112.937 1.06646H103.34C103.158 1.06646 103.013 1.21581 103.013 1.39571V1.47718C103.013 1.61634 103.1 1.73175 103.229 1.78606C104.394 2.27824 104.658 3.58846 104.658 5.36031V17.9873C104.658 18.1706 104.806 18.3165 104.985 18.3165H109.883C110.066 18.3165 110.211 18.1672 110.211 17.9873V11.6025H110.653C111.464 11.6025 111.907 11.6772 113.454 14.8102L115.105 18.1332ZM110.211 4.824C110.211 4.64071 110.36 4.49475 110.539 4.49475H111.143C112.447 4.49475 113.207 5.16343 113.207 6.37182C113.207 7.58021 112.444 8.27266 111.143 8.27266H110.539C110.356 8.27266 110.211 8.1233 110.211 7.9434V4.824Z" fill="white"/>
<path d="M134.356 15.0582L134.352 15.0548V17.9501C134.352 18.13 134.207 18.2794 134.025 18.2794H122.547C122.368 18.2794 122.219 18.1334 122.219 17.9501V5.32317C122.219 3.55132 121.956 2.2411 120.79 1.74892C120.662 1.69461 120.574 1.5792 120.574 1.44004V1.35857C120.574 1.17867 120.719 1.02932 120.902 1.02932H127.445C127.624 1.02932 127.772 1.17528 127.772 1.35857V14.3996C127.772 14.5795 127.918 14.7289 128.1 14.7289H134.028C134.207 14.7289 134.356 14.8749 134.356 15.0582Z" fill="white"/>
<path fill-rule="evenodd" clip-rule="evenodd" d="M135.839 18.2554L143.51 18.2792L143.513 18.2758C149.756 18.2758 152.603 13.8937 152.603 9.56587C152.603 5.23808 149.83 0.855985 143.513 0.855985H134.184C133.971 0.855985 133.802 1.0291 133.802 1.23955C133.802 1.39229 133.893 1.52806 134.032 1.58916C135.197 2.08813 135.461 3.40514 135.461 5.18717V17.8718C135.461 18.0823 135.629 18.2554 135.839 18.2554ZM141.031 4.89865C141.031 4.68481 141.203 4.51509 141.412 4.51509H142.321V4.51848C146.283 4.51848 146.706 8.052 146.706 9.54551C146.706 11.039 146.283 14.5488 142.321 14.5488H141.412C141.2 14.5488 141.031 14.3757 141.031 14.1652V4.89865Z" fill="white"/>
</svg>
