<svg width="94" height="27" viewBox="0 0 94 27" fill="none" xmlns="http://www.w3.org/2000/svg">
<path fill-rule="evenodd" clip-rule="evenodd" d="M64.5811 12.1891C64.5963 12.172 64.6114 12.1554 64.6265 12.1393L64.5811 12.1891Z" fill="white"/>
<path fill-rule="evenodd" clip-rule="evenodd" d="M64.6265 12.1393L64.5811 12.1891C64.5963 12.172 64.6114 12.1554 64.6265 12.1393Z" fill="white"/>
<path fill-rule="evenodd" clip-rule="evenodd" d="M58.3133 17.1922C58.2835 17.1922 58.254 17.1922 58.2248 17.1921C58.2304 17.1921 58.236 17.1921 58.2417 17.1921C58.2654 17.1922 58.2893 17.1922 58.3133 17.1922ZM59.3606 17.1741C59.4088 17.1721 59.4554 17.1698 59.5004 17.1675C59.5433 17.1652 59.5846 17.1629 59.6245 17.1603C59.5428 17.1656 59.4549 17.1701 59.3606 17.1741Z" fill="white"/>
<path fill-rule="evenodd" clip-rule="evenodd" d="M56.8574 17.1285L56.856 17.1283L56.8574 17.1285Z" fill="white"/>
<path fill-rule="evenodd" clip-rule="evenodd" d="M71.7415 11.6245C71.7116 11.6241 71.6816 11.6237 71.6514 11.6235L71.6548 11.6236L71.6872 11.6238C71.7054 11.624 71.7234 11.6242 71.7415 11.6245Z" fill="white"/>
<path fill-rule="evenodd" clip-rule="evenodd" d="M70.2488 11.5687C70.2465 11.5689 70.2442 11.5691 70.2419 11.5694C70.2432 11.5692 70.2445 11.5691 70.2458 11.569C70.2468 11.5689 70.2478 11.5688 70.2488 11.5687ZM68.9309 14.2276C68.9315 14.204 68.9321 14.1807 68.9329 14.1576C68.9324 14.172 68.932 14.1866 68.9316 14.2013C68.9314 14.21 68.9311 14.2188 68.9309 14.2276ZM71.687 11.6243C71.6865 11.6243 71.6859 11.6243 71.6853 11.6243C71.6751 11.6242 71.6643 11.6241 71.654 11.6241L71.6508 11.624C71.6799 11.6242 71.7089 11.6245 71.7377 11.625C71.7209 11.6247 71.704 11.6245 71.687 11.6243Z" fill="white"/>
<path d="M41.0947 11.5167C41.7931 11.5167 42.3863 11.5526 42.8733 11.6254C43.3378 11.6941 43.7257 11.8284 44.032 12.0326L44.0923 12.0744L44.1219 12.0964C44.4258 12.3266 44.6444 12.6588 44.7817 13.0851L44.8073 13.1687C44.9309 13.5952 44.991 14.142 44.991 14.8055C44.991 15.5348 44.9227 16.1255 44.7819 16.5739C44.6405 17.024 44.4124 17.3711 44.0929 17.606C43.7775 17.8342 43.3683 17.9808 42.8727 18.0504C42.3858 18.1231 41.7927 18.159 41.0947 18.159C40.927 18.159 40.7656 18.1559 40.6104 18.1495L40.4574 18.1421C40.0576 18.1194 39.7013 18.0741 39.3894 18.0061C39.0131 17.9229 38.6966 17.7572 38.4435 17.5086V20.5273L38.2474 20.762L37.1984 22.0181V11.635H38.4435V12.1636C38.6967 11.9171 39.0129 11.7525 39.3892 11.6696C39.8578 11.5672 40.427 11.5167 41.0947 11.5167ZM41.0947 12.5899C40.5132 12.5899 40.0459 12.6167 39.6912 12.6694C39.3401 12.7214 39.083 12.8224 38.9097 12.9637L38.9086 12.9645C38.7386 13.0999 38.6161 13.3073 38.5483 13.5987C38.4794 13.8957 38.4435 14.2969 38.4435 14.8055C38.4435 15.2784 38.4724 15.6622 38.5284 15.9591L38.5382 16.0087L38.5484 16.0562C38.6164 16.3586 38.7394 16.575 38.9097 16.7172L38.9431 16.7432C39.1154 16.8709 39.3619 16.9628 39.6912 17.0117C40.0463 17.0608 40.5135 17.0858 41.0947 17.0858C41.7343 17.0858 42.234 17.0607 42.5963 17.0115C42.9586 16.9591 43.2082 16.8582 43.3614 16.7209C43.5136 16.581 43.6189 16.3663 43.6665 16.0631C43.7188 15.7522 43.7458 15.3333 43.7458 14.8055C43.7458 14.2959 43.719 13.8924 43.6669 13.5928L43.6666 13.5917C43.6498 13.4881 43.6257 13.3952 43.595 13.3128C43.539 13.1632 43.461 13.0474 43.3628 12.9612L43.3619 12.9603C43.2087 12.8228 42.9586 12.7216 42.5955 12.6694C42.2338 12.6167 41.7342 12.5899 41.0947 12.5899Z" fill="white"/>
<path d="M47.6562 11.9522C47.5055 12.0455 47.3697 12.1535 47.249 12.2761V9.57098H46.0038V18.041H47.249V14.2038C47.249 13.8129 47.3307 13.5071 47.4839 13.2788C47.6338 13.0524 47.8965 12.8773 48.2902 12.7633C48.6848 12.6491 49.236 12.5902 49.9486 12.5902C50.4151 12.5902 50.7963 12.6134 51.0935 12.6588L51.0948 12.6589C51.3883 12.7004 51.6079 12.7843 51.7605 12.9019C51.9136 13.0175 52.0261 13.1908 52.0929 13.4313C52.1609 13.6763 52.1965 14.0061 52.1965 14.4242V18.041H53.4471V14.4242C53.4471 13.6754 53.348 13.0833 53.1407 12.6574C52.9298 12.224 52.5725 11.9248 52.0789 11.759C51.5973 11.596 50.9462 11.517 50.1313 11.517C49.5085 11.517 48.9998 11.5529 48.6074 11.6261L48.5355 11.6396C48.1802 11.7092 47.8853 11.8126 47.6562 11.9522Z" fill="white"/>
<path d="M64.386 12.2559C64.4391 12.187 64.4922 12.1238 64.5459 12.0668L64.5721 12.0407C64.6987 11.9179 64.8564 11.8216 65.0422 11.7501C65.2447 11.6737 65.5119 11.6222 65.8386 11.5931C66.1661 11.5603 66.5947 11.5441 67.1232 11.5441H67.2297V12.6227H67.1232C66.4152 12.6227 65.8704 12.6477 65.4865 12.6971C65.1042 12.7466 64.8484 12.8299 64.7021 12.9357L64.7009 12.9366C64.5568 13.0377 64.4697 13.177 64.4384 13.3617C64.4039 13.565 64.386 13.8274 64.386 14.1503V18.0413H63.1409V11.6354H64.386V12.2559ZM64.3333 13.3439L64.3207 13.4259C64.3246 13.3976 64.3288 13.3703 64.3333 13.3439ZM64.5806 12.1869C64.5949 12.1708 64.6092 12.155 64.6236 12.1398L64.5806 12.1869ZM67.1232 12.5161L66.8707 12.5172C66.9525 12.5165 67.0366 12.5161 67.1232 12.5161ZM64.6098 12.8714C64.6195 12.8639 64.6295 12.8565 64.6397 12.8494L64.6098 12.8714Z" fill="white"/>
<path fill-rule="evenodd" clip-rule="evenodd" d="M71.5326 11.5167C71.6039 11.5167 71.6742 11.517 71.7438 11.518L71.8222 11.5193C72.4908 11.5314 73.0584 11.5868 73.5225 11.687C74.0582 11.8025 74.4697 12.0252 74.7436 12.3632L74.7693 12.3956C75.0313 12.7348 75.1547 13.2124 75.1547 13.8131V15.2584H68.9312C68.9317 15.2878 68.9324 15.3169 68.9332 15.3456L68.9371 15.4608C68.9387 15.4984 68.9404 15.5352 68.9424 15.5712L68.9487 15.6699C68.9555 15.7666 68.9641 15.8571 68.9745 15.9415L68.9852 16.0223C68.9965 16.1011 69.0095 16.1738 69.0241 16.2406C69.0363 16.2963 69.051 16.3485 69.0681 16.3974L69.086 16.445C69.1482 16.6003 69.2369 16.72 69.3506 16.8076C69.4429 16.8788 69.5649 16.9393 69.7198 16.9864C69.8347 17.0215 69.9668 17.0489 70.1163 17.0681C70.1313 17.0699 70.1465 17.0716 70.1619 17.0733C70.1722 17.0744 70.1827 17.0755 70.1932 17.0766L70.2749 17.0847C70.3609 17.0929 70.4531 17.0999 70.5511 17.1059C70.6573 17.1126 70.7708 17.1178 70.8911 17.1219H71.5192C72.5585 17.1214 74.4477 17.1206 74.5175 17.1219C74.5744 17.123 74.6858 17.1119 74.79 17.0991C74.8208 17.0953 74.8501 17.0915 74.8761 17.088C74.8927 17.0858 74.9079 17.0837 74.9212 17.0819L74.9487 17.078L74.9614 17.0761C74.9638 17.0758 74.9659 17.0755 74.9678 17.0752L74.9724 17.0745L74.9752 17.074L75.2534 17.0323L74.2674 18.2128H71.5592L71.4627 18.2126L71.3561 18.2117L71.3268 18.2115L71.142 18.2081C70.6245 18.1963 70.1703 18.1615 69.7812 18.1032C69.289 18.0328 68.8823 17.8856 68.5669 17.6555L68.5658 17.6547C68.25 17.4178 68.0242 17.068 67.883 16.6147C67.7461 16.1633 67.6792 15.5673 67.6792 14.8323C67.6792 14.1188 67.744 13.5398 67.8773 13.0991C68.0151 12.6561 68.2398 12.3125 68.5557 12.0794L68.5784 12.0631L68.5794 12.0623L68.5968 12.05C68.6352 12.0232 68.6756 11.9972 68.7165 11.9728L68.7579 11.9486C68.7875 11.9319 68.8177 11.9157 68.8485 11.9001L68.8498 11.8994L68.8787 11.8853C68.8887 11.8803 68.8988 11.8755 68.9089 11.8708C68.9145 11.8681 68.9202 11.8655 68.9259 11.8629L68.9741 11.8414C69.2041 11.7421 69.4659 11.6707 69.7587 11.6262C69.8729 11.609 69.9929 11.594 70.1184 11.5811C70.1604 11.5766 70.2031 11.5724 70.2463 11.5685C70.2776 11.5657 70.3093 11.563 70.3413 11.5605C70.4083 11.5549 70.4768 11.5499 70.5467 11.5454C70.6406 11.5393 70.737 11.5343 70.8361 11.5304C71.0553 11.5212 71.2875 11.5167 71.5326 11.5167ZM71.0966 12.6016L71.286 12.5984C71.3658 12.5976 71.4481 12.5971 71.5326 12.5971C71.6881 12.5971 71.8347 12.5987 71.9725 12.6018L72.176 12.6077C72.2096 12.609 72.2426 12.6104 72.2749 12.6119C72.3011 12.6132 72.3269 12.6145 72.3523 12.6159C72.4367 12.6203 72.5164 12.6251 72.5916 12.6311C72.6835 12.6383 72.7692 12.6466 72.8479 12.656C72.987 12.6723 73.1104 12.6941 73.2185 12.7205C73.3658 12.7568 73.4821 12.8018 73.5698 12.8533L73.5711 12.8541C73.6393 12.8928 73.6958 12.9373 73.7415 12.987C73.7978 13.0485 73.8395 13.1196 73.8666 13.2016L73.8674 13.2041C73.9 13.2947 73.9238 13.4022 73.9379 13.5275C73.9477 13.6146 73.9525 13.7096 73.9525 13.8131V14.2271H69.5088L68.9298 14.9202V14.3345C68.9301 14.3064 68.9305 14.2786 68.931 14.2511C68.9316 14.2193 68.9324 14.1879 68.9335 14.1571C68.9354 14.1028 68.9379 14.0502 68.941 13.9996C68.9561 13.7568 68.9854 13.5545 69.028 13.3917C69.0904 13.167 69.204 13.0058 69.3658 12.8993L69.3669 12.8985C69.4404 12.8487 69.5309 12.8044 69.6399 12.7671C69.7049 12.745 69.776 12.7253 69.8534 12.708C69.9387 12.6893 70.0313 12.6735 70.1315 12.6613C70.3908 12.63 70.7123 12.6099 71.0966 12.6016ZM71.6513 11.6236C71.6805 11.6238 71.7095 11.6241 71.7383 11.6245C71.7209 11.6242 71.7034 11.624 71.6859 11.6239L71.6546 11.6236L71.6513 11.6236Z" fill="white"/>
<path fill-rule="evenodd" clip-rule="evenodd" d="M58.3604 11.5167C58.4316 11.5167 58.502 11.517 58.5716 11.518L58.6499 11.5193C59.3185 11.5314 59.8861 11.5868 60.3503 11.687C60.8859 11.8025 61.2974 12.0252 61.5713 12.3632L61.597 12.3956C61.8591 12.7348 61.9825 13.2124 61.9825 13.8131V15.2584H55.7589C55.7594 15.2878 55.7601 15.3169 55.7609 15.3456L55.7648 15.4608C55.7664 15.4984 55.7682 15.5352 55.7701 15.5712L55.7764 15.6699C55.7832 15.7666 55.7919 15.8571 55.8022 15.9415L55.8129 16.0223C55.8242 16.1011 55.8372 16.1738 55.8518 16.2406C55.864 16.2963 55.8787 16.3485 55.8958 16.3974L55.9137 16.445C55.9759 16.6003 56.0646 16.72 56.1783 16.8076C56.2706 16.8788 56.3926 16.9393 56.5475 16.9864C56.6625 17.0215 56.7945 17.0489 56.944 17.0681C56.9591 17.0699 56.9742 17.0716 56.9896 17.0733C57 17.0744 57.0104 17.0755 57.0209 17.0766L57.1026 17.0847C57.1886 17.0929 57.2808 17.0999 57.3788 17.1059C57.485 17.1126 57.5985 17.1178 57.7188 17.1219H58.3469C59.3862 17.1214 61.2754 17.1206 61.3452 17.1219C61.4021 17.123 61.5135 17.1119 61.6177 17.0991C61.6485 17.0953 61.6779 17.0915 61.7038 17.088C61.7204 17.0858 61.7356 17.0837 61.7489 17.0819L61.7765 17.078L61.7892 17.0761C61.7916 17.0758 61.7937 17.0755 61.7955 17.0752L61.8001 17.0745L61.8029 17.074L62.0811 17.0323L61.0951 18.2128H58.3869L58.2904 18.2126L58.1838 18.2117L58.1546 18.2115L57.9697 18.2081C57.4522 18.1963 56.9981 18.1615 56.6089 18.1032C56.1167 18.0328 55.71 17.8856 55.3947 17.6555L55.3935 17.6547C55.0778 17.4178 54.8519 17.068 54.7107 16.6147C54.5738 16.1633 54.507 15.5673 54.507 14.8323C54.507 14.1188 54.5718 13.5398 54.7051 13.0991C54.8428 12.6561 55.0676 12.3125 55.3834 12.0794L55.4061 12.0631L55.4071 12.0623L55.4245 12.05C55.4629 12.0232 55.5033 11.9972 55.5443 11.9728L55.5857 11.9486C55.6152 11.9319 55.6454 11.9157 55.6762 11.9001L55.6775 11.8994L55.7065 11.8853C55.7165 11.8803 55.7265 11.8755 55.7366 11.8708C55.7423 11.8681 55.7479 11.8655 55.7536 11.8629L55.8019 11.8414C56.0318 11.7421 56.2937 11.6707 56.5865 11.6262C56.7006 11.609 56.8207 11.594 56.9461 11.5811C56.9881 11.5766 57.0308 11.5724 57.0741 11.5685C57.1054 11.5657 57.137 11.563 57.169 11.5605C57.236 11.5549 57.3045 11.5499 57.3745 11.5454C57.4683 11.5393 57.5647 11.5343 57.6638 11.5304C57.8831 11.5212 58.1153 11.5167 58.3604 11.5167ZM57.9243 12.6016L58.1137 12.5984C58.1936 12.5976 58.2758 12.5971 58.3604 12.5971C58.5158 12.5971 58.6625 12.5987 58.8003 12.6018L59.0038 12.6077C59.0374 12.609 59.0703 12.6104 59.1026 12.6119C59.1289 12.6132 59.1547 12.6145 59.18 12.6159C59.2644 12.6203 59.3441 12.6251 59.4193 12.6311C59.5113 12.6383 59.597 12.6466 59.6757 12.656C59.8147 12.6723 59.9382 12.6941 60.0463 12.7205C60.1936 12.7568 60.3099 12.8018 60.3975 12.8533L60.3989 12.8541C60.467 12.8928 60.5235 12.9373 60.5693 12.987C60.6256 13.0485 60.6672 13.1196 60.6943 13.2016L60.6952 13.2041C60.7277 13.2947 60.7516 13.4022 60.7656 13.5275C60.7754 13.6146 60.7803 13.7096 60.7803 13.8131V14.2271H56.3365L55.7576 14.9202V14.3345C55.7578 14.3064 55.7582 14.2786 55.7587 14.2511C55.7593 14.2193 55.7602 14.1879 55.7612 14.1571C55.7631 14.1028 55.7656 14.0502 55.7687 13.9996C55.7838 13.7568 55.8131 13.5545 55.8558 13.3917C55.9181 13.167 56.0318 13.0058 56.1935 12.8993L56.1946 12.8985C56.2681 12.8487 56.3586 12.8044 56.4676 12.7671C56.5326 12.745 56.6038 12.7253 56.6811 12.708C56.7664 12.6893 56.8591 12.6735 56.9592 12.6613C57.2186 12.63 57.54 12.6099 57.9243 12.6016ZM58.479 11.6236C58.5082 11.6238 58.5372 11.6241 58.566 11.6245C58.5486 11.6242 58.5312 11.624 58.5136 11.6239L58.4823 11.6236L58.479 11.6236Z" fill="white"/>
<path d="M93.3379 18.201H91.7731V9.41132H93.3379V18.201Z" fill="white"/>
<path d="M91.1271 18.2008H89.301L88.2689 16.3086H82.0484L81.0163 18.2008H79.1904L84.3176 9.41119H85.9997L91.1271 18.2008ZM87.7275 15.0756L85.1587 10.5803L82.5899 15.0756H87.7275Z" fill="white"/>
<path fill-rule="evenodd" clip-rule="evenodd" d="M13.9555 6.14105C13.9526 6.11853 13.9498 6.09702 13.9472 6.07666C13.9446 6.09702 13.9418 6.11853 13.9388 6.14105C13.9156 6.31573 13.8808 6.55228 13.8341 6.79964C13.7874 7.04691 13.7287 7.30546 13.6579 7.5239C13.6225 7.6331 13.584 7.73266 13.5421 7.81599C13.5005 7.89897 13.4549 7.96735 13.4046 8.01294C13.2427 8.15999 13.0125 8.27295 12.7603 8.35984C12.5078 8.44681 12.2317 8.5082 11.9761 8.5514C11.7356 8.59207 11.5127 8.61672 11.3442 8.63144C11.5127 8.64617 11.7356 8.67082 11.9761 8.71149C12.2317 8.75469 12.5078 8.81608 12.7603 8.90305C13.0125 8.98993 13.2427 9.1029 13.4046 9.24995C13.4549 9.29555 13.5005 9.36392 13.5421 9.4469C13.584 9.53023 13.6225 9.62979 13.6579 9.73899C13.7287 9.95743 13.7874 10.216 13.8341 10.4633C13.8808 10.7106 13.9156 10.9472 13.9388 11.1218C13.9418 11.1444 13.9446 11.1659 13.9472 11.1862L13.9512 11.1544L13.9555 11.1218C13.9787 10.9472 14.0135 10.7106 14.0603 10.4633C14.1069 10.216 14.1656 9.95743 14.2364 9.73899C14.2718 9.62979 14.3104 9.53023 14.3522 9.4469C14.3938 9.36392 14.4395 9.29555 14.4897 9.24995C14.6517 9.1029 14.8818 8.98993 15.1341 8.90305C15.3865 8.81608 15.6627 8.75469 15.9182 8.71149C16.1588 8.67082 16.3816 8.64617 16.5501 8.63144C16.3816 8.61672 16.1588 8.59207 15.9182 8.5514C15.6627 8.5082 15.3865 8.44681 15.1341 8.35984C14.8818 8.27295 14.6517 8.15999 14.4897 8.01294C14.4395 7.96735 14.3938 7.89897 14.3522 7.81599C14.3104 7.73266 14.2718 7.6331 14.2364 7.5239C14.1656 7.30546 14.1069 7.04691 14.0603 6.79964C14.0135 6.55228 13.9787 6.31573 13.9555 6.14105Z" fill="white"/>
<path d="M5.74268 16.429L9.43668 9.40265L9.45135 9.37445L9.48121 9.31723H11.4684L6.69165 18.2109L6.64628 18.2951H4.8396L0 9.31723H2.00405L5.74268 16.429Z" fill="white"/>
<path fill-rule="evenodd" clip-rule="evenodd" d="M13.1326 18.2415H14.7789V11.7786H13.1326V18.2415Z" fill="white"/>
<path fill-rule="evenodd" clip-rule="evenodd" d="M37.53 9.19841L29.5772 9.19831C29.5469 9.19831 29.5169 9.19851 29.4871 9.19862H29.4341C29.4263 9.19862 29.4184 9.19874 29.4106 9.19885C29.4056 9.19892 29.4005 9.199 29.3955 9.19904C29.3884 9.19909 29.3813 9.19917 29.3742 9.19925L29.3683 9.19932C29.3613 9.19941 29.3542 9.19949 29.3472 9.19956C29.3437 9.19961 29.3402 9.19963 29.3366 9.19966L29.3328 9.19969L29.3257 9.19977C29.2817 9.2002 29.2381 9.20058 29.1949 9.20122H29.1923L29.1898 9.20143L29.1876 9.20164L29.1528 9.20195L29.0942 9.20299C28.9889 9.20509 28.8864 9.20812 28.7871 9.21152C28.6828 9.2152 28.5814 9.21968 28.4829 9.22494C28.3843 9.2302 28.2887 9.2363 28.1963 9.24315C28.0887 9.2508 27.9848 9.25976 27.8861 9.26979L27.8257 9.27613L27.8203 9.27665L27.7802 9.28144C27.7478 9.28517 27.716 9.28871 27.685 9.29257C27.6642 9.2951 27.6436 9.29771 27.6233 9.30038C27.6032 9.30303 27.5834 9.30574 27.5638 9.30849L27.4609 9.32316C27.2237 9.35908 27.0068 9.40697 26.8116 9.46809C26.7343 9.49238 26.66 9.51893 26.5892 9.54758L26.5195 9.57692C26.4823 9.59323 26.4464 9.61042 26.4134 9.62665L26.4124 9.62717C26.3593 9.65403 26.3084 9.68237 26.2595 9.71248C26.1334 9.79094 26.0206 9.88213 25.9222 9.98528C25.9101 9.998 25.8982 10.0109 25.8864 10.0241L25.8515 10.0644C25.8213 10.1006 25.7925 10.1382 25.7656 10.1767C25.7216 10.2398 25.6817 10.3065 25.6465 10.3759C25.613 10.4423 25.5833 10.5117 25.5577 10.5839L25.557 10.586L25.5564 10.5875L25.556 10.589C25.4374 10.9364 25.3836 11.3602 25.3836 11.8492C25.3836 12.023 25.3897 12.1884 25.4017 12.3423L25.408 12.4152L25.4081 12.4166L25.415 12.4855C25.4213 12.5447 25.4286 12.6024 25.4369 12.6582C25.4383 12.6675 25.4397 12.6767 25.4412 12.686C25.4431 12.6978 25.445 12.7095 25.4469 12.7213C25.4508 12.7449 25.455 12.7683 25.4593 12.7914L25.4597 12.7933C25.46 12.7947 25.4603 12.7963 25.4606 12.7979C25.4609 12.7999 25.4613 12.8019 25.4616 12.8036C25.4626 12.8084 25.4635 12.8133 25.4645 12.8185C25.465 12.8211 25.4656 12.8238 25.4663 12.8265C25.4669 12.8292 25.4676 12.832 25.4681 12.8348L25.4714 12.8511L25.4717 12.8527L25.4733 12.8607L25.4753 12.8704C25.4768 12.8781 25.4784 12.8859 25.4801 12.8935L25.4825 12.9038L25.4884 12.9302L25.4887 12.9314L25.4926 12.9475L25.5048 12.996L25.5052 12.9976L25.5065 13.0026L25.5071 13.0048L25.5078 13.007L25.5084 13.009C25.5521 13.167 25.6159 13.3144 25.701 13.4488C25.7268 13.4895 25.7546 13.5289 25.784 13.5667L25.7852 13.5682L25.8136 13.6034C25.8501 13.6478 25.8897 13.6907 25.9318 13.7312C25.9786 13.776 26.0285 13.8186 26.0841 13.8602L26.0851 13.8609L26.0944 13.8677L26.0983 13.8706L26.1009 13.8722L26.1076 13.8772L26.1107 13.8795L26.1139 13.8815L26.1206 13.8857L26.1296 13.892L26.1319 13.8936L26.1355 13.8961L26.1393 13.8984L26.1599 13.9119L26.1793 13.9244L26.1811 13.9257L26.2109 13.9441L26.2126 13.9451L26.2136 13.9457L26.2145 13.9463L26.2362 13.9589L26.2411 13.9624L26.2501 13.9671L26.258 13.9714L26.2853 13.9863L26.287 13.9872L26.2911 13.9895L26.2951 13.9912L26.3329 14.0107L26.3601 14.0243L26.3626 14.0256L26.3635 14.0262L26.3664 14.0277L26.3689 14.029L26.3713 14.0301L26.3892 14.0383L26.4132 14.0496L26.4144 14.0501L26.4157 14.0507L26.4359 14.0595C26.4668 14.0732 26.4977 14.0859 26.5281 14.0976C26.557 14.1091 26.5866 14.1202 26.617 14.131L26.6181 14.1314L26.6643 14.1474L26.6665 14.1481L26.6688 14.1487L26.6722 14.1498L26.6818 14.1528L26.6932 14.1565L26.7028 14.1597L26.7052 14.1605L26.7077 14.1611L26.7108 14.162L26.7251 14.1665C26.7411 14.1716 26.7588 14.1771 26.7767 14.1822C26.8047 14.1904 26.8335 14.1986 26.8629 14.2061C26.9032 14.217 26.9449 14.2272 26.9849 14.2366C27.0325 14.2476 27.0818 14.2581 27.1322 14.2677L27.2297 14.2863L27.2308 14.2865L27.3092 14.2996C27.3533 14.3068 27.3983 14.3134 27.4432 14.3198C27.6351 14.3465 27.8467 14.3685 28.0775 14.3851L28.1894 14.3927C28.454 14.4096 28.7433 14.4201 29.0569 14.4247L32.0451 14.4678C32.1599 14.4699 32.27 14.4721 32.3756 14.4747C32.4942 14.4775 32.6075 14.4806 32.7146 14.4843C32.865 14.4889 33.0041 14.4944 33.1314 14.5009C33.2846 14.5084 33.4224 14.5168 33.5449 14.5264C33.7662 14.5415 33.9397 14.5679 34.0702 14.6024C34.1458 14.6226 34.2042 14.6454 34.2465 14.6668C34.2516 14.6694 34.2566 14.672 34.2614 14.6747C34.2668 14.6776 34.272 14.6805 34.277 14.6835L34.3045 14.7009L34.3062 14.702C34.3069 14.7025 34.3076 14.703 34.3083 14.7035C34.3138 14.7075 34.3189 14.7114 34.323 14.7147C34.3274 14.7182 34.332 14.7221 34.337 14.7266L34.3482 14.7372C34.3564 14.7456 34.3634 14.7535 34.3691 14.7608C34.3747 14.7679 34.38 14.7755 34.3851 14.7835L34.4016 14.8126C34.4048 14.8191 34.4079 14.8259 34.4108 14.8331L34.4201 14.8585L34.4262 14.8792C34.4349 14.9114 34.4431 14.9478 34.4505 14.9888L34.4577 15.0326L34.4664 15.0962C34.4815 15.2204 34.4898 15.3703 34.4898 15.5477C34.4898 15.6072 34.4891 15.6643 34.4876 15.7192C34.4868 15.7456 34.4859 15.7714 34.4848 15.7965C34.4844 15.8077 34.4839 15.8188 34.4834 15.8297L34.4798 15.8915L34.4792 15.9012L34.4786 15.9105L34.4761 15.9449L34.4695 16.0189C34.4695 16.0192 34.4694 16.0196 34.4692 16.0214C34.4691 16.0227 34.4688 16.0254 34.4686 16.0282L34.4654 16.06C34.4609 16.1017 34.4556 16.1412 34.4497 16.1784L34.4426 16.2221C34.4363 16.2587 34.4291 16.2934 34.4213 16.3266L34.4181 16.3399L34.4173 16.3433L34.417 16.3447C34.3839 16.489 34.314 16.5881 34.2046 16.6608C34.1876 16.6716 34.1678 16.6829 34.1448 16.6942L34.1248 16.7039C34.1057 16.7124 34.0878 16.7201 34.07 16.7271L34.0351 16.7401L33.9872 16.7561C33.9818 16.7578 33.9761 16.7596 33.9699 16.7614C33.9626 16.7636 33.9544 16.7659 33.9449 16.7685L33.9438 16.7688L33.9234 16.7746C33.8994 16.7809 33.8746 16.7872 33.8495 16.793C33.8097 16.8022 33.7673 16.8113 33.7257 16.8186C33.6951 16.8243 33.6629 16.8296 33.6294 16.8343L33.6026 16.8382C33.5954 16.8392 33.5881 16.8402 33.5808 16.8411C33.5704 16.8425 33.5599 16.8438 33.5493 16.8451C33.5371 16.8466 33.5247 16.848 33.5122 16.8494L33.451 16.8555L33.3308 16.8664L33.2207 16.8745L33.0881 16.8823L32.9806 16.8879L32.7681 16.8962L32.5961 16.9009L32.3437 16.9051C32.2414 16.9064 32.1345 16.907 32.0232 16.907H29.5611C29.4132 16.907 29.2721 16.9062 29.1377 16.9049C29.0214 16.9036 28.9102 16.9017 28.8044 16.8994C28.7205 16.8976 28.64 16.8955 28.5627 16.8931L28.4298 16.8884L28.3157 16.8832L28.2442 16.8797L28.2415 16.8795H28.2379L28.199 16.8775L28.1632 16.8755L28.1242 16.8727L28.1204 16.8725H25.333L24.0457 18.4137H32.0769C32.1292 18.4137 32.1809 18.4135 32.2319 18.4132C32.2865 18.4128 32.3404 18.4123 32.3935 18.4116C32.4851 18.4103 32.5747 18.4082 32.6619 18.4056L32.8274 18.3999C32.8569 18.3987 32.8861 18.3975 32.9151 18.3961C32.9264 18.3956 32.9377 18.3951 32.9489 18.3946C32.962 18.394 32.9751 18.3933 32.9881 18.3927C33.1255 18.3856 33.2572 18.3768 33.383 18.3663C33.4637 18.3597 33.5425 18.3523 33.6186 18.3441C33.668 18.3386 33.717 18.333 33.7653 18.3269C33.8757 18.3129 33.9811 18.2973 34.0809 18.28L34.1773 18.2623C34.6537 18.1701 35.0513 18.021 35.3472 17.7984L35.3481 17.7976L35.3492 17.7968L35.404 17.7534L35.4055 17.7523C35.578 17.6111 35.7174 17.4439 35.8229 17.2527C35.8918 17.1276 35.9458 16.9928 35.9852 16.8491C36.0882 16.484 36.1362 16.0478 36.1362 15.5477C36.1362 15.3411 36.1282 15.1474 36.1122 14.9688L36.1051 14.894L36.0956 14.8113C36.0922 14.784 36.0886 14.7571 36.0848 14.7306C36.0793 14.6924 36.0734 14.6549 36.067 14.6179C36.0557 14.5528 36.0428 14.4898 36.0285 14.4289L36.0282 14.4276L36.0137 14.3698C35.9781 14.2249 35.926 14.0889 35.8564 13.9633L35.8549 13.9608L35.8185 13.8991L35.8178 13.898L35.8171 13.8969L35.7801 13.8406C35.7038 13.7302 35.6133 13.6316 35.5093 13.545L35.4562 13.5027C35.422 13.4764 35.3863 13.4512 35.3492 13.4273L35.3479 13.4266L35.3225 13.4106L35.2748 13.3824L35.2733 13.3816L35.211 13.348L35.2099 13.3473L35.2086 13.3467L35.1856 13.335L35.1574 13.321L35.1562 13.3203L35.1548 13.3197L35.121 13.304L35.0833 13.2873C35.0706 13.2818 35.058 13.2766 35.0454 13.2714L35.0443 13.271L34.9891 13.2492L34.9879 13.2487L34.9124 13.2212C34.7336 13.1591 34.5331 13.1103 34.3126 13.0734C34.248 13.062 34.1798 13.0511 34.109 13.0412L34.0987 13.0397L34.0967 13.0396C33.9137 13.014 33.7124 12.993 33.4929 12.9765L33.3758 12.9684C33.0989 12.9503 32.7944 12.939 32.4628 12.9344L29.0704 12.8888C28.9871 12.8872 28.9069 12.8854 28.8294 12.8834L28.8105 12.8828C28.4384 12.873 28.1344 12.8567 27.897 12.8344L27.7883 12.8217L27.7807 12.8206L27.7676 12.8188L27.7356 12.8141L27.7213 12.8119C27.6092 12.7949 27.5155 12.775 27.4386 12.7532C27.3587 12.7305 27.2984 12.7065 27.2543 12.6829C27.1645 12.63 27.1142 12.5625 27.0894 12.4691L27.081 12.4349L27.0736 12.4008L27.0621 12.3373L27.0517 12.2625L27.047 12.2218L27.0445 12.1955L27.0393 12.1312L27.0351 12.0643L27.0321 11.9908L27.0305 11.9261L27.0299 11.8498L27.0302 11.8025V11.7925L27.0304 11.782L27.0317 11.7148L27.0344 11.6472L27.0377 11.583L27.0422 11.5214C27.0453 11.4832 27.049 11.4473 27.0532 11.4135L27.0576 11.3791L27.0618 11.3507L27.069 11.3069L27.0723 11.2898L27.0726 11.2883L27.0743 11.2785L27.0761 11.2692C27.0799 11.2505 27.0843 11.2311 27.0884 11.2143L27.0958 11.1859L27.1112 11.1341L27.1174 11.1176L27.1259 11.0963L27.1336 11.0805L27.143 11.0632L27.1506 11.0504C27.1556 11.0422 27.1608 11.0344 27.1661 11.0269L27.1825 11.0058L27.1896 10.9977L27.2009 10.985L27.2112 10.9746L27.2225 10.9644C27.2239 10.9631 27.2254 10.9618 27.227 10.9604C27.2307 10.9571 27.2348 10.9537 27.2392 10.9502C27.2429 10.9472 27.2469 10.9441 27.2511 10.9409L27.2602 10.9346L27.2708 10.9277C27.2922 10.9134 27.3167 10.8996 27.3445 10.887C27.4911 10.8203 27.7372 10.7664 28.1075 10.7421L28.2341 10.7345C28.299 10.7306 28.3676 10.7274 28.4401 10.7245L28.5445 10.7206L28.6149 10.7183L28.7318 10.7149L28.9415 10.7107H36.274L37.1148 9.70426L37.53 9.19841ZM29.4298 9.30529L29.4225 9.30527L29.4148 9.30539L29.4071 9.30545L29.3972 9.30551L29.3858 9.3056L29.3676 9.30576L29.3503 9.30596L29.3468 9.30599C29.3436 9.30604 29.3404 9.30607 29.3372 9.3061L29.342 9.30604L29.344 9.306C29.3567 9.30581 29.3696 9.30562 29.3825 9.30547C29.3997 9.30526 29.417 9.30511 29.4341 9.30511L29.4635 9.30511L29.4298 9.30529ZM25.564 12.7714C25.5592 12.7455 25.5546 12.7194 25.5503 12.6928L25.5423 12.6424C25.5495 12.6902 25.5573 12.7369 25.5661 12.7826L25.5654 12.7791L25.5647 12.7751L25.564 12.7714ZM29.4799 9.30504L29.4861 9.30511L29.4769 9.30516L29.4799 9.30504ZM34.5861 15.8987L34.5854 15.9104L34.5848 15.9199L34.5852 15.9125L34.5856 15.9059L34.5861 15.8987ZM33.5084 13.0845C33.5334 13.0865 33.5583 13.0885 33.5828 13.0906C33.6109 13.093 33.6386 13.0954 33.666 13.0979C33.6369 13.0952 33.6075 13.0926 33.5777 13.0901C33.5548 13.0882 33.5317 13.0863 33.5084 13.0845ZM29.1947 9.30784C29.1813 9.30805 29.168 9.30827 29.1547 9.30851C29.1669 9.30829 29.1792 9.30824 29.1915 9.30804C29.1919 9.30803 29.1924 9.308 29.1928 9.30796L29.1947 9.30784C29.195 9.30782 29.1944 9.30784 29.1947 9.30784ZM33.7225 13.1032L33.7402 13.1048L33.7525 13.1061C33.7426 13.1051 33.7326 13.1041 33.7225 13.1032Z" fill="white"/>
<path fill-rule="evenodd" clip-rule="evenodd" d="M20.1653 16.9182C21.202 16.9177 23.094 16.9169 23.1673 16.9182C23.1972 16.9188 23.2596 16.9139 23.334 16.9058L23.4117 16.8968L23.4853 16.8872L23.5403 16.8799L23.5786 16.8746L23.5862 16.8735L23.5875 16.8733L23.5896 16.8728L24.3921 16.7527L23.0073 18.4103H20.2048L20.1084 18.4101L19.9713 18.409L19.7845 18.4056L19.7811 18.4055L19.7776 18.4054C19.7752 18.4053 19.7727 18.4052 19.7704 18.4052L19.6493 18.4021C19.6456 18.4019 19.6419 18.4018 19.6383 18.4017L19.6192 18.401L19.6156 18.4009C19.6015 18.4004 19.5875 18.4 19.5735 18.3995C19.3405 18.3911 19.1203 18.3776 18.9133 18.3592L18.8986 18.3578L18.8868 18.3568L18.8836 18.3565C18.8771 18.356 18.8706 18.3554 18.8641 18.3548C18.7004 18.3395 18.5451 18.3207 18.3984 18.2986C17.884 18.2251 17.4437 18.069 17.0949 17.8147L17.0938 17.8138C16.7357 17.5451 16.4884 17.1548 16.3377 16.6711L16.3371 16.669C16.3361 16.6656 16.335 16.6622 16.334 16.6588C16.3324 16.6531 16.3307 16.6475 16.3291 16.6418L16.3264 16.6325C16.3236 16.6229 16.3208 16.6132 16.3181 16.6035C16.304 16.5536 16.2908 16.5024 16.2784 16.4497L16.2768 16.4431C16.2757 16.4381 16.2745 16.4331 16.2733 16.4281L16.2712 16.419C16.2691 16.4095 16.2669 16.3999 16.2648 16.3902C16.2624 16.3792 16.26 16.368 16.2576 16.3568C16.2571 16.3542 16.2565 16.3516 16.2559 16.349C16.2551 16.3456 16.2543 16.3416 16.2535 16.3382C16.2532 16.3363 16.2528 16.3343 16.2524 16.3324C16.2521 16.3305 16.2517 16.3287 16.2514 16.3269C16.249 16.3153 16.2466 16.3035 16.2443 16.2917C16.2419 16.2796 16.2395 16.2675 16.2372 16.2553L16.236 16.2489L16.2336 16.2355C16.2231 16.1787 16.2134 16.1206 16.2045 16.061C16.2024 16.0468 16.2003 16.0325 16.1983 16.0181C16.1964 16.0049 16.1946 15.9917 16.1928 15.9783C16.1899 15.957 16.1871 15.9355 16.1845 15.9139L16.1842 15.9115L16.1837 15.9083L16.1822 15.8956L16.1805 15.8829C16.1664 15.7647 16.1551 15.6411 16.1464 15.5129C16.1319 15.299 16.1248 15.0707 16.1248 14.8292C16.1248 14.4772 16.1404 14.1547 16.1724 13.8628C16.2062 13.5543 16.2587 13.2786 16.3316 13.0381C16.4795 12.5619 16.7256 12.1786 17.0829 11.915L17.1068 11.8976L17.1086 11.8962L17.1098 11.8954L17.1272 11.8831L17.1287 11.882L17.1614 11.8598L17.1627 11.859L17.1852 11.8441C17.224 11.8189 17.2646 11.7941 17.3049 11.7712L17.306 11.7705L17.3529 11.7447L17.3541 11.744L17.3554 11.7434L17.4031 11.7185L17.4046 11.7178L17.4072 11.7165L17.4369 11.702C17.4541 11.6935 17.4714 11.6853 17.4887 11.6773L17.5413 11.654C17.6577 11.6037 17.7809 11.5606 17.9103 11.524L17.9137 11.523L17.9162 11.5223C17.9185 11.5216 17.9208 11.521 17.9231 11.5203L17.9355 11.5169C18.0748 11.4786 18.2213 11.4481 18.3748 11.4247C18.4259 11.417 18.4784 11.4098 18.5313 11.403L18.6366 11.39C18.6589 11.3874 18.6813 11.3849 18.7039 11.3825C18.7171 11.3811 18.7304 11.3798 18.7438 11.3784C18.818 11.3704 18.894 11.3635 18.9713 11.3574L19.0809 11.3489L19.0821 11.3488L19.1798 11.3422C19.275 11.3362 19.3733 11.331 19.4739 11.327C19.5736 11.3228 19.6758 11.3193 19.7808 11.3169C19.9095 11.3143 20.0425 11.313 20.1788 11.313C20.2505 11.313 20.3219 11.3133 20.393 11.3143L20.4718 11.3156C21.1483 11.3279 21.73 11.3842 22.211 11.488C22.7772 11.61 23.2351 11.8505 23.5457 12.234L23.5752 12.2711C23.8742 12.6586 24.0016 13.1864 24.0016 13.81V15.4559H17.7841L17.7889 15.5561L17.7949 15.6526C17.8016 15.7463 17.81 15.8333 17.8198 15.9139L17.83 15.9907C17.8406 16.0645 17.8526 16.1318 17.8659 16.1927L17.8775 16.2417L17.8899 16.2862C17.8942 16.3002 17.8987 16.3139 17.9033 16.3273L17.9183 16.3673C17.9623 16.4771 18.02 16.5586 18.0879 16.6194L18.1193 16.6454L18.1472 16.6657C18.1668 16.6791 18.1885 16.6924 18.2123 16.7053L18.2499 16.7244C18.2872 16.7424 18.3292 16.7598 18.376 16.7758L18.4244 16.7914C18.5255 16.8224 18.6453 16.8474 18.7847 16.8656C18.8346 16.8712 18.886 16.877 18.9393 16.8818C19.0223 16.89 19.1131 16.8967 19.2093 16.9024C19.2832 16.9073 19.3621 16.9112 19.4445 16.9146L19.5413 16.9182H20.1653ZM22.3982 13.8101C22.3982 13.7128 22.3937 13.6253 22.3848 13.5469C22.3721 13.4337 22.3509 13.342 22.3248 13.2691L22.3244 13.2679L22.3241 13.2668L22.3225 13.2621C22.3043 13.2067 22.277 13.1604 22.2406 13.1204L22.2151 13.0949C22.1889 13.071 22.157 13.0475 22.1183 13.0255L22.1172 13.025L22.1161 13.0242L22.1145 13.0233L22.0882 13.0087C22.0235 12.9748 21.9348 12.9412 21.817 12.9123C21.7182 12.8882 21.6031 12.8678 21.4708 12.8523C21.3951 12.8433 21.3119 12.835 21.2221 12.8278C21.1493 12.8222 21.0715 12.8176 20.988 12.8131C20.9329 12.8101 20.8746 12.8075 20.8142 12.8051C20.7493 12.8031 20.6828 12.801 20.6143 12.7994C20.5823 12.7987 20.5498 12.798 20.5168 12.7975C20.4914 12.797 20.4657 12.7966 20.4397 12.7963C20.3559 12.7953 20.2689 12.7947 20.179 12.7947L20.0246 12.7951L19.935 12.7957L19.747 12.7988C19.6282 12.8014 19.5158 12.8051 19.4098 12.8099C19.1765 12.8205 18.9742 12.8367 18.8019 12.8575C18.7078 12.8688 18.6213 12.8837 18.5428 12.901C18.512 12.9078 18.4821 12.9151 18.4533 12.9228C18.4168 12.9328 18.3827 12.9432 18.3509 12.9541C18.2554 12.9867 18.1816 13.0235 18.1259 13.0615L18.1237 13.0631L18.1222 13.064C18.0074 13.1396 17.9196 13.2562 17.8682 13.4399C17.8619 13.4639 17.856 13.4893 17.8503 13.5158C17.849 13.5216 17.8478 13.5275 17.8465 13.5334L17.8458 13.5368L17.8445 13.5427C17.8436 13.5469 17.8427 13.5511 17.8418 13.5553C17.8395 13.5676 17.8372 13.5801 17.835 13.5928L17.8323 13.6081C17.8236 13.6582 17.8156 13.7118 17.8088 13.7691C17.7999 13.8431 17.7928 13.9232 17.7874 14.0092C17.7845 14.0577 17.7822 14.1084 17.7803 14.1615L17.7787 14.2151L17.7772 14.2828L17.7771 14.2859V14.2918L17.777 14.2967V14.2981L17.7766 14.3334L17.779 15.0187L18.4902 14.0235H22.3982V13.8101Z" fill="white"/>
</svg>
