<svg width="101" height="43" viewBox="0 0 101 43" fill="none" xmlns="http://www.w3.org/2000/svg">
<g clip-path="url(#clip0_2_1868)">
<path d="M0.0536652 42.1539V37.2272H1.21202C1.9256 37.2272 2.49256 37.418 2.90311 37.7996C3.14749 38.0247 3.33811 38.3035 3.47985 38.6411C3.62158 38.9738 3.69001 39.3261 3.69001 39.6783C3.69001 40.4073 3.45541 41.014 2.9862 41.5081C2.7516 41.7625 2.4779 41.9338 2.16998 42.0267C1.9256 42.1099 1.61768 42.1491 1.24134 42.1491H0.0536652V42.1539ZM0.48377 41.7038H1.03606C1.38797 41.7038 1.65679 41.6843 1.84251 41.6402C2.12599 41.5766 2.37526 41.4494 2.59031 41.2537C3.03019 40.8574 3.25502 40.329 3.25502 39.6832C3.25502 39.0423 3.03019 38.5237 2.58542 38.1225C2.37037 37.9317 2.12599 37.8045 1.84251 37.7409C1.65679 37.6969 1.38797 37.6773 1.03606 37.6773H0.48377V41.7038Z" fill="white"/>
<path d="M7.14047 38.8368V42.1539H6.72991V41.6402H6.72014C6.53441 42.0316 6.18739 42.2322 5.67909 42.2322C5.26364 42.2322 4.89219 42.0267 4.55983 41.6402C4.40832 41.4592 4.33501 41.1118 4.33501 40.5932V38.8368H4.76511V40.5932C4.76511 40.9161 4.81399 41.1607 4.90685 41.3271C5.08769 41.6451 5.36628 41.8066 5.74262 41.8066C6.07009 41.8066 6.33402 41.6696 6.52463 41.4005C6.65171 41.2146 6.72014 40.9455 6.72014 40.5932V38.8368H7.14047Z" fill="white"/>
<path d="M8.25486 42.1539V39.2477H7.59015V38.8417H8.25486V37.6821H8.68496V38.8417H9.42298V39.2477H8.68496V42.1539H8.25486Z" fill="white"/>
<path d="M12.5713 41.1851H13.0551C12.9085 41.508 12.6983 41.7673 12.4246 41.9581C12.1509 42.144 11.8381 42.237 11.496 42.237C11.017 42.237 10.6016 42.0657 10.2595 41.7379C9.91733 41.4052 9.74626 40.9943 9.74626 40.4952C9.74626 40.0109 9.91733 39.5999 10.2595 39.2672C10.6016 38.9345 11.0073 38.7731 11.4765 38.7731C11.8235 38.7731 12.1412 38.866 12.4344 39.0666C12.7277 39.2623 12.933 39.5216 13.0551 39.8543H12.5713C12.4589 39.6586 12.3025 39.4972 12.107 39.3797C11.9115 39.2623 11.7013 39.2036 11.4862 39.2036C11.1294 39.2036 10.8215 39.3259 10.5674 39.5706C10.3132 39.8152 10.1861 40.1283 10.1861 40.4903C10.1861 40.8573 10.3083 41.1704 10.5527 41.4248C10.7971 41.6792 11.1001 41.8113 11.452 41.8113C11.9163 41.8064 12.2878 41.5961 12.5713 41.1851Z" fill="white"/>
<path d="M13.6657 42.1538V37.6771H14.0958V39.321C14.1837 39.1449 14.3206 39.0079 14.5063 38.9051C14.6774 38.8171 14.8631 38.7731 15.0684 38.7731C15.5132 38.7731 15.8748 38.9394 16.1583 39.2819C16.3783 39.5412 16.4907 39.9179 16.4907 40.412V42.1587H16.0606V40.412C16.0606 40.0647 15.997 39.8005 15.8748 39.6195C15.6842 39.3406 15.4105 39.2036 15.0488 39.2036C14.7165 39.2036 14.4574 39.3406 14.2619 39.6097C14.1544 39.7613 14.1007 40.0255 14.1007 40.412V42.1587H13.6657V42.1538Z" fill="white"/>
<path d="M18.9391 42.1539V37.2272H19.9508C20.3809 37.2272 20.7084 37.3103 20.9284 37.4718C21.2656 37.7262 21.4367 38.0785 21.4367 38.5335C21.4367 38.9298 21.2754 39.2625 20.9577 39.5218C21.4269 39.7419 21.6615 40.1578 21.6615 40.7645C21.6615 40.9895 21.6126 41.2048 21.5197 41.4054C21.4269 41.6109 21.2949 41.7674 21.1287 41.8897C20.9626 42.0121 20.772 42.0903 20.5618 42.1197C20.4396 42.1442 20.2343 42.1588 19.9508 42.1588H18.9391V42.1539ZM19.3692 39.3358H19.8384C20.2245 39.3358 20.4934 39.2918 20.6546 39.1891C20.7573 39.1304 20.8453 39.0325 20.9088 38.9053C20.9723 38.7781 21.0066 38.646 21.0066 38.5041C21.0066 38.2106 20.8941 37.9855 20.6644 37.8241C20.5227 37.7311 20.2636 37.6822 19.8775 37.6822H19.3741V39.3358H19.3692ZM19.3692 41.7038H19.902C20.3418 41.7038 20.6449 41.6549 20.8111 41.5571C20.9284 41.4886 21.031 41.376 21.1092 41.2244C21.1874 41.0776 21.2265 40.921 21.2265 40.7645C21.2265 40.3192 21.0457 40.0208 20.6889 39.8789C20.5227 39.8104 20.2343 39.7762 19.8238 39.7762H19.3692V41.7038Z" fill="white"/>
<path d="M25.0342 38.8368V42.1539H24.6285V41.6402H24.6188C24.433 42.0316 24.086 42.2322 23.5777 42.2322C23.1623 42.2322 22.7908 42.0267 22.4585 41.6402C22.307 41.4592 22.2336 41.1118 22.2336 40.5932V38.8368H22.6637V40.5932C22.6637 40.9161 22.7077 41.1607 22.8055 41.3271C22.9863 41.6451 23.26 41.8066 23.6413 41.8066C23.9736 41.8066 24.2327 41.6696 24.4233 41.4005C24.5503 41.2146 24.6139 40.9455 24.6139 40.5932V38.8368H25.0342Z" fill="white"/>
<path d="M25.523 41.1754H25.9531C25.9434 41.3467 25.9971 41.4935 26.1144 41.6158C26.2317 41.7381 26.3686 41.8017 26.5299 41.8017C26.6863 41.8017 26.8182 41.7479 26.9258 41.6451C27.0382 41.5424 27.087 41.4103 27.087 41.2488C27.087 40.9455 26.8818 40.7351 26.4663 40.6128C26.1975 40.5296 26.0069 40.4318 25.8896 40.3241C25.7185 40.1529 25.6354 39.9474 25.6354 39.693C25.6354 39.4239 25.7234 39.2038 25.9043 39.0227C26.0851 38.8515 26.3001 38.7634 26.5592 38.7634C26.7938 38.7634 27.004 38.8515 27.1799 39.0276C27.3559 39.2086 27.4438 39.4141 27.4438 39.6588H27.0137C27.0137 39.5218 26.9697 39.4043 26.872 39.3212C26.7791 39.238 26.6618 39.1989 26.5152 39.1989C26.393 39.1989 26.2904 39.2429 26.2024 39.331C26.1144 39.419 26.0704 39.5267 26.0704 39.6588C26.0704 39.8202 26.1291 39.9474 26.2464 40.0355C26.3148 40.0893 26.4468 40.148 26.6325 40.2116C26.9209 40.3046 27.1261 40.4122 27.2581 40.5345C27.4341 40.6911 27.5269 40.9112 27.5269 41.1803C27.5269 41.4935 27.4292 41.743 27.2337 41.9436C27.0431 42.1393 26.7938 42.242 26.4956 42.242C26.2219 42.242 25.9922 42.1344 25.7967 41.924C25.5963 41.7038 25.5084 41.4592 25.523 41.1754Z" fill="white"/>
<path d="M28.0546 42.154V38.8368H28.4847V42.154H28.0546ZM28.0839 38.4405V37.9562H28.47V38.4405H28.0839Z" fill="white"/>
<path d="M29.2324 42.1538V38.8367H29.6381V39.321H29.6527C29.8922 38.9541 30.2197 38.7682 30.6303 38.7682C31.0946 38.7682 31.4758 38.9541 31.7642 39.321C31.9597 39.5706 32.0574 39.9326 32.0574 40.4072V42.1538H31.6273V40.4072C31.6273 40.0647 31.5638 39.8005 31.4416 39.6195C31.2461 39.3357 30.9724 39.1987 30.6205 39.1987C30.2881 39.1987 30.0291 39.3357 29.8385 39.6048C29.7212 39.7663 29.6674 40.0354 29.6674 40.4072V42.1538H29.2324Z" fill="white"/>
<path d="M36.0021 40.6567H33.1136C33.1234 40.9698 33.2553 41.234 33.4997 41.464C33.7441 41.689 34.0178 41.8064 34.3159 41.8064C34.5554 41.8064 34.7851 41.7379 35.0002 41.6107C35.2152 41.4737 35.3667 41.3025 35.4596 41.0725H35.9141C35.8017 41.4101 35.5965 41.689 35.3032 41.9043C35.0148 42.1244 34.6971 42.237 34.3599 42.237C33.8907 42.237 33.4997 42.0657 33.1722 41.733C32.8496 41.4003 32.6835 40.9894 32.6835 40.505C32.6835 40.0207 32.8448 39.6146 33.1673 39.2819C33.4899 38.9443 33.8809 38.778 34.3452 38.778C34.8633 38.778 35.2934 38.9883 35.6307 39.4189C35.8653 39.7026 35.9875 40.1234 36.0021 40.6567ZM33.1136 40.2506H35.5671C35.5134 39.9571 35.3667 39.7075 35.137 39.5021C34.9024 39.2966 34.6434 39.1987 34.3501 39.1987C34.0471 39.1987 33.7734 39.2966 33.5437 39.4972C33.3091 39.6977 33.1673 39.9473 33.1136 40.2506Z" fill="white"/>
<path d="M36.354 41.1754H36.7841C36.7743 41.3467 36.8281 41.4935 36.9454 41.6158C37.0627 41.7381 37.1995 41.8017 37.3608 41.8017C37.5172 41.8017 37.6492 41.7479 37.7567 41.6451C37.8691 41.5424 37.9229 41.4103 37.9229 41.2488C37.9229 40.9455 37.7176 40.7351 37.3022 40.6128C37.0334 40.5296 36.8427 40.4318 36.7254 40.3241C36.5544 40.1529 36.4713 39.9474 36.4713 39.693C36.4713 39.4239 36.5593 39.2038 36.7401 39.0227C36.9161 38.8515 37.136 38.7634 37.395 38.7634C37.6296 38.7634 37.8398 38.8515 38.0158 39.0276C38.1917 39.2086 38.2748 39.4141 38.2748 39.6588H37.8447C37.8447 39.5218 37.8007 39.4043 37.703 39.3212C37.6101 39.238 37.4928 39.1989 37.3462 39.1989C37.224 39.1989 37.1213 39.2429 37.0334 39.331C36.9454 39.419 36.9014 39.5267 36.9014 39.6588C36.9014 39.8202 36.96 39.9474 37.0773 40.0355C37.1458 40.0893 37.2777 40.148 37.4635 40.2116C37.7518 40.3046 37.962 40.4122 38.0891 40.5345C38.265 40.6911 38.3579 40.9112 38.3579 41.1803C38.3579 41.4935 38.2601 41.743 38.0646 41.9436C37.8691 42.1393 37.6248 42.242 37.3217 42.242C37.0529 42.242 36.8183 42.1344 36.6228 41.924C36.4273 41.7038 36.3393 41.4592 36.354 41.1754Z" fill="white"/>
<path d="M38.6264 41.1754H39.0565C39.0516 41.3467 39.1005 41.4935 39.2178 41.6158C39.3351 41.7381 39.4719 41.8017 39.6332 41.8017C39.7896 41.8017 39.9216 41.7479 40.0291 41.6451C40.1366 41.5424 40.1904 41.4103 40.1904 41.2488C40.1904 40.9455 39.9851 40.7351 39.5697 40.6128C39.3008 40.5296 39.1102 40.4318 38.9929 40.3241C38.8219 40.1529 38.7339 39.9474 38.7339 39.693C38.7339 39.4239 38.8267 39.2038 39.0027 39.0227C39.1835 38.8515 39.3986 38.7634 39.6576 38.7634C39.8922 38.7634 40.1024 38.8515 40.2784 39.0276C40.4543 39.2086 40.5374 39.4141 40.5374 39.6588H40.1073C40.1073 39.5218 40.0584 39.4043 39.9704 39.3212C39.8727 39.238 39.7554 39.1989 39.6136 39.1989C39.4963 39.1989 39.3888 39.2429 39.3008 39.331C39.2129 39.419 39.1689 39.5267 39.1689 39.6588C39.1689 39.8202 39.2275 39.9474 39.3448 40.0355C39.4133 40.0893 39.5403 40.148 39.7309 40.2116C40.0193 40.3046 40.2295 40.4122 40.3566 40.5345C40.5374 40.6911 40.6254 40.9112 40.6254 41.1803C40.6254 41.4935 40.5276 41.743 40.3321 41.9436C40.1366 42.1393 39.8922 42.242 39.5892 42.242C39.3155 42.242 39.0858 42.1344 38.8903 41.924C38.6997 41.7038 38.6117 41.4592 38.6264 41.1754Z" fill="white"/>
<path d="M42.4829 42.1539L44.3451 37.2272H44.824L46.6715 42.1539H46.2072L45.5816 40.5003H43.5777L42.9521 42.1539H42.4829ZM43.7439 40.0551H45.4106L44.5846 37.7947L43.7439 40.0551Z" fill="white"/>
<path d="M46.857 41.1754H47.292C47.2822 41.3467 47.336 41.4935 47.4533 41.6158C47.5706 41.7381 47.7074 41.8017 47.8687 41.8017C48.0251 41.8017 48.1571 41.7479 48.2646 41.6451C48.3721 41.5424 48.4259 41.4103 48.4259 41.2488C48.4259 40.9455 48.2206 40.7351 47.8052 40.6128C47.5364 40.5296 47.3458 40.4318 47.2285 40.3241C47.0574 40.1529 46.9694 39.9474 46.9694 39.693C46.9694 39.4239 47.0623 39.2038 47.2382 39.0227C47.4191 38.8515 47.6341 38.7634 47.8932 38.7634C48.1278 38.7634 48.3379 38.8515 48.5139 39.0276C48.6898 39.2086 48.7778 39.4141 48.7778 39.6588H48.3428C48.3428 39.5218 48.2988 39.4043 48.2011 39.3212C48.1082 39.238 47.9909 39.1989 47.8443 39.1989C47.7221 39.1989 47.6195 39.2429 47.5315 39.331C47.4435 39.419 47.3995 39.5267 47.3995 39.6588C47.3995 39.8202 47.4582 39.9474 47.5755 40.0355C47.6439 40.0893 47.7759 40.148 47.9616 40.2116C48.25 40.3046 48.4601 40.4122 48.5872 40.5345C48.7631 40.6911 48.856 40.9112 48.856 41.1803C48.856 41.4935 48.7583 41.743 48.5628 41.9436C48.3721 42.1393 48.1229 42.242 47.8247 42.242C47.5559 42.242 47.3213 42.1344 47.1258 41.924C46.9352 41.7038 46.8423 41.4592 46.857 41.1754Z" fill="white"/>
<path d="M49.1348 41.1754H49.5649C49.5551 41.3467 49.6089 41.4935 49.7262 41.6158C49.8435 41.7381 49.9804 41.8017 50.1417 41.8017C50.2981 41.8017 50.43 41.7479 50.5375 41.6451C50.6451 41.5424 50.7037 41.4103 50.7037 41.2488C50.7037 40.9455 50.4984 40.7351 50.083 40.6128C49.8191 40.5296 49.6236 40.4318 49.5063 40.3241C49.3352 40.1529 49.2521 39.9474 49.2521 39.693C49.2521 39.4239 49.345 39.2038 49.5209 39.0227C49.6969 38.8515 49.9168 38.7634 50.1759 38.7634C50.4105 38.7634 50.6206 38.8515 50.7966 39.0276C50.9725 39.2086 51.0556 39.4141 51.0556 39.6588H50.6255C50.6255 39.5218 50.5815 39.4043 50.4838 39.3212C50.3909 39.238 50.2736 39.1989 50.127 39.1989C50.0048 39.1989 49.9022 39.2429 49.8142 39.331C49.7262 39.419 49.6822 39.5267 49.6822 39.6588C49.6822 39.8202 49.7409 39.9474 49.8582 40.0355C49.9266 40.0893 50.0586 40.148 50.2443 40.2116C50.5327 40.3046 50.7428 40.4122 50.8699 40.5345C51.0459 40.6911 51.1338 40.9112 51.1338 41.1803C51.1338 41.4935 51.0361 41.743 50.8406 41.9436C50.6451 42.1393 50.4007 42.242 50.1025 42.242C49.8288 42.242 49.5991 42.1344 49.3987 41.924C49.2081 41.7038 49.1201 41.4592 49.1348 41.1754Z" fill="white"/>
<path d="M53.2162 38.7682C53.661 38.7682 54.052 38.9345 54.3795 39.277C54.7069 39.6146 54.8731 40.0109 54.8731 40.4708C54.8731 40.9503 54.7118 41.3612 54.3892 41.7086C54.0667 42.056 53.6756 42.2321 53.2113 42.2321C52.7568 42.2321 52.3658 42.0609 52.0383 41.7282C51.706 41.3955 51.5398 40.9894 51.5398 40.5197C51.5398 40.0353 51.7011 39.6195 52.0237 39.2819C52.356 38.9345 52.747 38.7682 53.2162 38.7682ZM53.2162 39.1987C52.8692 39.1987 52.5711 39.3259 52.3365 39.5852C52.097 39.8445 51.9797 40.1528 51.9797 40.5197C51.9797 40.8769 52.1019 41.1753 52.3462 41.4297C52.5906 41.6792 52.879 41.8064 53.2211 41.8064C53.573 41.8064 53.8663 41.6743 54.096 41.415C54.3306 41.1606 54.4479 40.8475 54.4479 40.4757C54.4479 40.1136 54.3208 39.8103 54.0764 39.5657C53.8272 39.321 53.5388 39.1987 53.2162 39.1987Z" fill="white"/>
<path d="M58.1964 41.1851H58.6803C58.5336 41.508 58.3284 41.7673 58.0547 41.9581C57.781 42.144 57.4681 42.237 57.1309 42.237C56.647 42.237 56.2365 42.0657 55.8944 41.7379C55.5522 41.4052 55.3812 40.9943 55.3812 40.4952C55.3812 40.0109 55.5522 39.5999 55.8944 39.2672C56.2365 38.9345 56.6422 38.7731 57.1065 38.7731C57.4535 38.7731 57.7712 38.866 58.0644 39.0666C58.3577 39.2623 58.563 39.5216 58.6803 39.8543H58.1964C58.084 39.6586 57.9325 39.4972 57.7321 39.3797C57.5366 39.2623 57.3264 39.2036 57.1065 39.2036C56.7497 39.2036 56.4418 39.3259 56.1876 39.5706C55.9286 39.8152 55.8064 40.1283 55.8064 40.4903C55.8064 40.8573 55.9286 41.1704 56.173 41.4248C56.4173 41.6792 56.7204 41.8113 57.0723 41.8113C57.5366 41.8064 57.908 41.5961 58.1964 41.1851Z" fill="white"/>
<path d="M59.2865 42.154V38.8368H59.7215V42.154H59.2865ZM59.3158 38.4405V37.9562H59.7019V38.4405H59.3158Z" fill="white"/>
<path d="M63.7195 38.8368V42.1539H63.304V41.5277C63.1867 41.7577 63.0206 41.9338 62.786 42.0561C62.5709 42.1735 62.3314 42.2322 62.0675 42.2322C61.5299 42.2322 61.0558 41.9974 60.6599 41.5277C60.5866 41.4445 60.5181 41.3124 60.4595 41.1412C60.3813 40.9259 60.3422 40.7009 60.3422 40.4709C60.3422 40.0306 60.4937 39.6343 60.8016 39.3065C61.1438 38.9445 61.5592 38.7634 62.0528 38.7634C62.3217 38.7634 62.5611 38.8172 62.7811 38.9396C63.0157 39.0668 63.1867 39.2429 63.2992 39.4631V38.8319H63.7195V38.8368ZM62.0528 39.1989C61.7058 39.1989 61.4028 39.3261 61.1535 39.5805C60.8994 39.8398 60.7772 40.1431 60.7772 40.5101C60.7772 40.8721 60.9043 41.1754 61.1633 41.4299C61.4223 41.6794 61.7205 41.8066 62.0675 41.8066C62.4047 41.8066 62.6931 41.6794 62.9424 41.4201C63.1868 41.1608 63.3089 40.8623 63.3089 40.5198C63.3089 40.148 63.1867 39.8398 62.9521 39.5805C62.7078 39.3261 62.4096 39.1989 62.0528 39.1989Z" fill="white"/>
<path d="M64.8283 42.1539V39.2477H64.1636V38.8417H64.8283V37.6821H65.2584V38.8417H66.0014V39.2477H65.2584V42.1539H64.8283Z" fill="white"/>
<path d="M66.4512 42.154V38.8368H66.8862V42.154H66.4512ZM66.4806 38.4405V37.9562H66.8667V38.4405H66.4806Z" fill="white"/>
<path d="M69.1789 38.7682C69.6236 38.7682 70.0049 38.9345 70.3372 39.277C70.6696 39.6146 70.8358 40.0109 70.8358 40.4708C70.8358 40.9503 70.6745 41.3612 70.3519 41.7086C70.0293 42.056 69.6383 42.2321 69.1789 42.2321C68.7243 42.2321 68.3284 42.0609 68.001 41.7282C67.6686 41.3955 67.5024 40.9894 67.5024 40.5197C67.5024 40.0353 67.6637 39.6195 67.9912 39.2819C68.3187 38.9345 68.7146 38.7682 69.1789 38.7682ZM69.1789 39.1987C68.827 39.1987 68.5337 39.3259 68.2942 39.5852C68.0499 39.8445 67.9325 40.1528 67.9325 40.5197C67.9325 40.8769 68.0547 41.1753 68.2991 41.4297C68.5435 41.6792 68.8367 41.8064 69.1789 41.8064C69.5308 41.8064 69.8191 41.6743 70.0538 41.415C70.2884 41.1606 70.4057 40.8475 70.4057 40.4757C70.4057 40.1136 70.2786 39.8103 70.0342 39.5657C69.7898 39.321 69.5015 39.1987 69.1789 39.1987Z" fill="white"/>
<path d="M71.4612 42.1538V38.8367H71.8669V39.321H71.8815C72.121 38.9541 72.4485 38.7682 72.8591 38.7682C73.3234 38.7682 73.7046 38.9541 73.993 39.321C74.1885 39.5706 74.2862 39.9326 74.2862 40.4072V42.1538H73.8512V40.4072C73.8512 40.0647 73.7877 39.8005 73.6655 39.6195C73.4749 39.3357 73.2012 39.1987 72.8444 39.1987C72.512 39.1987 72.253 39.3357 72.0624 39.6048C71.95 39.7663 71.8913 40.0354 71.8913 40.4072V42.1538H71.4612Z" fill="white"/>
<path d="M78.1277 42.1539L76.3486 37.2272H76.8227L78.333 41.5375L79.8579 37.2272H80.332L78.5383 42.1539H78.1277Z" fill="white"/>
<path d="M80.7673 42.154V38.8368H81.1974V42.154H80.7673ZM80.7917 38.4405V37.9562H81.1778V38.4405H80.7917Z" fill="white"/>
<path d="M85.1417 40.6567H82.2531C82.2629 40.9698 82.39 41.234 82.6393 41.464C82.8836 41.689 83.1573 41.8064 83.4555 41.8064C83.695 41.8064 83.9247 41.7379 84.1397 41.6107C84.3548 41.4737 84.5063 41.3025 84.5992 41.0725H85.0488C84.9364 41.4101 84.7311 41.689 84.4428 41.9043C84.1495 42.1244 83.8367 42.237 83.4995 42.237C83.0351 42.237 82.6392 42.0657 82.3118 41.733C81.9892 41.4003 81.8279 40.9894 81.8279 40.505C81.8279 40.0207 81.9892 39.6146 82.3118 39.2819C82.6392 38.9443 83.0303 38.778 83.4946 38.778C84.0175 38.778 84.4428 38.9883 84.78 39.4189C85.0048 39.7026 85.1319 40.1234 85.1417 40.6567ZM82.2531 40.2506H84.7067C84.6529 39.9571 84.5063 39.7075 84.2766 39.5021C84.042 39.2966 83.7829 39.1987 83.4897 39.1987C83.1867 39.1987 82.913 39.2966 82.6832 39.4972C82.4437 39.6977 82.302 39.9473 82.2531 40.2506Z" fill="white"/>
<path d="M86.119 42.1539V39.2477H85.4494V38.8417H86.119V37.6821H86.5491V38.8417H87.2871V39.2477H86.5491V42.1539H86.119Z" fill="white"/>
<path d="M87.7365 42.1538V38.8367H88.1471V39.321H88.1568C88.4012 38.9541 88.7238 38.7682 89.1392 38.7682C89.6035 38.7682 89.9848 38.9541 90.2731 39.321C90.4686 39.5706 90.5664 39.9326 90.5664 40.4072V42.1538H90.1314V40.4072C90.1314 40.0647 90.0679 39.8005 89.9457 39.6195C89.7502 39.3357 89.4814 39.1987 89.1246 39.1987C88.7922 39.1987 88.5332 39.3357 88.3426 39.6048C88.2302 39.7663 88.1715 40.0354 88.1715 40.4072V42.1538H87.7365Z" fill="white"/>
<path d="M94.5645 38.8368V42.1539H94.149V41.5277C94.0366 41.7577 93.8656 41.9338 93.6309 42.0561C93.4159 42.1735 93.1764 42.2322 92.9174 42.2322C92.3748 42.2322 91.9056 41.9974 91.5049 41.5277C91.4267 41.4445 91.3631 41.3124 91.3094 41.1412C91.2263 40.9259 91.1872 40.7009 91.1872 40.4709C91.1872 40.0306 91.3436 39.6343 91.6515 39.3065C91.9936 38.9445 92.4091 38.7634 92.9027 38.7634C93.1666 38.7634 93.411 38.8172 93.6261 38.9396C93.8607 39.0668 94.0317 39.2429 94.1441 39.4631V38.8319H94.5645V38.8368ZM92.8978 39.1989C92.5508 39.1989 92.2478 39.3261 91.9985 39.5805C91.7444 39.8398 91.6222 40.1431 91.6222 40.5101C91.6222 40.8721 91.7492 41.1754 92.0083 41.4299C92.2624 41.6794 92.5655 41.8066 92.9125 41.8066C93.2448 41.8066 93.5381 41.6794 93.7825 41.4201C94.0268 41.1608 94.1441 40.8623 94.1441 40.5198C94.1441 40.148 94.0268 39.8398 93.7874 39.5805C93.5479 39.3261 93.2546 39.1989 92.8978 39.1989Z" fill="white"/>
<path d="M95.3074 42.1538V38.8367H95.7131V39.2721H95.7228C95.8646 38.9345 96.1432 38.7682 96.5635 38.7682C96.9887 38.7682 97.3309 38.9345 97.5997 39.2721C97.6192 39.2966 97.6437 39.3406 97.6828 39.3993C97.6974 39.3749 97.717 39.3308 97.7463 39.2721C97.8538 39.1107 98.0053 38.9932 98.1911 38.9003C98.3719 38.8122 98.5576 38.7682 98.7531 38.7682C99.0904 38.7682 99.4179 38.9345 99.7453 39.2721C99.9408 39.4825 100.043 39.8103 100.043 40.2653V42.1538H99.6085V40.3044C99.6085 39.9815 99.5547 39.7467 99.4521 39.5901C99.2761 39.3259 99.0317 39.1987 98.7287 39.1987C98.4306 39.1987 98.196 39.321 98.0249 39.5755C97.9369 39.7027 97.888 39.9473 97.888 40.3044V42.1538H97.4579V40.2555C97.4579 39.9717 97.4042 39.7467 97.3064 39.5901C97.1305 39.3259 96.891 39.1987 96.5831 39.1987C96.28 39.1987 96.0454 39.3113 95.8841 39.5461C95.7815 39.6929 95.7326 39.9326 95.7326 40.2555V42.1538H95.3074Z" fill="white"/>
<path d="M18.3821 0H22.952V33.3719H18.3821V31.1067C16.2511 32.6136 13.9882 33.3719 11.5933 33.3719H11.3587C7.65881 33.3719 4.53566 31.728 2.0039 28.4353C0.669596 26.3658 0 24.1691 0 21.8549C0 18.0779 1.64222 14.9271 4.92666 12.3977C6.96477 11.0473 9.18861 10.3721 11.5933 10.3721C14.0029 10.3721 16.2414 11.1256 18.3186 12.6325H18.3821V0ZM4.57476 21.8892C4.57476 24.3256 5.71356 26.3022 7.98627 27.8238C9.05665 28.4696 10.2639 28.7876 11.5933 28.7876C13.8709 28.7876 15.7624 27.7308 17.2824 25.6221C18.0155 24.4284 18.3821 23.2395 18.3821 22.0408V21.6886C18.3821 19.5407 17.3753 17.6963 15.3616 16.1649C14.1544 15.3527 12.8347 14.9467 11.4027 14.9467C9.16418 14.9467 7.27269 15.9888 5.73311 18.073C4.95599 19.2961 4.57476 20.5682 4.57476 21.8892Z" fill="white"/>
<path d="M26.2313 0H30.8011V12.6325H30.8598C32.9223 11.1256 35.2488 10.3722 37.8197 10.3722C41.3485 10.3722 44.3495 11.8644 46.8226 14.8537C48.3915 16.9771 49.1735 19.2423 49.1735 21.6592V22.1093C49.1735 25.5928 47.673 28.5772 44.6623 31.0528C42.5411 32.6038 40.2635 33.3719 37.8148 33.3719H37.6779C35.1804 33.3719 32.9028 32.6136 30.8549 31.1067H30.7962V33.3719H26.2264V0H26.2313ZM30.806 21.8892C30.806 24.3648 31.9937 26.3805 34.3739 27.9461C35.4834 28.5087 36.6027 28.7876 37.7268 28.7876C39.9653 28.7876 41.8226 27.8336 43.2986 25.9157C44.1735 24.6632 44.6134 23.3912 44.6134 22.1044V21.6543C44.6134 19.712 43.7434 17.9849 42.0034 16.4633C40.7376 15.4506 39.2762 14.9516 37.6291 14.9516C35.3319 14.9516 33.3867 16.0573 31.808 18.2736C31.1384 19.5163 30.806 20.7198 30.806 21.8892Z" fill="white"/>
<path d="M63.4259 10.3721C65.8843 10.3721 68.157 11.1255 70.2538 12.6324H70.3124V10.3721H74.8774V33.3718H70.3124V31.1066C68.1766 32.6135 66.0016 33.3718 63.7778 33.3718H63.1717C59.7358 33.3718 56.7592 31.8649 54.247 28.8511C52.7026 26.6789 51.9303 24.3549 51.9303 21.894C51.9303 18.0827 53.5725 14.927 56.8521 12.4367C58.8804 11.057 61.075 10.3721 63.4259 10.3721ZM56.5002 21.8548C56.5002 24.4185 57.7221 26.4636 60.1659 27.9901C61.202 28.5233 62.2529 28.7924 63.3281 28.7924H63.6214C65.7035 28.7924 67.5119 27.8188 69.0563 25.8814C69.8921 24.6093 70.3124 23.3568 70.3124 22.1092V21.7961C70.3124 19.3988 69.1736 17.4369 66.9009 15.9202C65.7328 15.2793 64.5598 14.9564 63.3819 14.9564C61.1874 14.9564 59.335 15.9251 57.815 17.8625C56.9401 19.159 56.5002 20.4849 56.5002 21.8548Z" fill="white"/>
<path d="M77.3014 10.465C77.3454 10.4845 78.7677 11.0912 78.8801 21.4047V22.4125H78.7433C78.7433 22.4174 78.8899 22.4272 78.8899 22.437C78.8997 30.1133 84.2124 33.3816 88.6797 33.3816C89.2173 33.3816 89.7696 33.3326 90.3219 33.2397C89.9895 32.8972 87.6826 30.4314 87.6728 24.756C87.663 20.1228 87.2769 11.0276 77.3014 10.465Z" fill="white"/>
<path d="M89.5352 23.3666C89.5401 23.8558 89.5401 24.3206 89.5401 24.7511C89.5498 29.2767 91.2458 31.7523 92.1012 32.7504C95.5224 31.4735 98.455 28.1906 98.4599 22.437C98.4599 22.4272 98.4696 21.4047 98.4696 21.4047C98.5772 11.0912 100.004 10.4845 100.043 10.465C91.6124 11.1891 89.5938 18.5719 89.5352 23.3666Z" fill="white"/>
<path d="M93.3522 21.1993L90.8937 21.1748L92.8976 22.6132L92.1156 24.9469L94.0951 23.4841L96.0696 24.9469L95.2925 22.6132L97.2964 21.1748L94.8331 21.1993L94.0951 18.8459L93.3522 21.1993Z" fill="white"/>
</g>
<defs>
<clipPath id="clip0_2_1868">
<rect width="100.043" height="42.2372" fill="white"/>
</clipPath>
</defs>
</svg>
