<svg width="78" height="27" viewBox="0 0 78 27" fill="none" xmlns="http://www.w3.org/2000/svg">
<path d="M6.6623 13.9501L3.41959 13.1837L5.59987 6.08332L3.47854 1.8053C13.5864 4.47434 23.9271 6.18885 34.2837 7.64218C34.3474 7.62567 34.2389 7.4995 34.2194 7.47061C34.0154 7.17051 33.7666 6.89812 33.5473 6.60982C33.5131 6.56442 33.4282 6.51077 33.5172 6.46301L41.4471 7.81905L41.3304 8.87971C44.4876 6.43294 47.7828 4.16245 51.2065 2.10009L51.2932 2.18676L49.1825 6.20831L48.2869 7.46412L56.5994 6.16763C56.5281 6.62338 56.5246 7.09092 56.5411 7.55374C56.5434 7.62508 56.4969 7.77307 56.5994 7.75891L57.5894 6.05089L62.4959 5.34221L61.73 8.76121L67.0215 4.70841L75.1719 3.51509L71.8838 7.27192L69.7478 15.3056L75.7026 15.4831L74.8854 18.5058L77.7655 21.3188L70.4706 23.8994L46.4002 21.261L46.4055 21.5858L43.9529 24.3846L39.913 19.7876L39.7963 19.8171L39.4084 22.031L33.3704 21.9691V21.3789L24.5544 22.1459C24.3675 22.11 24.2384 21.4532 24.157 21.2462C24.1323 21.1831 24.1399 21.0705 24.0544 21.0841V22.0569L23.9571 22.1359L6.23426 24.0173L0.969865 20.8471C0.905601 20.7445 1.17858 20.0482 1.23695 19.8743C1.56004 18.905 1.94975 17.9522 2.28228 16.9859L0 13.9501H6.6623ZM18.0419 6.22659L5.66059 3.57405L6.9335 6.02023L4.89413 12.3583L12.5487 14.3799L11.9408 16.5461L11.8229 16.605L7.42993 16.7807L7.95997 14.8357L2.00517 14.8946L3.45614 16.809L2.35951 20.3772L14.6246 19.1709L16.4842 12.179L10.0259 10.1733L10.6502 8.10854L14.2096 8.52714L13.7968 9.94096L17.0313 10.1697L18.0419 6.22718V6.22659ZM48.8765 4.39947L39.9443 11.4149L40.446 8.64506L37.0259 8.11443L38.0647 9.08489L37.5659 11.5517C38.0918 12.0487 38.8683 13.1176 39.7002 12.7049L43.6882 9.64794L40.3293 13.2161C40.1395 13.4384 40.0599 13.6884 40.0899 13.982C40.1282 14.354 41.1246 15.6953 41.3994 16.0927C42.4447 17.605 43.585 19.0512 44.7199 20.4957L42.1794 12.6525L48.8765 4.40124V4.39947ZM72.7546 4.87113L67.3022 5.69714L63.793 19.2558L75.4072 20.376L73.7174 18.7564L74.4055 16.4264L67.3894 16.2483L68.7301 15.0839L70.9405 6.85862L72.7546 4.87054V4.87113ZM26.059 7.4653L18.9811 6.48777L15.6835 19.0789L18.7511 18.757L19.7004 14.9601L24.4713 14.808C25.6086 12.5481 26.0242 9.98341 26.0596 7.4653H26.059ZM61.1988 6.52197L58.3782 6.973L55.7157 18.4899L62.8809 19.0813L63.675 15.9553L59.0173 15.7778L61.1988 6.52197ZM55.5388 7.3468L52.5254 7.79606L48.6996 17.7818L50.5297 17.9322L51.2732 16.0703L53.2984 16.1906L53.2064 18.1993L55.244 18.4316L55.5388 7.34739V7.3468ZM30.363 8.11384L27.8313 7.76127L23.8781 18.3125L26.1044 18.0631L26.9239 15.8339L28.5948 15.7778L28.4763 17.8414L30.1867 17.7235L30.363 8.11325V8.11384ZM50.4094 8.11325L46.4397 8.6539L44.6392 10.7446L43.7565 15.2195L44.4558 17.3391C44.5389 17.385 44.6315 17.4086 44.7252 17.4234C45.6008 17.5631 46.8949 17.6769 47.7881 17.7252C47.863 17.7294 47.9367 17.7353 48.0098 17.7129C48.2745 17.6315 48.8541 15.9801 48.9508 15.6464C49.1453 14.976 49.2644 14.2874 49.3794 13.5993L48.8771 12.9773C50.0845 11.7286 50.364 9.78885 50.4094 8.11325ZM36.4899 9.00353L32.0209 8.41512L30.541 17.6645L32.2573 17.4529L32.7231 14.7178L33.3062 14.7231L33.8451 17.3084L35.6698 17.1934L35.0213 14.6588C35.207 14.6282 35.6374 14.7266 35.76 14.601C35.7883 14.5721 36.0283 14.0079 36.0684 13.9071C36.6756 12.3901 36.8525 10.5989 36.4893 9.00353H36.4899ZM36.7317 15.601C36.8914 15.4842 37.0394 15.3339 37.1738 15.1888C37.4262 14.9171 38.2239 14.0722 38.3064 13.7868C38.5287 13.0221 37.8224 12.534 37.5553 11.8866L36.7311 15.6004L36.7317 15.601ZM35.0213 18.1362H38.7357C38.7899 16.9918 39.2539 15.7484 39.3258 14.6276C39.3335 14.5038 39.3252 14.5527 39.2386 14.5397C39.0057 14.5043 38.7457 14.5574 38.5387 14.6671C38.2852 14.8015 36.8908 15.7484 36.7281 15.9223C36.4787 16.187 36.4864 17.0608 36.3472 17.4281L35.0219 18.1368L35.0213 18.1362Z" fill="black"/>
<path d="M18.0401 6.22694L17.0295 10.1695L13.7945 9.94073L14.2072 8.5269L10.6479 8.10889L10.0235 10.173L16.4824 12.1788L14.6223 19.1707L2.35715 20.3769L3.45377 16.8088L2.00281 14.8944L7.9576 14.8354L7.42698 16.7799L11.82 16.6042L11.9385 16.5458L12.5463 14.3797L4.89177 12.358L6.93114 6.01999L5.65882 3.5744L18.0401 6.22694Z" fill="white"/>
<path d="M72.7545 4.87109L70.9403 6.85976L68.73 15.0845L67.3892 16.2489L74.4059 16.4269L73.7178 18.7564L75.407 20.376L63.7928 19.2558L67.302 5.6971L72.7545 4.87109Z" fill="white"/>
<path d="M26.0607 7.46538C26.0253 9.98349 25.6097 12.5488 24.4724 14.8081L19.7015 14.9602L18.7522 18.7571L15.6846 19.079L18.9822 6.48785L26.0601 7.46538H26.0607ZM23.2897 9.7058L20.8759 9.47233L20.225 12.3577L22.752 12.409C23.0639 11.5459 23.272 10.625 23.2903 9.7058H23.2897Z" fill="white"/>
<path d="M61.1989 6.52179L59.0175 15.7777L63.6752 15.9551L62.8804 19.0805L55.7158 18.4897L58.3784 6.97282L61.1989 6.52179Z" fill="white"/>
<path d="M55.5385 7.34709L55.2437 18.4313L53.2061 18.199L53.298 16.1903L51.2728 16.07L50.5293 17.9319L48.6993 17.7815L52.5251 7.79576L55.5385 7.3465V7.34709ZM51.2934 13.8325H53.3275C53.3399 13.8325 53.3941 13.9204 53.4154 13.8915L53.6223 9.70483L52.4644 12.8514L51.2934 13.8325Z" fill="white"/>
<path d="M50.4079 8.11334C50.3631 9.78894 50.083 11.7293 48.8755 12.9774L49.3779 13.5994C49.2629 14.2875 49.1438 14.9761 48.9492 15.6465C48.8525 15.9802 48.273 17.6316 48.0083 17.7129C47.9352 17.7353 47.8615 17.7295 47.7866 17.7253C46.8934 17.677 45.5992 17.5632 44.7237 17.4235C44.6305 17.4087 44.538 17.3851 44.4543 17.3391L43.755 15.2196L44.6376 10.7447L46.4382 8.65399L50.4079 8.11334ZM48.3443 10.3538L46.345 10.5371L46.0444 12.3589L47.8131 12.2705C48.2288 11.7281 48.375 11.0259 48.3443 10.3544V10.3538ZM47.342 14.1861H45.7207L45.338 15.8958L47.0537 15.92C47.2277 15.3576 47.3898 14.7827 47.342 14.1866V14.1861Z" fill="white"/>
<path d="M30.3623 8.11401L30.186 17.7242L28.4757 17.8421L28.5942 15.7786L26.9233 15.8346L26.1038 18.0638L23.8775 18.3132L27.8307 7.76202L30.3623 8.1146V8.11401ZM29.3606 13.7734C29.2545 13.5016 28.7622 13.1143 28.715 12.8566C28.6561 12.5341 28.7681 12.2128 28.7734 11.9186C28.7852 11.2812 28.784 10.6345 28.7416 9.99949L27.474 13.7734H29.3606Z" fill="white"/>
<path d="M36.4894 9.00381C36.852 10.5992 36.6757 12.3904 36.0684 13.9074C36.0283 14.0076 35.7884 14.5724 35.7601 14.6013C35.6374 14.7269 35.207 14.6278 35.0213 14.6591L35.6699 17.1937L33.8451 17.3087L33.3062 14.7234L32.7231 14.7181L32.2574 17.4531L30.5411 17.6648L32.0209 8.41541L36.49 9.00381H36.4894ZM34.5998 12.8809C34.8651 12.1999 34.9824 11.4865 34.8185 10.7625L33.3139 10.5933L32.9572 12.8302L34.5998 12.8809Z" fill="white"/>
<path d="M48.8763 4.39953L42.1792 12.6508L44.7197 20.494C43.5848 19.0495 42.4445 17.6033 41.3992 16.091C41.1244 15.6936 40.128 14.3523 40.0897 13.9803C40.0596 13.6867 40.1392 13.4367 40.3291 13.2144L43.6879 9.64624L39.7 12.7032C38.8681 13.1159 38.0916 12.047 37.5657 11.55L38.0645 9.08319L37.0256 8.11273L40.4458 8.64336L39.9441 11.4132L48.8763 4.39777V4.39953Z" fill="white"/>
<path d="M35.0203 18.1359L36.3457 17.4273C36.4848 17.0599 36.4772 16.1862 36.7266 15.9215C36.8899 15.7481 38.2837 14.8012 38.5372 14.6662C38.7441 14.5566 39.0041 14.5029 39.237 14.5389C39.3231 14.5519 39.3319 14.5029 39.3243 14.6267C39.2523 15.7475 38.7883 16.991 38.7341 18.1353H35.0197L35.0203 18.1359Z" fill="white"/>
<path d="M36.7286 15.6009L37.5528 11.8871C37.8199 12.5344 38.5262 13.0226 38.3039 13.7873C38.2208 14.0727 37.4231 14.9175 37.1714 15.1893C37.0369 15.3344 36.8889 15.4847 36.7292 15.6015L36.7286 15.6009Z" fill="white"/>
<path d="M23.2872 9.70595C23.2689 10.6251 23.0608 11.546 22.7489 12.4092L20.2219 12.3579L20.8728 9.47247L23.2866 9.70595H23.2872Z" fill="black"/>
<path d="M51.2947 13.832L52.4657 12.851L53.6236 9.70435L53.4166 13.891C53.3954 13.9199 53.3412 13.832 53.3288 13.832H51.2947Z" fill="black"/>
<path d="M48.3451 10.3537C48.3758 11.0252 48.2296 11.7274 47.8139 12.2698L46.0452 12.3583L46.3459 10.5364L48.3451 10.3531V10.3537Z" fill="black"/>
<path d="M47.3426 14.1861C47.3903 14.7827 47.2282 15.357 47.0542 15.9195L45.3386 15.8953L45.7212 14.1855H47.3426V14.1861Z" fill="black"/>
<path d="M29.36 13.7732H27.4733L28.7409 9.99927C28.7834 10.6342 28.7846 11.281 28.7728 11.9184C28.7675 12.2126 28.6549 12.5339 28.7144 12.8564C28.7616 13.114 29.2545 13.5008 29.36 13.7732Z" fill="black"/>
<path d="M34.5985 12.8805L32.9559 12.8298L33.3126 10.5929L34.8172 10.7621C34.9812 11.4861 34.8638 12.1995 34.5985 12.8805Z" fill="black"/>
</svg>
