<svg width="61" height="27" viewBox="0 0 61 27" fill="none" xmlns="http://www.w3.org/2000/svg">
<g filter="url(#filter0_dd_174_3518)">
<path d="M6.27726 10.037C6.94356 10.037 7.41452 10.1786 7.68937 10.4618C7.96415 10.7449 8.10141 11.1196 8.10148 11.5858V12.5477H5.91496V11.8739C5.91496 11.7824 5.89055 11.7154 5.84074 11.6737C5.79082 11.6238 5.71151 11.5986 5.60343 11.5985H5.24113C5.13298 11.5985 5.0538 11.6238 5.00382 11.6737C4.95385 11.7154 4.92863 11.7823 4.92863 11.8739V13.0604C4.92864 13.152 4.95386 13.2224 5.00382 13.2723C5.0538 13.3139 5.1329 13.3348 5.24113 13.3348H6.41496C7.0646 13.3348 7.51033 13.4731 7.75187 13.7479C8.00157 14.0227 8.12685 14.393 8.12687 14.8593V16.5087C8.12683 16.9748 7.9894 17.3496 7.71476 17.6327C7.43991 17.9159 6.96896 18.0575 6.30265 18.0575H4.60343C3.93724 18.0575 3.46276 17.9158 3.1796 17.6327C2.90479 17.3495 2.76753 16.975 2.76749 16.5087V15.5468H4.95304V16.2216C4.95312 16.3129 4.9784 16.3836 5.02824 16.4335C5.07818 16.4751 5.15737 16.4959 5.26554 16.496H5.62785C5.73603 16.496 5.81517 16.475 5.86515 16.4335C5.91505 16.3836 5.94027 16.313 5.94035 16.2216V15.0839C5.94028 14.9924 5.91505 14.9262 5.86515 14.8846C5.81518 14.8347 5.73612 14.8094 5.62785 14.8094H4.42863C3.77901 14.8094 3.33324 14.6634 3.09171 14.3719C2.85862 14.0805 2.7421 13.7015 2.7421 13.2352V11.5858C2.74217 11.1196 2.87949 10.7449 3.15421 10.4618C3.42906 10.1786 3.90002 10.037 4.56632 10.037H6.27726ZM13.8388 11.5985H12.29V18.0575H10.1034V11.5985H8.56632V10.037H13.8388V11.5985ZM20.6806 18.0575H18.4814L18.2265 16.8583H16.3085L16.0458 18.0575H13.8964L15.9579 10.037H18.6191L20.6806 18.0575ZM24.8905 10.037C25.5568 10.037 26.0278 10.1786 26.3027 10.4618C26.5856 10.7449 26.7264 11.1197 26.7265 11.5858V13.66C26.7265 14.1262 26.5855 14.5009 26.3027 14.7841C26.1477 14.9437 25.9296 15.0562 25.6503 15.1259L27.1269 18.0575H24.7782L23.5068 15.2089H23.3661V18.0575H21.1796V10.037H24.8905ZM31.2704 10.037C31.9365 10.037 32.4067 10.1787 32.6816 10.4618C32.9647 10.7449 33.1063 11.1196 33.1064 11.5858V12.6102C33.1064 12.935 33.0646 13.2183 32.9814 13.4598C32.9064 13.7014 32.7483 13.8891 32.5068 14.0223C32.7483 14.1306 32.9064 14.2931 32.9814 14.5096C33.0646 14.7262 33.1064 14.993 33.1064 15.3094V16.5087C33.1063 16.975 32.9647 17.3495 32.6816 17.6327C32.4067 17.9158 31.9365 18.0574 31.2704 18.0575H27.5966V10.037H31.2704ZM37.6874 10.037C38.3535 10.037 38.8237 10.1788 39.0985 10.4618C39.3817 10.7449 39.5233 11.1196 39.5234 11.5858V16.5087C39.5233 16.975 39.3817 17.3495 39.0985 17.6327C38.8237 17.9158 38.3535 18.0575 37.6874 18.0575H35.8378C35.1717 18.0574 34.6971 17.9158 34.414 17.6327C34.1392 17.3496 34.0019 16.9749 34.0019 16.5087V11.5858C34.0019 11.1196 34.1392 10.7449 34.414 10.4618C34.6971 10.1787 35.1717 10.0371 35.8378 10.037H37.6874ZM44.1913 10.037C44.8576 10.037 45.3286 10.1786 45.6034 10.4618C45.8865 10.7449 46.0282 11.1196 46.0282 11.5858V13.66C46.0282 14.1263 45.8864 14.5009 45.6034 14.7841C45.4485 14.9437 45.2305 15.0562 44.9511 15.1259L46.4277 18.0575H44.079L42.8075 15.2089H42.6669V18.0575H40.4814V10.037H44.1913ZM50.5585 14.3221V10.037H52.5575V18.0575H50.6835L48.8974 13.8475V18.0575H46.8984V10.037H48.7724L50.5585 14.3221ZM29.746 16.621H30.6454C30.7537 16.621 30.8328 16.6001 30.8827 16.5585C30.9327 16.5085 30.9579 16.4372 30.9579 16.3456V15.0341C30.9579 14.9427 30.9325 14.8765 30.8827 14.8348C30.8328 14.7849 30.7537 14.7596 30.6454 14.7596H29.746V16.621ZM36.4999 11.5985C36.3919 11.5986 36.3125 11.6238 36.2626 11.6737C36.2128 11.7154 36.1884 11.7825 36.1884 11.8739V13.4169H34.8954C34.744 13.4169 34.6211 13.5399 34.621 13.6913V14.3007C34.6213 14.4519 34.7441 14.5741 34.8954 14.5741H36.1884V16.2216C36.1885 16.3128 36.2129 16.3836 36.2626 16.4335C36.3125 16.4751 36.3919 16.4959 36.4999 16.496H37.0253C37.1335 16.4959 37.2127 16.4751 37.2626 16.4335C37.3124 16.3836 37.3377 16.3129 37.3378 16.2216V14.5741H38.5898C38.741 14.5741 38.8639 14.4519 38.8642 14.3007V13.6913C38.8641 13.5399 38.7412 13.4169 38.5898 13.4169H37.3378V11.8739C37.3378 11.7824 37.3125 11.7154 37.2626 11.6737C37.2127 11.6238 37.1335 11.5985 37.0253 11.5985H36.4999ZM16.6484 15.3094H17.8964L17.2821 12.4227L16.6484 15.3094ZM23.3661 13.7225H24.2284C24.3366 13.7225 24.4158 13.7017 24.4657 13.66C24.5156 13.6102 24.5408 13.5395 24.5409 13.4481V11.8739C24.5409 11.7823 24.5156 11.7154 24.4657 11.6737C24.4158 11.6238 24.3366 11.5985 24.2284 11.5985H23.3661V13.7225ZM42.6669 13.7225H43.5292C43.6374 13.7225 43.7165 13.7016 43.7665 13.66C43.8164 13.6101 43.8416 13.5395 43.8417 13.4481V11.8739C43.8417 11.7823 43.8165 11.7154 43.7665 11.6737C43.7165 11.6238 43.6374 11.5985 43.5292 11.5985H42.6669V13.7225ZM29.746 13.3231H30.6454C30.7535 13.3231 30.8327 13.3021 30.8827 13.2606C30.9327 13.2106 30.9579 13.1393 30.9579 13.0477V11.7489C30.9579 11.6573 30.9327 11.5904 30.8827 11.5487C30.8328 11.4987 30.7537 11.4735 30.6454 11.4735H29.746V13.3231Z" fill="white"/>
<path d="M24.5406 13.4476V11.8735C24.5406 11.7819 24.5156 11.7152 24.4657 11.6736C24.4157 11.6236 24.3366 11.5986 24.2283 11.5986H21.9046V10.037H24.8904C25.5567 10.037 26.0273 10.1786 26.3022 10.4618C26.5853 10.7449 26.7269 11.1197 26.7269 11.5861V13.66C26.7269 14.1264 26.5853 14.5012 26.3022 14.7844C26.0273 15.0676 25.5567 15.2092 24.8904 15.2092H21.9046V13.7225H24.2283C24.3366 13.7225 24.4157 13.7017 24.4657 13.66C24.5156 13.61 24.5406 13.5393 24.5406 13.4476ZM21.1799 10.037H23.3663V18.0576H21.1799V10.037ZM23.1164 14.3347H25.2527L27.1267 18.0576H24.778L23.1164 14.3347Z" fill="white"/>
<path d="M19.3061 15.3091V16.8583H15.2958V15.3091H19.3061ZM20.6804 18.0576H18.4816L17.2822 12.4232L16.0454 18.0576H13.8966L15.958 10.037H18.619L20.6804 18.0576Z" fill="white"/>
<path d="M10.1032 10.7866H12.2895V18.0576H10.1032V10.7866ZM13.8387 10.037V11.5986H8.56657V10.037H13.8387Z" fill="white"/>
<path d="M5.94037 16.2211V15.0842C5.94037 14.9926 5.91538 14.926 5.86541 14.8844C5.81543 14.8344 5.73631 14.8094 5.62804 14.8094H4.42869C3.77904 14.8094 3.33345 14.6636 3.09191 14.3721C2.85871 14.0806 2.7421 13.7017 2.7421 13.2353V11.5861C2.7421 11.1197 2.87953 10.7449 3.15438 10.4618C3.42923 10.1786 3.89981 10.037 4.56611 10.037H6.27768C6.94399 10.037 7.41457 10.1786 7.68942 10.4618C7.96427 10.7449 8.10169 11.1197 8.10169 11.5861V12.5481H5.91538V11.8735C5.91538 11.7819 5.89039 11.7152 5.84042 11.6736C5.79045 11.6236 5.71132 11.5986 5.60305 11.5986H5.24075C5.13247 11.5986 5.05335 11.6236 5.00338 11.6736C4.9534 11.7152 4.92842 11.7819 4.92842 11.8735V13.0603C4.92842 13.152 4.9534 13.2228 5.00338 13.2727C5.05335 13.3144 5.13247 13.3352 5.24075 13.3352H6.41511C7.06476 13.3352 7.51035 13.4726 7.75188 13.7475C8.00175 14.0223 8.12668 14.393 8.12668 14.8594V16.5085C8.12668 16.9749 7.98925 17.3497 7.7144 17.6329C7.43955 17.916 6.96898 18.0576 6.30267 18.0576H4.60359C3.93729 18.0576 3.46255 17.916 3.17937 17.6329C2.90452 17.3497 2.76709 16.9749 2.76709 16.5085V15.5465H4.9534V16.2211C4.9534 16.3127 4.97839 16.3835 5.02836 16.4335C5.07834 16.4752 5.15746 16.496 5.26573 16.496H5.62804C5.73631 16.496 5.81543 16.4752 5.86541 16.4335C5.91538 16.3835 5.94037 16.3127 5.94037 16.2211Z" fill="white"/>
<path d="M57.7651 14.2854L54.4864 16.8891V11.6818L57.7651 14.2854Z" fill="white"/>
</g>
<defs>
<filter id="filter0_dd_174_3518" x="2.6226e-06" y="7.5691" width="60.5072" height="13.5049" filterUnits="userSpaceOnUse" color-interpolation-filters="sRGB">
<feFlood flood-opacity="0" result="BackgroundImageFix"/>
<feColorMatrix in="SourceAlpha" type="matrix" values="0 0 0 0 0 0 0 0 0 0 0 0 0 0 0 0 0 0 127 0" result="hardAlpha"/>
<feOffset dy="0.27421"/>
<feGaussianBlur stdDeviation="1.37105"/>
<feComposite in2="hardAlpha" operator="out"/>
<feColorMatrix type="matrix" values="0 0 0 0 0 0 0 0 0 0 0 0 0 0 0 0 0 0 1 0"/>
<feBlend mode="normal" in2="BackgroundImageFix" result="effect1_dropShadow_174_3518"/>
<feColorMatrix in="SourceAlpha" type="matrix" values="0 0 0 0 0 0 0 0 0 0 0 0 0 0 0 0 0 0 127 0" result="hardAlpha"/>
<feOffset dy="0.27421"/>
<feGaussianBlur stdDeviation="0.685525"/>
<feComposite in2="hardAlpha" operator="out"/>
<feColorMatrix type="matrix" values="0 0 0 0 0 0 0 0 0 0 0 0 0 0 0 0 0 0 1 0"/>
<feBlend mode="normal" in2="effect1_dropShadow_174_3518" result="effect2_dropShadow_174_3518"/>
<feBlend mode="normal" in="SourceGraphic" in2="effect2_dropShadow_174_3518" result="shape"/>
</filter>
</defs>
</svg>
