<svg width="217" height="39" viewBox="0 0 217 39" fill="none" xmlns="http://www.w3.org/2000/svg">
<path d="M177.209 26.5546C177.205 26.5715 177.205 26.5779 177.209 26.58L177.194 26.6328C177.199 26.6095 177.201 26.5884 177.201 26.5715C177.205 26.5715 177.207 26.5567 177.209 26.5546ZM178.393 22.1548C178.393 22.1548 178.387 22.1675 178.383 22.1717C178.385 22.1717 178.387 22.1738 178.387 22.1822L178.393 22.1548ZM177.171 26.7235C177.156 26.7742 177.139 26.8249 177.131 26.8755L177.171 26.7235ZM176.954 27.5153C176.951 27.5321 176.941 27.5638 176.941 27.5723L176.951 27.53C176.951 27.53 176.951 27.5195 176.951 27.5153H176.954ZM176.795 27.8362C176.793 27.8488 176.789 27.8594 176.787 27.8721C176.795 27.8826 176.806 27.8319 176.795 27.8362ZM178.37 22.2055C178.364 22.2245 178.347 22.2751 178.349 22.292C178.355 22.2667 178.372 22.2266 178.37 22.2055ZM178.277 22.5813C178.269 22.6108 178.258 22.6467 178.254 22.6678C178.254 22.6594 178.256 22.6594 178.258 22.6615L178.279 22.5855V22.5813H178.277ZM179.487 18.0801L179.491 18.0632C179.491 18.0632 179.491 18.0632 179.487 18.0695C179.487 18.0716 179.487 18.0758 179.487 18.0801ZM137.644 18.4812C137.646 18.4664 137.659 18.4326 137.655 18.4284L137.642 18.4749C137.642 18.4749 137.642 18.477 137.642 18.4812H137.644ZM138.362 15.7936L138.354 15.8231C138.354 15.8231 138.358 15.8189 138.36 15.8105C138.36 15.8062 138.36 15.7978 138.36 15.7936H138.362ZM162.943 26.4512C162.962 26.4723 162.962 26.4639 162.969 26.466C162.95 26.447 162.941 26.447 162.943 26.4512ZM176.812 27.8678C176.812 27.8678 176.823 27.8214 176.818 27.8151C176.812 27.8404 176.808 27.8594 176.812 27.8678ZM137.881 17.5903C137.874 17.6114 137.868 17.6325 137.874 17.6346C137.878 17.624 137.883 17.6177 137.887 17.6198C137.893 17.5966 137.9 17.5691 137.906 17.5607C137.9 17.5501 137.895 17.586 137.889 17.6029C137.889 17.586 137.883 17.6071 137.881 17.5903ZM179.422 18.2933C179.42 18.3123 179.417 18.3271 179.415 18.3482L179.424 18.3186C179.424 18.3186 179.428 18.2891 179.424 18.2933H179.422ZM137.57 18.7578C137.57 18.7578 137.577 18.7324 137.579 18.7324C137.577 18.7451 137.57 18.7641 137.572 18.7683C137.585 18.7388 137.577 18.7472 137.583 18.7156C137.583 18.7156 137.579 18.7219 137.574 18.7261L137.566 18.7578C137.566 18.7578 137.566 18.7599 137.568 18.7578H137.57ZM154.382 8.0516C154.382 8.0516 154.365 8.02838 154.359 8.01782L154.338 7.9946C154.338 7.9946 154.321 7.97771 154.313 7.96715L154.07 7.70325L154.063 7.72647C154.076 7.73914 154.087 7.75181 154.095 7.75181C154.095 7.77081 154.122 7.78347 154.131 7.79825C154.129 7.79825 154.118 7.78559 154.116 7.78981C154.112 7.80036 154.169 7.85315 154.167 7.84259C154.177 7.87215 154.211 7.89537 154.243 7.92071C154.255 7.94393 154.321 8.02838 154.346 8.03683C154.353 8.04527 154.353 8.04949 154.348 8.0516C154.386 8.09172 154.412 8.11705 154.443 8.15928C154.448 8.15294 154.454 8.14661 154.462 8.1445C154.454 8.13605 154.446 8.12972 154.437 8.12128C154.424 8.1065 154.422 8.09805 154.42 8.08961L154.403 8.07272C154.403 8.07272 154.391 8.06427 154.38 8.05583L154.382 8.0516ZM154.359 8.08116C154.359 8.08116 154.367 8.09172 154.363 8.09383C154.38 8.10861 154.38 8.11072 154.389 8.1255C154.403 8.13605 154.429 8.15717 154.437 8.17617C154.437 8.16983 154.437 8.16561 154.441 8.15928C154.41 8.12761 154.386 8.09383 154.359 8.08116ZM193.056 8.43374C193.128 8.43796 193.212 8.43796 193.276 8.43374H193.056ZM201.628 8.43374H216.033L214.411 14.4888H207.525L206.999 16.4481H212.843L211.375 21.9247H205.532L205.014 23.8543H211.901L211.413 25.6764C211.342 25.6426 211.251 25.7017 211.177 25.6616C211.143 25.6426 211.103 25.7017 211.107 25.7524C211.107 25.7587 211.107 25.7693 211.114 25.7735C211.19 25.8368 211.278 25.7587 211.359 25.8051C211.365 25.8094 211.371 25.8094 211.378 25.8115L210.29 29.8672C210.271 29.8672 210.254 29.8693 210.246 29.8714C210.263 29.8714 210.278 29.8714 210.29 29.8714L210.28 29.9094H206.568C206.555 29.8799 206.53 29.8588 206.471 29.863C206.433 29.8672 206.395 29.8841 206.365 29.9094H204.109C204.09 29.9052 204.056 29.9052 204.052 29.8989C204.32 29.882 204.554 29.8714 204.799 29.882C205.073 29.8735 205.365 29.882 205.616 29.8588C205.774 29.8566 206 29.8503 206.186 29.8524C206.104 29.8376 205.912 29.8588 205.817 29.8461C205.823 29.8419 205.823 29.8355 205.833 29.8313C205.76 29.8271 205.692 29.8229 205.652 29.8123C205.517 29.8165 205.371 29.8081 205.278 29.7975C205.24 29.7975 205.257 29.8039 205.219 29.8017C205.221 29.7975 205.194 29.7975 205.202 29.7912C205.166 29.7954 205.12 29.7954 205.103 29.7891C205.031 29.7975 205.031 29.7849 204.959 29.7933C204.959 29.7933 204.959 29.7891 204.955 29.787C204.82 29.7891 204.725 29.7743 204.6 29.7827C204.6 29.7785 204.584 29.7785 204.584 29.7743C204.51 29.7743 204.48 29.7785 204.448 29.7701C204.246 29.7785 204.068 29.7595 203.855 29.7764C203.847 29.7743 203.834 29.7722 203.815 29.7701C203.735 29.7785 203.562 29.7785 203.479 29.7827C203.463 29.787 203.45 29.7912 203.437 29.7954C203.403 29.7954 203.463 29.7891 203.412 29.7912C203.365 29.7933 203.456 29.7975 203.416 29.7996C203.408 29.7975 203.389 29.7954 203.365 29.7975C203.378 29.806 203.313 29.8039 203.272 29.806C203.22 29.8207 203.087 29.825 203.034 29.8419C202.867 29.8419 202.789 29.8588 202.711 29.8778C202.692 29.8714 202.667 29.882 202.65 29.8778C202.681 29.8862 202.692 29.8841 202.696 29.8946C202.681 29.8946 202.681 29.8968 202.66 29.8968C202.656 29.8925 202.671 29.8925 202.669 29.8883C202.622 29.8968 202.616 29.8968 202.578 29.901C202.603 29.901 202.603 29.9031 202.595 29.9052H202.308C202.394 29.901 202.485 29.9094 202.527 29.8968C202.439 29.8968 202.36 29.8799 202.32 29.8862C202.312 29.8862 202.303 29.8862 202.303 29.8883C202.308 29.8883 202.314 29.8883 202.32 29.8862C202.339 29.8862 202.367 29.8862 202.365 29.8904C202.356 29.8946 202.35 29.8968 202.32 29.8968C202.274 29.8883 202.274 29.8968 202.198 29.8968C202.23 29.8904 202.13 29.8904 202.192 29.8841C202.162 29.8799 202.086 29.8925 202.08 29.8799C202.105 29.8799 202.16 29.8799 202.164 29.8756C202.124 29.8756 202.208 29.8693 202.16 29.8672C202.105 29.8756 202.082 29.8609 202.027 29.8672C202.027 29.8651 202.042 29.8651 202.035 29.8609C201.999 29.863 202.004 29.8609 201.974 29.8609C201.966 29.8693 202.021 29.863 202.016 29.8693C201.885 29.8714 201.85 29.8756 201.782 29.863C201.797 29.863 201.816 29.863 201.818 29.8609C201.803 29.8609 201.793 29.8588 201.79 29.8545C201.733 29.8545 201.712 29.8588 201.685 29.863C201.533 29.8566 201.332 29.8461 201.108 29.8545C201.108 29.8503 201.14 29.8503 201.127 29.8461C201.068 29.8482 201.024 29.8588 201.077 29.8651C201.054 29.8651 201.049 29.8651 201.032 29.8651C201.028 29.8651 201.024 29.863 201.018 29.863C200.956 29.8566 200.914 29.8714 200.878 29.9031H199.246C199.238 29.8862 199.225 29.8756 199.198 29.8778C199.183 29.8778 199.158 29.8925 199.16 29.8968C199.16 29.8989 199.16 29.901 199.162 29.9031H197.285C197.298 29.8883 197.304 29.8714 197.289 29.8419C197.258 29.7806 197.188 29.7701 197.118 29.768C197.04 29.787 196.987 29.8292 196.966 29.9031H195.873L201.628 8.42741V8.43374ZM197.737 29.787C197.779 29.787 197.752 29.7806 197.756 29.7764C197.718 29.7806 197.692 29.768 197.695 29.7764C197.695 29.7806 197.728 29.7764 197.733 29.7806C197.733 29.7806 197.735 29.7849 197.735 29.787H197.737ZM197.752 29.8123C197.768 29.8123 197.779 29.8123 197.79 29.8123C197.79 29.8081 197.785 29.806 197.785 29.8017C197.754 29.8017 197.756 29.806 197.754 29.8102L197.752 29.8123ZM197.802 29.8186C197.743 29.8144 197.752 29.825 197.794 29.8271C197.796 29.825 197.809 29.8229 197.802 29.8186ZM199.409 28.877C199.356 28.8665 199.316 28.8601 199.276 28.8517C199.215 28.839 199.16 28.839 199.143 28.9066C199.132 28.9572 199.118 29.0164 199.181 29.048C199.242 29.0797 199.291 29.0396 199.329 29.0037C199.36 28.9741 199.398 28.9446 199.407 28.877H199.409ZM199.622 27.7306C199.622 27.7306 199.605 27.7137 199.595 27.7074C199.59 27.7137 199.582 27.7201 199.584 27.7243C199.588 27.7369 199.597 27.7475 199.603 27.7581C199.609 27.7496 199.616 27.7412 199.622 27.7327V27.7306ZM199.776 28.516C199.846 28.5075 199.956 28.3935 199.945 28.3492C199.928 28.2901 199.785 28.2183 199.721 28.2394C199.628 28.269 199.614 28.3344 199.637 28.421C199.656 28.4949 199.704 28.5266 199.778 28.516H199.776ZM200.068 29.0713C200.055 29.0164 200.019 28.9952 199.977 29.0058C199.922 29.0185 199.871 29.048 199.882 29.1114C199.888 29.162 199.93 29.1916 199.985 29.1768C200.042 29.162 200.078 29.124 200.068 29.0734V29.0713ZM200.568 28.7588C200.633 28.7461 200.72 28.7672 200.714 28.6764C200.709 28.6026 200.589 28.5266 200.515 28.5413C200.443 28.5561 200.403 28.5962 200.418 28.6701C200.435 28.7546 200.481 28.7926 200.566 28.7588H200.568ZM200.933 29.2106C200.904 29.124 200.828 29.1008 200.739 29.105C200.625 29.1114 200.509 29.2169 200.53 29.3035C200.551 29.3858 200.623 29.4006 200.703 29.3922C200.828 29.3795 200.956 29.2824 200.933 29.2106ZM201.13 28.0642C201.119 28.0008 201.062 27.9692 200.982 27.9776C200.876 27.9903 200.8 28.0621 200.826 28.136C200.853 28.2225 200.927 28.2584 201.016 28.2605C201.087 28.2605 201.146 28.1507 201.132 28.0642H201.13ZM205.698 29.8778C205.719 29.8735 205.694 29.8756 205.684 29.8714C205.586 29.8756 205.453 29.8799 205.396 29.882C205.483 29.8883 205.635 29.8693 205.679 29.8841C205.667 29.8841 205.673 29.8841 205.679 29.8841C205.705 29.8735 205.728 29.8799 205.776 29.8841C205.785 29.8778 205.817 29.8756 205.836 29.8799C205.867 29.8651 205.77 29.8799 205.7 29.8756L205.698 29.8778ZM207.869 29.7025L207.852 29.6962V29.711L207.869 29.7046V29.7025ZM208.755 29.7067C208.755 29.7067 208.749 29.6983 208.739 29.6962C208.698 29.6962 208.682 29.7004 208.682 29.7046C208.717 29.7025 208.72 29.7067 208.755 29.7046V29.7067ZM209.963 29.8693C209.952 29.8651 209.862 29.8693 209.855 29.8693C209.898 29.8714 209.908 29.8693 209.963 29.8693ZM210.417 27.4329C210.411 27.4224 210.404 27.4034 210.396 27.4013C210.387 27.3991 210.373 27.4118 210.362 27.416C210.371 27.4266 210.377 27.4414 210.387 27.4498C210.404 27.4604 210.417 27.4519 210.419 27.4329H210.417ZM210.476 28.1254C210.476 28.1697 210.508 28.1909 210.55 28.1993C210.584 28.2056 210.609 28.1909 210.615 28.1486C210.607 28.117 210.588 28.0874 210.542 28.0811C210.506 28.0769 210.478 28.0874 210.478 28.1233L210.476 28.1254ZM210.208 24.8952C210.227 24.9332 210.278 24.9353 210.314 24.9184C210.366 24.8931 210.425 24.872 210.457 24.8086C210.392 24.7749 210.328 24.7749 210.269 24.7939C210.221 24.8107 210.183 24.8424 210.21 24.8952H210.208ZM209.792 26.0733C209.805 26.1239 209.834 26.1556 209.866 26.1535C209.972 26.1197 210.054 26.0944 210.134 26.0669C210.162 26.0585 210.162 26.031 210.155 26.0099C210.136 25.9529 209.976 25.8727 209.912 25.8854C209.828 25.9023 209.771 25.9909 209.794 26.0733H209.792ZM209.813 28.6173C209.792 28.6237 209.767 28.63 209.756 28.6448C209.743 28.6638 209.756 28.687 209.786 28.6828C209.805 28.6807 209.822 28.6638 209.841 28.6532C209.83 28.6384 209.817 28.6173 209.813 28.6173ZM209.661 27.9628C209.665 27.9924 209.68 28.0304 209.716 28.0283C209.769 28.0262 209.762 27.9797 209.762 27.946C209.752 27.9143 209.737 27.8763 209.703 27.8784C209.651 27.8784 209.655 27.9248 209.659 27.9628H209.661ZM209.646 29.8693C209.703 29.8545 209.87 29.8693 209.959 29.8609C209.879 29.8588 209.792 29.8566 209.701 29.8566C209.703 29.863 209.629 29.8588 209.646 29.8672V29.8693ZM209.553 29.9052C209.553 29.9052 209.575 29.9115 209.604 29.9094C209.604 29.9073 209.608 29.9052 209.613 29.9031C209.583 29.9031 209.577 29.9073 209.551 29.9031L209.553 29.9052ZM209.41 26.5103C209.41 26.5567 209.452 26.5377 209.48 26.5399C209.52 26.5272 209.553 26.5103 209.528 26.4639C209.52 26.4491 209.49 26.4322 209.473 26.4343C209.431 26.4406 209.408 26.4723 209.41 26.5103ZM209.399 29.8883C209.427 29.8883 209.446 29.8883 209.461 29.8883C209.461 29.8862 209.465 29.8841 209.469 29.882C209.433 29.882 209.408 29.882 209.399 29.8883ZM209.144 25.8453C209.15 25.8664 209.169 25.8896 209.197 25.8748C209.241 25.8495 209.304 25.8368 209.298 25.7714C209.273 25.7397 209.241 25.7397 209.209 25.7481C209.157 25.7608 209.129 25.7946 209.144 25.8474V25.8453ZM209.123 28.383C209.123 28.383 209.142 28.4168 209.146 28.4147C209.188 28.4041 209.23 28.3893 209.249 28.345C209.201 28.345 209.15 28.3365 209.123 28.383ZM208.912 25.1697C208.912 25.1697 208.954 25.1844 208.975 25.1823C209.009 25.1781 209.03 25.1549 209.011 25.1232C209.002 25.1105 208.973 25.1084 208.958 25.1021C208.918 25.1148 208.899 25.138 208.912 25.1675V25.1697ZM208.62 28.8834C208.717 28.9087 208.806 28.9171 208.891 28.8918C208.929 28.8791 208.95 28.8411 208.939 28.801C208.926 28.7503 208.876 28.7546 208.84 28.7546C208.745 28.7588 208.692 28.8327 208.62 28.8834ZM208.466 25.5898C208.475 25.6278 208.515 25.6236 208.544 25.6215C208.589 25.6194 208.614 25.5961 208.603 25.5518C208.593 25.5159 208.559 25.5159 208.527 25.5159C208.485 25.5243 208.458 25.5497 208.468 25.5898H208.466ZM207.881 28.5244C207.812 28.6068 207.829 28.6532 207.934 28.6891C208.133 28.7588 208.228 28.6279 208.344 28.5308C208.133 28.3872 208.002 28.3851 207.881 28.5244ZM207.708 25.3723C207.706 25.3998 207.738 25.423 207.776 25.4188C207.822 25.4146 207.839 25.3871 207.845 25.347C207.835 25.3196 207.824 25.29 207.782 25.2984C207.74 25.3069 207.71 25.3364 207.708 25.3723ZM207.48 26.4871C207.501 26.5335 207.548 26.5483 207.598 26.542C207.636 26.5251 207.67 26.5019 207.655 26.4596C207.636 26.4068 207.582 26.4069 207.535 26.4111C207.491 26.4153 207.459 26.4406 207.48 26.485V26.4871ZM207.24 25.8241C207.24 25.8495 207.265 25.8621 207.288 25.86C207.322 25.8558 207.345 25.8389 207.347 25.8051C207.347 25.7756 207.322 25.7756 207.299 25.7735C207.267 25.7798 207.237 25.7883 207.24 25.8241ZM206.952 26.9769C206.959 26.9959 206.969 27.0149 206.978 27.0339C206.986 27.0276 206.995 27.0212 207.007 27.0107C206.997 26.9938 206.986 26.9748 206.976 26.9558C206.967 26.9621 206.948 26.9706 206.95 26.9769H206.952ZM206.771 28.8306C206.784 28.8791 206.836 28.9002 206.887 28.9024C206.921 28.9024 206.94 28.8728 206.94 28.8411C206.94 28.782 206.902 28.763 206.847 28.763C206.803 28.7693 206.76 28.7883 206.771 28.8306ZM206.659 29.8946C206.72 29.8862 206.79 29.901 206.815 29.8925C206.773 29.8904 206.693 29.8925 206.665 29.8862C206.67 29.8904 206.655 29.8904 206.657 29.8946H206.659ZM205.798 27.2767C205.804 27.2957 205.823 27.2999 205.836 27.2872C205.844 27.2788 205.844 27.2619 205.848 27.2492C205.833 27.245 205.819 27.2429 205.804 27.2387C205.8 27.2514 205.791 27.2661 205.795 27.2767H205.798ZM205.259 28.5054C205.287 28.5413 205.331 28.5434 205.365 28.5202C205.42 28.4843 205.491 28.4611 205.521 28.3745C205.422 28.3408 205.346 28.345 205.28 28.3893C205.236 28.4189 205.23 28.4632 205.261 28.5054H205.259ZM213.305 8.57731C213.257 8.57731 213.109 8.58575 213.086 8.58997C213.301 8.58997 213.343 8.56886 213.531 8.5752C213.445 8.57308 213.381 8.56675 213.316 8.57097C213.335 8.57097 213.335 8.57308 213.337 8.5752C213.259 8.57097 213.252 8.57308 213.307 8.57731H213.305ZM212.418 8.50763C212.357 8.51186 212.281 8.50341 212.258 8.50975C212.315 8.50975 212.416 8.51397 212.418 8.50763ZM212.201 8.47808C212.304 8.47808 212.328 8.48652 212.38 8.47808C212.347 8.47808 212.245 8.47385 212.201 8.47808ZM211.948 8.50975C212.007 8.50975 212.19 8.51608 212.207 8.50975C212.108 8.50975 212.005 8.50975 211.948 8.50975ZM211.456 8.46119C211.536 8.46119 211.73 8.46963 211.819 8.46752C211.705 8.46752 211.517 8.45063 211.456 8.46119ZM210.81 8.51186C210.839 8.51608 210.972 8.51608 210.957 8.51186C210.89 8.51186 210.848 8.50975 210.81 8.51186ZM210.003 8.48019C210.05 8.47385 210.212 8.48019 210.292 8.47597C210.231 8.47597 210.181 8.47597 210.174 8.46963C210.071 8.46963 210.054 8.46963 209.961 8.46963C209.95 8.47597 209.957 8.47808 210.003 8.4823V8.48019ZM209.623 8.47597C209.642 8.47385 209.781 8.47597 209.733 8.46963C209.697 8.46963 209.648 8.46963 209.623 8.47597ZM209.433 8.45908C209.433 8.45908 209.488 8.4633 209.505 8.46752C209.509 8.46541 209.526 8.46541 209.515 8.46119C209.494 8.46119 209.469 8.45908 209.433 8.45908ZM209.241 8.4633C209.311 8.4633 209.42 8.46752 209.418 8.45908C209.368 8.45908 209.264 8.45274 209.241 8.4633ZM208.513 8.49286C208.475 8.49286 208.449 8.49286 208.43 8.49075C208.407 8.49708 208.521 8.49708 208.513 8.49286ZM208.137 8.44852C208.168 8.45274 208.23 8.44852 208.251 8.44852C208.217 8.44852 208.141 8.44641 208.137 8.44852ZM207.786 8.4823C207.786 8.4823 207.833 8.48863 207.873 8.48863C207.911 8.48863 207.943 8.48863 207.951 8.48441C207.898 8.48441 207.902 8.48652 207.871 8.48652C207.871 8.4823 207.862 8.48019 207.833 8.48019C207.833 8.48019 207.81 8.48019 207.784 8.48019L207.786 8.4823ZM206.317 8.45485C206.391 8.45485 206.416 8.45696 206.463 8.45485C206.699 8.47174 207.039 8.47808 207.326 8.47385C207.349 8.47808 207.4 8.47808 207.43 8.4823C207.527 8.47808 207.753 8.49286 207.755 8.4823C207.617 8.4823 207.383 8.47597 207.193 8.47385C207.102 8.47385 207.003 8.47385 206.961 8.46963C206.984 8.46963 206.995 8.47174 207.028 8.47174C207.007 8.46119 206.904 8.47174 206.876 8.46541C206.931 8.46541 206.893 8.46119 206.957 8.46541C206.957 8.46119 206.919 8.46119 206.887 8.45908C206.864 8.46119 206.762 8.46119 206.739 8.45908C206.714 8.4633 206.741 8.46119 206.743 8.46541C206.79 8.46541 206.906 8.46541 206.845 8.47174C206.809 8.4633 206.703 8.47174 206.661 8.46541C206.682 8.46541 206.688 8.46119 206.688 8.45908C206.627 8.45908 206.638 8.45908 206.61 8.4633C206.562 8.46119 206.64 8.45696 206.572 8.45696C206.515 8.45696 206.587 8.4633 206.492 8.45908C206.52 8.45485 206.323 8.45274 206.313 8.45908L206.317 8.45485ZM205.899 8.6132C205.935 8.6132 205.95 8.61742 206 8.61742C206 8.61742 205.998 8.6132 205.996 8.6132C205.96 8.6132 205.905 8.60898 205.899 8.6132ZM204.56 29.2972C204.554 29.2634 204.527 29.2528 204.493 29.2507C204.459 29.2507 204.432 29.2613 204.429 29.295C204.429 29.3309 204.461 29.3415 204.493 29.3394C204.524 29.3394 204.552 29.3309 204.558 29.295L204.56 29.2972ZM204.942 8.45063C204.942 8.45063 205.027 8.45274 205.042 8.45274C205.016 8.45274 205.025 8.44852 204.989 8.44852C204.987 8.44852 204.989 8.45274 204.974 8.45274C204.957 8.45274 204.953 8.45274 204.94 8.45274L204.942 8.45063ZM204.398 27.435C204.406 27.4899 204.455 27.5216 204.514 27.5427C204.584 27.568 204.636 27.5617 204.689 27.5131C204.75 27.4583 204.82 27.4139 204.9 27.3548C204.75 27.2682 204.628 27.3168 204.505 27.34C204.453 27.3506 204.387 27.3675 204.398 27.435ZM202.726 29.8376C202.726 29.8376 202.705 29.8334 202.721 29.8292C202.694 29.8292 202.688 29.8334 202.65 29.8334C202.65 29.8376 202.679 29.8376 202.69 29.8419C202.69 29.8398 202.709 29.8398 202.726 29.8398V29.8376ZM202.838 29.8165C202.829 29.8334 202.888 29.8229 202.871 29.8334C202.941 29.8334 202.857 29.8186 202.838 29.8165ZM203.205 29.7701C203.169 29.7701 203.213 29.7659 203.201 29.7616C203.169 29.7616 203.171 29.7659 203.169 29.7701C203.186 29.7701 203.237 29.7722 203.205 29.7701ZM203.215 29.5336C203.203 29.521 203.194 29.5231 203.186 29.5357C203.192 29.5378 203.196 29.5421 203.203 29.5442C203.207 29.54 203.211 29.5378 203.218 29.5336H203.215ZM203.298 29.7637C203.262 29.768 203.251 29.7659 203.224 29.7637C203.23 29.7701 203.26 29.7701 203.289 29.7701C203.289 29.768 203.294 29.7659 203.298 29.7637ZM203.767 27.207C203.767 27.207 203.779 27.2091 203.788 27.2112C203.794 27.207 203.798 27.2028 203.805 27.1986C203.798 27.1943 203.792 27.188 203.786 27.188C203.764 27.188 203.758 27.1965 203.767 27.2091V27.207ZM203.146 27.7412C203.184 27.8087 203.239 27.8446 203.325 27.8298C203.509 27.8003 203.593 27.6989 203.583 27.4498C203.471 27.53 203.365 27.53 203.268 27.5617C203.245 27.568 203.224 27.5786 203.205 27.5913C203.152 27.6272 203.106 27.6715 203.144 27.7412H203.146ZM202.838 29.7912C202.833 29.8039 202.743 29.7912 202.719 29.7975C202.73 29.7975 202.753 29.8102 202.688 29.8081C202.734 29.8123 202.719 29.8292 202.804 29.8207C202.785 29.8207 202.772 29.8186 202.764 29.8144C202.8 29.8017 202.852 29.8144 202.905 29.8039C202.916 29.8081 202.873 29.8102 202.92 29.8102C202.935 29.8081 202.92 29.806 202.916 29.7996C202.966 29.8039 202.952 29.7933 202.926 29.7954C202.975 29.787 203.023 29.7891 203.076 29.7806C203.021 29.7764 203.034 29.7722 202.949 29.7701C202.941 29.7637 203.034 29.7637 202.979 29.7574C202.96 29.7637 202.84 29.768 202.937 29.7701C202.8 29.7701 202.816 29.7785 202.738 29.7891C202.781 29.7891 202.816 29.7891 202.838 29.7912ZM202.576 27.4477C202.578 27.4963 202.62 27.5068 202.662 27.5047C202.696 27.5047 202.726 27.4878 202.715 27.4498C202.705 27.4118 202.681 27.3801 202.633 27.3844C202.597 27.3949 202.572 27.416 202.574 27.4477H202.576ZM202.593 29.3499C202.593 29.3499 202.614 29.3352 202.624 29.3246C202.629 29.3077 202.624 29.2929 202.605 29.2908C202.593 29.2908 202.576 29.2972 202.569 29.3056C202.559 29.3246 202.565 29.3457 202.593 29.3478V29.3499ZM201.989 8.4443C201.976 8.45063 202.2 8.44852 202.154 8.44641C202.063 8.44641 202.059 8.44641 201.989 8.4443ZM201.951 29.7701C201.947 29.806 201.978 29.8186 202.014 29.8123C202.061 29.7996 202.113 29.7849 202.118 29.7363C202.12 29.711 202.08 29.6856 202.046 29.6899C201.993 29.6941 201.955 29.7194 201.951 29.7701ZM201.655 28.421C201.676 28.4379 201.702 28.4379 201.714 28.4147C201.731 28.383 201.788 28.383 201.782 28.3323C201.725 28.3006 201.689 28.3323 201.655 28.364C201.638 28.3809 201.636 28.4041 201.655 28.421ZM154.353 8.06005C154.34 8.06005 154.329 8.03894 154.313 8.01994C154.313 8.03049 154.306 8.02205 154.313 8.03049C154.323 8.03049 154.319 8.04105 154.315 8.03683C154.325 8.0516 154.372 8.09594 154.353 8.06005ZM157.997 21.1013L157.291 23.7319C156.377 27.1458 152.868 29.9115 149.457 29.9115H144.468C139.209 29.9115 136.01 25.803 137.089 20.622C137.129 20.4257 137.175 20.2272 137.228 20.0288L137.49 19.0512C137.49 19.0512 137.496 19.0428 137.498 19.0301C137.498 19.0301 137.496 19.0301 137.494 19.0301L137.501 19.009C137.515 18.9795 137.536 18.9056 137.547 18.8697C137.543 18.8633 137.541 18.8697 137.536 18.8739L137.545 18.8422C137.545 18.8422 137.549 18.8422 137.555 18.8422C137.566 18.8148 137.549 18.8274 137.555 18.8063C137.566 18.8106 137.572 18.762 137.583 18.7578C137.583 18.7177 137.593 18.7092 137.6 18.7156C137.6 18.6797 137.608 18.6691 137.606 18.6417C137.615 18.629 137.608 18.6417 137.617 18.6438C137.623 18.6058 137.625 18.61 137.636 18.5847C137.636 18.5699 137.636 18.5614 137.636 18.5466C137.644 18.5319 137.646 18.5129 137.646 18.5403C137.674 18.4559 137.661 18.4136 137.672 18.3756L137.688 18.3123C137.688 18.3123 137.688 18.3186 137.688 18.3207C137.697 18.3039 137.71 18.2637 137.71 18.2891C137.71 18.268 137.739 18.2004 137.731 18.211C137.722 18.23 137.703 18.2785 137.705 18.2447L137.802 17.8774C137.802 17.8774 137.802 17.8964 137.794 17.9133C137.8 17.9281 137.817 17.8985 137.813 17.8816C137.809 17.8922 137.805 17.9006 137.8 17.9069C137.798 17.9006 137.811 17.8668 137.807 17.8626C137.807 17.8647 137.805 17.8668 137.802 17.8689L137.836 17.7444C137.845 17.7317 137.857 17.7275 137.853 17.7254C137.853 17.7085 137.847 17.7148 137.84 17.7296L137.851 17.6874C137.851 17.6874 137.851 17.7043 137.855 17.7085C137.868 17.6684 137.859 17.6831 137.859 17.6726C137.864 17.6663 137.868 17.6409 137.874 17.6494C137.872 17.6599 137.868 17.6747 137.87 17.6768C137.878 17.6409 137.885 17.624 137.893 17.6177C137.9 17.5712 137.914 17.5417 137.938 17.4446C137.938 17.4277 137.927 17.453 137.931 17.4235C137.974 17.3137 137.978 17.2039 138.007 17.1194C138.007 17.1173 138.007 17.1152 138.007 17.1152L138.016 17.0814C138.016 17.0814 138.016 17.0814 138.016 17.0836C138.016 17.0709 138.02 17.0582 138.022 17.0455L138.035 16.9949C138.047 16.9569 138.062 16.9189 138.075 16.8682C138.075 16.864 138.075 16.8598 138.075 16.8555L138.322 15.9308C138.309 15.9836 138.297 16.0343 138.29 16.0913C138.286 16.0659 138.261 16.1757 138.278 16.1525C138.24 16.2686 138.193 16.4523 138.183 16.5621C138.191 16.5177 138.221 16.4438 138.218 16.4058C138.225 16.4291 138.231 16.3678 138.227 16.3615C138.229 16.3615 138.231 16.3615 138.235 16.3636C138.332 15.992 138.438 15.5782 138.527 15.2552C138.527 15.2172 138.571 15.1032 138.563 15.061C138.582 15.0145 138.588 14.9997 138.594 14.9491C138.603 14.9723 138.609 14.8963 138.62 14.909C138.624 14.8667 138.649 14.8245 138.645 14.8055C138.628 14.8583 138.626 14.8942 138.609 14.9068C138.626 14.8562 138.632 14.8013 138.653 14.7717C138.66 14.7316 138.672 14.6535 138.689 14.6239C138.679 14.6155 138.704 14.5775 138.702 14.5543C138.698 14.55 138.691 14.5648 138.693 14.5522C138.698 14.5163 138.719 14.4783 138.721 14.4487C138.719 14.455 138.717 14.4614 138.715 14.4635L138.723 14.4297C138.723 14.4297 138.725 14.4213 138.727 14.417L138.738 14.3748C138.738 14.3748 138.738 14.4107 138.75 14.3938C138.742 14.3896 138.75 14.3579 138.746 14.3474L139.352 12.0883C139.375 12.1284 139.424 12.139 139.47 12.1263C139.54 12.1094 139.605 12.0799 139.603 11.9933C139.563 11.93 139.5 11.9194 139.434 11.9279C139.418 11.93 139.403 11.9342 139.39 11.9405L139.652 10.9609C139.667 10.9736 139.684 10.9841 139.701 10.9905C139.701 11.0031 139.696 11.0158 139.696 11.0243C139.701 11.0179 139.705 11.0031 139.709 10.9926C139.736 11.001 139.768 11.0052 139.796 11.0137C139.876 11.0052 139.939 10.9039 139.916 10.8195C139.899 10.7603 139.863 10.7097 139.789 10.7076C139.8 10.6653 139.804 10.659 139.817 10.602C139.806 10.6062 139.81 10.602 139.8 10.6062C139.796 10.6421 139.785 10.6527 139.785 10.6759C139.791 10.6717 139.798 10.6273 139.804 10.6252C139.802 10.6569 139.791 10.6822 139.781 10.7076C139.766 10.7118 139.732 10.7498 139.698 10.792L140.33 8.43585H146.739C146.729 8.45908 146.725 8.48652 146.731 8.51819C146.744 8.58364 146.79 8.60898 146.856 8.59842C146.938 8.58364 147.005 8.51397 147.005 8.43796H147.848L144.311 21.6354C143.982 22.8642 144.711 23.8607 145.939 23.8607H147.757C148.849 23.8607 149.972 22.9761 150.265 21.8824L152.577 13.2516C152.615 13.2622 152.649 13.2917 152.687 13.3023C152.748 13.3171 152.788 13.296 152.767 13.2368C152.748 13.1798 152.714 13.1228 152.68 13.0701C152.67 13.0532 152.655 13.0363 152.634 13.0321L153.037 11.5288C153.061 11.5183 153.082 11.4929 153.073 11.4592C153.071 11.4486 153.067 11.4444 153.063 11.4359L154.046 7.76236C154.057 7.77292 154.068 7.78559 154.074 7.79825C154.108 7.8257 154.167 7.91437 154.209 7.9376C154.213 7.94393 154.217 7.94815 154.213 7.95026C154.228 7.96927 154.226 7.95026 154.241 7.96927C154.249 7.97771 154.241 7.97771 154.249 7.98616C154.264 7.9946 154.272 8.00516 154.27 7.99671C154.279 8.00938 154.279 8.01782 154.287 8.03049C154.3 8.03049 154.31 8.05583 154.317 8.06638C154.353 8.09805 154.391 8.14239 154.435 8.18461C154.435 8.18884 154.437 8.19306 154.441 8.19728C154.448 8.20361 154.456 8.20995 154.467 8.21417C154.481 8.22684 154.494 8.23951 154.509 8.25217C154.498 8.23739 154.473 8.21206 154.494 8.22473C154.492 8.22473 154.488 8.2205 154.486 8.2205C154.5 8.2205 154.513 8.2205 154.526 8.2205C154.53 8.22473 154.534 8.23106 154.538 8.23528C154.538 8.23528 154.541 8.23317 154.545 8.23528L154.623 8.31973C154.623 8.31973 154.623 8.31973 154.623 8.32184C154.623 8.32184 154.623 8.32184 154.625 8.32184L154.663 8.36407C154.663 8.36407 154.667 8.3704 154.669 8.37251C154.671 8.37463 154.676 8.37885 154.68 8.38307L154.728 8.43585C154.728 8.43585 154.731 8.44007 154.728 8.44219H154.733L154.75 8.46119C154.75 8.46119 154.756 8.47174 154.758 8.47597C154.76 8.47597 154.762 8.47808 154.766 8.48019L154.94 8.66809C154.94 8.66809 154.94 8.67231 154.946 8.67865C154.946 8.67865 154.946 8.67654 154.946 8.67442L155.239 8.99322C155.239 8.99322 155.246 9.008 155.254 9.01856C155.265 9.03123 155.292 9.05656 155.309 9.07767C155.347 9.12412 155.362 9.13257 155.402 9.18113C155.4 9.18324 155.387 9.16846 155.387 9.17268C155.402 9.18746 155.406 9.18324 155.419 9.1959C155.423 9.20857 155.467 9.24657 155.448 9.24235C155.469 9.26769 155.474 9.25502 155.493 9.27613C155.501 9.28669 155.495 9.2888 155.507 9.30147C155.514 9.30147 155.522 9.30569 155.535 9.32258C155.535 9.3268 155.537 9.33102 155.531 9.3268C155.588 9.37325 155.586 9.39436 155.632 9.44503C155.634 9.4387 155.636 9.43448 155.649 9.45137C155.64 9.45137 155.672 9.49148 155.683 9.50837C155.691 9.50626 155.664 9.48515 155.674 9.48303C155.687 9.49992 155.687 9.50626 155.7 9.50626C155.7 9.5147 155.693 9.51048 155.706 9.52737C155.708 9.52104 155.712 9.51681 155.725 9.53159C155.719 9.53159 155.727 9.54215 155.723 9.54426C155.788 9.59704 155.856 9.69627 155.942 9.7765C155.976 9.81661 156.025 9.88417 156.061 9.90951C156.101 9.96229 156.137 9.99396 156.185 10.0446C156.189 10.0573 156.198 10.0679 156.211 10.0784C156.204 10.0721 156.211 10.0742 156.217 10.0784C156.221 10.0869 156.225 10.0974 156.232 10.1059C156.236 10.1059 156.242 10.1122 156.251 10.1185C156.251 10.146 156.297 10.1502 156.314 10.1945C156.367 10.2283 156.434 10.3381 156.483 10.3571C156.468 10.3381 156.458 10.3465 156.449 10.3275C156.489 10.3402 156.515 10.3888 156.567 10.4331C156.567 10.4331 156.567 10.431 156.567 10.4289L156.626 10.4943L156.74 10.6189C156.74 10.6189 156.745 10.6273 156.749 10.6273H156.751C156.751 10.6273 156.747 10.64 156.751 10.6463C156.77 10.6463 156.8 10.7076 156.823 10.7118C156.835 10.7413 156.869 10.7688 156.886 10.7962C156.899 10.7962 156.933 10.8363 156.947 10.8554C156.949 10.8554 156.947 10.8511 156.947 10.8469L162.838 17.2525L165.192 8.46963H172.71L166.767 30.6484L164.014 27.6546C164.079 27.7243 164.159 27.8066 164.225 27.8805C164.197 27.8341 164.102 27.7517 164.066 27.701C164.073 27.701 164.075 27.701 164.081 27.701C164.052 27.6652 164.024 27.6293 164.014 27.606C163.952 27.5448 163.893 27.4688 163.86 27.4203C163.843 27.4013 163.847 27.4139 163.832 27.3949C163.836 27.3949 163.824 27.3822 163.832 27.3822C163.815 27.3675 163.794 27.3442 163.79 27.3337C163.754 27.3041 163.76 27.2978 163.724 27.2661C163.724 27.2661 163.724 27.264 163.724 27.2619C163.663 27.1986 163.629 27.1458 163.57 27.0909C163.572 27.0909 163.566 27.0825 163.568 27.0803C163.537 27.0444 163.52 27.0318 163.511 27.0128C163.418 26.9199 163.351 26.827 163.247 26.732C163.245 26.7278 163.241 26.7193 163.233 26.7109C163.192 26.6771 163.119 26.5926 163.078 26.5567C163.068 26.5504 163.062 26.5462 163.053 26.542C163.038 26.5251 163.068 26.5525 163.045 26.5272C163.024 26.5061 163.059 26.5504 163.043 26.5335C163.04 26.5272 163.032 26.5187 163.021 26.5082C163.021 26.5187 162.994 26.485 162.977 26.466C162.945 26.447 162.884 26.3857 162.853 26.3667C162.804 26.314 162.768 26.2844 162.736 26.2612L162.297 25.784V25.7798C162.282 25.7629 162.272 25.7545 162.263 25.746L162.204 25.6827C162.147 25.6151 162.08 25.5349 161.997 25.4526C161.997 25.4505 162.012 25.4673 162.01 25.4589C161.991 25.4399 161.974 25.4272 161.972 25.4293L157.995 21.1034L157.997 21.1013ZM166.526 9.16635C166.528 9.19168 166.554 9.20857 166.579 9.19802C166.608 9.18535 166.619 9.1579 166.623 9.12623C166.619 9.09879 166.6 9.08612 166.573 9.09668C166.543 9.10934 166.524 9.13257 166.526 9.16424V9.16635ZM165.403 29.0016C165.42 29.0185 165.418 29.0206 165.435 29.0375C165.439 29.0375 165.435 29.0311 165.435 29.0248C165.418 29.0058 165.407 28.9995 165.405 29.0016H165.403ZM162.983 26.4174C162.983 26.4174 162.996 26.4364 163.007 26.4512C163.007 26.4491 163.011 26.4512 163.015 26.4512C162.998 26.4364 162.994 26.4301 162.983 26.4153V26.4174ZM162.783 26.257C162.77 26.2591 162.802 26.2823 162.787 26.2802C162.819 26.3118 162.787 26.2675 162.783 26.257ZM162.954 26.3942C162.954 26.3942 162.981 26.428 162.971 26.4111C162.956 26.3942 162.977 26.4132 162.973 26.4047C162.958 26.39 162.958 26.3921 162.954 26.3942ZM162.722 26.1831C162.739 26.2063 162.722 26.2063 162.766 26.2443C162.758 26.2358 162.753 26.2274 162.751 26.2232C162.774 26.2358 162.791 26.2654 162.819 26.2865C162.819 26.2928 162.802 26.276 162.823 26.2971C162.831 26.3034 162.825 26.2971 162.827 26.2907C162.846 26.3161 162.846 26.3055 162.834 26.2928C162.859 26.3118 162.88 26.3372 162.907 26.3583C162.886 26.3308 162.893 26.3351 162.857 26.2928C162.857 26.2865 162.897 26.3287 162.878 26.3013C162.865 26.295 162.81 26.2401 162.853 26.2865C162.793 26.2211 162.796 26.2337 162.755 26.1999C162.774 26.2189 162.789 26.2358 162.798 26.2485C162.789 26.2527 162.755 26.2042 162.743 26.1936C162.747 26.1999 162.751 26.2147 162.724 26.1831H162.722ZM162.692 26.1746C162.692 26.1746 162.703 26.1915 162.705 26.1978C162.705 26.1978 162.713 26.2063 162.722 26.2126C162.724 26.2084 162.713 26.1999 162.724 26.2063C162.711 26.1936 162.707 26.1915 162.69 26.1746H162.692ZM160.581 23.8522C160.558 23.8227 160.555 23.8311 160.572 23.8522C160.574 23.8522 160.581 23.8586 160.581 23.8522ZM160.577 23.8438C160.577 23.8438 160.579 23.8396 160.581 23.8375C160.566 23.8227 160.566 23.8248 160.562 23.8269C160.57 23.8353 160.572 23.8396 160.577 23.8459V23.8438ZM160.558 23.7826C160.558 23.7826 160.572 23.7995 160.572 23.8016C160.572 23.8016 160.572 23.8037 160.572 23.8058C160.589 23.8269 160.583 23.81 160.587 23.81C160.568 23.7931 160.564 23.7762 160.56 23.7826H160.558ZM159.692 13.8639C159.692 13.8639 159.7 13.8808 159.713 13.8934L159.717 13.8892C159.717 13.8892 159.698 13.8618 159.692 13.866V13.8639ZM158.501 12.6605C158.527 12.6921 158.55 12.7196 158.562 12.7365C158.56 12.7217 158.516 12.6731 158.501 12.6605ZM158.056 12.1094C158.039 12.0947 158.047 12.0925 158.035 12.0799C158.026 12.0841 158.049 12.1094 158.056 12.1094ZM147.191 9.82717C147.202 9.86517 147.233 9.89051 147.28 9.87995C147.322 9.86939 147.347 9.83984 147.335 9.80183C147.322 9.75539 147.276 9.75539 147.238 9.76383C147.204 9.77017 147.183 9.7955 147.191 9.82717ZM146.275 8.97C146.279 8.99533 146.3 9.008 146.326 9.00167C146.359 8.99322 146.376 8.97 146.374 8.93833C146.374 8.91088 146.347 8.90877 146.324 8.91088C146.292 8.91933 146.267 8.93411 146.273 8.97H146.275ZM146.074 10.1227C146.1 10.1227 146.117 10.1164 146.121 10.0911C146.11 10.0826 146.1 10.0636 146.093 10.0657C146.081 10.0679 146.066 10.0805 146.06 10.0911C146.049 10.108 146.057 10.1206 146.076 10.1227H146.074ZM145.58 8.81799C145.642 8.87499 145.701 8.82855 145.753 8.8011C145.794 8.7821 145.827 8.74832 145.861 8.71876C145.876 8.70398 145.886 8.68287 145.861 8.63431C145.838 8.59842 145.775 8.62164 145.724 8.60686C145.644 8.58575 145.606 8.62587 145.582 8.6892C145.566 8.73143 145.547 8.7821 145.582 8.81799H145.58ZM145.477 10.659C145.483 10.6928 145.515 10.7097 145.547 10.7097C145.58 10.7097 145.606 10.6907 145.601 10.6548C145.597 10.6189 145.574 10.6041 145.532 10.6083C145.504 10.6168 145.466 10.6189 145.475 10.659H145.477ZM145.103 9.28458C145.205 9.30991 145.219 9.24024 145.245 9.14946C145.156 9.1389 145.082 9.12623 145.057 9.21491C145.046 9.24869 145.076 9.27613 145.103 9.28458ZM144.656 9.71527C144.656 9.71527 144.679 9.72794 144.692 9.73427C144.717 9.72583 144.734 9.70894 144.721 9.6836C144.717 9.67516 144.696 9.6646 144.685 9.66671C144.66 9.67094 144.645 9.68994 144.656 9.71527ZM144.362 8.98056C144.366 9.03545 144.411 9.05656 144.47 9.05656C144.529 9.027 144.611 9.008 144.597 8.91933C144.586 8.86233 144.531 8.85177 144.483 8.86233C144.417 8.87499 144.358 8.90455 144.364 8.98056H144.362ZM137.047 21.1857C137.055 21.1709 137.061 21.1287 137.072 21.1456C137.087 21.0823 137.045 21.1604 137.047 21.1857ZM137.161 20.3328C137.154 20.375 137.135 20.3919 137.137 20.4088C137.144 20.3982 137.148 20.3771 137.154 20.3771C137.144 20.4193 137.114 20.4742 137.131 20.4637C137.131 20.4468 137.148 20.413 137.154 20.4046C137.152 20.3919 137.165 20.3074 137.161 20.3307V20.3328ZM137.45 19.3363C137.441 19.3722 137.444 19.3574 137.441 19.3426C137.439 19.3574 137.431 19.3637 137.435 19.3679C137.448 19.3405 137.431 19.4017 137.435 19.4038C137.444 19.3848 137.456 19.3278 137.45 19.3341V19.3363ZM137.961 18.3503C137.961 18.363 137.946 18.3946 137.952 18.3946C137.952 18.4031 137.952 18.4031 137.959 18.4348C137.967 18.3968 137.974 18.3587 137.961 18.3524V18.3503ZM138.964 13.6105C138.964 13.6105 138.953 13.6253 138.949 13.6148C138.943 13.6401 138.953 13.6443 138.957 13.6359C138.959 13.6274 138.962 13.619 138.964 13.6105ZM139.181 12.8083C139.166 12.8336 139.154 12.937 139.135 12.9539C139.128 12.975 139.133 12.9814 139.124 13.0067C139.122 13.0004 139.122 12.9919 139.118 12.9856C139.095 13.1207 139.019 13.3128 139.002 13.4543C138.972 13.4944 138.987 13.562 138.962 13.5831C138.972 13.5789 138.968 13.5789 138.974 13.5873C138.981 13.5261 139.014 13.4353 139.029 13.4353C139.014 13.4353 139.04 13.4543 139.021 13.4796C139.023 13.4923 139.035 13.4606 139.031 13.4818C139.023 13.4965 139.014 13.5092 139.006 13.5219C139.002 13.543 139 13.5578 138.997 13.5746C138.993 13.5746 138.991 13.5704 138.987 13.581C139.004 13.5768 138.978 13.6274 138.974 13.6422C138.987 13.6295 139 13.5789 139.012 13.5704C139.006 13.5599 139.014 13.5535 139.021 13.5261C139.025 13.5261 139.027 13.5303 139.031 13.5198C139.031 13.5113 139.048 13.4818 139.044 13.4585C139.038 13.4754 139.035 13.4754 139.033 13.4649C139.048 13.4226 139.054 13.372 139.078 13.3297C139.065 13.3213 139.08 13.2917 139.09 13.2601C139.086 13.258 139.08 13.2601 139.082 13.2474C139.088 13.2305 139.092 13.2326 139.099 13.2242C139.095 13.239 139.09 13.277 139.099 13.2516C139.092 13.2474 139.118 13.1925 139.109 13.1904C139.105 13.2094 139.101 13.2178 139.095 13.2136C139.107 13.1946 139.095 13.1946 139.105 13.1608C139.099 13.1545 139.092 13.1524 139.092 13.1376C139.111 13.1207 139.101 13.0891 139.107 13.0574C139.12 13.0363 139.133 13.0173 139.145 13.0131C139.152 12.9856 139.156 12.9772 139.154 12.9687C139.147 12.9856 139.143 12.9835 139.137 12.9919C139.145 12.937 139.154 12.918 139.171 12.8632C139.166 12.8505 139.166 12.8315 139.177 12.8083H139.181ZM139.31 12.519C139.31 12.519 139.306 12.5127 139.304 12.5085C139.299 12.5232 139.295 12.5275 139.291 12.5232C139.28 12.5612 139.287 12.5718 139.282 12.595C139.274 12.6182 139.266 12.6267 139.255 12.6436C139.253 12.6795 139.228 12.7365 139.217 12.7998C139.228 12.7576 139.238 12.7513 139.249 12.7344C139.249 12.7006 139.261 12.6816 139.261 12.6541C139.266 12.6541 139.268 12.6499 139.268 12.6372C139.274 12.6394 139.28 12.6436 139.285 12.6246C139.282 12.6035 139.291 12.5634 139.289 12.5422C139.295 12.5338 139.299 12.5296 139.306 12.519H139.31ZM139.373 12.2403C139.373 12.272 139.352 12.3227 139.344 12.3058C139.348 12.3058 139.339 12.3311 139.344 12.3332C139.346 12.3184 139.361 12.3079 139.356 12.3269C139.348 12.3438 139.356 12.3501 139.352 12.3818C139.352 12.3396 139.38 12.2551 139.373 12.2382V12.2403ZM139.392 12.1622C139.386 12.1876 139.373 12.2213 139.382 12.2234C139.386 12.2023 139.405 12.158 139.392 12.1622ZM139.694 11.0306C139.688 11.0559 139.686 11.0601 139.684 11.0454C139.682 11.0538 139.679 11.0623 139.677 11.0707C139.682 11.0749 139.686 11.0623 139.69 11.0644C139.694 11.0475 139.696 11.0348 139.694 11.0285V11.0306ZM139.994 11.6365C140.064 11.6281 140.104 11.5795 140.091 11.4993C140.057 11.4507 140.017 11.3937 139.939 11.4169C139.878 11.4338 139.806 11.4718 139.821 11.5394C139.836 11.6154 139.918 11.6471 139.994 11.6386V11.6365ZM140.319 12.1918C140.306 12.1179 140.233 12.1158 140.171 12.1115C140.091 12.1052 139.998 12.1918 140.005 12.2636C140.011 12.3459 140.074 12.3776 140.157 12.3797C140.243 12.3797 140.33 12.2868 140.319 12.1918ZM140.993 8.66387C141.003 8.68709 141.022 8.70398 141.05 8.69343C141.058 8.6892 141.064 8.66598 141.062 8.65331C141.056 8.63009 141.039 8.60898 141.009 8.62375C140.999 8.63009 140.999 8.64909 140.993 8.66387ZM141.088 10.5914C141.14 10.5851 141.172 10.5556 141.166 10.4985C141.145 10.4437 141.111 10.3993 141.043 10.412C140.997 10.4204 140.99 10.4648 140.999 10.5028C141.009 10.5471 141.024 10.5978 141.088 10.5914ZM141.311 11.2312C141.311 11.1868 141.284 11.1636 141.237 11.1573C141.193 11.1509 141.151 11.1615 141.14 11.2016C141.128 11.2417 141.149 11.2776 141.199 11.286C141.25 11.2945 141.299 11.2924 141.314 11.2333L141.311 11.2312ZM141.409 9.31836C141.394 9.29724 141.366 9.29936 141.345 9.30991C141.32 9.32047 141.32 9.3458 141.328 9.36692C141.337 9.39014 141.354 9.40703 141.383 9.39225C141.411 9.37536 141.432 9.35003 141.409 9.31836ZM141.729 10.7223C141.727 10.6759 141.706 10.6653 141.681 10.6632C141.637 10.6611 141.609 10.6843 141.599 10.7202C141.588 10.7625 141.624 10.7688 141.653 10.7646C141.689 10.7582 141.727 10.7477 141.729 10.7202V10.7223ZM141.962 8.78632C141.951 8.72509 141.896 8.73143 141.85 8.72932C141.748 8.72509 141.632 8.81166 141.637 8.89611C141.639 8.97633 141.706 8.99533 141.774 8.99533C141.848 8.99533 141.968 8.8581 141.964 8.78632H141.962ZM142.679 9.82506C142.669 9.80395 142.654 9.78706 142.627 9.7955C142.597 9.80395 142.563 9.8145 142.563 9.84828C142.563 9.89262 142.603 9.89262 142.631 9.8884C142.663 9.88206 142.686 9.86306 142.679 9.82506ZM143.1 8.55619C143.1 8.52241 143.068 8.50341 143.032 8.50975C142.954 8.52453 142.872 8.54986 142.865 8.63431C142.861 8.68076 142.929 8.69343 142.977 8.69765C143.064 8.68498 143.1 8.6322 143.1 8.55619ZM143.393 9.25291C143.383 9.23813 143.376 9.22124 143.364 9.21491C143.309 9.18324 143.256 9.18535 143.207 9.21913C143.146 9.26135 143.074 9.29936 143.079 9.39014C143.079 9.40281 143.091 9.4197 143.102 9.42814C143.161 9.46614 143.226 9.48092 143.279 9.43448C143.334 9.38592 143.402 9.34158 143.393 9.25502V9.25291ZM143.752 10.5978C143.706 10.5239 143.636 10.5175 143.564 10.5366C143.509 10.5513 143.465 10.5936 143.48 10.6527C143.505 10.7392 143.589 10.7392 143.657 10.7287C143.727 10.7181 143.758 10.6674 143.752 10.5978ZM143.801 8.72087C143.758 8.64064 143.735 8.54564 143.619 8.46541C143.594 8.56675 143.613 8.65542 143.575 8.73143C143.551 8.77999 143.543 8.83699 143.602 8.8771C143.655 8.913 143.714 8.91088 143.765 8.88344C143.832 8.84755 143.83 8.77788 143.801 8.72087ZM144.056 9.4767C144.031 9.41759 143.98 9.41125 143.934 9.42603C143.866 9.44714 143.79 9.47459 143.813 9.55904C143.828 9.61604 143.896 9.63716 143.95 9.62449C144.029 9.60549 144.06 9.55059 144.054 9.4767H144.056ZM153.348 12.0672C153.208 12.0771 153.149 12.127 153.17 12.2171C153.238 12.1707 153.263 12.0883 153.348 12.0672ZM153.709 11.778C153.709 11.7315 153.675 11.7167 153.628 11.7189C153.519 11.7231 153.449 11.8033 153.468 11.9004C153.481 11.9659 153.529 11.9638 153.58 11.9553C153.688 11.9405 153.73 11.8835 153.711 11.778H153.709ZM154.129 8.60475C154.114 8.57097 154.087 8.56464 154.055 8.56886C154.03 8.57308 154.011 8.58997 154.019 8.6132C154.03 8.64276 154.061 8.65542 154.095 8.6512C154.122 8.64698 154.129 8.62587 154.129 8.60475ZM154.553 8.29229C154.562 8.30495 154.562 8.3134 154.57 8.32607C154.576 8.32184 154.557 8.2944 154.553 8.29229ZM154.587 9.99818C154.572 9.99185 154.551 9.9834 154.528 9.97707C154.435 9.9454 154.3 9.98974 154.258 10.0679C154.249 10.0847 154.243 10.1164 154.253 10.1312C154.304 10.1945 154.374 10.2072 154.448 10.1819C154.526 10.1544 154.579 10.1059 154.587 10.0003V9.99818ZM154.625 8.37463C154.625 8.37463 154.608 8.35985 154.604 8.36407C154.608 8.3704 154.614 8.37463 154.619 8.38096C154.619 8.37885 154.623 8.37674 154.623 8.37463H154.625ZM154.889 8.66176C154.914 8.6892 154.946 8.72721 154.969 8.75254C154.959 8.74198 154.95 8.73143 154.952 8.72721C154.994 8.77365 155.035 8.82855 155.089 8.87288C155.098 8.88766 155.111 8.89822 155.108 8.90244C155.138 8.92989 155.159 8.96367 155.189 8.98267C155.187 8.98689 155.239 9.04812 155.231 9.02911C155.206 8.99322 155.153 8.95522 155.138 8.91722C155.144 8.92144 155.153 8.92777 155.157 8.92989C155.144 8.91933 155.1 8.88555 155.113 8.88766C155.049 8.83488 154.975 8.73987 154.921 8.68287C154.897 8.67442 154.908 8.66176 154.887 8.66176H154.889ZM154.84 8.58786C154.809 8.56042 154.777 8.52241 154.752 8.51608C154.752 8.51186 154.739 8.49919 154.739 8.49497C154.745 8.5013 154.754 8.51186 154.756 8.50975C154.743 8.49919 154.747 8.49708 154.737 8.48652C154.737 8.50552 154.743 8.50975 154.737 8.51608C154.756 8.50763 154.809 8.5752 154.826 8.59631C154.807 8.56886 154.832 8.58786 154.84 8.58786ZM154.857 8.61953C154.864 8.63009 154.878 8.66387 154.887 8.65542C154.876 8.64487 154.861 8.63009 154.872 8.63009C154.857 8.61109 154.849 8.6132 154.836 8.60053C154.832 8.60264 154.849 8.62798 154.851 8.62587C154.845 8.61742 154.845 8.60898 154.855 8.61953H154.857ZM155.032 9.59282C155.016 9.55482 154.992 9.52315 154.948 9.52315C154.893 9.52315 154.866 9.55904 154.868 9.60971C154.87 9.65405 154.899 9.67727 154.946 9.67094C154.992 9.6646 155.039 9.65405 155.03 9.59282H155.032ZM155.246 10.2494C155.252 10.2093 155.225 10.1882 155.193 10.184C155.125 10.1734 155.096 10.2199 155.079 10.2684C155.064 10.3043 155.1 10.3212 155.132 10.3275C155.201 10.3402 155.229 10.298 155.246 10.2494ZM155.343 9.15579C155.294 9.10723 155.265 9.06712 155.237 9.04389C155.271 9.08612 155.298 9.11568 155.336 9.1579C155.336 9.1579 155.343 9.16212 155.345 9.1579L155.343 9.15579ZM155.372 9.19168C155.372 9.19168 155.362 9.17268 155.347 9.1579C155.347 9.16424 155.334 9.16424 155.343 9.17268C155.343 9.17268 155.345 9.16846 155.347 9.16846C155.36 9.1769 155.364 9.19168 155.372 9.18957V9.19168ZM155.497 9.3268C155.497 9.3268 155.476 9.30147 155.472 9.29302C155.465 9.3078 155.444 9.25502 155.434 9.25924C155.461 9.28669 155.478 9.31413 155.488 9.3268C155.488 9.3268 155.488 9.32891 155.491 9.33314C155.493 9.32891 155.486 9.32047 155.497 9.32469V9.3268ZM155.687 9.82295C155.687 9.82295 155.666 9.80606 155.655 9.79972C155.645 9.80817 155.626 9.81661 155.626 9.82717C155.626 9.83773 155.638 9.86095 155.647 9.86306C155.674 9.86728 155.691 9.84828 155.687 9.82295ZM155.738 9.61604C155.723 9.60338 155.7 9.57593 155.685 9.55482C155.687 9.56537 155.727 9.61393 155.738 9.61604ZM155.769 9.61182C155.729 9.57804 155.691 9.5337 155.659 9.50204C155.662 9.50626 155.668 9.51048 155.666 9.51259C155.636 9.48303 155.605 9.44503 155.583 9.42392C155.586 9.42814 155.588 9.43025 155.583 9.43236C155.548 9.39858 155.529 9.35214 155.499 9.33736C155.514 9.36269 155.552 9.38803 155.548 9.40281C155.581 9.44503 155.636 9.49148 155.668 9.54215C155.7 9.55904 155.738 9.61393 155.752 9.63716C155.742 9.61815 155.729 9.58649 155.765 9.61182H155.769ZM155.814 9.69205C155.814 9.69205 155.795 9.66883 155.788 9.66883C155.79 9.67516 155.805 9.68783 155.814 9.69205ZM155.904 9.79761C155.904 9.79761 155.898 9.78706 155.9 9.78494C155.873 9.75539 155.828 9.70049 155.82 9.71316C155.849 9.72794 155.883 9.78283 155.904 9.79761ZM156.411 10.374C156.403 10.355 156.392 10.3486 156.384 10.3444C156.384 10.3402 156.384 10.336 156.379 10.3318C156.369 10.3254 156.36 10.3085 156.346 10.3022C156.289 10.2389 156.377 10.3486 156.369 10.3275C156.382 10.3465 156.39 10.3634 156.411 10.3761V10.374ZM156.443 10.412C156.432 10.3972 156.42 10.3761 156.411 10.3803C156.422 10.3888 156.439 10.412 156.443 10.412ZM156.481 10.4584C156.474 10.4479 156.464 10.431 156.453 10.4289C156.46 10.4373 156.472 10.4584 156.481 10.4584ZM156.555 10.5471C156.555 10.5344 156.525 10.5197 156.529 10.507C156.517 10.5007 156.496 10.469 156.485 10.4648C156.506 10.4964 156.534 10.5154 156.546 10.5429C156.546 10.5429 156.555 10.5492 156.557 10.5471H156.555ZM156.622 10.6949L156.607 10.6886V10.7012L156.622 10.6949ZM156.681 10.6696C156.637 10.64 156.603 10.5851 156.559 10.5408C156.563 10.5577 156.567 10.564 156.58 10.5851C156.584 10.5767 156.591 10.5936 156.593 10.5978C156.597 10.5914 156.61 10.6041 156.624 10.621C156.626 10.6273 156.624 10.6337 156.629 10.6421C156.635 10.6294 156.662 10.678 156.671 10.6801C156.65 10.6569 156.671 10.6674 156.679 10.6696H156.681ZM156.772 10.792C156.772 10.792 156.753 10.7709 156.751 10.7646C156.74 10.7688 156.768 10.7962 156.772 10.792ZM156.816 10.7815C156.816 10.7815 156.857 10.8279 156.848 10.8131C156.84 10.8047 156.808 10.7667 156.816 10.7815ZM156.901 10.9314C156.882 10.906 156.859 10.8891 156.84 10.8617C156.838 10.868 156.821 10.8406 156.819 10.8511C156.857 10.8828 156.861 10.8934 156.89 10.9356C156.89 10.9314 156.897 10.9292 156.901 10.9314ZM157.868 11.8814C157.868 11.8814 157.912 11.9405 157.904 11.9279C157.9 11.9215 157.895 11.9173 157.895 11.911C157.887 11.9004 157.876 11.892 157.868 11.8814ZM157.91 12.0018C157.87 11.9659 157.864 11.9342 157.836 11.9131C157.851 11.9405 157.885 11.9849 157.91 12.0018ZM157.982 12.0187C157.969 12.006 157.965 11.9975 157.957 11.987C157.946 11.987 157.98 12.0271 157.982 12.0187ZM177.705 24.5426C177.699 24.5679 177.695 24.587 177.699 24.5954C177.707 24.5827 177.714 24.5405 177.705 24.5426ZM137.912 17.5142C137.921 17.4889 137.929 17.4784 137.929 17.453C137.921 17.4784 137.912 17.4889 137.912 17.5142ZM176.251 30.0931C176.24 30.1417 176.234 30.1712 176.229 30.2177C176.234 30.205 176.234 30.2071 176.236 30.2134L176.278 30.0551C176.274 30.0699 176.267 30.0847 176.263 30.0994C176.263 30.0868 176.257 30.0847 176.251 30.0952V30.0931ZM176.305 29.8102C176.314 29.7764 176.333 29.7574 176.327 29.7321C176.322 29.7616 176.316 29.7426 176.31 29.7659C176.318 29.7659 176.297 29.8123 176.305 29.8102ZM175.598 32.5865L174.011 38.5149L168.188 32.1832L174.551 8.43374H180.036C180.074 8.43374 180.112 8.43374 180.152 8.43374H180.517C180.589 8.43585 180.655 8.43796 180.705 8.43374H180.748C180.748 8.43374 180.735 8.43585 180.76 8.43796C180.76 8.43796 180.788 8.43796 180.794 8.43796C180.781 8.43796 180.775 8.43796 180.779 8.44219C180.737 8.44219 180.714 8.43796 180.716 8.4443C180.94 8.44852 181.216 8.45063 181.408 8.45485C181.453 8.45485 181.493 8.45063 181.524 8.45696C181.527 8.45274 181.499 8.45274 181.489 8.45063C181.516 8.45063 181.533 8.44641 181.567 8.44641C181.596 8.45274 181.721 8.45063 181.797 8.44641C181.9 8.45063 181.987 8.45063 182.067 8.44852L180.319 14.9702C180.319 14.9702 180.317 14.9639 180.313 14.9639C180.313 14.9786 180.313 14.985 180.313 14.9892L179.886 16.5811C179.886 16.5811 179.884 16.5832 179.882 16.5853C179.88 16.5959 179.88 16.6001 179.882 16.6043L179.829 16.8006C179.831 16.788 179.827 16.7922 179.829 16.7816C179.846 16.75 179.863 16.6613 179.865 16.6254C179.85 16.6887 179.825 16.7669 179.819 16.826C179.821 16.8154 179.825 16.8006 179.827 16.8006C179.823 16.8133 179.823 16.8196 179.823 16.826L179.816 16.8513C179.816 16.8513 179.816 16.8344 179.81 16.8598C179.81 16.864 179.81 16.8682 179.81 16.8724L179.688 17.3285C179.681 17.3411 179.675 17.3496 179.669 17.3517C179.658 17.4235 179.643 17.4952 179.616 17.5607C179.612 17.5776 179.622 17.5691 179.616 17.5881C179.599 17.624 179.591 17.6747 179.582 17.7254L179.565 17.7866C179.565 17.7866 179.565 17.7782 179.559 17.7866C179.54 17.9133 179.496 18.0104 179.474 18.1075C179.47 18.1033 179.481 18.0695 179.472 18.0695C179.466 18.097 179.449 18.154 179.445 18.192C179.441 18.192 179.436 18.2025 179.432 18.1983C179.424 18.2637 179.398 18.3165 179.377 18.3883C179.379 18.401 179.392 18.3693 179.388 18.3904C179.384 18.4073 179.379 18.4263 179.375 18.4432C179.375 18.4305 179.369 18.4284 179.363 18.4495C179.35 18.5255 179.322 18.6163 179.316 18.6881C179.312 18.6585 179.308 18.7092 179.308 18.7134C179.308 18.7134 179.303 18.7113 179.303 18.7134C179.272 18.8106 179.242 18.9858 179.217 19.0935L179.202 19.1505C179.202 19.1505 179.196 19.1695 179.194 19.1737C179.194 19.1737 179.194 19.1737 179.196 19.1737L179.181 19.2286V19.2244C179.177 19.2455 179.17 19.2687 179.166 19.2919L178.514 21.7283C178.507 21.7494 178.491 21.7938 178.488 21.8191L178.404 22.1316C178.404 22.1168 178.404 22.0914 178.404 22.0703C178.421 22.0788 178.408 22.0154 178.425 22.0112C178.434 21.9838 178.423 21.9922 178.425 21.9732C178.434 21.95 178.442 21.9415 178.45 21.9141C178.476 21.7093 178.552 21.4919 178.592 21.2934C178.579 21.3377 178.567 21.3926 178.554 21.4137C178.556 21.399 178.571 21.3715 178.567 21.361C178.56 21.3757 178.556 21.4053 178.55 21.4116C178.556 21.3631 178.577 21.3356 178.577 21.3166C178.564 21.3673 178.569 21.3124 178.567 21.3145C178.558 21.3314 178.558 21.3588 178.543 21.3821C178.548 21.3863 178.552 21.3736 178.556 21.3757C178.552 21.3926 178.545 21.3905 178.539 21.4095C178.539 21.5383 178.469 21.722 178.45 21.8677C178.436 21.8719 178.436 21.9035 178.442 21.9035C178.429 21.9415 178.423 21.9458 178.412 21.9605C178.421 22.0007 178.379 22.102 178.379 22.1548C178.351 22.2033 178.341 22.3321 178.324 22.3912C178.326 22.3849 178.328 22.3807 178.33 22.3849C178.324 22.4166 178.322 22.4356 178.311 22.4546C178.311 22.4314 178.32 22.4398 178.324 22.4124C178.29 22.4694 178.282 22.5749 178.254 22.6636C178.254 22.6784 178.252 22.6974 178.25 22.7164C178.239 22.7333 178.231 22.7818 178.22 22.8219L177.317 26.1978C177.317 26.1978 177.321 26.1704 177.31 26.1767C177.306 26.2042 177.296 26.2105 177.302 26.2211C177.304 26.2084 177.308 26.2126 177.313 26.2063L177.27 26.3625C177.27 26.3498 177.272 26.3393 177.272 26.333C177.268 26.3625 177.262 26.3435 177.256 26.3667C177.272 26.3477 177.245 26.4575 177.245 26.4195C177.241 26.4364 177.241 26.4512 177.243 26.4596L177.236 26.485C177.224 26.5061 177.211 26.5546 177.196 26.5736C177.196 26.5546 177.209 26.5082 177.215 26.4765C177.205 26.485 177.186 26.5652 177.182 26.5884C177.182 26.5884 177.188 26.5948 177.186 26.6074C177.182 26.6201 177.173 26.6285 177.169 26.6412C177.152 26.6982 177.146 26.7869 177.122 26.8143C177.131 26.7848 177.131 26.7679 177.127 26.7594C177.099 26.9072 177.07 26.9959 177.034 27.1606C177.032 27.1606 177.034 27.1521 177.03 27.15C177.023 27.2091 176.998 27.2682 176.996 27.3358C176.992 27.3337 176.996 27.321 176.992 27.3168C176.985 27.3548 176.983 27.3844 176.979 27.416C176.979 27.3949 176.964 27.4435 176.956 27.4477C176.962 27.4477 176.962 27.4561 176.956 27.4751C176.947 27.4941 176.951 27.4625 176.945 27.4815C176.939 27.5279 176.928 27.5786 176.926 27.6145C176.922 27.6145 176.926 27.568 176.918 27.5934C176.918 27.6525 176.865 27.7939 176.852 27.8446C176.861 27.8193 176.852 27.8742 176.846 27.8805C176.85 27.8932 176.863 27.8488 176.859 27.8742C176.846 27.8826 176.84 27.9417 176.833 27.9502C176.821 27.9607 176.84 27.9206 176.833 27.9227C176.818 27.9565 176.806 27.9966 176.791 28.041C176.799 27.9565 176.856 27.8003 176.863 27.6799C176.854 27.6863 176.856 27.7179 176.852 27.7327C176.833 27.7327 176.844 27.7623 176.833 27.7834C176.816 27.7559 176.856 27.6905 176.859 27.6504C176.856 27.6609 176.852 27.6715 176.85 27.6673C176.85 27.6588 176.85 27.6567 176.85 27.6483C176.865 27.5934 176.897 27.5005 176.884 27.4899C176.894 27.4477 176.92 27.4181 176.924 27.3801C176.909 27.4245 176.894 27.4646 176.875 27.4794C176.871 27.4794 176.888 27.416 176.878 27.4435C176.871 27.5089 176.865 27.5321 176.85 27.5934C176.856 27.587 176.859 27.5512 176.867 27.5596C176.861 27.5849 176.854 27.6293 176.846 27.6272C176.846 27.5997 176.829 27.6377 176.833 27.6419C176.842 27.6187 176.842 27.6525 176.84 27.663C176.835 27.663 176.833 27.6842 176.829 27.6968C176.825 27.6968 176.821 27.6968 176.816 27.7032C176.81 27.7306 176.81 27.7454 176.808 27.7665C176.768 27.8742 176.759 28.0389 176.726 28.1444C176.726 28.1381 176.726 28.1339 176.726 28.136C176.732 28.1571 176.711 28.2099 176.719 28.2078C176.715 28.2162 176.698 28.2626 176.702 28.269C176.709 28.2648 176.711 28.2268 176.717 28.2268C176.719 28.2289 176.717 28.2373 176.717 28.2458C176.704 28.2669 176.707 28.2711 176.704 28.2985C176.7 28.307 176.696 28.3154 176.69 28.3218C176.681 28.3767 176.675 28.3999 176.664 28.4548C176.66 28.4548 176.66 28.4484 176.658 28.4442C176.656 28.4674 176.65 28.4885 176.641 28.5054C176.643 28.4801 176.643 28.459 176.641 28.44C176.637 28.4801 176.62 28.5413 176.628 28.5561C176.633 28.5413 176.628 28.5181 176.639 28.5118C176.635 28.5392 176.633 28.5646 176.633 28.5836C176.628 28.5814 176.624 28.5899 176.622 28.6089C176.622 28.5878 176.605 28.6152 176.599 28.63C176.607 28.6384 176.614 28.6131 176.622 28.6173C176.612 28.6574 176.622 28.6279 176.622 28.6448C176.614 28.6891 176.601 28.6912 176.593 28.7292C176.586 28.7166 176.593 28.6807 176.593 28.6638C176.58 28.7123 176.59 28.7208 176.58 28.763C176.574 28.7609 176.576 28.744 176.567 28.7693C176.571 28.8285 176.54 28.9382 176.525 29.0079C176.533 28.9974 176.525 28.9805 176.536 28.9741C176.538 28.9784 176.536 28.9931 176.536 29.0016C176.527 29.0037 176.523 29.0333 176.514 29.0227C176.512 29.0734 176.491 29.1261 176.481 29.1895C176.474 29.1958 176.455 29.2064 176.46 29.2296C176.462 29.219 176.466 29.2085 176.468 29.2127C176.462 29.2507 176.455 29.276 176.443 29.3352C176.424 29.3352 176.409 29.4091 176.39 29.4428C176.39 29.4639 176.398 29.4344 176.396 29.4534C176.362 29.54 176.352 29.5948 176.318 29.711C176.327 29.6518 176.301 29.7637 176.303 29.7257C176.299 29.7659 176.289 29.8355 176.278 29.8588C176.278 29.844 176.293 29.8482 176.289 29.8609C176.28 29.8778 176.278 29.8609 176.276 29.8946C176.267 29.8862 176.261 29.8946 176.255 29.9179C176.255 29.9305 176.265 29.9221 176.261 29.939C176.251 29.9643 176.251 29.9728 176.244 29.9896C176.244 29.977 176.244 29.9664 176.244 29.9622C176.24 29.9918 176.236 29.9749 176.234 29.9685C176.225 29.9939 176.217 30.0213 176.206 30.0361C176.219 30.0382 176.232 30.0192 176.236 30.0445C176.244 30.0171 176.253 30.0234 176.261 30.015C176.234 30.1438 176.183 30.3127 176.137 30.4182C176.132 30.3992 176.124 30.3971 176.111 30.4203C176.149 30.4858 176.052 30.6378 176.048 30.756C176.058 30.7729 176.065 30.7518 176.082 30.756C176.075 30.7835 176.073 30.8004 176.071 30.8173L175.98 31.153C175.98 31.153 175.98 31.1318 175.98 31.1192C175.972 31.1572 175.968 31.1593 175.97 31.1804C175.961 31.1867 175.953 31.1973 175.947 31.2311C175.947 31.2458 175.947 31.2564 175.947 31.2691L175.619 32.4894C175.598 32.5274 175.575 32.6245 175.564 32.6519C175.577 32.6372 175.586 32.6097 175.594 32.5823L175.598 32.5865ZM179.681 17.3242C179.686 17.2989 179.694 17.2989 179.698 17.2736C179.69 17.2672 179.673 17.32 179.681 17.3242ZM179.515 17.9196C179.521 17.9344 179.538 17.8837 179.534 17.8689C179.529 17.9091 179.519 17.89 179.515 17.9196ZM179.5 16.2475C179.5 16.2475 179.517 16.2053 179.506 16.2116C179.502 16.2158 179.483 16.3277 179.5 16.2475ZM178.588 21.3652C178.583 21.3842 178.567 21.4264 178.575 21.4348C178.575 21.4137 178.592 21.3863 178.588 21.3652ZM178.607 21.1836C178.6 21.2047 178.594 21.2005 178.588 21.2153C178.594 21.2153 178.592 21.2322 178.6 21.2279C178.607 21.2068 178.611 21.1857 178.605 21.1836H178.607ZM178.683 20.8711C178.683 20.8711 178.687 20.8648 178.689 20.8543C178.672 20.8543 178.664 20.9788 178.666 20.9788C178.666 20.9556 178.687 20.8944 178.685 20.8733C178.685 20.8775 178.681 20.8817 178.683 20.8733V20.8711ZM178.786 20.6115C178.776 20.6452 178.78 20.6115 178.778 20.6009C178.771 20.6326 178.763 20.6685 178.767 20.6811C178.771 20.6516 178.795 20.6009 178.786 20.6115ZM178.873 20.2167C178.879 20.1913 178.873 20.2314 178.879 20.2272C178.883 20.2019 178.881 20.185 178.879 20.1723C178.873 20.1934 178.873 20.2082 178.875 20.2167H178.873ZM178.828 20.3898C178.803 20.451 178.809 20.489 178.784 20.5735C178.792 20.5735 178.799 20.5376 178.807 20.5333C178.803 20.4637 178.85 20.3433 178.856 20.2673C178.847 20.299 178.826 20.3602 178.831 20.3898H178.828ZM178.763 20.4383C178.776 20.3729 178.773 20.3666 178.792 20.3264C178.788 20.3264 178.788 20.3201 178.786 20.3159C178.773 20.3518 178.757 20.413 178.763 20.4404V20.4383ZM178.742 20.5143C178.727 20.5608 178.716 20.6452 178.742 20.5228C178.744 20.527 178.757 20.4996 178.75 20.4974C178.735 20.508 178.769 20.451 178.752 20.451C178.748 20.4784 178.742 20.4763 178.738 20.5038C178.738 20.5059 178.742 20.5038 178.74 20.5143H178.742ZM178.702 20.7001C178.708 20.6748 178.719 20.641 178.71 20.6368C178.704 20.6642 178.697 20.6896 178.702 20.7001ZM178.689 20.7614C178.695 20.736 178.7 20.7128 178.691 20.7149C178.683 20.7445 178.685 20.755 178.689 20.7614ZM178.649 20.8796C178.649 20.8944 178.659 20.8859 178.666 20.8754C178.64 20.8901 178.693 20.7804 178.681 20.7782C178.666 20.831 178.664 20.831 178.649 20.8817V20.8796ZM178.586 21.2153C178.6 21.1498 178.626 21.0569 178.617 21.0569C178.628 21.0358 178.645 20.9788 178.649 20.9915C178.64 21.0358 178.609 21.1414 178.613 21.1583C178.628 21.0992 178.659 20.9661 178.664 20.9028C178.651 20.945 178.651 20.9514 178.638 20.9978C178.617 21.0147 178.586 21.1815 178.586 21.2153ZM178.575 21.2871C178.579 21.2765 178.586 21.2617 178.592 21.2533C178.592 21.2659 178.581 21.2997 178.594 21.2913C178.602 21.2596 178.592 21.2575 178.594 21.2364C178.59 21.2596 178.583 21.2659 178.581 21.2512C178.579 21.2638 178.573 21.2828 178.575 21.2871ZM178.07 23.0352C178.079 23.0014 178.098 22.9402 178.1 22.9233C178.092 22.9528 178.07 23.0098 178.07 23.0352ZM178.001 23.3244C178.009 23.3033 178.02 23.2674 178.013 23.2547C178.009 23.2759 177.994 23.3181 178.001 23.3244ZM177.973 23.4828C177.984 23.4511 177.997 23.4215 177.994 23.3962C177.99 23.43 177.971 23.4722 177.973 23.4828ZM177.954 23.5144C177.965 23.506 177.961 23.487 177.965 23.4617C177.952 23.4807 177.954 23.4954 177.954 23.5144ZM177.927 23.563C177.927 23.563 177.94 23.544 177.946 23.5313C177.944 23.5313 177.942 23.5313 177.937 23.5313C177.933 23.5482 177.929 23.5503 177.927 23.5651V23.563ZM177.929 23.8142C177.912 23.8311 177.94 23.7424 177.929 23.7678C177.916 23.8058 177.914 23.8565 177.929 23.8142ZM177.895 23.7678C177.895 23.7678 177.899 23.7678 177.904 23.7678C177.904 23.7446 177.921 23.7192 177.91 23.715C177.906 23.7424 177.899 23.7403 177.895 23.7657V23.7678ZM177.874 24.0507C177.88 24.0275 177.885 24 177.891 23.9895C177.887 23.9895 177.885 23.9895 177.88 23.9874C177.878 24.0085 177.866 24.0486 177.874 24.0507ZM177.861 23.9071C177.864 23.8945 177.87 23.8755 177.868 23.8712C177.868 23.8755 177.864 23.8797 177.866 23.8712C177.866 23.8649 177.87 23.8543 177.866 23.8522C177.859 23.8797 177.851 23.9092 177.861 23.9071ZM177.764 24.2808C177.769 24.2491 177.771 24.2196 177.775 24.19C177.764 24.2323 177.76 24.266 177.764 24.2808ZM177.752 24.4075C177.758 24.3758 177.756 24.3589 177.758 24.3357C177.758 24.342 177.756 24.3463 177.754 24.3442C177.754 24.3505 177.752 24.3568 177.75 24.361C177.76 24.3695 177.743 24.4075 177.752 24.4075ZM177.585 24.9839C177.591 24.9712 177.598 24.9438 177.604 24.9332C177.604 24.9395 177.6 24.9501 177.604 24.9522C177.606 24.9459 177.608 24.9353 177.61 24.9353C177.6 24.967 177.595 25.0176 177.604 24.9986C177.6 24.9818 177.614 24.9438 177.623 24.9205C177.623 24.8973 177.606 24.9353 177.612 24.8994C177.633 24.8466 177.638 24.7495 177.661 24.7263C177.661 24.7601 177.623 24.8487 177.638 24.8783C177.65 24.8276 177.657 24.7664 177.678 24.7305C177.678 24.7221 177.678 24.7115 177.678 24.7031C177.69 24.6714 177.68 24.7115 177.688 24.6967C177.686 24.6777 177.714 24.6123 177.693 24.6524C177.718 24.5806 177.735 24.5173 177.745 24.4434C177.731 24.5025 177.724 24.5046 177.714 24.5363C177.72 24.4751 177.747 24.4455 177.743 24.4054C177.739 24.418 177.737 24.4096 177.735 24.4054C177.728 24.4286 177.724 24.4582 177.718 24.4561C177.716 24.4455 177.741 24.3864 177.731 24.3758C177.684 24.5975 177.64 24.7685 177.589 24.9881L177.585 24.9839ZM177.564 25.1359C177.566 25.1127 177.583 25.1084 177.576 25.0937C177.562 25.1169 177.579 25.0641 177.585 25.0683C177.581 25.0683 177.579 25.0683 177.574 25.0662C177.566 25.0958 177.562 25.1232 177.564 25.138V25.1359ZM177.479 25.4568C177.492 25.4293 177.505 25.3934 177.505 25.3618C177.503 25.3681 177.5 25.3723 177.498 25.3702C177.494 25.404 177.479 25.4357 177.481 25.4589L177.479 25.4568ZM177.456 25.5982C177.462 25.5708 177.469 25.5455 177.465 25.5349C177.454 25.5602 177.458 25.5729 177.456 25.5982ZM177.294 26.2337C177.289 26.2654 177.275 26.2928 177.277 26.3034C177.283 26.276 177.302 26.2464 177.294 26.2337ZM177.264 26.2527C177.264 26.2253 177.281 26.1957 177.279 26.1725C177.272 26.1999 177.249 26.2464 177.264 26.2527ZM177.241 26.2464C177.241 26.2464 177.251 26.2063 177.258 26.1957C177.247 26.1936 177.239 26.2274 177.241 26.2464ZM177.074 26.8713C177.082 26.8819 177.087 26.8249 177.093 26.8207C177.091 26.8207 177.089 26.8207 177.084 26.8207C177.08 26.8375 177.076 26.8565 177.072 26.8734L177.074 26.8713ZM176.894 27.416C176.894 27.3991 176.907 27.359 176.905 27.3442C176.899 27.3654 176.886 27.4076 176.894 27.416ZM176.438 29.3267C176.438 29.295 176.464 29.2676 176.449 29.2549C176.447 29.2782 176.426 29.3288 176.438 29.3267ZM176.24 29.9601C176.246 29.9284 176.24 29.92 176.253 29.8904C176.238 29.8904 176.232 29.9559 176.24 29.9601ZM176.071 30.2409C176.075 30.2282 176.08 30.2324 176.084 30.2261C176.086 30.1923 176.096 30.1649 176.107 30.1586C176.103 30.1586 176.099 30.1543 176.099 30.148C176.094 30.1733 176.088 30.1966 176.082 30.1902C176.077 30.2219 176.065 30.2324 176.071 30.243V30.2409ZM176.01 30.8827C176.025 30.8489 176.025 30.8954 176.033 30.8785C176.023 30.8679 176.05 30.8215 176.033 30.8236C176.027 30.851 176.006 30.8489 176.008 30.8827H176.01ZM175.554 32.7089C175.558 32.6942 175.575 32.6773 175.571 32.6583C175.562 32.6646 175.535 32.7702 175.554 32.7089ZM154.154 7.8637C154.154 7.8637 154.139 7.8447 154.133 7.8447C154.137 7.85315 154.15 7.86792 154.154 7.8637ZM154.192 7.89959C154.209 7.92493 154.245 7.95238 154.268 7.9756C154.258 7.95238 154.211 7.90593 154.192 7.89959ZM176.772 28.0515C176.778 28.003 176.81 27.9291 176.81 27.8763C176.806 27.9058 176.799 27.9016 176.793 27.9101C176.789 27.9481 176.772 27.9776 176.761 28.022C176.768 28.0262 176.772 28.0367 176.772 28.0515ZM138.746 14.3579C138.746 14.3579 138.748 14.3516 138.75 14.3453L138.746 14.3579ZM190.09 29.0079C190.077 29.0037 190.067 29.0417 190.075 29.0501C190.09 29.0354 190.075 29.0354 190.079 29.0185C190.083 29.0185 190.088 29.0185 190.09 29.0079ZM202.202 29.9094C202.158 29.901 202.097 29.9094 202.031 29.9094C202.037 29.9094 202.046 29.9094 202.054 29.9115H202.168C202.179 29.9115 202.192 29.9115 202.202 29.9094ZM201.153 29.9073C201.106 29.9073 201.081 29.9073 201.111 29.8989C201.094 29.8989 201.085 29.8989 201.081 29.8989C201.083 29.9031 201.085 29.9052 201.087 29.9094H201.149C201.149 29.9094 201.153 29.9094 201.153 29.9073ZM202.069 29.8862C202.037 29.8904 201.991 29.8841 202.002 29.8968C202.029 29.8946 202.078 29.8946 202.069 29.8862ZM190.001 29.1578C190.001 29.1578 190.029 29.1261 190.014 29.1283C190.014 29.1473 190.005 29.143 190.001 29.1578ZM189.912 29.5167C189.912 29.5167 189.893 29.5547 189.912 29.5505C189.917 29.5357 189.919 29.5252 189.912 29.5167ZM139.048 13.2917C139.063 13.2812 139.035 13.3403 139.048 13.3297C139.054 13.3107 139.057 13.296 139.057 13.2854C139.052 13.2854 139.05 13.2812 139.046 13.2917H139.048ZM203.268 29.8229C203.228 29.8229 203.218 29.8313 203.226 29.8355C203.27 29.8355 203.258 29.8271 203.268 29.8229ZM201.111 29.8968C201.138 29.8968 201.165 29.8925 201.168 29.8883C201.138 29.8883 201.106 29.8904 201.111 29.8968ZM182.335 29.9115L186.467 14.4888H182.28L183.895 8.4633C183.955 8.4633 184.014 8.4633 184.071 8.45908C184.018 8.45908 183.914 8.45908 183.984 8.45274C183.959 8.45485 183.929 8.45696 183.898 8.45696L183.904 8.43585H185.002C185.002 8.43585 185.01 8.43585 185.014 8.43585H185.019H185.377C185.443 8.43585 185.508 8.43585 185.576 8.43585H185.692C185.717 8.43585 185.741 8.43585 185.766 8.43585C185.77 8.43796 185.768 8.44219 185.802 8.44219C185.798 8.44007 185.781 8.43796 185.785 8.43585H185.886C185.912 8.43585 185.935 8.44007 185.962 8.44007C185.96 8.44007 185.952 8.43585 185.95 8.43585H186.021C186.089 8.43796 186.199 8.44219 186.205 8.43585C186.416 8.43796 186.575 8.44219 186.729 8.44007C186.758 8.44852 186.908 8.44219 186.993 8.44641C187.041 8.44641 187.06 8.45274 187.113 8.45485C187.159 8.45485 187.265 8.45485 187.343 8.45485C187.514 8.45908 187.563 8.45485 187.738 8.45908C187.738 8.4633 187.685 8.45908 187.694 8.4633C187.751 8.4633 187.751 8.45696 187.803 8.45696C187.839 8.4633 188.002 8.45696 187.957 8.46752C188.05 8.46752 188.033 8.45908 188.116 8.46119C188.154 8.46119 188.152 8.46752 188.202 8.46752C188.213 8.4633 188.238 8.46119 188.297 8.4633C188.306 8.46541 188.318 8.46541 188.302 8.46752C188.508 8.46119 188.551 8.47385 188.747 8.47597C188.739 8.47174 188.734 8.46752 188.791 8.46963C188.777 8.47597 188.92 8.47808 188.981 8.4823C188.99 8.47597 188.893 8.4823 188.91 8.47385C188.969 8.47597 188.986 8.48019 189.007 8.47385C189.028 8.47808 189.005 8.48019 189.062 8.4823C189.055 8.47808 189.053 8.47385 189.104 8.47385C189.093 8.47808 189.131 8.47808 189.127 8.4823C189.366 8.47385 189.708 8.49075 190.043 8.48652C190.195 8.49075 190.43 8.49919 190.552 8.49286C190.744 8.49919 190.877 8.49708 191.076 8.49708C191.114 8.5013 191.15 8.50341 191.194 8.5013C191.169 8.5013 191.19 8.49919 191.209 8.49708C191.236 8.49919 191.264 8.5013 191.295 8.50341C191.304 8.5013 191.327 8.5013 191.359 8.5013C191.422 8.51608 191.515 8.49286 191.639 8.50763C191.808 8.49497 192.172 8.51819 192.302 8.5013C192.233 8.49919 192.229 8.50975 192.174 8.50341C192.273 8.48652 192.429 8.49919 192.623 8.49286C192.623 8.49075 192.613 8.48863 192.602 8.48863C192.666 8.48441 192.82 8.48652 192.866 8.49497C192.959 8.48441 193.195 8.49919 193.341 8.49497C193.354 8.5013 193.385 8.5013 193.39 8.49497C193.407 8.49708 193.402 8.50341 193.43 8.50552C193.47 8.49497 193.652 8.51186 193.704 8.5013C193.791 8.51186 193.913 8.50763 194.006 8.51186C194.029 8.50341 194.177 8.50763 194.249 8.50763C194.249 8.50552 194.228 8.50341 194.228 8.5013C194.281 8.5013 194.257 8.49708 194.289 8.49708C194.382 8.49708 194.39 8.50341 194.454 8.49919C194.433 8.49919 194.441 8.50975 194.458 8.50341C194.45 8.49286 194.602 8.49075 194.697 8.49497C194.68 8.48863 194.756 8.49708 194.777 8.49286C194.773 8.48863 194.735 8.48652 194.705 8.48441C194.699 8.48441 194.69 8.48863 194.675 8.48863C194.608 8.48441 194.57 8.47808 194.502 8.47597C194.547 8.47597 194.599 8.47597 194.597 8.47385C194.447 8.47385 194.414 8.47385 194.27 8.47385C194.274 8.46963 194.222 8.46963 194.215 8.46541C194.158 8.46541 194.139 8.46963 194.089 8.47174C194.021 8.4633 193.856 8.46752 193.751 8.45696C193.685 8.45696 193.605 8.46541 193.571 8.45696C193.518 8.45696 193.531 8.46119 193.493 8.46119C193.459 8.46119 193.491 8.45274 193.453 8.45063C193.451 8.45485 193.404 8.45063 193.377 8.45696C193.343 8.45063 193.259 8.45063 193.236 8.44219C193.261 8.44219 193.309 8.44219 193.337 8.43796H193.461C193.461 8.43796 193.4 8.43796 193.4 8.44219C193.474 8.44219 193.514 8.44641 193.569 8.45063C193.588 8.45063 193.569 8.4443 193.546 8.44219C193.546 8.44219 193.552 8.44641 193.533 8.44641C193.514 8.4443 193.493 8.44007 193.47 8.43796H193.647C193.647 8.43796 193.664 8.44007 193.675 8.44219C193.675 8.44219 193.673 8.44007 193.668 8.43796H199.799L198.178 14.493H193.989L190.793 26.4216C190.789 26.4259 190.784 26.4301 190.776 26.428C190.791 26.4385 190.751 26.4955 190.77 26.4934C190.765 26.504 190.757 26.4934 190.753 26.5019C190.74 26.5546 190.732 26.618 190.706 26.656C190.721 26.6496 190.717 26.6433 190.719 26.6665C190.721 26.6518 190.732 26.6349 190.742 26.618L190.269 28.3809C190.269 28.3809 190.263 28.3957 190.265 28.3999V28.4062C190.265 28.4062 190.257 28.4125 190.261 28.4168L190.231 28.5244C190.231 28.5244 190.231 28.516 190.229 28.516C190.225 28.535 190.223 28.5371 190.219 28.5266C190.208 28.5603 190.204 28.5582 190.214 28.5667C190.204 28.5941 190.202 28.5793 190.191 28.5941C190.197 28.592 190.208 28.6237 190.206 28.611C190.204 28.5983 190.21 28.5899 190.216 28.5814L190.206 28.6237C190.193 28.63 190.197 28.6152 190.189 28.6047C190.172 28.687 190.17 28.6722 190.145 28.7398C190.155 28.7461 190.157 28.7102 190.168 28.7123C190.166 28.7229 190.162 28.7335 190.159 28.744C190.166 28.744 190.172 28.744 190.176 28.7356C190.164 28.7356 190.185 28.7166 190.172 28.7081C190.176 28.7018 190.181 28.6891 190.187 28.6912L190.124 28.9298C190.124 28.9298 190.124 28.9214 190.119 28.9214C190.113 28.9509 190.107 28.9931 190.096 28.9615C190.09 28.9784 190.102 28.9784 190.096 28.9952C190.092 28.9952 190.088 28.9931 190.081 28.991C190.086 28.9784 190.1 28.9319 190.086 28.9509C190.092 28.9657 190.073 28.991 190.069 28.9995C190.073 29.0121 190.056 29.0818 190.035 29.0839C190.031 29.0818 190.031 29.0755 190.031 29.0691C190.037 29.048 190.056 29.0227 190.045 29.0121C190.052 29.0058 190.06 29.0079 190.062 29.0164C190.073 28.9868 190.054 29.01 190.054 28.9931C190.064 28.9868 190.073 28.9784 190.067 28.9636C190.052 28.9762 190.01 29.0839 190.012 29.1219C189.991 29.143 189.991 29.2275 189.953 29.2275C189.953 29.2444 189.94 29.276 189.927 29.2803C189.919 29.2993 189.934 29.295 189.927 29.314C189.91 29.3478 189.898 29.3352 189.872 29.3478C189.891 29.3521 189.872 29.4027 189.86 29.4175C189.855 29.4175 189.86 29.4048 189.855 29.4027C189.839 29.4217 189.864 29.4407 189.841 29.4534C189.826 29.4639 189.845 29.4175 189.834 29.4386C189.834 29.4618 189.815 29.4639 189.826 29.4829C189.822 29.4935 189.813 29.4914 189.807 29.4977C189.817 29.5167 189.782 29.6307 189.763 29.6054C189.746 29.6983 189.693 29.8102 189.655 29.9073H189.63C189.63 29.9073 189.63 29.901 189.63 29.8989C189.63 29.8989 189.63 29.9052 189.627 29.9073H189.575C189.575 29.9073 189.579 29.901 189.583 29.901C189.583 29.9052 189.583 29.9094 189.583 29.9073C189.585 29.8946 189.587 29.8862 189.583 29.8799C189.583 29.8968 189.57 29.8989 189.566 29.9073H189.323C189.323 29.9073 189.326 29.8989 189.328 29.8946C189.323 29.8989 189.319 29.9031 189.317 29.9073H182.346L182.335 29.9115ZM198.94 8.57097C198.94 8.57097 199.029 8.57942 199.042 8.5752C198.982 8.5752 198.991 8.57097 198.94 8.57097ZM198.708 8.56675C198.655 8.56675 198.63 8.56675 198.592 8.56464C198.571 8.57097 198.723 8.57308 198.708 8.56675ZM198.537 8.60053C198.387 8.60264 198.305 8.58997 198.205 8.59209C198.292 8.60053 198.455 8.60475 198.537 8.60053ZM198.195 8.55619C198.17 8.55619 198.406 8.56464 198.362 8.56042C198.341 8.56042 198.324 8.56042 198.309 8.55619C198.271 8.55619 198.233 8.55619 198.195 8.55619ZM196.597 8.46963C196.73 8.46541 196.778 8.47597 196.597 8.46963V8.46963ZM195.505 8.46963C195.602 8.47174 195.579 8.44852 195.571 8.45063C195.552 8.45696 195.556 8.46752 195.505 8.46963ZM195.476 8.49497C195.423 8.49497 195.309 8.49286 195.349 8.49919C195.366 8.49497 195.433 8.49919 195.463 8.49919C195.461 8.49708 195.467 8.49497 195.476 8.49497ZM195.248 8.45485C195.248 8.45485 195.345 8.45063 195.355 8.44641C195.307 8.44641 195.203 8.45063 195.248 8.45485ZM194.927 8.45908C194.927 8.45908 194.954 8.45485 194.937 8.45063C194.87 8.45063 194.891 8.45696 194.927 8.45908ZM194.013 8.58575C194.15 8.58153 194.181 8.58575 194.327 8.59209C194.319 8.58786 194.325 8.58575 194.338 8.58364C194.249 8.58153 194.169 8.58364 194.074 8.57942C194.086 8.58575 193.994 8.57942 194.013 8.58575ZM193.852 8.54775C193.886 8.54775 194.027 8.54986 193.983 8.54775C193.949 8.54775 193.808 8.54564 193.852 8.54775ZM193.696 8.57731C193.696 8.57731 193.795 8.58575 193.795 8.57942C193.755 8.57942 193.717 8.57942 193.696 8.57731ZM192.853 8.56253C192.896 8.56886 192.919 8.57097 192.993 8.5752C192.984 8.56886 193.029 8.5752 193.041 8.5752C193.037 8.56886 193.084 8.56886 193.151 8.56886C193.172 8.57097 193.176 8.5752 193.206 8.57731C193.191 8.56675 193.347 8.57731 193.366 8.57308C193.276 8.57308 193.339 8.56675 193.358 8.56253C193.208 8.57097 193.029 8.56253 192.851 8.56253H192.853ZM192.543 8.56253C192.651 8.56886 192.744 8.56253 192.826 8.57097C192.826 8.56886 192.853 8.57097 192.856 8.56886C192.824 8.56042 192.742 8.56886 192.718 8.56042C192.682 8.56253 192.571 8.56042 192.541 8.56042L192.543 8.56253ZM192.412 8.56042C192.442 8.56042 192.511 8.56675 192.526 8.56042C192.488 8.55831 192.433 8.55408 192.412 8.56042ZM192.231 8.55831C192.269 8.55831 192.351 8.56042 192.359 8.55831C192.309 8.55831 192.237 8.54986 192.231 8.55831ZM192.03 8.55197C192.096 8.55619 192.146 8.56042 192.212 8.55408C192.155 8.54775 192.121 8.55197 192.098 8.55408C192.089 8.55408 192.077 8.54986 192.062 8.54775C192.028 8.54986 191.975 8.54775 191.933 8.54986C191.686 8.54775 192.093 8.55619 192.032 8.54986L192.03 8.55197ZM191.215 24.7263C191.226 24.6693 191.264 24.606 191.259 24.5785C191.245 24.6123 191.213 24.6841 191.215 24.7263ZM191.167 24.9142C191.177 24.9015 191.171 24.9036 191.173 24.8889C191.188 24.8361 191.156 24.9057 191.167 24.9142ZM190.742 26.3942C190.736 26.4153 190.738 26.4259 190.746 26.428C190.749 26.4132 190.753 26.3942 190.742 26.3942ZM190.806 25.6236C190.825 25.6299 190.812 25.5961 190.829 25.5961C190.837 25.5771 190.822 25.5813 190.829 25.5623C190.848 25.5623 190.846 25.5307 190.858 25.5222C190.839 25.5307 190.867 25.5053 190.869 25.4842C190.837 25.5096 190.827 25.5792 190.806 25.6215V25.6236ZM190.789 25.6658C190.789 25.6658 190.799 25.651 190.81 25.6574C190.812 25.6468 190.81 25.6405 190.81 25.6362C190.806 25.6574 190.793 25.6405 190.791 25.6637L190.789 25.6658ZM190.746 25.8347C190.746 25.8347 190.736 25.8431 190.727 25.8347C190.713 25.8875 190.727 25.8537 190.746 25.8347ZM190.723 26.0627C190.727 26.05 190.723 26.05 190.723 26.0416C190.738 26.0458 190.763 26.0205 190.753 26.0015C190.784 25.9762 190.825 25.917 190.835 25.8431C190.854 25.8115 190.89 25.765 190.888 25.7228C190.903 25.7228 190.905 25.6764 190.915 25.6637C190.911 25.6637 190.907 25.6595 190.911 25.6489C190.958 25.5708 190.972 25.4779 191.015 25.3956C190.998 25.3871 191.025 25.3491 191.021 25.3364C191.01 25.3597 190.998 25.3681 190.987 25.3871C190.991 25.3871 190.998 25.3871 190.996 25.3956C190.989 25.404 190.985 25.4146 190.977 25.4103C190.964 25.4103 190.983 25.3787 190.97 25.3808C190.968 25.4969 190.869 25.5476 190.865 25.6531C190.858 25.6531 190.854 25.6552 190.85 25.6637C190.863 25.6911 190.818 25.7228 190.831 25.746C190.814 25.7376 190.808 25.7904 190.806 25.8073C190.77 25.841 190.77 25.9107 190.738 25.9572C190.74 25.9635 190.738 25.9783 190.742 25.9846C190.727 25.9783 190.725 26.0015 190.742 25.9909C190.738 26.0015 190.738 26.0099 190.738 26.0163C190.725 26.0163 190.73 26.0015 190.721 26.012C190.713 26.0268 190.734 26.0332 190.717 26.031C190.713 26.0479 190.717 26.0712 190.727 26.0606L190.723 26.0627ZM190.567 27.1922C190.567 27.1922 190.561 27.2134 190.559 27.2239C190.571 27.2324 190.58 27.1943 190.567 27.1922ZM190.554 27.0613C190.563 27.0508 190.573 27.0128 190.561 27.0107C190.559 27.0276 190.552 27.0508 190.554 27.0613ZM190.459 27.3252C190.491 27.2471 190.554 27.1352 190.561 27.0571C190.531 27.0951 190.497 27.1542 190.495 27.2281C190.483 27.2471 190.495 27.2049 190.48 27.2239C190.483 27.2577 190.451 27.3189 190.459 27.3252ZM190.354 26.9558C190.36 26.9431 190.373 26.9178 190.362 26.9114C190.362 26.9241 190.347 26.9516 190.354 26.9558ZM190.138 27.5955C190.153 27.5976 190.157 27.5638 190.153 27.5533C190.149 27.5702 190.145 27.5892 190.138 27.5955ZM190.06 27.8699C190.067 27.8383 190.077 27.8235 190.069 27.8129C190.062 27.8362 190.056 27.8594 190.06 27.8699ZM189.315 8.51819C189.258 8.51819 189.157 8.51819 189.085 8.51397C189.114 8.51819 189.292 8.52241 189.315 8.51819ZM189.864 29.3711C189.864 29.3711 189.843 29.3879 189.849 29.3943C189.849 29.3901 189.851 29.3879 189.853 29.3879C189.853 29.3922 189.849 29.4006 189.853 29.4006C189.855 29.3901 189.86 29.3795 189.862 29.3689L189.864 29.3711ZM189.919 29.257C189.906 29.2824 189.908 29.2887 189.896 29.2972C189.904 29.2739 189.877 29.2887 189.881 29.2676C189.879 29.276 189.874 29.2803 189.872 29.2845C189.885 29.2887 189.893 29.3098 189.915 29.295C189.915 29.2824 189.923 29.2634 189.919 29.2549V29.257ZM189.906 29.1409C189.906 29.162 189.893 29.1789 189.896 29.1916C189.908 29.1831 189.915 29.1515 189.906 29.1409ZM189.95 28.2774C189.95 28.2774 189.944 28.2732 189.942 28.269C189.936 28.2859 189.934 28.3006 189.938 28.3091C189.94 28.2943 189.944 28.2859 189.95 28.2795V28.2774ZM189.993 28.0072C189.976 28.0452 189.959 28.0874 189.942 28.1339C189.953 28.1381 189.934 28.1719 189.95 28.1697C189.938 28.1317 189.991 28.0579 189.993 28.0072ZM189.991 28.0663C190.003 28.0473 189.997 28.0389 190.005 28.0093C189.999 28.0135 189.984 28.06 189.991 28.0663ZM189.991 28.2394C189.991 28.2394 190.005 28.2331 190.007 28.2162C190.003 28.2162 190.001 28.212 189.999 28.2078C189.995 28.2225 189.999 28.2289 189.991 28.2394ZM190.012 29.0269C190.012 29.0269 189.999 29.0354 189.997 29.0565C190.003 29.0628 190.018 29.0311 190.012 29.0269ZM189.678 8.52453C189.767 8.51608 189.948 8.52664 190.02 8.52453C189.999 8.52453 189.984 8.52241 189.984 8.51819C189.87 8.51819 189.665 8.51186 189.68 8.52453H189.678ZM189.526 8.51819C189.545 8.51819 189.602 8.51819 189.623 8.51819C189.594 8.51608 189.537 8.51608 189.526 8.51819ZM189.516 28.5392C189.518 28.5202 189.526 28.5223 189.53 28.5033C189.522 28.4991 189.518 28.5012 189.511 28.5033C189.505 28.5244 189.507 28.535 189.516 28.5371V28.5392ZM189.454 29.6793C189.454 29.6793 189.461 29.6877 189.467 29.6899C189.467 29.654 189.501 29.6286 189.49 29.6096C189.478 29.6286 189.471 29.673 189.456 29.6814L189.454 29.6793ZM188.272 8.49919C188.359 8.50552 188.481 8.49919 188.506 8.50763C188.663 8.51186 188.865 8.50763 189.034 8.51608C189.129 8.50763 189.315 8.51608 189.395 8.5203C189.332 8.51608 189.243 8.50552 189.361 8.49919C189.214 8.50341 189.045 8.49919 188.922 8.49919C188.935 8.49919 188.954 8.49919 188.956 8.49919C188.836 8.49919 188.696 8.49919 188.612 8.49708C188.625 8.49708 188.633 8.49708 188.631 8.5013C188.494 8.5013 188.354 8.48863 188.27 8.49708L188.272 8.49919ZM187.976 8.49497C188.088 8.49497 188.177 8.49919 188.226 8.5013C188.226 8.5013 188.23 8.5013 188.242 8.5013C188.238 8.49708 188.209 8.49497 188.236 8.49286C188.213 8.49075 188.143 8.49286 188.118 8.48863C188.141 8.5013 187.985 8.4823 187.974 8.49286L187.976 8.49497ZM187.594 8.48652C187.607 8.49075 187.582 8.49708 187.62 8.49919C187.62 8.49919 187.618 8.49497 187.615 8.49497C187.658 8.49286 187.694 8.49919 187.71 8.49286C187.694 8.48863 187.647 8.48863 187.592 8.48863L187.594 8.48652ZM187.138 8.48652C187.295 8.49075 187.406 8.49075 187.567 8.49286C187.567 8.49286 187.586 8.49075 187.58 8.48863C187.385 8.48863 187.244 8.48441 187.138 8.48863V8.48652ZM184.341 8.47174C184.341 8.47174 184.25 8.46119 184.235 8.4633C184.28 8.46541 184.297 8.46963 184.341 8.47174ZM184.552 8.47174C184.552 8.47174 184.548 8.46752 184.548 8.46541C184.506 8.46541 184.487 8.46541 184.487 8.47174C184.508 8.47174 184.531 8.47174 184.552 8.47174ZM185.407 8.46119C185.291 8.4633 185.152 8.46119 185.088 8.47174C185.082 8.46752 185.027 8.47174 185.019 8.46541C185.042 8.46541 185.08 8.46541 185.082 8.46541C185.038 8.46541 185.038 8.4633 185 8.4633C185.046 8.47385 185.061 8.47174 185.061 8.48019C185.076 8.46541 185.323 8.47174 185.399 8.47385C185.304 8.46963 185.392 8.46541 185.405 8.46119H185.407ZM185.646 8.47174C185.603 8.47174 185.544 8.47174 185.559 8.46541C185.489 8.46541 185.479 8.46963 185.432 8.46963C185.428 8.47385 185.517 8.47808 185.519 8.47597C185.489 8.47597 185.468 8.46963 185.515 8.46963C185.549 8.47174 185.652 8.4823 185.648 8.47174H185.646ZM185.924 8.47385C186.102 8.47385 186.3 8.4823 186.496 8.47597C186.543 8.48019 186.589 8.47597 186.598 8.4823C186.714 8.48019 186.822 8.48652 186.923 8.4823C186.929 8.48652 187.162 8.48863 187.102 8.4823C186.976 8.47808 186.796 8.48652 186.686 8.47174C186.708 8.47174 186.733 8.46963 186.748 8.46752C186.699 8.46752 186.547 8.47597 186.57 8.46752C186.338 8.47385 185.994 8.46541 185.768 8.4633C185.707 8.47174 185.701 8.45908 185.66 8.47174C185.755 8.47174 185.88 8.47597 185.973 8.47597C185.945 8.47597 185.924 8.47597 185.922 8.47174L185.924 8.47385ZM190.031 29.2C190.018 29.1958 190.01 29.2127 190.003 29.2338C190.018 29.2444 190.022 29.2169 190.031 29.2ZM190.216 28.5603L190.225 28.5266C190.225 28.5266 190.216 28.5498 190.216 28.5603Z" fill="white"/>
<path d="M75.6282 24.7687V25.2818H73.973V24.8975C73.973 24.8131 73.9033 24.7434 73.8189 24.7434H68.602C68.2853 24.7434 68.0277 25.001 68.0277 25.3177V27.9335C68.0277 28.2502 68.2853 28.5078 68.602 28.5078H73.8189C73.9033 28.5078 73.973 28.4381 73.973 28.3536V27.4564H70.8378V26.1558H75.6282V28.4845C75.6282 29.272 74.9885 29.9117 74.201 29.9117H68.4309C67.2951 29.9117 66.3725 28.987 66.3725 27.8533V25.4C66.3725 24.2641 67.2972 23.3415 68.4309 23.3415H74.201C74.9885 23.3415 75.6282 23.9812 75.6282 24.7687ZM54.8197 24.7687V28.4867C54.8197 29.2742 55.4594 29.9139 56.2469 29.9139H63.4463V28.5099H56.6311C56.5467 28.5099 56.477 28.4402 56.477 28.3558V27.2769H63.1739V25.9764H56.477V24.8975C56.477 24.8131 56.5467 24.7434 56.6311 24.7434H63.4463V23.3394H56.2469C55.4594 23.3394 54.8197 23.9791 54.8197 24.7666V24.7687ZM112.343 25.4021V27.8554C112.343 28.9912 111.418 29.9139 110.284 29.9139H103.087V23.3415H110.284C111.42 23.3415 112.343 24.2663 112.343 25.4V25.4021ZM110.688 25.3198C110.688 25.0031 110.43 24.7455 110.113 24.7455H104.742V28.5099H110.113C110.43 28.5099 110.688 28.2523 110.688 27.9356V25.3198ZM78.7592 24.7687V28.4867C78.7592 29.2742 79.3989 29.9139 80.1864 29.9139H87.3858V28.5099H80.5707C80.4862 28.5099 80.4165 28.4402 80.4165 28.3558V27.2769H87.1134V25.9764H80.4165V24.8975C80.4165 24.8131 80.4862 24.7434 80.5707 24.7434H87.3858V23.3394H80.1864C79.3989 23.3394 78.7592 23.9791 78.7592 24.7666V24.7687ZM44.8229 28.3579V23.3436H43.1677V28.4888C43.1677 29.2763 43.8074 29.916 44.5949 29.916H51.7943V28.512H44.977C44.8926 28.512 44.8229 28.4423 44.8229 28.3579ZM123.062 26.1896L117.085 25.6892C117.005 25.6829 116.945 25.6175 116.945 25.5372V24.8975C116.945 24.8131 117.015 24.7434 117.1 24.7434H122.469C122.553 24.7434 122.623 24.8131 122.623 24.8975V25.2818H124.278V24.7687C124.278 23.9812 123.638 23.3415 122.851 23.3415H116.717C115.93 23.3415 115.29 23.9812 115.29 24.7687V25.5393C115.29 26.2846 115.85 26.8969 116.593 26.9602L122.568 27.4606C122.648 27.4669 122.707 27.5345 122.707 27.6147V28.3558C122.707 28.4402 122.637 28.5099 122.553 28.5099H117.106C117.021 28.5099 116.952 28.4402 116.952 28.3558V27.9715H115.297V28.4867C115.297 29.2742 115.936 29.9139 116.724 29.9139H122.935C123.723 29.9139 124.362 29.2742 124.362 28.4867V27.6126C124.362 26.8673 123.803 26.2551 123.06 26.1917L123.062 26.1896ZM98.2039 27.8575L91.6885 23.3415H90.4091V29.9139H92.0643V25.3979L98.5797 29.9139H99.8591V23.3415H98.2039V27.8575ZM113.044 8.43607V10.8429H120.129V19.4653H124.008V10.8408H131.093V8.43607H113.044ZM47.0461 19.4632H43.1677V8.43607H56.7536C59.1098 8.43607 61.0268 10.1779 61.0268 12.3187C61.0268 14.4595 59.1098 16.2013 56.7536 16.2013H47.0461V19.4653V19.4632ZM47.0461 13.7923H55.4383C56.3313 13.7923 57.0576 13.1294 57.0576 12.3166C57.0576 11.5037 56.3313 10.8408 55.4362 10.8408H47.0461V13.7923ZM15.9726 8.43396L23.6956 19.4632H19.2999L17.8347 17.3688H8.75212L7.28691 19.4632H4.2467L11.9676 8.43396H15.9726ZM16.15 14.9641L13.2934 10.8851L10.4369 14.9641H16.15ZM37.6932 12.7473H29.3791C28.8027 12.7473 28.334 12.3208 28.334 11.7951C28.334 11.2694 28.7985 10.8471 29.3706 10.8429C29.3706 10.8429 29.3749 10.8429 29.3791 10.8429H40.9044V8.43607H28.0617C26.0222 8.43607 24.3627 9.94351 24.3627 11.7951C24.3627 13.6466 26.0222 15.1541 28.0617 15.1541H28.0701H36.3631C36.3715 15.1541 36.3737 15.1541 36.3779 15.1541C36.9543 15.1541 37.4208 15.5806 37.4208 16.1063C37.4208 16.632 36.9521 17.0584 36.3779 17.0584H24.7216V19.4653H37.6953C39.7348 19.4653 41.3942 17.9578 41.3942 16.1063C41.3942 14.2547 39.7348 12.7473 37.6953 12.7473H37.6932ZM116.445 19.4632V17.0563H105.916V8.43607H102.038V17.1239C102.038 18.4139 103.087 19.4632 104.377 19.4632H116.445ZM93.291 8.43396L101.014 19.4632H96.6183L95.1531 17.3688H86.0705L84.6053 19.4632H81.5651L89.2859 8.43396H93.291ZM93.4683 14.9641L90.6118 10.8851L87.7553 14.9641H93.4683ZM80.539 19.4632V8.43607H76.6606V12.7473H66.6828V8.43607H62.8045V19.4632H66.6828V15.152H76.6606V19.4632H80.539Z" fill="white"/>
<path d="M3.04265 19.4632H0.00244141L7.72541 8.43396H10.7656L3.04265 19.4632Z" fill="white"/>
</svg>
