<svg width="133" height="36" viewBox="0 0 133 36" fill="none" xmlns="http://www.w3.org/2000/svg">
<g clip-path="url(#clip0_2_1935)">
<path d="M52.8887 15.3131C52.8125 15.2575 52.7269 15.2125 52.633 15.1769C52.7499 15.1235 52.8449 15.0481 52.9158 14.9506C53.016 14.8145 53.0661 14.6448 53.0661 14.4405C53.0661 14.2572 53.0244 14.099 52.9409 13.966C52.8574 13.833 52.7353 13.7324 52.5735 13.6622C52.4117 13.5931 52.2134 13.5575 51.9807 13.5575H50.459V17.1294H52.0308C52.2145 17.1294 52.3804 17.1063 52.5286 17.0603C52.6768 17.0142 52.8063 16.9471 52.9169 16.8591C53.0275 16.7711 53.11 16.6591 53.1674 16.525C53.2237 16.3909 53.253 16.2348 53.253 16.0578C53.253 15.8976 53.2217 15.7551 53.158 15.6294C53.0943 15.5037 53.0056 15.3979 52.8898 15.3131H52.8887ZM51.1791 14.2216H51.845C52.0089 14.2216 52.1299 14.2551 52.2103 14.3232C52.2907 14.3913 52.3303 14.4887 52.3303 14.6144C52.3303 14.693 52.3126 14.761 52.2781 14.8187C52.2427 14.8763 52.1926 14.9224 52.1258 14.9569C52.059 14.9904 51.9807 15.0082 51.8909 15.0082H51.1802V14.2226L51.1791 14.2216ZM52.4451 16.2673C52.4055 16.3354 52.347 16.3857 52.2729 16.4182C52.1978 16.4506 52.107 16.4663 52.0005 16.4663H51.1791V15.6147H51.9755C52.0861 15.6147 52.18 15.6304 52.2583 15.6629C52.3366 15.6954 52.3971 15.7425 52.441 15.8033C52.4848 15.864 52.5057 15.9395 52.5057 16.0274C52.5057 16.1154 52.4858 16.1992 52.4451 16.2673Z" fill="white"/>
<path d="M55.8641 15.7111C55.8641 15.8535 55.8317 15.9824 55.767 16.0966C55.7023 16.2107 55.6136 16.3019 55.5019 16.37C55.3903 16.438 55.2661 16.4716 55.1293 16.4716C54.9926 16.4716 54.8747 16.437 54.7661 16.37C54.6576 16.3019 54.572 16.2107 54.5083 16.0966C54.4447 15.9824 54.4134 15.8546 54.4134 15.7111V13.5522H53.6577V15.7561C53.6577 16.0253 53.7214 16.2652 53.8477 16.4778C53.975 16.6905 54.1493 16.857 54.3706 16.9775C54.5929 17.0979 54.8454 17.1587 55.1293 17.1587C55.4132 17.1587 55.6616 17.0979 55.885 16.9775C56.1083 16.857 56.2826 16.6905 56.4079 16.4778C56.5331 16.2652 56.5957 16.0243 56.5957 15.7561V13.5522H55.8651V15.7111H55.8641Z" fill="white"/>
<path d="M57.1404 14.2153H57.7259V16.4705H57.1404V17.1294H59.0629V16.4705H58.4763V14.2153H59.0629V13.5575H57.1404V14.2153Z" fill="white"/>
<path d="M60.3846 13.5575H59.6332V17.1294H61.9711V16.4401H60.3846V13.5575Z" fill="white"/>
<path d="M65.0969 14.055C64.9445 13.8969 64.765 13.7743 64.5562 13.6874C64.3475 13.6004 64.1148 13.5575 63.858 13.5575H62.4219V17.1294H63.858C64.1148 17.1294 64.3485 17.0864 64.5583 16.9995C64.7681 16.9126 64.9487 16.79 65.099 16.6318C65.2492 16.4737 65.3641 16.2851 65.4444 16.0652C65.5248 15.8452 65.5644 15.6053 65.5644 15.3434C65.5644 15.0816 65.5248 14.8365 65.4444 14.6186C65.3641 14.4007 65.2482 14.2132 65.0969 14.055ZM64.7389 15.798C64.695 15.9342 64.6314 16.0494 64.5458 16.1427C64.4602 16.2359 64.3579 16.3092 64.2379 16.3616C64.1179 16.414 63.9822 16.4412 63.8319 16.4412H63.1712V14.2467H63.8319C63.9822 14.2467 64.1168 14.2729 64.2379 14.3263C64.3579 14.3787 64.4602 14.4531 64.5458 14.5484C64.6314 14.6437 64.695 14.7589 64.7389 14.893C64.7817 15.0271 64.8036 15.1779 64.8036 15.3445C64.8036 15.511 64.7817 15.6629 64.7389 15.7991V15.798Z" fill="white"/>
<path d="M65.835 14.2153H66.4205V16.4705H65.835V17.1294H67.7574V16.4705H67.1719V14.2153H67.7574V13.5575H65.835V14.2153Z" fill="white"/>
<path d="M70.7004 14.5317C70.7004 14.6784 70.7025 14.8135 70.7056 14.9371C70.7088 15.0617 70.7129 15.1791 70.7182 15.289C70.7234 15.4001 70.7296 15.5069 70.738 15.6106C70.7463 15.7143 70.7557 15.817 70.7651 15.9165C70.7672 15.9427 70.7714 15.9699 70.7745 15.9961L69.0034 13.5565H68.3323V17.1284H69.0681V15.8421C69.0681 15.774 69.0681 15.7091 69.066 15.6483C69.0639 15.5876 69.0618 15.5226 69.0587 15.4545C69.0556 15.3865 69.0493 15.3068 69.0409 15.2147C69.0326 15.1225 69.0222 15.0146 69.0107 14.891C69.0065 14.8418 69.0013 14.7883 68.9961 14.7307L70.7557 17.1284H71.4362V13.5565H70.7004V14.5307V14.5317Z" fill="white"/>
<path d="M77.3778 13.5575H77.0323V17.1294H77.7828V15.7111H79.1897V15.0522H77.7828V14.2457H79.3995V13.5575H77.7828H77.3778Z" fill="white"/>
<path d="M82.0329 15.7111C82.0329 15.8535 82.0005 15.9824 81.9347 16.0966C81.87 16.2107 81.7813 16.3019 81.6696 16.37C81.558 16.438 81.4338 16.4716 81.297 16.4716C81.1603 16.4716 81.0424 16.437 80.9338 16.37C80.8253 16.3019 80.7397 16.2107 80.676 16.0966C80.6124 15.9824 80.5811 15.8546 80.5811 15.7111V13.5522H79.8254V15.7561C79.8254 16.0253 79.8891 16.2652 80.0154 16.4778C80.1427 16.6905 80.317 16.857 80.5383 16.9775C80.7606 17.0979 81.0132 17.1587 81.297 17.1587C81.5809 17.1587 81.8293 17.0979 82.0527 16.9775C82.276 16.857 82.4503 16.6905 82.5756 16.4778C82.7008 16.2652 82.7634 16.0243 82.7634 15.7561V13.5522H82.0329V15.7111Z" fill="white"/>
<path d="M83.1086 14.2457H84.1294V17.1294H84.8808V14.2457H85.9318V13.5575H83.1086V14.2457Z" fill="white"/>
<path d="M88.4844 15.7111C88.4844 15.8535 88.452 15.9824 88.3863 16.0966C88.3216 16.2107 88.2329 16.3019 88.1212 16.37C88.0095 16.438 87.8853 16.4716 87.7486 16.4716C87.6119 16.4716 87.4939 16.437 87.3854 16.37C87.2768 16.3019 87.1913 16.2107 87.1276 16.0966C87.0639 15.9824 87.0326 15.8546 87.0326 15.7111V13.5522H86.277V15.7561C86.277 16.0253 86.3406 16.2652 86.4669 16.4778C86.5943 16.6905 86.7686 16.857 86.9898 16.9775C87.2121 17.0979 87.4647 17.1587 87.7486 17.1587C88.0325 17.1587 88.2809 17.0979 88.5042 16.9775C88.7276 16.857 88.9019 16.6905 89.0271 16.4778C89.1524 16.2652 89.215 16.0243 89.215 15.7561V13.5522H88.4844V15.7111Z" fill="white"/>
<path d="M91.994 15.6954C92.1704 15.5938 92.3103 15.4545 92.4115 15.2795C92.5138 15.1046 92.5639 14.9098 92.5639 14.6951C92.5639 14.4803 92.5127 14.2834 92.4115 14.1137C92.3092 13.944 92.1704 13.8078 91.994 13.7083C91.8166 13.6078 91.6204 13.5575 91.4033 13.5575H89.8513V17.1294H90.5767V15.8483H91.1309L91.8385 17.1294L92.709 17.1346L91.9137 15.7342C91.9398 15.7216 91.9669 15.7101 91.993 15.6954H91.994ZM90.5777 14.2205H91.2739C91.3845 14.2205 91.4805 14.2415 91.564 14.2844C91.6475 14.3274 91.7112 14.386 91.754 14.4604C91.7978 14.5348 91.8187 14.6238 91.8187 14.7254C91.8187 14.8208 91.7999 14.9066 91.7634 14.9831C91.7268 15.0596 91.6736 15.1193 91.6058 15.1612C91.5369 15.2041 91.4576 15.2251 91.3678 15.2251H90.5767V14.2195L90.5777 14.2205Z" fill="white"/>
<path d="M93.8457 15.6336H95.2369V14.981H93.8457V14.231H95.478V13.5575H93.1099V17.1294H95.5125V16.4559H93.8457V15.6336Z" fill="white"/>
<path d="M98.4355 15.642C98.3791 15.5246 98.2977 15.423 98.1923 15.3361C98.0869 15.2492 97.9616 15.1758 97.8145 15.114C97.6673 15.0533 97.5024 15.003 97.3187 14.9663C97.2217 14.9464 97.134 14.9223 97.0536 14.8951C96.9733 14.8679 96.9054 14.8365 96.848 14.8008C96.7917 14.7652 96.7478 14.7233 96.7176 14.6762C96.6873 14.6291 96.6727 14.5746 96.6727 14.5128C96.6727 14.4384 96.6956 14.3724 96.7405 14.3159C96.7854 14.2593 96.848 14.2174 96.9284 14.1881C97.0088 14.1587 97.1037 14.1451 97.2133 14.1451C97.3135 14.1451 97.4116 14.1608 97.5066 14.1933C97.6016 14.2258 97.6903 14.274 97.7717 14.3389C97.8531 14.4038 97.9293 14.4835 97.9992 14.5788L98.4146 14.0194C98.3228 13.8927 98.2946 13.8644 98.1766 13.7701C98.0577 13.6769 97.9189 13.6057 97.7581 13.5585C97.5984 13.5114 97.4106 13.4873 97.1977 13.4873C97.0244 13.4873 96.8595 13.5124 96.705 13.5638C96.5495 13.6151 96.4128 13.6884 96.2949 13.7837C96.1759 13.8791 96.084 13.9922 96.0172 14.1231C95.9504 14.2541 95.917 14.3965 95.917 14.5494C95.917 14.7024 95.94 14.8333 95.9849 14.9527C96.0298 15.0721 96.0997 15.1779 96.1926 15.2712C96.2865 15.3644 96.4024 15.4429 96.5433 15.5058C96.6831 15.5686 96.847 15.6221 97.0338 15.6661C97.1204 15.6797 97.2008 15.6975 97.2739 15.7195C97.3469 15.7415 97.4137 15.7666 97.4742 15.7959C97.5348 15.8253 97.5859 15.8567 97.6298 15.8934C97.6736 15.929 97.707 15.9698 97.7299 16.0159C97.7529 16.062 97.7654 16.1123 97.7654 16.1667C97.7654 16.2422 97.7425 16.305 97.6955 16.3584C97.6485 16.4108 97.5849 16.4527 97.5024 16.4831C97.421 16.5135 97.3281 16.5292 97.2248 16.5292C97.0348 16.5292 96.8585 16.4873 96.6967 16.4045C96.5349 16.3207 96.3721 16.1636 96.2082 15.9321L95.772 16.5229C95.8826 16.6727 95.9724 16.7554 96.1112 16.8602C96.25 16.966 96.4086 17.0456 96.5871 17.1C96.7656 17.1545 96.9628 17.1817 97.1799 17.1817C97.4471 17.1817 97.6809 17.1367 97.8802 17.0466C98.0806 16.9565 98.2372 16.8267 98.3509 16.6559C98.4647 16.4862 98.5211 16.2799 98.5211 16.0379C98.5211 15.8913 98.4929 15.7603 98.4355 15.643V15.642Z" fill="white"/>
<path d="M74.8539 15.2126H73.7402V15.8651H74.7464C74.5627 16.2433 74.1817 16.503 73.7402 16.503C73.1192 16.503 72.6162 15.9898 72.6162 15.3571C72.6162 14.7244 73.1192 14.2112 73.7402 14.2112C74.1692 14.2112 74.5418 14.4563 74.7307 14.8166C74.7338 14.8218 74.7359 14.8271 74.738 14.8323L75.1524 14.2834C74.8257 13.81 74.2861 13.501 73.6755 13.501C72.6788 13.501 71.871 14.3243 71.871 15.3403C71.871 16.3564 72.6788 17.1797 73.6755 17.1797C74.6723 17.1797 75.4801 16.3564 75.4801 15.3403C75.4801 15.3037 75.479 15.2513 75.4769 15.2146L74.8528 15.2094L74.8539 15.2126Z" fill="white"/>
<path d="M55.9494 20.5734C52.7922 20.5734 50.2236 23.19 50.2236 26.4068C50.2236 29.6236 52.7922 32.2401 55.9494 32.2401C59.1065 32.2401 61.6751 29.6236 61.6751 26.4068C61.6751 23.19 59.1065 20.5734 55.9494 20.5734ZM59.3716 26.4068C59.3716 28.332 57.8364 29.898 55.9494 29.898C54.0624 29.898 52.5271 28.332 52.5271 26.4068C52.5271 24.4815 54.0624 22.9145 55.9494 22.9145C57.8364 22.9145 59.3716 24.4804 59.3716 26.4068Z" fill="white"/>
<path d="M105.652 20.5734C102.495 20.5734 99.9261 23.19 99.9261 26.4068C99.9261 29.6236 102.495 32.2401 105.652 32.2401C108.809 32.2401 111.378 29.6236 111.378 26.4068C111.378 23.19 108.809 20.5734 105.652 20.5734ZM109.074 26.4068C109.074 28.332 107.539 29.898 105.652 29.898C103.765 29.898 102.23 28.332 102.23 26.4068C102.23 24.4815 103.765 22.9145 105.652 22.9145C107.539 22.9145 109.074 24.4804 109.074 26.4068Z" fill="white"/>
<path d="M61.5006 23.0414H64.5806V32.145H66.9998V23.0414H70.1716V20.738H61.5006V23.0414Z" fill="white"/>
<path d="M73.7058 27.4366H78.0027V25.1961H73.7058V23.01H78.7876V20.738H71.3179V32.145H78.8492V29.8741H73.7058V27.4366Z" fill="white"/>
<path d="M114.933 28.0021V20.7075H112.522V32.1554H114.675L119.959 25.0388V27.4135C119.957 27.5035 119.957 27.5905 119.957 27.6753L119.959 32.1638H121.986L122.195 32.1554H122.368V20.7075H120.245L114.934 28.0021H114.933Z" fill="white"/>
<path d="M26.2074 29.1941C20.5527 29.1941 15.9698 24.5214 15.9698 18.7582C15.9698 12.9949 20.5537 8.32215 26.2074 8.32215C28.5547 8.32215 30.7172 9.12766 32.4435 10.482L36.4231 5.15878C33.6041 2.9528 30.0774 1.64136 26.2492 1.64136C17.2316 1.64136 9.88295 8.91607 9.53853 18.0218C2.08966 25.0828 -2.01207 32.1438 0.992737 35.1187C2.53428 36.6448 8.77037 35.7199 13.6757 33.6176C13.9492 33.5003 13.7791 33.1285 13.4858 33.1725C9.47069 33.7632 6.01918 33.3369 4.87738 31.7982C3.19702 29.5346 5.10908 24.8545 9.5427 19.4631C9.93931 28.5196 17.2671 35.7388 26.2502 35.7388C30.0785 35.7388 33.6051 34.4263 36.4242 32.2213L32.4967 26.9934C30.7611 28.3719 28.5787 29.1941 26.2085 29.1941H26.2074Z" fill="white"/>
<path d="M30.7879 24.2731C30.6157 24.3883 30.4351 24.1443 30.5906 24.007C37.2014 18.1527 45.5259 10.9031 44.309 5.31799C43.6358 2.22794 38.6166 1.99959 35.951 2.54428C35.5106 2.63436 35.5002 2.30859 35.9083 2.11795C40.5496 -0.0534616 47.7031 -1.02761 49.2404 1.51042C51.8351 5.79459 41.9189 16.8098 30.7889 24.2731" fill="white"/>
<path d="M48.4523 28.6454C47.8 29.4425 46.8429 29.8992 45.8253 29.8992C45.4517 29.8992 45.0916 29.8364 44.7545 29.7233C43.3904 29.2634 42.403 27.9509 42.403 26.4069C42.403 24.863 43.3789 23.5662 44.7305 23.099C45.0739 22.9807 45.4423 22.9147 45.8253 22.9147C46.8523 22.9147 47.8157 23.3787 48.468 24.1873L48.6339 24.3937L50.0429 22.459L49.9521 22.3626C48.8614 21.2083 47.3961 20.5725 45.8253 20.5725C44.9277 20.5725 44.0782 20.7841 43.3205 21.1612C41.4147 22.1092 40.0996 24.1035 40.0996 26.4059C40.0996 28.7083 41.4251 30.7173 43.3424 31.6621C44.0938 32.0319 44.9361 32.2393 45.8253 32.2393C47.3867 32.2393 48.8458 31.6108 49.9333 30.4691L50.0262 30.3716L48.6193 28.4401L48.4513 28.6454H48.4523Z" fill="white"/>
<path d="M88.0765 28.6454C87.4242 29.4425 86.4671 29.8992 85.4495 29.8992C85.0758 29.8992 84.7158 29.8364 84.3786 29.7233C83.0145 29.2634 82.0272 27.9509 82.0272 26.4069C82.0272 24.863 83.003 23.5662 84.3546 23.099C84.698 22.9807 85.0664 22.9147 85.4495 22.9147C86.4765 22.9147 87.4398 23.3787 88.0921 24.1873L88.2581 24.3937L89.6671 22.459L89.5763 22.3626C88.4856 21.2083 87.0202 20.5725 85.4495 20.5725C84.5519 20.5725 83.7023 20.7841 82.9446 21.1612C81.0388 22.1092 79.7238 24.1035 79.7238 26.4059C79.7238 28.7083 81.0493 30.7173 82.9665 31.6621C83.718 32.0319 84.5602 32.2393 85.4495 32.2393C87.0108 32.2393 88.4699 31.6108 89.5575 30.4691L89.6504 30.3716L88.2435 28.4401L88.0754 28.6454H88.0765Z" fill="white"/>
<path d="M98.2004 28.6454C97.5481 29.4425 96.591 29.8992 95.5734 29.8992C95.1997 29.8992 94.8397 29.8364 94.5025 29.7233C93.1384 29.2634 92.1511 27.9509 92.1511 26.4069C92.1511 24.863 93.127 23.5662 94.4785 23.099C94.8219 22.9807 95.1903 22.9147 95.5734 22.9147C96.6004 22.9147 97.5637 23.3787 98.216 24.1873L98.382 24.3937L99.791 22.459L99.7002 22.3626C98.6095 21.2083 97.1441 20.5725 95.5734 20.5725C94.6758 20.5725 93.8262 20.7841 93.0685 21.1612C91.1627 22.1092 89.8477 24.1035 89.8477 26.4059C89.8477 28.7083 91.1732 30.7173 93.0904 31.6621C93.8419 32.0319 94.6841 32.2393 95.5734 32.2393C97.1347 32.2393 98.5938 31.6108 99.6814 30.4691L99.7743 30.3716L98.3674 28.4401L98.1993 28.6454H98.2004Z" fill="white"/>
<path d="M131.945 27.3391C131.759 26.9557 131.492 26.6185 131.151 26.3367C130.816 26.0612 130.412 25.8224 129.948 25.6296C129.869 25.5972 129.789 25.5657 129.708 25.5354C129.311 25.3877 128.874 25.263 128.402 25.1667C128.117 25.107 127.853 25.0357 127.618 24.9561C127.492 24.9132 127.376 24.866 127.27 24.8158C127.186 24.776 127.107 24.7341 127.037 24.6901C126.892 24.5989 126.78 24.4931 126.706 24.3748C126.635 24.2627 126.602 24.137 126.602 23.9903C126.602 23.8102 126.654 23.6572 126.761 23.5232C126.873 23.3839 127.035 23.2749 127.24 23.2005C127.46 23.1209 127.73 23.0811 128.039 23.0811C128.194 23.0811 128.349 23.0968 128.501 23.1251C128.623 23.1471 128.744 23.1775 128.863 23.2184C129.128 23.3084 129.38 23.4467 129.608 23.6269C129.841 23.8112 130.061 24.0427 130.263 24.3172L130.43 24.5434L131.941 22.4684L131.865 22.3647C131.573 21.9645 131.472 21.8598 131.101 21.5654C130.797 21.3256 130.448 21.1318 130.058 20.9862C129.961 20.9495 129.861 20.915 129.759 20.8846C129.255 20.7348 128.66 20.6583 127.993 20.6583C127.445 20.6583 126.918 20.74 126.426 20.9013C125.933 21.0637 125.49 21.3004 125.111 21.6052C124.729 21.9132 124.425 22.283 124.21 22.7061C123.993 23.1325 123.883 23.6007 123.883 24.0993C123.883 24.5979 123.957 25.0169 124.102 25.4013C124.249 25.7899 124.478 26.1419 124.782 26.4467C125.018 26.6834 125.304 26.8908 125.632 27.0668C125.722 27.115 125.815 27.1611 125.912 27.205C126.348 27.4009 126.863 27.5706 127.443 27.7068L127.458 27.7099C127.664 27.7424 127.858 27.7833 128.038 27.8314C128.079 27.843 128.121 27.8545 128.162 27.866C128.374 27.9299 128.569 28.0043 128.741 28.087C128.909 28.1677 129.053 28.2578 129.171 28.3552C129.28 28.4453 129.365 28.5479 129.423 28.661C129.479 28.7731 129.506 28.8915 129.506 29.0245C129.506 29.2005 129.454 29.3461 129.345 29.4676C129.226 29.6017 129.057 29.7106 128.841 29.7913C128.617 29.8751 128.357 29.918 128.068 29.918C127.589 29.918 127.136 29.8237 126.719 29.6394C126.664 29.6142 126.609 29.5891 126.556 29.5608C126.095 29.3241 125.62 28.8622 125.145 28.1886L124.982 27.9582L123.401 30.1296L123.478 30.2343C123.835 30.7193 124.13 30.9843 124.551 31.3049C124.754 31.4599 124.973 31.5982 125.206 31.7186C125.475 31.859 125.761 31.9763 126.065 32.0685C126.626 32.2392 127.254 32.3262 127.931 32.3262C128.769 32.3262 129.517 32.1816 130.15 31.8956C130.793 31.6065 131.304 31.1813 131.671 30.6324C132.038 30.0814 132.224 29.41 132.224 28.6359C132.224 28.1614 132.13 27.7256 131.944 27.3402L131.945 27.3391Z" fill="white"/>
</g>
<defs>
<clipPath id="clip0_2_1935">
<rect width="132.225" height="35.875" fill="white"/>
</clipPath>
</defs>
</svg>
