<svg width="166" height="33" viewBox="0 0 166 33" fill="none" xmlns="http://www.w3.org/2000/svg">
<path d="M1.58752 29.2856C2.51906 30.9115 3.93966 31.6734 5.72415 31.8748C12.1285 32.6074 31.2339 32.2075 31.263 32.2075C35.7955 32.2075 39.4343 30.1263 40.4183 25.8267C40.6686 24.732 40.8666 21.022 40.6395 17.0872C40.4008 13.0007 38.5436 10.3006 33.0009 9.92113C25.6388 9.42198 15.2259 9.65842 11.0136 10.0933C8.76331 10.3269 7.45333 11.8681 7.48244 13.9698C7.54939 18.9787 7.6047 19.7493 7.6571 20.0208C9.8928 20.3419 9.8666 20.3623 9.93356 20.2397C10.1286 19.8807 10.4078 19.5746 10.7471 19.3478C11.0863 19.121 11.4755 18.9803 11.8811 18.9379C12.8301 18.8123 12.1139 18.8503 31.8801 18.5496C32.6515 18.5496 33.1115 18.8999 33.2541 19.6618C33.418 20.6505 33.4484 21.6569 33.3444 22.6537C33.2803 23.5031 32.5817 24.8576 31.3066 24.8751C31.2775 24.8751 17.1472 24.9422 10.4052 24.6299C8.3674 24.5365 6.13461 22.5224 6.13461 18.7744C6.13461 17.1836 6.13461 12.0607 6.26852 10.4699C6.34 9.53001 6.72254 8.64099 7.35542 7.94398C7.9883 7.24698 8.83525 6.78193 9.7618 6.62268C12.277 6.1644 35.714 6.4417 37.2015 6.78323C41.4313 7.75233 41.7865 12.8343 41.801 12.9423C42.1969 15.8613 42.2348 19.1539 42.1999 22.1283C42.1125 28.842 39.6119 30.316 38.7764 31.2852C38.5261 31.577 38.8492 31.7113 39.3441 32.0704C41.4459 31.6763 44.453 29.3703 45.0411 24.481C45.2681 22.5924 45.4428 18.2694 45.0789 10.5137C44.8431 5.47844 42.7326 1.14084 35.7344 0.341034C29.6648 -0.350764 16.2972 0.200923 10.2945 0.341034C-0.185322 0.580391 0.0126313 6.5789 0.00972028 9.02208C-0.0310347 24.4898 -0.0164789 26.4922 1.58752 29.2856Z" fill="white"/>
<path d="M73.9975 9.21415C74.3183 9.20133 74.634 9.29693 74.8941 9.48562C75.133 9.67315 75.3178 9.92097 75.4298 10.2037L80.6697 23.1056H76.5214C76.3962 23.0793 76.3293 22.9596 76.274 22.7495L75.5724 20.5281C75.5433 20.2888 75.4123 20.2362 75.1154 20.2362H71.0195C70.7284 20.2362 70.5916 20.2917 70.5624 20.5281L69.8609 22.7611C69.8085 22.9713 69.7415 23.091 69.6134 23.1173H65.4535L70.708 10.2154C70.7969 9.99537 70.9308 9.7965 71.101 9.63157C71.3867 9.36797 71.7638 9.22659 72.1519 9.2375L73.9975 9.21415ZM71.6454 17.2968H74.4895L73.066 13.1606L71.6454 17.2968Z" fill="white"/>
<path d="M60.3417 19.8134C60.7085 19.8134 60.7958 19.7053 60.7842 19.3551V17.2125C60.7842 16.6842 60.528 16.3923 60.0768 16.1471C59.9545 16.0829 59.4364 15.718 59.7682 15.718H63.9922C64.3415 15.718 64.4521 15.7998 64.4492 16.1646V21.1269C64.4492 22.131 63.7622 23.106 62.6356 23.106H55.4627C54.7379 23.106 51.6987 22.6535 51.6987 19.0632V13.269C51.6987 9.67865 54.7379 9.20869 55.4627 9.21453H64.0038C64.3706 9.21453 64.455 9.32837 64.4492 9.67865V11.8796C64.4492 12.2298 64.3706 12.3378 64.0038 12.3378H57.6519C56.2487 12.3378 55.5559 13.0763 55.5559 13.99V18.1612C55.5559 19.0719 56.2487 19.8134 57.6519 19.8134C57.7858 19.8134 57.4918 19.8046 60.3417 19.8134Z" fill="white"/>
<path d="M132.985 19.8135C131.585 19.8135 130.892 19.072 130.892 18.1613V13.9901C130.892 13.0765 131.585 12.338 132.988 12.338H134.767C136.167 12.338 136.86 13.0765 136.86 13.9901V18.1613C136.86 19.072 136.17 19.8135 134.767 19.8135H132.985ZM136.953 23.1061C137.681 23.1061 140.72 22.6536 140.72 19.0633V13.2691C140.72 9.67877 137.681 9.20881 136.956 9.21465H130.799C130.071 9.21465 127.035 9.67877 127.035 13.2691V19.0691C127.035 22.6595 130.071 23.1178 130.799 23.1119L136.953 23.1061Z" fill="white"/>
<path d="M91.0486 23.004L95.8519 14.8163V22.6683C95.8519 22.8814 95.8519 23.1062 96.2536 23.1062H99.3684C99.6596 23.1062 99.7702 23.0157 99.7702 22.6771C99.7702 15.9634 99.8051 18.033 99.7702 11.2026C99.7702 10.1984 99.0832 9.21474 97.9566 9.21474H96.4748C96.2777 9.1932 96.0783 9.2255 95.898 9.30823C95.7176 9.39095 95.5629 9.52103 95.4501 9.6847C90.8157 16.8333 91.1214 16.4597 90.871 16.5151C90.6207 16.4597 90.9293 16.8391 86.2919 9.6847C86.1792 9.52103 86.0245 9.39095 85.8441 9.30823C85.6637 9.2255 85.4644 9.1932 85.2672 9.21474H83.7709C82.6414 9.21474 81.9632 10.1984 81.9573 11.2026V22.6771C81.9573 23.0157 82.0563 23.1062 82.3591 23.1062H85.4739C85.765 23.1062 85.8756 23.0157 85.8756 22.6771V14.8163L90.6789 23.004C90.6953 23.0394 90.7213 23.0693 90.7541 23.0902C90.7868 23.1112 90.8249 23.1224 90.8638 23.1224C90.9026 23.1224 90.9407 23.1112 90.9734 23.0902C91.0062 23.0693 91.0323 23.0394 91.0486 23.004Z" fill="white"/>
<path d="M125.258 20.0936C125.156 20.0172 125.029 19.9828 124.903 19.9973H120.502C120.446 19.9973 120.391 19.9863 120.339 19.9648C120.288 19.9434 120.241 19.9119 120.202 19.8723C120.163 19.8327 120.132 19.7857 120.111 19.734C120.09 19.6823 120.079 19.627 120.079 19.5711V9.66704C120.079 9.45104 120.079 9.2146 119.678 9.2146H116.563C116.272 9.2146 116.161 9.31676 116.161 9.65536V21.1299C116.161 22.1369 116.845 23.106 117.975 23.106H126.708C126.026 22.2109 125.533 21.186 125.258 20.0936Z" fill="white"/>
<path d="M164.989 11.8593C164.29 9.5737 162.023 9.20883 161.408 9.21467H144.661C143.534 9.21467 142.859 10.1984 142.847 11.2025V22.677C142.847 23.0156 142.946 23.1061 143.249 23.1061H146.16C146.451 23.1061 146.562 23.0156 146.562 22.677V18.0592C146.562 17.9462 146.607 17.8378 146.686 17.7578C146.766 17.6779 146.874 17.633 146.987 17.633H150.332C150.699 17.633 150.777 17.5308 150.777 17.1747V15.1577C150.777 14.8016 150.699 14.6994 150.332 14.6994H146.984C146.928 14.6998 146.873 14.6892 146.822 14.6681C146.77 14.647 146.723 14.6158 146.684 14.5765C146.644 14.5372 146.613 14.4904 146.591 14.4388C146.57 14.3873 146.559 14.332 146.559 14.2762V12.7612C146.559 12.7054 146.57 12.6501 146.591 12.5986C146.613 12.547 146.644 12.5002 146.684 12.4609C146.723 12.4216 146.77 12.3905 146.822 12.3694C146.873 12.3483 146.928 12.3376 146.984 12.338H155.193V22.677C155.193 23.0156 155.292 23.1061 155.592 23.1061H158.71C159.001 23.1061 159.112 23.0156 159.112 22.677V12.338H164.549C164.916 12.338 165.108 12.2504 164.989 11.8593Z" fill="white"/>
<path d="M113.085 17.1747C113.085 17.5308 113.006 17.6359 112.64 17.633H106.151C106.038 17.6337 105.931 17.6789 105.851 17.7586C105.772 17.8384 105.727 17.9463 105.726 18.0591V19.5712C105.726 19.6842 105.771 19.7926 105.85 19.8725C105.93 19.9524 106.038 19.9973 106.151 19.9973H113.429C113.795 19.9973 113.874 20.117 113.874 20.4556V22.6565C113.874 23.0068 113.795 23.109 113.431 23.106H103.825C102.698 23.106 102.023 22.1369 102.014 21.1299V11.2054C102.014 10.2012 102.698 9.21753 103.828 9.21753H113.434C113.798 9.21753 113.886 9.33137 113.88 9.68165V11.8826C113.88 12.2212 113.801 12.3408 113.437 12.3408H106.151C106.039 12.3408 105.931 12.3853 105.851 12.4646C105.772 12.5439 105.727 12.6516 105.726 12.7641V14.279C105.727 14.3916 105.772 14.4992 105.851 14.5785C105.931 14.6578 106.039 14.7023 106.151 14.7023H112.64C113.006 14.7023 113.085 14.8045 113.085 15.1606V17.1747Z" fill="white"/>
</svg>
