<svg width="82" height="27" viewBox="0 0 82 27" fill="none" xmlns="http://www.w3.org/2000/svg">
<path fill-rule="evenodd" clip-rule="evenodd" d="M49.306 18.0796C46.0017 18.0796 43.6366 16.0585 43.6366 13.2596C43.6366 10.4607 46.016 8.45227 49.3329 8.45227C52.6498 8.45227 55.0436 10.4355 55.0436 13.2596C55.0436 15.5785 53.2621 18.0796 49.306 18.0796ZM49.3329 10.551C47.9052 10.551 46.9409 11.5742 46.9409 13.2596C46.9409 14.9451 47.934 15.9935 49.3329 15.9935C50.7318 15.9935 51.7393 14.9577 51.7393 13.2596C51.7393 11.5615 50.7731 10.551 49.3329 10.551Z" fill="white"/>
<path d="M3.03493 18.3147C1.82096 18.3147 0.727306 18.0368 0.181378 17.6434C0.140074 17.6127 0.116728 17.564 0.116728 17.5135L0.105953 15.4076C0.105953 15.2632 0.27476 15.1892 0.380713 15.2866C0.958966 15.8244 1.77427 16.2719 2.6183 16.2719C3.55572 16.2719 3.7784 15.9309 3.80354 15.6169C3.80354 15.6033 3.80668 15.5903 3.80983 15.5772C3.81297 15.5641 3.81611 15.551 3.81611 15.5375C3.81611 15.2758 3.65988 14.9745 2.99542 14.6334C2.38305 14.332 1.96642 14.1227 1.60187 13.9386C0.598007 13.4027 0 12.6556 0 11.3852C0 9.89283 1.26426 8.59715 3.7784 8.59715C5.09294 8.59715 5.84179 8.90573 6.31409 9.22875C6.35899 9.25943 6.38413 9.30995 6.38413 9.36409V11.2823C6.38413 11.4195 6.22789 11.4953 6.12194 11.4123C5.64066 11.0387 4.94388 10.6652 4.13038 10.6652C3.2181 10.6652 3.06187 10.9539 3.02236 11.2029V11.2823C3.02236 11.4917 3.13909 11.7407 3.76583 12.0944C4.51459 12.4899 4.94124 12.7365 5.36124 12.9792L5.39463 12.9985C5.82383 13.2601 6.81513 13.9026 6.81513 15.4851C6.81513 17.0677 5.44671 18.3129 3.03673 18.3129L3.03493 18.3147Z" fill="white"/>
<path d="M14.0486 18.307L14.0468 18.3016H8.0218C7.92663 18.3016 7.84761 18.224 7.84761 18.1266V11.4136C7.84761 10.4716 7.70754 9.77507 7.08798 9.51341C7.01974 9.48454 6.97305 9.42318 6.97305 9.34919V9.30588C6.97305 9.21024 7.05027 9.13084 7.14724 9.13084H13.3069C13.3787 9.13084 13.4434 9.17596 13.4703 9.24453L14.106 10.9426C14.1491 11.0563 14.0647 11.179 13.9426 11.179H10.9723C10.8772 11.179 10.7981 11.2566 10.7981 11.3541V12.5523C10.7981 12.6479 10.8754 12.7273 10.9723 12.7273H13.0483C13.1722 12.7273 13.2566 12.8536 13.2081 12.9691L12.5868 14.4705C12.5598 14.5355 12.497 14.5788 12.4269 14.5788H10.9741C10.8789 14.5788 10.7999 14.6564 10.7999 14.7538V16.0838C10.7999 16.1794 10.8772 16.2588 10.9741 16.2588H13.4128C13.4847 16.2588 13.5493 16.304 13.5763 16.3725L14.212 18.0706C14.2551 18.1843 14.1707 18.307 14.0486 18.307Z" fill="white"/>
<path d="M14.8119 18.1266C14.8119 18.224 14.8909 18.3016 14.9861 18.3016H21.0111L21.0129 18.307C21.135 18.307 21.2194 18.1843 21.1763 18.0706L20.5406 16.3725C20.5136 16.304 20.449 16.2588 20.3771 16.2588H17.9384C17.8415 16.2588 17.7642 16.1794 17.7642 16.0838V14.7538C17.7642 14.6564 17.8433 14.5788 17.9384 14.5788H19.3912C19.4613 14.5788 19.5241 14.5355 19.5511 14.4705L20.1724 12.9691C20.2209 12.8536 20.1365 12.7273 20.0126 12.7273H17.9366C17.8397 12.7273 17.7624 12.6479 17.7624 12.5523V11.3541C17.7624 11.2566 17.8415 11.179 17.9366 11.179H20.9069C21.029 11.179 21.1134 11.0563 21.0703 10.9426L20.4346 9.24453C20.4077 9.17596 20.343 9.13084 20.2712 9.13084H14.1115C14.0146 9.13084 13.9373 9.21024 13.9373 9.30588V9.34919C13.9373 9.42318 13.984 9.48454 14.0523 9.51341C14.6718 9.77507 14.8119 10.4716 14.8119 11.4136V18.1266Z" fill="white"/>
<path fill-rule="evenodd" clip-rule="evenodd" d="M26.0233 18.3142L21.9522 18.3016C21.857 18.3016 21.778 18.224 21.778 18.1266V11.4136C21.778 10.4716 21.6379 9.77507 21.0183 9.51341C20.9501 9.48454 20.9034 9.42318 20.9034 9.34919V9.30588C20.9034 9.21024 20.9806 9.13084 21.0776 9.13084H26.0215C29.3509 9.13084 30.8127 11.4407 30.8127 13.7234C30.8127 16.0062 29.3114 18.316 26.0215 18.316L26.0233 18.3142ZM27.7078 13.7108C27.7078 12.924 27.4851 11.0599 25.3965 11.0599V11.0581H24.8919C24.7967 11.0581 24.7177 11.1357 24.7177 11.2332V16.1722C24.7177 16.2679 24.7949 16.3473 24.8919 16.3473H25.3965C27.4851 16.3473 27.7078 14.4976 27.7078 13.7108Z" fill="white"/>
<path d="M44.978 9.41424C45.0534 9.38176 45.1055 9.31138 45.1055 9.22837V9.21033C45.1055 9.10205 45.0175 9.01363 44.9097 9.01363L42.7314 9.01904H41.7329L40.0808 11.3812L40.8278 14.2035C40.8278 14.2035 40.6644 14.3407 40.5136 14.245C40.5082 14.2432 40.501 14.2396 40.4956 14.2342C40.4346 14.1999 40.3879 14.1404 40.3735 14.0646C40.3448 13.9202 40.3071 13.765 40.2622 13.6098L39.8348 11.9605L39.6857 11.3812L39.1092 9.1598C39.0841 9.07679 38.9979 8.98476 38.9117 8.98476H36.6077C36.5916 8.98476 36.5611 8.98319 36.5219 8.98117C36.3511 8.97238 36.0157 8.95513 35.9953 9.02265L34.1833 11.5166L35.004 14.9578C35.004 14.9578 34.8119 15.1112 34.6556 14.9615C34.652 14.9615 34.6466 14.956 34.643 14.9524C34.5892 14.9181 34.5479 14.8622 34.5317 14.7936C34.5244 14.7601 34.5169 14.7261 34.5093 14.6917L34.5091 14.6907C34.4832 14.5738 34.4565 14.4527 34.4329 14.3317L33.2279 9.17063C33.2064 9.0822 33.1274 9.01904 33.0358 9.01904L29.5501 9.01724C29.4424 9.01724 29.3544 9.10566 29.3544 9.21394V9.23198C29.3544 9.31499 29.4064 9.38537 29.4819 9.41785C29.5751 9.45714 29.6268 9.43822 29.6696 9.42256C29.6779 9.41951 29.6859 9.41659 29.6938 9.41424L29.6952 9.41498L29.6958 9.41537C29.6967 9.4159 29.6975 9.41642 29.6983 9.41695C29.6996 9.41785 29.701 9.41875 29.7028 9.41965C29.7477 9.4395 29.7908 9.46116 29.8339 9.48462C30.1355 9.65605 30.3528 9.93937 30.5342 10.3129C30.5773 10.4067 30.6204 10.5042 30.6599 10.6089C30.7425 10.8182 30.818 11.0492 30.8916 11.3L32.8095 17.9101L32.849 18.0472C32.8742 18.1321 32.9496 18.1898 33.0376 18.1898L33.2639 17.9101L37.5128 12.6787L38.0246 17.9137L38.0641 18.0509C38.0892 18.1357 38.188 18.1934 38.276 18.1934L38.4789 17.9137H38.4753L38.4789 17.9101L38.8704 17.3723L40.9248 14.5897L44.1214 10.1595C44.1752 10.0711 44.3907 9.78418 44.4518 9.71019L44.626 9.48101C44.7039 9.3871 44.7411 9.40084 44.7912 9.41931C44.8335 9.43492 44.885 9.45391 44.978 9.41424Z" fill="white"/>
<path fill-rule="evenodd" clip-rule="evenodd" d="M61.1943 18.0926C61.2248 18.1521 61.2841 18.19 61.3505 18.19H64.2077C64.3406 18.19 64.425 18.0456 64.3585 17.9283L62.9021 15.3695C62.604 14.8462 62.2987 14.3301 61.8911 14.0161C61.7869 13.9349 61.8049 13.7742 61.9234 13.7201C62.6848 13.3736 63.1499 12.549 63.1499 11.7874C63.1499 10.1092 61.9342 9.01924 60.0414 9.01924H54.9395C54.8425 9.01924 54.7653 9.09864 54.7653 9.19428V9.23759C54.7653 9.31158 54.812 9.37293 54.8802 9.40181C55.4998 9.66347 55.6398 10.36 55.6398 11.302V18.015C55.6398 18.1124 55.7189 18.19 55.814 18.19H58.418C58.5149 18.19 58.5922 18.1106 58.5922 18.015V14.6206H58.8274C59.2584 14.6206 59.4937 14.6603 60.3162 16.3259L61.1943 18.0926ZM58.5922 11.0169C58.5922 10.9194 58.6712 10.8418 58.7664 10.8418H59.0878C59.781 10.8418 60.1851 11.1973 60.1851 11.8398C60.1851 12.4822 59.7792 12.8503 59.0878 12.8503H58.7664C58.6694 12.8503 58.5922 12.7709 58.5922 12.6753V11.0169Z" fill="white"/>
<path d="M71.4285 16.4577L71.4267 16.4559V17.9952C71.4267 18.0909 71.3495 18.1703 71.2525 18.1703H65.1503C65.0551 18.1703 64.9761 18.0927 64.9761 17.9952V11.2823C64.9761 10.3403 64.836 9.64372 64.2165 9.38206C64.1482 9.35319 64.1015 9.29183 64.1015 9.21785V9.17454C64.1015 9.0789 64.1788 8.99949 64.2757 8.99949H67.7542C67.8494 8.99949 67.9284 9.07709 67.9284 9.17454V16.1076C67.9284 16.2033 68.0056 16.2827 68.1026 16.2827H71.2543C71.3495 16.2827 71.4285 16.3603 71.4285 16.4577Z" fill="white"/>
<path fill-rule="evenodd" clip-rule="evenodd" d="M72.2169 18.1575L76.2952 18.1701L76.297 18.1683C79.6157 18.1683 81.1296 15.8386 81.1296 13.5378C81.1296 11.237 79.6552 8.90734 76.297 8.90734H71.337C71.2238 8.90734 71.1341 8.99938 71.1341 9.11126C71.1341 9.19246 71.1825 9.26465 71.2562 9.29713C71.8757 9.5624 72.0158 10.2626 72.0158 11.21V17.9536C72.0158 18.0655 72.1056 18.1575 72.2169 18.1575ZM74.9771 11.0566C74.9771 10.9429 75.0687 10.8527 75.18 10.8527H75.6631V10.8545C77.7696 10.8545 77.9941 12.733 77.9941 13.527C77.9941 14.321 77.7696 16.1869 75.6631 16.1869H75.18C75.0669 16.1869 74.9771 16.0949 74.9771 15.983V11.0566Z" fill="white"/>
</svg>
