<svg width="109" height="27" viewBox="0 0 109 27" fill="none" xmlns="http://www.w3.org/2000/svg">
<path d="M89.1145 15.7759C89.1124 15.7844 89.1124 15.7876 89.1145 15.7886L89.1071 15.8151C89.1093 15.8034 89.1103 15.7929 89.1103 15.7844C89.1124 15.7844 89.1135 15.777 89.1145 15.7759ZM89.7087 13.5689C89.7087 13.5689 89.7055 13.5752 89.7034 13.5773C89.7044 13.5773 89.7055 13.5784 89.7055 13.5826L89.7087 13.5689ZM89.0955 15.8606C89.0881 15.886 89.0796 15.9115 89.0754 15.9369L89.0955 15.8606ZM88.9864 16.2578C88.9853 16.2662 88.98 16.2821 88.98 16.2864L88.9853 16.2652C88.9853 16.2652 88.9853 16.2599 88.9853 16.2578H88.9864ZM88.907 16.4187C88.9059 16.4251 88.9038 16.4304 88.9027 16.4367C88.907 16.442 88.9123 16.4166 88.907 16.4187ZM89.697 13.5943C89.6938 13.6038 89.6854 13.6292 89.6864 13.6377C89.6896 13.625 89.6981 13.6049 89.697 13.5943ZM89.6504 13.7828C89.6462 13.7976 89.6409 13.8156 89.6388 13.8262C89.6388 13.822 89.6398 13.822 89.6409 13.823L89.6515 13.7849V13.7828H89.6504ZM90.2572 11.5249L90.2594 11.5165C90.2594 11.5165 90.2594 11.5165 90.2572 11.5196C90.2572 11.5207 90.2572 11.5228 90.2572 11.5249ZM69.2682 11.7261C69.2693 11.7187 69.2756 11.7018 69.2735 11.6997L69.2671 11.723C69.2671 11.723 69.2671 11.724 69.2671 11.7261H69.2682ZM69.6283 10.378L69.624 10.3928C69.624 10.3928 69.6261 10.3907 69.6272 10.3865C69.6272 10.3843 69.6272 10.3801 69.6272 10.378H69.6283ZM81.9586 15.724C81.9682 15.7346 81.9682 15.7304 81.9713 15.7314C81.9618 15.7219 81.9576 15.7219 81.9586 15.724ZM88.9154 16.4346C88.9154 16.4346 88.9207 16.4113 88.9186 16.4082C88.9154 16.4209 88.9133 16.4304 88.9154 16.4346ZM69.3868 11.2792C69.3836 11.2898 69.3804 11.3004 69.3836 11.3015C69.3857 11.2962 69.3879 11.293 69.39 11.2941C69.3932 11.2824 69.3963 11.2686 69.3995 11.2644C69.3963 11.2591 69.3942 11.2771 69.391 11.2856C69.391 11.2771 69.3879 11.2877 69.3868 11.2792ZM90.2244 11.6319C90.2234 11.6414 90.2223 11.6488 90.2212 11.6594L90.2255 11.6446C90.2255 11.6446 90.2276 11.6298 90.2255 11.6319H90.2244ZM69.2311 11.8649C69.2311 11.8649 69.2343 11.8522 69.2354 11.8522C69.2343 11.8585 69.2311 11.8681 69.2322 11.8702C69.2385 11.8554 69.2343 11.8596 69.2375 11.8437C69.2375 11.8437 69.2354 11.8469 69.2332 11.849L69.229 11.8649C69.229 11.8649 69.229 11.8659 69.2301 11.8649H69.2311ZM77.6642 6.4945C77.6642 6.4945 77.6558 6.48285 77.6526 6.47756L77.642 6.46591C77.642 6.46591 77.6335 6.45744 77.6293 6.45214L77.5075 6.31976L77.5043 6.33141C77.5107 6.33777 77.516 6.34412 77.5202 6.34412C77.5202 6.35365 77.534 6.36001 77.5382 6.36742C77.5372 6.36742 77.5319 6.36107 77.5308 6.36318C77.5287 6.36848 77.5573 6.39495 77.5562 6.38966C77.5615 6.40449 77.5785 6.41614 77.5943 6.42884C77.6007 6.44049 77.6335 6.48285 77.6462 6.48709C77.6494 6.49133 77.6494 6.49345 77.6473 6.4945C77.6664 6.51463 77.6791 6.52733 77.695 6.54852C77.6971 6.54534 77.7002 6.54216 77.7045 6.5411C77.7002 6.53687 77.696 6.53369 77.6918 6.52945C77.6854 6.52204 77.6844 6.5178 77.6833 6.51357L77.6748 6.50509C77.6748 6.50509 77.6685 6.50086 77.6632 6.49662L77.6642 6.4945ZM77.6526 6.50933C77.6526 6.50933 77.6568 6.51463 77.6547 6.51569C77.6632 6.5231 77.6632 6.52416 77.6674 6.53157C77.6748 6.53687 77.6875 6.54746 77.6918 6.55699C77.6918 6.55381 77.6918 6.55169 77.6939 6.54852C77.678 6.53263 77.6664 6.51569 77.6526 6.50933ZM97.0637 6.68619C97.0997 6.68831 97.142 6.68831 97.1738 6.68619H97.0637ZM101.363 6.68619H108.589L107.776 9.72351H104.321L104.058 10.7063H106.989L106.253 13.4534H103.322L103.062 14.4214H106.517L106.272 15.3353C106.236 15.3184 106.19 15.3481 106.153 15.3279C106.136 15.3184 106.116 15.3481 106.118 15.3735C106.118 15.3766 106.118 15.3819 106.122 15.3841C106.16 15.4158 106.204 15.3766 106.244 15.3999C106.248 15.4021 106.251 15.4021 106.254 15.4031L105.709 17.4375C105.699 17.4375 105.691 17.4386 105.686 17.4397C105.695 17.4397 105.702 17.4397 105.709 17.4397L105.703 17.4587H103.842C103.835 17.4439 103.822 17.4333 103.793 17.4354C103.774 17.4375 103.755 17.446 103.74 17.4587H102.608C102.598 17.4566 102.581 17.4566 102.579 17.4534C102.714 17.4449 102.831 17.4397 102.954 17.4449C103.092 17.4407 103.238 17.4449 103.364 17.4333C103.443 17.4322 103.557 17.4291 103.65 17.4301C103.609 17.4227 103.512 17.4333 103.464 17.4269C103.468 17.4248 103.468 17.4216 103.473 17.4195C103.436 17.4174 103.402 17.4153 103.382 17.41C103.314 17.4121 103.241 17.4079 103.194 17.4026C103.175 17.4026 103.184 17.4058 103.165 17.4047C103.166 17.4026 103.152 17.4026 103.156 17.3994C103.138 17.4015 103.115 17.4015 103.107 17.3983C103.071 17.4026 103.071 17.3962 103.035 17.4005C103.035 17.4005 103.035 17.3983 103.032 17.3973C102.965 17.3983 102.917 17.3909 102.854 17.3952C102.854 17.3931 102.846 17.3931 102.846 17.3909C102.809 17.3909 102.794 17.3931 102.778 17.3888C102.677 17.3931 102.588 17.3835 102.481 17.392C102.476 17.3909 102.47 17.3899 102.461 17.3888C102.42 17.3931 102.333 17.3931 102.292 17.3952C102.284 17.3973 102.277 17.3994 102.271 17.4015C102.254 17.4015 102.284 17.3984 102.258 17.3994C102.235 17.4005 102.28 17.4026 102.26 17.4036C102.256 17.4026 102.247 17.4015 102.235 17.4026C102.241 17.4068 102.208 17.4058 102.188 17.4068C102.162 17.4142 102.095 17.4164 102.069 17.4248C101.985 17.4248 101.946 17.4333 101.907 17.4428C101.897 17.4397 101.884 17.4449 101.876 17.4428C101.892 17.4471 101.897 17.446 101.899 17.4513C101.892 17.4513 101.892 17.4524 101.881 17.4524C101.879 17.4502 101.887 17.4502 101.885 17.4481C101.862 17.4524 101.859 17.4524 101.84 17.4545C101.853 17.4545 101.853 17.4555 101.848 17.4566H101.704C101.748 17.4545 101.793 17.4587 101.815 17.4524C101.77 17.4524 101.731 17.4439 101.711 17.4471C101.706 17.4471 101.702 17.4471 101.702 17.4481C101.704 17.4481 101.708 17.4481 101.711 17.4471C101.72 17.4471 101.734 17.4471 101.733 17.4492C101.729 17.4513 101.726 17.4524 101.711 17.4524C101.687 17.4481 101.687 17.4524 101.649 17.4524C101.665 17.4492 101.615 17.4492 101.646 17.446C101.631 17.4439 101.593 17.4502 101.59 17.4439C101.603 17.4439 101.63 17.4439 101.632 17.4418C101.612 17.4418 101.655 17.4386 101.63 17.4375C101.603 17.4418 101.591 17.4344 101.564 17.4375C101.564 17.4365 101.571 17.4365 101.568 17.4344C101.55 17.4354 101.552 17.4344 101.537 17.4344C101.533 17.4386 101.56 17.4354 101.558 17.4386C101.493 17.4397 101.475 17.4418 101.441 17.4354C101.448 17.4354 101.458 17.4354 101.459 17.4344C101.451 17.4344 101.446 17.4333 101.445 17.4312C101.416 17.4312 101.406 17.4333 101.392 17.4354C101.316 17.4322 101.215 17.4269 101.103 17.4312C101.103 17.4291 101.119 17.4291 101.112 17.4269C101.083 17.428 101.06 17.4333 101.087 17.4365C101.075 17.4365 101.073 17.4365 101.065 17.4365C101.063 17.4365 101.06 17.4354 101.057 17.4354C101.027 17.4322 101.005 17.4397 100.987 17.4555H100.169C100.165 17.4471 100.158 17.4418 100.144 17.4428C100.137 17.4428 100.124 17.4502 100.125 17.4524C100.125 17.4534 100.125 17.4545 100.126 17.4555H99.1849C99.1913 17.4481 99.1945 17.4397 99.187 17.4248C99.1712 17.3941 99.1362 17.3888 99.1013 17.3878C99.0621 17.3973 99.0356 17.4185 99.025 17.4555H98.4764L101.363 6.68301V6.68619ZM99.4116 17.3973C99.4327 17.3973 99.419 17.3941 99.4211 17.392C99.402 17.3941 99.3893 17.3878 99.3904 17.392C99.3904 17.3941 99.4073 17.392 99.4094 17.3941C99.4094 17.3941 99.4105 17.3962 99.4105 17.3973H99.4116ZM99.419 17.41C99.4275 17.41 99.4327 17.41 99.438 17.41C99.438 17.4079 99.4359 17.4068 99.4359 17.4047C99.42 17.4047 99.4211 17.4068 99.42 17.4089L99.419 17.41ZM99.4444 17.4132C99.4147 17.4111 99.419 17.4164 99.4402 17.4174C99.4412 17.4164 99.4476 17.4153 99.4444 17.4132ZM100.25 16.9408C100.224 16.9356 100.204 16.9324 100.184 16.9281C100.153 16.9218 100.125 16.9218 100.117 16.9557C100.112 16.9811 100.104 17.0107 100.136 17.0266C100.167 17.0425 100.191 17.0224 100.21 17.0044C100.226 16.9896 100.245 16.9747 100.249 16.9408H100.25ZM100.357 16.3658C100.357 16.3658 100.349 16.3573 100.344 16.3541C100.341 16.3573 100.337 16.3605 100.338 16.3626C100.34 16.369 100.345 16.3743 100.348 16.3796C100.351 16.3753 100.354 16.3711 100.357 16.3668V16.3658ZM100.435 16.7598C100.47 16.7555 100.525 16.6983 100.519 16.6761C100.511 16.6464 100.439 16.6104 100.407 16.621C100.36 16.6358 100.353 16.6687 100.365 16.7121C100.374 16.7492 100.399 16.765 100.436 16.7598H100.435ZM100.581 17.0383C100.574 17.0107 100.556 17.0002 100.535 17.0054C100.508 17.0118 100.482 17.0266 100.488 17.0584C100.491 17.0838 100.512 17.0986 100.539 17.0912C100.568 17.0838 100.586 17.0648 100.581 17.0393V17.0383ZM100.832 16.8815C100.865 16.8752 100.908 16.8858 100.905 16.8402C100.903 16.8032 100.842 16.765 100.805 16.7725C100.769 16.7799 100.749 16.8 100.757 16.8371C100.765 16.8794 100.788 16.8985 100.831 16.8815H100.832ZM101.015 17.1082C101 17.0648 100.962 17.0531 100.918 17.0552C100.86 17.0584 100.802 17.1114 100.813 17.1548C100.823 17.1961 100.859 17.2035 100.9 17.1993C100.962 17.1929 101.027 17.1442 101.015 17.1082ZM101.113 16.5331C101.108 16.5013 101.08 16.4855 101.039 16.4897C100.986 16.496 100.948 16.5321 100.961 16.5691C100.975 16.6125 101.012 16.6305 101.056 16.6316C101.092 16.6316 101.122 16.5765 101.114 16.5331H101.113ZM103.405 17.4428C103.416 17.4407 103.403 17.4418 103.398 17.4397C103.349 17.4418 103.282 17.4439 103.254 17.4449C103.297 17.4481 103.373 17.4386 103.396 17.446C103.389 17.446 103.392 17.446 103.396 17.446C103.408 17.4407 103.42 17.4439 103.444 17.446C103.449 17.4428 103.464 17.4418 103.474 17.4439C103.49 17.4365 103.441 17.4439 103.406 17.4418L103.405 17.4428ZM104.494 17.3549L104.485 17.3518V17.3592L104.494 17.356V17.3549ZM104.939 17.357C104.939 17.357 104.936 17.3528 104.93 17.3518C104.91 17.3518 104.902 17.3539 104.902 17.356C104.92 17.3549 104.921 17.357 104.939 17.356V17.357ZM105.544 17.4386C105.539 17.4365 105.494 17.4386 105.49 17.4386C105.512 17.4397 105.517 17.4386 105.544 17.4386ZM105.772 16.2165C105.769 16.2112 105.766 16.2016 105.762 16.2006C105.757 16.1995 105.75 16.2059 105.745 16.208C105.749 16.2133 105.752 16.2207 105.757 16.2249C105.766 16.2302 105.772 16.226 105.773 16.2165H105.772ZM105.802 16.5638C105.802 16.5861 105.818 16.5967 105.839 16.6009C105.856 16.6041 105.869 16.5967 105.872 16.5755C105.867 16.5596 105.858 16.5448 105.835 16.5416C105.817 16.5395 105.803 16.5448 105.803 16.5628L105.802 16.5638ZM105.667 14.9435C105.677 14.9626 105.702 14.9636 105.72 14.9552C105.747 14.9424 105.776 14.9319 105.792 14.9001C105.759 14.8831 105.728 14.8831 105.698 14.8927C105.674 14.9011 105.655 14.917 105.668 14.9435H105.667ZM105.459 15.5344C105.465 15.5599 105.48 15.5757 105.496 15.5747C105.549 15.5577 105.59 15.545 105.63 15.5313C105.644 15.527 105.644 15.5133 105.641 15.5027C105.631 15.4741 105.551 15.4338 105.519 15.4402C105.477 15.4487 105.448 15.4931 105.46 15.5344H105.459ZM105.469 16.8106C105.459 16.8138 105.446 16.8169 105.441 16.8244C105.434 16.8339 105.441 16.8455 105.455 16.8434C105.465 16.8424 105.473 16.8339 105.483 16.8286C105.478 16.8212 105.471 16.8106 105.469 16.8106ZM105.393 16.4823C105.395 16.4971 105.403 16.5162 105.421 16.5151C105.447 16.5141 105.444 16.4908 105.444 16.4738C105.439 16.4579 105.431 16.4389 105.414 16.4399C105.388 16.4399 105.39 16.4632 105.392 16.4823H105.393ZM105.386 17.4386C105.414 17.4312 105.498 17.4386 105.542 17.4344C105.502 17.4333 105.459 17.4322 105.413 17.4322C105.414 17.4354 105.377 17.4333 105.386 17.4375V17.4386ZM105.339 17.4566C105.339 17.4566 105.35 17.4598 105.364 17.4587C105.364 17.4577 105.367 17.4566 105.369 17.4555C105.354 17.4555 105.351 17.4577 105.338 17.4555L105.339 17.4566ZM105.267 15.7537C105.267 15.777 105.288 15.7674 105.302 15.7685C105.322 15.7621 105.339 15.7537 105.326 15.7304C105.322 15.723 105.307 15.7145 105.299 15.7155C105.278 15.7187 105.266 15.7346 105.267 15.7537ZM105.262 17.4481C105.275 17.4481 105.285 17.4481 105.292 17.4481C105.292 17.4471 105.295 17.446 105.297 17.4449C105.279 17.4449 105.266 17.4449 105.262 17.4481ZM105.134 15.4201C105.137 15.4307 105.146 15.4423 105.16 15.4349C105.182 15.4222 105.214 15.4158 105.211 15.383C105.198 15.3671 105.182 15.3671 105.166 15.3714C105.14 15.3777 105.126 15.3947 105.134 15.4211V15.4201ZM105.123 16.693C105.123 16.693 105.132 16.71 105.135 16.7089C105.156 16.7036 105.177 16.6962 105.186 16.674C105.162 16.674 105.137 16.6697 105.123 16.693ZM105.017 15.0812C105.017 15.0812 105.038 15.0886 105.049 15.0875C105.066 15.0854 105.076 15.0738 105.067 15.0579C105.063 15.0515 105.048 15.0505 105.04 15.0473C105.02 15.0536 105.011 15.0653 105.017 15.0801V15.0812ZM104.871 16.944C104.92 16.9567 104.964 16.961 105.006 16.9483C105.026 16.9419 105.036 16.9228 105.031 16.9027C105.024 16.8773 104.999 16.8794 104.981 16.8794C104.933 16.8815 104.907 16.9186 104.871 16.944ZM104.794 15.2919C104.798 15.311 104.818 15.3089 104.833 15.3078C104.855 15.3068 104.868 15.2951 104.862 15.2729C104.857 15.2549 104.84 15.2549 104.824 15.2549C104.803 15.2591 104.789 15.2718 104.795 15.2919H104.794ZM104.5 16.764C104.465 16.8053 104.474 16.8286 104.527 16.8466C104.626 16.8815 104.674 16.8159 104.732 16.7672C104.626 16.6951 104.561 16.6941 104.5 16.764ZM104.413 15.1828C104.412 15.1966 104.428 15.2083 104.447 15.2061C104.471 15.204 104.479 15.1903 104.482 15.1701C104.477 15.1564 104.472 15.1415 104.45 15.1458C104.429 15.15 104.414 15.1648 104.413 15.1828ZM104.299 15.742C104.31 15.7653 104.333 15.7727 104.358 15.7696C104.377 15.7611 104.394 15.7494 104.387 15.7282C104.377 15.7018 104.35 15.7018 104.327 15.7039C104.304 15.706 104.288 15.7187 104.299 15.741V15.742ZM104.178 15.4095C104.178 15.4222 104.191 15.4285 104.203 15.4275C104.22 15.4254 104.231 15.4169 104.232 15.3999C104.232 15.3851 104.22 15.3851 104.208 15.3841C104.192 15.3872 104.177 15.3915 104.178 15.4095ZM104.034 15.9877C104.037 15.9972 104.043 16.0068 104.047 16.0163C104.051 16.0131 104.055 16.01 104.062 16.0047C104.056 15.9962 104.051 15.9867 104.046 15.9771C104.042 15.9803 104.032 15.9845 104.033 15.9877H104.034ZM103.943 16.9175C103.95 16.9419 103.976 16.9525 104.001 16.9536C104.018 16.9536 104.028 16.9387 104.028 16.9228C104.028 16.8932 104.009 16.8837 103.981 16.8837C103.959 16.8868 103.938 16.8964 103.943 16.9175ZM103.887 17.4513C103.918 17.4471 103.953 17.4545 103.965 17.4502C103.944 17.4492 103.904 17.4502 103.89 17.4471C103.892 17.4492 103.885 17.4492 103.886 17.4513H103.887ZM103.455 16.1381C103.458 16.1476 103.468 16.1497 103.474 16.1434C103.478 16.1392 103.478 16.1307 103.48 16.1243C103.473 16.1222 103.466 16.1212 103.458 16.119C103.456 16.1254 103.452 16.1328 103.454 16.1381H103.455ZM103.185 16.7545C103.199 16.7725 103.221 16.7735 103.238 16.7619C103.265 16.7439 103.301 16.7322 103.316 16.6888C103.266 16.6719 103.228 16.674 103.196 16.6962C103.173 16.711 103.17 16.7333 103.186 16.7545H103.185ZM107.221 6.7582C107.197 6.7582 107.122 6.76244 107.111 6.76456C107.219 6.76456 107.24 6.75397 107.334 6.75715C107.291 6.75609 107.259 6.75291 107.226 6.75503C107.236 6.75503 107.236 6.75609 107.237 6.75715C107.198 6.75503 107.194 6.75609 107.222 6.7582H107.221ZM106.776 6.72326C106.745 6.72537 106.707 6.72114 106.696 6.72432C106.724 6.72432 106.775 6.72643 106.776 6.72326ZM106.667 6.70843C106.719 6.70843 106.731 6.71267 106.757 6.70843C106.74 6.70843 106.689 6.70631 106.667 6.70843ZM106.54 6.72432C106.57 6.72432 106.662 6.72749 106.67 6.72432C106.62 6.72432 106.569 6.72432 106.54 6.72432ZM106.293 6.69996C106.333 6.69996 106.431 6.70419 106.475 6.70313C106.418 6.70313 106.324 6.69466 106.293 6.69996ZM105.969 6.72537C105.984 6.72749 106.051 6.72749 106.043 6.72537C106.009 6.72537 105.988 6.72432 105.969 6.72537ZM105.565 6.70949C105.588 6.70631 105.669 6.70949 105.71 6.70737C105.679 6.70737 105.654 6.70737 105.65 6.70419C105.598 6.70419 105.59 6.70419 105.543 6.70419C105.538 6.70737 105.541 6.70843 105.565 6.71055V6.70949ZM105.374 6.70737C105.383 6.70631 105.453 6.70737 105.429 6.70419C105.411 6.70419 105.387 6.70419 105.374 6.70737ZM105.279 6.6989C105.279 6.6989 105.306 6.70102 105.315 6.70313C105.317 6.70208 105.325 6.70208 105.32 6.69996C105.309 6.69996 105.297 6.6989 105.279 6.6989ZM105.182 6.70102C105.217 6.70102 105.272 6.70313 105.271 6.6989C105.246 6.6989 105.194 6.69572 105.182 6.70102ZM104.817 6.71584C104.798 6.71584 104.785 6.71584 104.776 6.71478C104.764 6.71796 104.821 6.71796 104.817 6.71584ZM104.628 6.6936C104.644 6.69572 104.675 6.6936 104.686 6.6936C104.669 6.6936 104.631 6.69254 104.628 6.6936ZM104.453 6.71055C104.453 6.71055 104.476 6.71372 104.496 6.71372C104.515 6.71372 104.531 6.71372 104.535 6.71161C104.509 6.71161 104.511 6.71267 104.495 6.71267C104.495 6.71055 104.491 6.70949 104.476 6.70949C104.476 6.70949 104.464 6.70949 104.452 6.70949L104.453 6.71055ZM103.715 6.69678C103.753 6.69678 103.765 6.69784 103.789 6.69678C103.907 6.70525 104.078 6.70843 104.222 6.70631C104.233 6.70843 104.259 6.70843 104.274 6.71055C104.322 6.70843 104.436 6.71584 104.437 6.71055C104.368 6.71055 104.25 6.70737 104.155 6.70631C104.109 6.70631 104.06 6.70631 104.038 6.70419C104.05 6.70419 104.055 6.70525 104.072 6.70525C104.062 6.69996 104.01 6.70525 103.996 6.70208C104.024 6.70208 104.005 6.69996 104.036 6.70208C104.036 6.69996 104.017 6.69996 104.001 6.6989C103.99 6.69996 103.939 6.69996 103.927 6.6989C103.915 6.70102 103.928 6.69996 103.929 6.70208C103.953 6.70208 104.011 6.70208 103.98 6.70525C103.962 6.70102 103.909 6.70525 103.888 6.70208C103.899 6.70208 103.902 6.69996 103.902 6.6989C103.871 6.6989 103.876 6.6989 103.863 6.70102C103.838 6.69996 103.878 6.69784 103.844 6.69784C103.815 6.69784 103.851 6.70102 103.803 6.6989C103.817 6.69678 103.719 6.69572 103.713 6.6989L103.715 6.69678ZM103.506 6.77621C103.524 6.77621 103.531 6.77833 103.557 6.77833C103.557 6.77833 103.556 6.77621 103.555 6.77621C103.537 6.77621 103.509 6.77409 103.506 6.77621ZM102.834 17.1516C102.831 17.1346 102.817 17.1294 102.8 17.1283C102.784 17.1283 102.77 17.1336 102.769 17.1505C102.769 17.1685 102.785 17.1738 102.8 17.1728C102.816 17.1728 102.83 17.1685 102.833 17.1505L102.834 17.1516ZM103.026 6.69466C103.026 6.69466 103.068 6.69572 103.076 6.69572C103.063 6.69572 103.067 6.6936 103.049 6.6936C103.048 6.6936 103.049 6.69572 103.042 6.69572C103.033 6.69572 103.031 6.69572 103.025 6.69572L103.026 6.69466ZM102.753 16.2175C102.757 16.2451 102.781 16.2609 102.811 16.2715C102.846 16.2842 102.872 16.2811 102.899 16.2567C102.93 16.2292 102.965 16.2069 103.005 16.1773C102.93 16.1339 102.868 16.1582 102.807 16.1699C102.78 16.1752 102.748 16.1836 102.753 16.2175ZM101.914 17.4227C101.914 17.4227 101.903 17.4206 101.912 17.4185C101.898 17.4185 101.895 17.4206 101.876 17.4206C101.876 17.4227 101.891 17.4227 101.896 17.4248C101.896 17.4238 101.906 17.4238 101.914 17.4238V17.4227ZM101.97 17.4121C101.966 17.4206 101.996 17.4153 101.987 17.4206C102.022 17.4206 101.98 17.4132 101.97 17.4121ZM102.154 17.3888C102.136 17.3888 102.159 17.3867 102.152 17.3846C102.136 17.3846 102.138 17.3867 102.136 17.3888C102.145 17.3888 102.17 17.3899 102.154 17.3888ZM102.16 17.2702C102.153 17.2639 102.149 17.2649 102.145 17.2713C102.148 17.2723 102.15 17.2744 102.153 17.2755C102.156 17.2734 102.158 17.2723 102.161 17.2702H102.16ZM102.201 17.3856C102.183 17.3878 102.178 17.3867 102.164 17.3856C102.167 17.3888 102.182 17.3888 102.197 17.3888C102.197 17.3878 102.199 17.3867 102.201 17.3856ZM102.436 16.1031C102.436 16.1031 102.443 16.1042 102.447 16.1053C102.45 16.1031 102.452 16.101 102.455 16.0989C102.452 16.0968 102.449 16.0936 102.446 16.0936C102.435 16.0936 102.432 16.0979 102.436 16.1042V16.1031ZM102.125 16.3711C102.144 16.405 102.171 16.423 102.215 16.4156C102.307 16.4007 102.349 16.3499 102.344 16.2249C102.288 16.2652 102.235 16.2652 102.186 16.2811C102.175 16.2842 102.164 16.2895 102.154 16.2959C102.128 16.3139 102.105 16.3361 102.124 16.3711H102.125ZM101.97 17.3994C101.968 17.4058 101.923 17.3994 101.911 17.4026C101.916 17.4026 101.928 17.4089 101.895 17.4079C101.918 17.41 101.911 17.4185 101.953 17.4142C101.944 17.4142 101.937 17.4132 101.933 17.4111C101.951 17.4047 101.978 17.4111 102.004 17.4058C102.009 17.4079 101.988 17.4089 102.011 17.4089C102.019 17.4079 102.011 17.4068 102.009 17.4036C102.035 17.4058 102.027 17.4005 102.015 17.4015C102.039 17.3973 102.063 17.3983 102.09 17.3941C102.062 17.392 102.069 17.3899 102.026 17.3888C102.022 17.3856 102.069 17.3856 102.041 17.3825C102.032 17.3856 101.971 17.3878 102.02 17.3888C101.951 17.3888 101.96 17.3931 101.92 17.3983C101.942 17.3983 101.96 17.3984 101.97 17.3994ZM101.839 16.2239C101.84 16.2482 101.861 16.2535 101.882 16.2525C101.899 16.2525 101.914 16.244 101.909 16.2249C101.903 16.2059 101.892 16.19 101.867 16.1921C101.849 16.1974 101.837 16.208 101.838 16.2239H101.839ZM101.847 17.1781C101.847 17.1781 101.858 17.1707 101.863 17.1654C101.865 17.1569 101.863 17.1495 101.854 17.1484C101.847 17.1484 101.839 17.1516 101.836 17.1558C101.83 17.1654 101.834 17.176 101.847 17.177V17.1781ZM101.544 6.69149C101.538 6.69466 101.65 6.6936 101.627 6.69254C101.582 6.69254 101.579 6.69254 101.544 6.69149ZM101.525 17.3888C101.523 17.4068 101.539 17.4132 101.557 17.41C101.58 17.4036 101.607 17.3962 101.609 17.3719C101.61 17.3592 101.59 17.3465 101.573 17.3486C101.547 17.3507 101.528 17.3634 101.525 17.3888ZM101.377 16.7121C101.388 16.7206 101.4 16.7206 101.407 16.7089C101.415 16.693 101.444 16.693 101.441 16.6676C101.412 16.6517 101.394 16.6676 101.377 16.6835C101.369 16.692 101.368 16.7036 101.377 16.7121ZM77.6494 6.49874C77.6431 6.49874 77.6378 6.48815 77.6293 6.47862C77.6293 6.48391 77.6261 6.47968 77.6293 6.48391C77.6346 6.48391 77.6325 6.48921 77.6303 6.48709C77.6356 6.4945 77.6589 6.51674 77.6494 6.49874ZM79.4773 13.0404L79.1236 14.36C78.665 16.0724 76.9049 17.4598 75.1935 17.4598H72.691C70.0529 17.4598 68.4485 15.3989 68.9897 12.8C69.0098 12.7015 69.0331 12.602 69.0596 12.5024L69.1909 12.0121C69.1909 12.0121 69.1941 12.0079 69.1951 12.0015C69.1951 12.0015 69.1941 12.0015 69.193 12.0015L69.1962 11.9909C69.2036 11.9761 69.2142 11.939 69.2195 11.921C69.2174 11.9178 69.2163 11.921 69.2142 11.9231L69.2184 11.9072C69.2184 11.9072 69.2205 11.9072 69.2237 11.9072C69.229 11.8935 69.2205 11.8998 69.2237 11.8892C69.229 11.8914 69.2322 11.867 69.2375 11.8649C69.2375 11.8448 69.2428 11.8405 69.246 11.8437C69.246 11.8257 69.2502 11.8204 69.2491 11.8066C69.2534 11.8003 69.2502 11.8066 69.2544 11.8077C69.2576 11.7886 69.2587 11.7907 69.264 11.778C69.264 11.7706 69.264 11.7664 69.264 11.759C69.2682 11.7516 69.2693 11.742 69.2693 11.7558C69.283 11.7134 69.2767 11.6923 69.282 11.6732L69.2904 11.6414C69.2904 11.6414 69.2904 11.6446 69.2904 11.6457C69.2947 11.6372 69.301 11.6171 69.301 11.6298C69.301 11.6192 69.3158 11.5853 69.3116 11.5906C69.3074 11.6001 69.2978 11.6245 69.2989 11.6075L69.3476 11.4233C69.3476 11.4233 69.3476 11.4328 69.3434 11.4413C69.3466 11.4487 69.355 11.4339 69.3529 11.4254C69.3508 11.4307 69.3487 11.4349 69.3466 11.4381C69.3455 11.4349 69.3519 11.418 69.3497 11.4158C69.3497 11.4169 69.3487 11.418 69.3476 11.419L69.3646 11.3565C69.3688 11.3502 69.3752 11.3481 69.373 11.347C69.373 11.3385 69.3699 11.3417 69.3667 11.3491L69.372 11.3279C69.372 11.3279 69.372 11.3364 69.3741 11.3385C69.3805 11.3184 69.3762 11.3258 69.3762 11.3205C69.3783 11.3174 69.3804 11.3047 69.3836 11.3089C69.3826 11.3142 69.3805 11.3216 69.3815 11.3227C69.3857 11.3047 69.3889 11.2962 69.3932 11.293C69.3963 11.2697 69.4038 11.2549 69.4154 11.2062C69.4154 11.1977 69.4101 11.2104 69.4122 11.1956C69.4334 11.1405 69.4355 11.0854 69.4503 11.0431C69.4503 11.042 69.4503 11.041 69.4503 11.041L69.4546 11.024C69.4546 11.024 69.4546 11.024 69.4546 11.0251C69.4546 11.0187 69.4567 11.0124 69.4578 11.006L69.4641 10.9806C69.4705 10.9615 69.4779 10.9425 69.4842 10.917C69.4842 10.9149 69.4842 10.9128 69.4842 10.9107L69.6081 10.4468C69.6018 10.4733 69.5954 10.4987 69.5923 10.5273C69.5901 10.5146 69.5774 10.5697 69.5859 10.558C69.5668 10.6163 69.5435 10.7084 69.5382 10.7635C69.5425 10.7412 69.5573 10.7042 69.5562 10.6851C69.5594 10.6968 69.5626 10.6661 69.5605 10.6629C69.5615 10.6629 69.5626 10.6629 69.5647 10.6639C69.6134 10.4775 69.6664 10.27 69.7109 10.1079C69.7109 10.0889 69.7331 10.0317 69.7289 10.0105C69.7384 9.98721 69.7416 9.9798 69.7448 9.95438C69.749 9.96603 69.7522 9.9279 69.7575 9.93426C69.7596 9.91308 69.7723 9.8919 69.7702 9.88236C69.7617 9.90884 69.7606 9.92684 69.7522 9.9332C69.7606 9.90778 69.7638 9.88025 69.7744 9.86542C69.7776 9.8453 69.7839 9.80611 69.7924 9.79129C69.7871 9.78705 69.7998 9.76799 69.7988 9.75634C69.7967 9.75422 69.7935 9.76163 69.7945 9.75528C69.7967 9.73728 69.8072 9.71821 69.8083 9.70339C69.8072 9.70656 69.8062 9.70974 69.8051 9.7108L69.8094 9.69386C69.8094 9.69386 69.8104 9.68962 69.8115 9.6875L69.8168 9.66632C69.8168 9.66632 69.8168 9.68432 69.8231 9.67585C69.8189 9.67373 69.8231 9.65785 69.821 9.65255L70.125 8.51938C70.1366 8.53951 70.161 8.5448 70.1843 8.53845C70.2192 8.52997 70.252 8.51515 70.251 8.47173C70.2309 8.43996 70.1991 8.43466 70.1663 8.4389C70.1578 8.43996 70.1504 8.44207 70.144 8.44525L70.2753 7.95386C70.2828 7.96021 70.2912 7.96551 70.2997 7.96868C70.2997 7.97504 70.2976 7.98139 70.2976 7.98563C70.2997 7.98245 70.3018 7.97504 70.3039 7.96974C70.3177 7.97398 70.3336 7.9761 70.3474 7.98033C70.3876 7.9761 70.4194 7.92526 70.4077 7.8829C70.3992 7.85325 70.3812 7.82783 70.3442 7.82677C70.3495 7.80559 70.3516 7.80242 70.3579 7.77382C70.3526 7.77594 70.3548 7.77382 70.3495 7.77594C70.3473 7.79394 70.3421 7.79924 70.3421 7.81089C70.3452 7.80877 70.3484 7.78653 70.3516 7.78547C70.3505 7.80136 70.3452 7.81406 70.3399 7.82677C70.3325 7.82889 70.3156 7.84795 70.2986 7.86913L70.6153 6.68725H73.8305C73.8252 6.6989 73.8231 6.71267 73.8263 6.72855C73.8326 6.76138 73.8559 6.77409 73.8888 6.76879C73.9301 6.76138 73.964 6.72643 73.964 6.68831H74.3865L72.6126 13.3083C72.4474 13.9247 72.8128 14.4246 73.4291 14.4246H74.341C74.8885 14.4246 75.4519 13.9808 75.5991 13.4323L76.7588 9.10291C76.7778 9.10821 76.7948 9.12303 76.8138 9.12833C76.8445 9.13574 76.8647 9.12515 76.8541 9.0955C76.8445 9.06691 76.8276 9.03831 76.8107 9.01184C76.8054 9.00336 76.7979 8.99489 76.7874 8.99277L76.9896 8.23874C77.0013 8.23344 77.0119 8.22073 77.0076 8.20379C77.0066 8.1985 77.0045 8.19638 77.0023 8.19214L77.4959 6.34942C77.5011 6.35471 77.5064 6.36107 77.5096 6.36742C77.5266 6.38119 77.5562 6.42567 77.5774 6.43732C77.5795 6.44049 77.5816 6.44261 77.5795 6.44367C77.5869 6.4532 77.5859 6.44367 77.5933 6.4532C77.5975 6.45744 77.5933 6.45744 77.5975 6.46167C77.6049 6.46591 77.6092 6.47121 77.6081 6.46697C77.6123 6.47332 77.6123 6.47756 77.6166 6.48391C77.6229 6.48391 77.6282 6.49662 77.6314 6.50192C77.6494 6.5178 77.6685 6.54004 77.6907 6.56122C77.6907 6.56334 77.6918 6.56546 77.6939 6.56758C77.6971 6.57075 77.7013 6.57393 77.7066 6.57605C77.714 6.5824 77.7204 6.58876 77.7278 6.59511C77.7225 6.5877 77.7098 6.57499 77.7204 6.58135C77.7193 6.58135 77.7172 6.57923 77.7161 6.57923C77.7235 6.57923 77.7299 6.57923 77.7362 6.57923C77.7384 6.58135 77.7405 6.58452 77.7426 6.58664C77.7426 6.58664 77.7437 6.58558 77.7458 6.58664L77.785 6.629C77.785 6.629 77.785 6.629 77.785 6.63006C77.785 6.63006 77.785 6.63006 77.786 6.63006L77.8051 6.65124C77.8051 6.65124 77.8072 6.65442 77.8083 6.65548C77.8093 6.65654 77.8114 6.65866 77.8136 6.66077L77.8379 6.68725C77.8379 6.68725 77.839 6.68937 77.8379 6.69043H77.84L77.8485 6.69996C77.8485 6.69996 77.8517 6.70525 77.8527 6.70737C77.8538 6.70737 77.8549 6.70843 77.857 6.70949L77.9438 6.80374C77.9438 6.80374 77.9438 6.80586 77.947 6.80904C77.947 6.80904 77.947 6.80798 77.947 6.80692L78.0942 6.96683C78.0942 6.96683 78.0974 6.97425 78.1016 6.97954C78.1069 6.9859 78.1207 6.99861 78.1292 7.0092C78.1482 7.0325 78.1556 7.03673 78.1758 7.06109C78.1747 7.06215 78.1683 7.05473 78.1683 7.05685C78.1758 7.06427 78.1779 7.06215 78.1842 7.0685C78.1863 7.07486 78.2086 7.09392 78.1991 7.0918C78.2096 7.10451 78.2118 7.09816 78.2213 7.10875C78.2255 7.11404 78.2224 7.1151 78.2287 7.12145C78.2319 7.12145 78.2361 7.12357 78.2425 7.13204C78.2425 7.13416 78.2435 7.13628 78.2404 7.13416C78.2689 7.15746 78.2679 7.16805 78.2912 7.19347C78.2922 7.19029 78.2933 7.18817 78.2997 7.19665C78.2954 7.19665 78.3113 7.21677 78.3166 7.22524C78.3208 7.22418 78.3071 7.21359 78.3124 7.21253C78.3187 7.221 78.3187 7.22418 78.3251 7.22418C78.3251 7.22842 78.3219 7.2263 78.3283 7.23477C78.3293 7.23159 78.3314 7.22948 78.3378 7.23689C78.3346 7.23689 78.3388 7.24218 78.3367 7.24324C78.3696 7.26972 78.4034 7.31949 78.4469 7.35974C78.4638 7.37986 78.4882 7.41375 78.5062 7.42646C78.5263 7.45293 78.5443 7.46882 78.5687 7.49424C78.5708 7.50059 78.575 7.50588 78.5814 7.51118C78.5782 7.508 78.5814 7.50906 78.5845 7.51118C78.5867 7.51542 78.5888 7.52071 78.592 7.52495C78.5941 7.52495 78.5973 7.52812 78.6015 7.5313C78.6015 7.54507 78.6248 7.54719 78.6333 7.56943C78.6597 7.58637 78.6936 7.64144 78.718 7.65097C78.7106 7.64144 78.7053 7.64568 78.701 7.63615C78.7212 7.6425 78.7339 7.66686 78.7603 7.6891C78.7603 7.6891 78.7603 7.68804 78.7603 7.68698L78.79 7.71981L78.8472 7.78229C78.8472 7.78229 78.8493 7.78653 78.8514 7.78653H78.8525C78.8525 7.78653 78.8504 7.79288 78.8525 7.79606C78.862 7.79606 78.8768 7.82677 78.8885 7.82889C78.8948 7.84372 78.9118 7.85748 78.9203 7.87125C78.9266 7.87125 78.9436 7.89137 78.951 7.90091C78.952 7.90091 78.951 7.89879 78.951 7.89667L81.9057 11.1098L83.0865 6.70419H86.8577L83.8766 17.8294L82.4956 16.3277C82.5284 16.3626 82.5686 16.4039 82.6015 16.441C82.5877 16.4177 82.54 16.3764 82.522 16.351C82.5252 16.351 82.5263 16.351 82.5295 16.351C82.5146 16.333 82.5009 16.315 82.4956 16.3033C82.4648 16.2726 82.4352 16.2345 82.4183 16.2101C82.4098 16.2006 82.4119 16.2069 82.4045 16.1974C82.4066 16.1974 82.4003 16.191 82.4045 16.191C82.396 16.1836 82.3854 16.172 82.3833 16.1667C82.3653 16.1519 82.3685 16.1487 82.3505 16.1328C82.3505 16.1328 82.3505 16.1317 82.3505 16.1307C82.3198 16.0989 82.3028 16.0724 82.2732 16.0449C82.2742 16.0449 82.271 16.0407 82.2721 16.0396C82.2562 16.0216 82.2477 16.0152 82.2435 16.0057C82.1969 15.9591 82.163 15.9125 82.1111 15.8649C82.1101 15.8627 82.108 15.8585 82.1037 15.8543C82.0836 15.8373 82.0465 15.795 82.0264 15.777C82.0211 15.7738 82.0179 15.7717 82.0137 15.7696C82.0063 15.7611 82.0211 15.7748 82.0095 15.7621C81.9989 15.7515 82.0169 15.7738 82.0084 15.7653C82.0073 15.7621 82.0031 15.7579 81.9978 15.7526C81.9978 15.7579 81.984 15.741 81.9756 15.7314C81.9597 15.7219 81.929 15.6912 81.9131 15.6817C81.8887 15.6552 81.8707 15.6403 81.8548 15.6287L81.6346 15.3894V15.3872C81.6272 15.3788 81.6219 15.3745 81.6176 15.3703L81.588 15.3385C81.5594 15.3046 81.5255 15.2644 81.4842 15.2231C81.4842 15.222 81.4916 15.2305 81.4905 15.2263C81.481 15.2167 81.4725 15.2104 81.4715 15.2114L79.4763 13.0415L79.4773 13.0404ZM83.7558 7.05368C83.7569 7.06638 83.7696 7.07486 83.7823 7.06956C83.7971 7.06321 83.8024 7.04944 83.8045 7.03355C83.8024 7.01979 83.7929 7.01343 83.7791 7.01873C83.7643 7.02508 83.7548 7.03673 83.7558 7.05262V7.05368ZM83.1924 17.0033C83.2009 17.0118 83.1998 17.0129 83.2083 17.0213C83.2104 17.0213 83.2083 17.0182 83.2083 17.015C83.1998 17.0054 83.1945 17.0023 83.1935 17.0033H83.1924ZM81.9788 15.7071C81.9788 15.7071 81.9851 15.7166 81.9904 15.724C81.9904 15.723 81.9925 15.724 81.9946 15.724C81.9862 15.7166 81.984 15.7134 81.9788 15.706V15.7071ZM81.8781 15.6266C81.8718 15.6276 81.8877 15.6393 81.8803 15.6382C81.8961 15.6541 81.8803 15.6319 81.8781 15.6266ZM81.9639 15.6954C81.9639 15.6954 81.9777 15.7124 81.9724 15.7039C81.965 15.6954 81.9756 15.705 81.9735 15.7007C81.966 15.6933 81.966 15.6944 81.9639 15.6954ZM81.8474 15.5895C81.8559 15.6012 81.8474 15.6012 81.8697 15.6202C81.8654 15.616 81.8633 15.6118 81.8623 15.6096C81.8739 15.616 81.8824 15.6308 81.8961 15.6414C81.8961 15.6446 81.8877 15.6361 81.8983 15.6467C81.9025 15.6499 81.8993 15.6467 81.9004 15.6435C81.9099 15.6562 81.9099 15.6509 81.9036 15.6446C81.9163 15.6541 81.9269 15.6668 81.9406 15.6774C81.93 15.6636 81.9332 15.6658 81.9152 15.6446C81.9152 15.6414 81.9353 15.6626 81.9258 15.6488C81.9194 15.6456 81.8919 15.6181 81.9131 15.6414C81.8834 15.6086 81.8845 15.6149 81.8644 15.598C81.8739 15.6075 81.8813 15.616 81.8856 15.6223C81.8813 15.6245 81.8644 15.6001 81.858 15.5948C81.8601 15.598 81.8623 15.6054 81.8485 15.5895H81.8474ZM81.8326 15.5853C81.8326 15.5853 81.8379 15.5938 81.839 15.5969C81.839 15.5969 81.8432 15.6012 81.8474 15.6043C81.8485 15.6022 81.8432 15.598 81.8485 15.6012C81.8421 15.5948 81.84 15.5938 81.8315 15.5853H81.8326ZM80.7736 14.4203C80.7619 14.4055 80.7609 14.4097 80.7693 14.4203C80.7704 14.4203 80.7736 14.4235 80.7736 14.4203ZM80.7715 14.4161C80.7715 14.4161 80.7725 14.414 80.7736 14.4129C80.7662 14.4055 80.7662 14.4066 80.764 14.4076C80.7683 14.4119 80.7693 14.414 80.7715 14.4172V14.4161ZM80.7619 14.3854C80.7619 14.3854 80.7693 14.3939 80.7693 14.3949C80.7693 14.3949 80.7693 14.396 80.7693 14.397C80.7778 14.4076 80.7746 14.3992 80.7767 14.3992C80.7672 14.3907 80.7651 14.3822 80.763 14.3854H80.7619ZM80.3277 9.41003C80.3277 9.41003 80.332 9.41851 80.3383 9.42486L80.3404 9.42274C80.3404 9.42274 80.3309 9.40897 80.3277 9.41109V9.41003ZM79.7304 8.80638C79.7431 8.82227 79.7548 8.83604 79.7611 8.84451C79.7601 8.83709 79.7378 8.81274 79.7304 8.80638ZM79.507 8.52997C79.4985 8.52256 79.5027 8.5215 79.4964 8.51515C79.4921 8.51727 79.5038 8.52997 79.507 8.52997ZM74.0572 7.38515C74.0625 7.40422 74.0783 7.41693 74.1016 7.41163C74.1228 7.40634 74.1355 7.39151 74.1292 7.37245C74.1228 7.34915 74.0995 7.34915 74.0805 7.35338C74.0635 7.35656 74.0529 7.36927 74.0572 7.38515ZM73.5975 6.95519C73.5997 6.96789 73.6102 6.97425 73.623 6.97107C73.6399 6.96683 73.6484 6.95519 73.6473 6.9393C73.6473 6.92553 73.6335 6.92447 73.6219 6.92553C73.606 6.92977 73.5933 6.93718 73.5965 6.95519H73.5975ZM73.4969 7.53342C73.5096 7.53342 73.5181 7.53024 73.5202 7.51753C73.5149 7.5133 73.5096 7.50377 73.5065 7.50483C73.5001 7.50588 73.4927 7.51224 73.4895 7.51753C73.4842 7.52601 73.4885 7.53236 73.498 7.53342H73.4969ZM73.2491 6.87893C73.2798 6.90753 73.3095 6.88423 73.336 6.87046C73.3561 6.86093 73.373 6.84399 73.39 6.82916C73.3974 6.82175 73.4027 6.81116 73.39 6.7868C73.3783 6.76879 73.3465 6.78044 73.3211 6.77303C73.2809 6.76244 73.2618 6.78256 73.2502 6.81433C73.2417 6.83551 73.2322 6.86093 73.2502 6.87893H73.2491ZM73.1972 7.80242C73.2004 7.81936 73.2163 7.82783 73.2322 7.82783C73.2491 7.82783 73.2618 7.8183 73.2597 7.8003C73.2576 7.78229 73.2459 7.77488 73.2248 7.777C73.211 7.78123 73.1919 7.78229 73.1962 7.80242H73.1972ZM73.0098 7.11298C73.0606 7.12569 73.068 7.09074 73.0807 7.0452C73.0362 7.03991 72.9992 7.03355 72.9865 7.07803C72.9812 7.09498 72.996 7.10875 73.0098 7.11298ZM72.7853 7.32903C72.7853 7.32903 72.7969 7.33538 72.8033 7.33856C72.816 7.33432 72.8244 7.32585 72.8181 7.31314C72.816 7.3089 72.8054 7.30361 72.8001 7.30467C72.7874 7.30679 72.78 7.31632 72.7853 7.32903ZM72.6381 6.96048C72.6402 6.98802 72.6624 6.99861 72.6921 6.99861C72.7217 6.98378 72.763 6.97425 72.7556 6.92977C72.7503 6.90117 72.7228 6.89588 72.6984 6.90117C72.6656 6.90753 72.6359 6.92236 72.6391 6.96048H72.6381ZM68.9685 13.0828C68.9727 13.0754 68.9759 13.0542 68.9812 13.0627C68.9886 13.0309 68.9674 13.0701 68.9685 13.0828ZM69.0257 12.6549C69.0225 12.6761 69.013 12.6846 69.014 12.693C69.0172 12.6878 69.0193 12.6772 69.0225 12.6772C69.0172 12.6983 69.0024 12.7259 69.0108 12.7206C69.0108 12.7121 69.0193 12.6952 69.0225 12.6909C69.0214 12.6846 69.0278 12.6422 69.0257 12.6539V12.6549ZM69.1708 12.1551C69.1665 12.1731 69.1676 12.1656 69.1665 12.1582C69.1655 12.1656 69.1612 12.1688 69.1634 12.1709C69.1697 12.1572 69.1612 12.1879 69.1634 12.1889C69.1676 12.1794 69.1739 12.1508 69.1708 12.154V12.1551ZM69.427 11.6605C69.427 11.6668 69.4196 11.6827 69.4228 11.6827C69.4228 11.687 69.4228 11.687 69.426 11.7028C69.4302 11.6838 69.4334 11.6647 69.427 11.6615V11.6605ZM69.9301 9.28295C69.9301 9.28295 69.9248 9.29036 69.9227 9.28507C69.9195 9.29778 69.9248 9.29989 69.9269 9.29566C69.928 9.29142 69.929 9.28718 69.9301 9.28295ZM70.0392 8.88051C70.0318 8.89322 70.0254 8.94512 70.0159 8.95359C70.0127 8.96418 70.0148 8.96736 70.0106 8.98006C70.0095 8.97689 70.0095 8.97265 70.0074 8.96947C69.9958 9.03725 69.9576 9.13362 69.9492 9.20458C69.9343 9.2247 69.9417 9.25859 69.929 9.26918C69.9343 9.26706 69.9322 9.26706 69.9354 9.2713C69.9386 9.24059 69.9555 9.19505 69.9629 9.19505C69.9555 9.19505 69.9682 9.20458 69.9587 9.21729C69.9597 9.22364 69.9661 9.20776 69.964 9.21835C69.9597 9.22576 69.9555 9.23212 69.9513 9.23847C69.9492 9.24906 69.9481 9.25647 69.947 9.26495C69.9449 9.26495 69.9439 9.26283 69.9417 9.26812C69.9502 9.266 69.9375 9.29142 69.9354 9.29883C69.9417 9.29248 69.9481 9.26706 69.9544 9.26283C69.9513 9.25753 69.9555 9.25435 69.9587 9.24059C69.9608 9.24059 69.9619 9.24271 69.964 9.23741C69.964 9.23317 69.9725 9.21835 69.9703 9.2067C69.9672 9.21517 69.9661 9.21517 69.965 9.20988C69.9725 9.18869 69.9756 9.16328 69.9873 9.1421C69.9809 9.13786 69.9883 9.12303 69.9936 9.10715C69.9915 9.10609 69.9883 9.10715 69.9894 9.10079C69.9926 9.09232 69.9947 9.09338 69.9979 9.08915C69.9958 9.09656 69.9936 9.11562 69.9979 9.10291C69.9947 9.10079 70.0074 9.07326 70.0032 9.0722C70.001 9.08173 69.9989 9.08597 69.9958 9.08385C70.0021 9.07432 69.9958 9.07432 70.001 9.05737C69.9979 9.0542 69.9947 9.05314 69.9947 9.04572C70.0042 9.03725 69.9989 9.02137 70.0021 9.00548C70.0085 8.99489 70.0148 8.98536 70.0212 8.98324C70.0243 8.96947 70.0265 8.96524 70.0254 8.961C70.0222 8.96947 70.0201 8.96841 70.0169 8.97265C70.0212 8.94512 70.0254 8.93558 70.0339 8.90805C70.0318 8.9017 70.0318 8.89216 70.0371 8.88051H70.0392ZM70.1038 8.73543C70.1038 8.73543 70.1017 8.73225 70.1006 8.73013C70.0985 8.73754 70.0964 8.73966 70.0942 8.73754C70.0889 8.75661 70.0921 8.7619 70.09 8.77355C70.0858 8.7852 70.0815 8.78944 70.0762 8.79791C70.0752 8.81591 70.0625 8.84451 70.0572 8.87628C70.0625 8.8551 70.0678 8.85192 70.0731 8.84345C70.0731 8.8265 70.0794 8.81697 70.0794 8.80321C70.0815 8.80321 70.0826 8.80109 70.0826 8.79473C70.0858 8.79579 70.0889 8.79791 70.0911 8.78838C70.09 8.77779 70.0942 8.75767 70.0932 8.74708C70.0964 8.74284 70.0985 8.74072 70.1017 8.73543H70.1038ZM70.1355 8.59563C70.1355 8.61152 70.125 8.63694 70.1207 8.62846C70.1228 8.62846 70.1186 8.64117 70.1207 8.64223C70.1218 8.63482 70.1292 8.62952 70.1271 8.63905C70.1228 8.64753 70.1271 8.6507 70.125 8.66659C70.125 8.64541 70.1387 8.60305 70.1355 8.59457V8.59563ZM70.1451 8.55645C70.1419 8.56916 70.1355 8.5861 70.1398 8.58716C70.1419 8.57657 70.1514 8.55433 70.1451 8.55645ZM70.2965 7.98881C70.2933 8.00151 70.2923 8.00363 70.2912 7.99622C70.2902 8.00046 70.2891 8.00469 70.288 8.00893C70.2902 8.01105 70.2923 8.00469 70.2944 8.00575C70.2965 7.99728 70.2976 7.99092 70.2965 7.98775V7.98881ZM70.4469 8.29275C70.4819 8.28851 70.502 8.26416 70.4956 8.22391C70.4787 8.19955 70.4586 8.17096 70.4194 8.18261C70.3887 8.19108 70.3526 8.21014 70.3601 8.24403C70.3675 8.28216 70.4088 8.29804 70.4469 8.29381V8.29275ZM70.61 8.57128C70.6036 8.53421 70.5666 8.53315 70.5359 8.53103C70.4956 8.52786 70.449 8.57128 70.4522 8.60728C70.4554 8.64859 70.4871 8.66447 70.5284 8.66553C70.5719 8.66553 70.6153 8.61893 70.61 8.57128ZM70.9478 6.80163C70.9531 6.81327 70.9627 6.82175 70.9764 6.81645C70.9807 6.81433 70.9838 6.80268 70.9828 6.79633C70.9796 6.78468 70.9711 6.77409 70.9563 6.7815C70.951 6.78468 70.951 6.79421 70.9478 6.80163ZM70.9955 7.76853C71.022 7.76535 71.0378 7.75052 71.0347 7.72193C71.0241 7.69439 71.0071 7.67215 70.9732 7.67851C70.9499 7.68274 70.9468 7.70498 70.951 7.72405C70.9563 7.74629 70.9637 7.7717 70.9955 7.76853ZM71.1077 8.08941C71.1077 8.06717 71.094 8.05553 71.0707 8.05235C71.0484 8.04917 71.0273 8.05447 71.022 8.07459C71.0156 8.09471 71.0262 8.11271 71.0516 8.11695C71.077 8.12119 71.1014 8.12013 71.1088 8.09047L71.1077 8.08941ZM71.1565 7.12993C71.149 7.11934 71.1353 7.1204 71.1247 7.12569C71.112 7.13099 71.112 7.14369 71.1162 7.15428C71.1205 7.16593 71.1289 7.17441 71.1437 7.16699C71.1575 7.15852 71.1681 7.14581 71.1565 7.12993ZM71.3174 7.83419C71.3164 7.81089 71.3058 7.80559 71.2931 7.80453C71.2708 7.80347 71.2571 7.81512 71.2518 7.83313C71.2465 7.85431 71.2645 7.85749 71.2793 7.85537C71.2973 7.85219 71.3164 7.84689 71.3174 7.83313V7.83419ZM71.4339 6.86305C71.4286 6.83234 71.4011 6.83551 71.3778 6.83446C71.327 6.83234 71.2687 6.87576 71.2708 6.91812C71.2719 6.95836 71.3058 6.96789 71.3397 6.96789C71.3767 6.96789 71.4371 6.89906 71.435 6.86305H71.4339ZM71.794 7.3841C71.7887 7.37351 71.7813 7.36503 71.7675 7.36927C71.7527 7.37351 71.7357 7.3788 71.7357 7.39574C71.7357 7.41798 71.7559 7.41798 71.7696 7.41587C71.7855 7.41269 71.7972 7.40316 71.794 7.3841ZM72.0047 6.74761C72.0047 6.73067 71.9889 6.72114 71.9709 6.72432C71.9317 6.73173 71.8904 6.74444 71.8872 6.7868C71.8851 6.8101 71.919 6.81645 71.9433 6.81857C71.9867 6.81222 72.0047 6.78574 72.0047 6.74761ZM72.1519 7.0971C72.1467 7.08968 72.1435 7.08121 72.1371 7.07803C72.1096 7.06215 72.0831 7.06321 72.0588 7.08015C72.028 7.10133 71.992 7.1204 71.9942 7.16593C71.9942 7.17229 72.0005 7.18076 72.0058 7.185C72.0355 7.20406 72.0683 7.21147 72.0948 7.18817C72.1223 7.16382 72.1562 7.14158 72.1519 7.09816V7.0971ZM72.332 7.7717C72.3087 7.73464 72.2737 7.73146 72.2377 7.74099C72.2102 7.7484 72.188 7.76959 72.1954 7.79924C72.2081 7.84266 72.2504 7.84266 72.2843 7.83736C72.3193 7.83207 72.3352 7.80665 72.332 7.7717ZM72.3563 6.83022C72.3352 6.78998 72.3235 6.74232 72.2653 6.70208C72.2526 6.75291 72.2621 6.79739 72.243 6.83551C72.2314 6.85987 72.2271 6.88847 72.2568 6.90859C72.2833 6.92659 72.3129 6.92553 72.3383 6.91176C72.3722 6.89376 72.3712 6.85881 72.3563 6.83022ZM72.4845 7.20935C72.4718 7.1797 72.4464 7.17652 72.4231 7.18394C72.3892 7.19453 72.351 7.2083 72.3627 7.25066C72.3701 7.27925 72.404 7.28984 72.4315 7.28349C72.4707 7.27396 72.4866 7.24642 72.4834 7.20935H72.4845ZM77.1453 8.50879C77.0754 8.51374 77.0458 8.5388 77.0563 8.58398C77.0902 8.56069 77.103 8.51938 77.1453 8.50879ZM77.3264 8.3637C77.3264 8.34041 77.3095 8.33299 77.2862 8.33405C77.2311 8.33617 77.1961 8.37641 77.2057 8.42513C77.212 8.45796 77.2364 8.4569 77.2618 8.45266C77.3158 8.44525 77.337 8.41666 77.3275 8.3637H77.3264ZM77.5372 6.77197C77.5297 6.75503 77.516 6.75185 77.5001 6.75397C77.4874 6.75609 77.4778 6.76456 77.4821 6.77621C77.4874 6.79103 77.5033 6.79739 77.5202 6.79527C77.534 6.79315 77.5372 6.78256 77.5372 6.77197ZM77.75 6.61523C77.7543 6.62159 77.7543 6.62582 77.7585 6.63218C77.7617 6.63006 77.7521 6.61629 77.75 6.61523ZM77.767 7.47094C77.7596 7.46776 77.749 7.46352 77.7373 7.46035C77.6907 7.44446 77.6229 7.4667 77.6018 7.50588C77.5975 7.51436 77.5943 7.53024 77.5996 7.53766C77.6251 7.56943 77.66 7.57578 77.6971 7.56307C77.7362 7.54931 77.7627 7.52495 77.767 7.472V7.47094ZM77.786 6.65654C77.786 6.65654 77.7776 6.64912 77.7754 6.65124C77.7776 6.65442 77.7807 6.65654 77.7828 6.65971C77.7828 6.65866 77.785 6.6576 77.785 6.65654H77.786ZM77.9184 6.80057C77.9311 6.81433 77.947 6.8334 77.9587 6.8461C77.9534 6.84081 77.9491 6.83551 77.9502 6.8334C77.9714 6.85669 77.9915 6.88423 78.019 6.90647C78.0233 6.91388 78.0296 6.91918 78.0285 6.9213C78.0434 6.93506 78.054 6.95201 78.0688 6.96154C78.0677 6.96366 78.0942 6.99437 78.09 6.98484C78.0773 6.96683 78.0508 6.94777 78.0434 6.92871C78.0465 6.93083 78.0508 6.934 78.0529 6.93506C78.0466 6.92977 78.0243 6.91282 78.0307 6.91388C77.9989 6.88741 77.9618 6.83975 77.9343 6.81116C77.9226 6.80692 77.9279 6.80057 77.9173 6.80057H77.9184ZM77.8941 6.7635C77.8782 6.74973 77.8623 6.73067 77.8496 6.72749C77.8496 6.72537 77.8432 6.71902 77.8432 6.7169C77.8464 6.72008 77.8506 6.72537 77.8517 6.72432C77.8453 6.71902 77.8474 6.71796 77.8422 6.71267C77.8422 6.7222 77.8453 6.72432 77.8422 6.72749C77.8517 6.72326 77.8782 6.75715 77.8866 6.76774C77.8771 6.75397 77.8898 6.7635 77.8941 6.7635ZM77.9025 6.77939C77.9057 6.78468 77.9131 6.80163 77.9173 6.79739C77.9121 6.79209 77.9046 6.78468 77.9099 6.78468C77.9025 6.77515 77.8983 6.77621 77.8919 6.76985C77.8898 6.77091 77.8983 6.78362 77.8993 6.78256C77.8962 6.77833 77.8962 6.77409 77.9015 6.77939H77.9025ZM77.9904 7.2676C77.9819 7.24854 77.9703 7.23265 77.9481 7.23265C77.9205 7.23265 77.9068 7.25066 77.9078 7.27607C77.9089 7.29831 77.9237 7.30996 77.947 7.30679C77.9703 7.30361 77.9936 7.29831 77.9894 7.2676H77.9904ZM78.0974 7.59696C78.1006 7.57684 78.0868 7.56625 78.0709 7.56413C78.037 7.55884 78.0222 7.58214 78.0137 7.60649C78.0063 7.6245 78.0243 7.63297 78.0402 7.63615C78.0751 7.6425 78.0889 7.62132 78.0974 7.59696ZM78.1461 7.04838C78.1217 7.02402 78.1069 7.0039 78.0932 6.99225C78.1101 7.01343 78.1239 7.02826 78.1429 7.04944C78.1429 7.04944 78.1461 7.05156 78.1472 7.04944L78.1461 7.04838ZM78.1609 7.06638C78.1609 7.06638 78.1556 7.05685 78.1482 7.04944C78.1482 7.05262 78.1419 7.05262 78.1461 7.05685C78.1461 7.05685 78.1472 7.05473 78.1482 7.05473C78.1546 7.05897 78.1567 7.06638 78.1609 7.06533V7.06638ZM78.2234 7.13416C78.2234 7.13416 78.2128 7.12145 78.2107 7.11722C78.2075 7.12463 78.1969 7.09816 78.1916 7.10027C78.2054 7.11404 78.2139 7.12781 78.2192 7.13416C78.2192 7.13416 78.2192 7.13522 78.2202 7.13734C78.2213 7.13522 78.2181 7.13099 78.2234 7.1331V7.13416ZM78.3187 7.38304C78.3187 7.38304 78.3081 7.37456 78.3028 7.37139C78.2975 7.37562 78.288 7.37986 78.288 7.38515C78.288 7.39045 78.2944 7.4021 78.2986 7.40316C78.3124 7.40528 78.3208 7.39574 78.3187 7.38304ZM78.3441 7.27925C78.3367 7.2729 78.3251 7.25913 78.3177 7.24854C78.3187 7.25383 78.3388 7.27819 78.3441 7.27925ZM78.36 7.27713C78.3399 7.26019 78.3208 7.23795 78.305 7.22206C78.306 7.22418 78.3092 7.2263 78.3081 7.22736C78.2933 7.21253 78.2774 7.19347 78.2668 7.18288C78.2679 7.185 78.2689 7.18606 78.2668 7.18711C78.2488 7.17017 78.2393 7.14687 78.2245 7.13946C78.2319 7.15217 78.2509 7.16487 78.2488 7.17229C78.2658 7.19347 78.2933 7.21677 78.3092 7.24218C78.3251 7.25066 78.3441 7.27819 78.3515 7.28984C78.3463 7.28031 78.3399 7.26442 78.3579 7.27713H78.36ZM78.3823 7.31738C78.3823 7.31738 78.3727 7.30573 78.3696 7.30573C78.3706 7.3089 78.378 7.31526 78.3823 7.31738ZM78.4278 7.37033C78.4278 7.37033 78.4246 7.36503 78.4257 7.36397C78.4119 7.34915 78.3897 7.32161 78.3854 7.32797C78.4003 7.33538 78.4172 7.36291 78.4278 7.37033ZM78.682 7.65945C78.6777 7.64991 78.6724 7.64674 78.6682 7.64462C78.6682 7.6425 78.6682 7.64038 78.6661 7.63826C78.6608 7.63509 78.6566 7.62661 78.6491 7.62344C78.6206 7.59167 78.665 7.64674 78.6608 7.63615C78.6671 7.64568 78.6714 7.65415 78.682 7.6605V7.65945ZM78.6979 7.67851C78.6926 7.67109 78.6862 7.6605 78.682 7.66262C78.6873 7.66686 78.6957 7.67851 78.6979 7.67851ZM78.7169 7.70181C78.7137 7.69651 78.7084 7.68804 78.7032 7.68698C78.7063 7.69122 78.7127 7.70181 78.7169 7.70181ZM78.754 7.74629C78.754 7.73993 78.7392 7.73252 78.7413 7.72616C78.7349 7.72299 78.7243 7.7071 78.719 7.70498C78.7296 7.72087 78.7434 7.7304 78.7497 7.74417C78.7497 7.74417 78.754 7.74735 78.755 7.74629H78.754ZM78.7879 7.82042L78.7805 7.81724V7.8236L78.7879 7.82042ZM78.8175 7.80771C78.7953 7.79288 78.7783 7.76535 78.7561 7.74311C78.7582 7.75158 78.7603 7.75476 78.7667 7.76535C78.7688 7.76111 78.772 7.76958 78.7731 7.7717C78.7752 7.76853 78.7815 7.77488 78.7889 7.78335C78.79 7.78653 78.7889 7.78971 78.7911 7.79394C78.7942 7.78759 78.808 7.81195 78.8122 7.81301C78.8016 7.80136 78.8122 7.80665 78.8165 7.80771H78.8175ZM78.8631 7.86913C78.8631 7.86913 78.8535 7.85854 78.8525 7.85537C78.8472 7.85749 78.8609 7.87125 78.8631 7.86913ZM78.8853 7.86384C78.8853 7.86384 78.9054 7.88714 78.9012 7.87972C78.897 7.87549 78.8811 7.85643 78.8853 7.86384ZM78.9277 7.93903C78.9181 7.92632 78.9065 7.91785 78.897 7.90408C78.8959 7.90726 78.8874 7.89349 78.8864 7.89879C78.9054 7.91467 78.9075 7.91997 78.9224 7.94115C78.9224 7.93903 78.9255 7.93797 78.9277 7.93903ZM79.4127 8.4156C79.4127 8.4156 79.4349 8.44525 79.4307 8.4389C79.4286 8.43572 79.4265 8.4336 79.4265 8.43042C79.4222 8.42513 79.4169 8.42089 79.4127 8.4156ZM79.4339 8.47596C79.4138 8.45796 79.4106 8.44207 79.3968 8.43148C79.4042 8.44525 79.4212 8.46749 79.4339 8.47596ZM79.4699 8.48444C79.4635 8.47808 79.4614 8.47384 79.4572 8.46855C79.4519 8.46855 79.4688 8.48867 79.4699 8.48444ZM89.3634 14.7666C89.3602 14.7794 89.3581 14.7889 89.3602 14.7931C89.3645 14.7868 89.3677 14.7656 89.3634 14.7666ZM69.4027 11.2411C69.4069 11.2284 69.4112 11.2231 69.4112 11.2104C69.4069 11.2231 69.4027 11.2284 69.4027 11.2411ZM88.6337 17.5509C88.6284 17.5752 88.6253 17.59 88.6232 17.6133C88.6253 17.607 88.6253 17.608 88.6263 17.6112L88.6475 17.5318C88.6454 17.5392 88.6422 17.5466 88.6401 17.554C88.6401 17.5477 88.6369 17.5466 88.6337 17.5519V17.5509ZM88.6613 17.4089C88.6655 17.392 88.675 17.3825 88.6719 17.3698C88.6697 17.3846 88.6666 17.3751 88.6634 17.3867C88.6676 17.3867 88.657 17.41 88.6613 17.4089ZM88.3065 18.8016L87.5101 21.7754L84.5893 18.5993L87.7812 6.68619H90.5326C90.5517 6.68619 90.5707 6.68619 90.5908 6.68619H90.7741C90.8101 6.68725 90.8429 6.68831 90.8683 6.68619H90.8895C90.8895 6.68619 90.8831 6.68725 90.8958 6.68831C90.8958 6.68831 90.9096 6.68831 90.9128 6.68831C90.9064 6.68831 90.9033 6.68831 90.9054 6.69043C90.8842 6.69043 90.8725 6.68831 90.8736 6.69149C90.9859 6.6936 91.1246 6.69466 91.221 6.69678C91.2432 6.69678 91.2633 6.69466 91.2792 6.69784C91.2803 6.69572 91.2665 6.69572 91.2612 6.69466C91.275 6.69466 91.2835 6.69254 91.3004 6.69254C91.3152 6.69572 91.3777 6.69466 91.4158 6.69254C91.4677 6.69466 91.5111 6.69466 91.5514 6.6936L90.6745 9.96497C90.6745 9.96497 90.6734 9.96179 90.6713 9.96179C90.6713 9.9692 90.6713 9.97238 90.6713 9.9745L90.4574 10.773C90.4574 10.773 90.4563 10.7741 90.4553 10.7751C90.4542 10.7804 90.4542 10.7825 90.4553 10.7847L90.4288 10.8832C90.4299 10.8768 90.4278 10.8789 90.4288 10.8736C90.4373 10.8577 90.4458 10.8133 90.4468 10.7953C90.4394 10.827 90.4267 10.8662 90.4235 10.8959C90.4246 10.8906 90.4267 10.8832 90.4278 10.8832C90.4256 10.8895 90.4256 10.8927 90.4256 10.8959L90.4225 10.9086C90.4225 10.9086 90.4225 10.9001 90.4193 10.9128C90.4193 10.9149 90.4193 10.917 90.4193 10.9192L90.3579 11.1479C90.3547 11.1543 90.3515 11.1585 90.3483 11.1596C90.343 11.1956 90.3356 11.2316 90.3218 11.2644C90.3197 11.2729 90.325 11.2686 90.3218 11.2782C90.3134 11.2962 90.3091 11.3216 90.3049 11.347L90.2964 11.3777C90.2964 11.3777 90.2964 11.3735 90.2933 11.3777C90.2837 11.4413 90.2615 11.49 90.2509 11.5387C90.2488 11.5366 90.2541 11.5196 90.2498 11.5196C90.2467 11.5334 90.2382 11.562 90.2361 11.5811C90.2339 11.5811 90.2318 11.5864 90.2297 11.5842C90.2255 11.6171 90.2128 11.6435 90.2022 11.6795C90.2032 11.6859 90.2096 11.67 90.2075 11.6806C90.2054 11.6891 90.2032 11.6986 90.2011 11.7071C90.2011 11.7007 90.1979 11.6997 90.1948 11.7103C90.1884 11.7484 90.1746 11.7939 90.1715 11.8299C90.1693 11.8151 90.1672 11.8405 90.1672 11.8426C90.1672 11.8426 90.1651 11.8416 90.1651 11.8426C90.1492 11.8914 90.1344 11.9793 90.1217 12.0333L90.1143 12.0619C90.1143 12.0619 90.1111 12.0714 90.11 12.0735C90.11 12.0735 90.11 12.0735 90.1111 12.0735L90.1037 12.101V12.0989C90.1016 12.1095 90.0984 12.1212 90.0963 12.1328L89.769 13.3549C89.7659 13.3655 89.7574 13.3878 89.7563 13.4005L89.714 13.5572C89.714 13.5498 89.714 13.5371 89.714 13.5265C89.7224 13.5307 89.7161 13.499 89.7246 13.4969C89.7288 13.4831 89.7235 13.4873 89.7246 13.4778C89.7288 13.4661 89.733 13.4619 89.7373 13.4481C89.75 13.3454 89.7881 13.2363 89.8082 13.1368C89.8019 13.159 89.7955 13.1866 89.7891 13.1972C89.7902 13.1897 89.7976 13.176 89.7955 13.1707C89.7923 13.1781 89.7902 13.1929 89.787 13.1961C89.7902 13.1717 89.8008 13.158 89.8008 13.1484C89.7944 13.1739 89.7966 13.1463 89.7955 13.1474C89.7913 13.1558 89.7913 13.1696 89.7839 13.1813C89.786 13.1834 89.7881 13.177 89.7902 13.1781C89.7881 13.1866 89.7849 13.1855 89.7817 13.195C89.7817 13.2596 89.7468 13.3518 89.7373 13.4248C89.7298 13.427 89.7298 13.4428 89.733 13.4428C89.7267 13.4619 89.7235 13.464 89.7182 13.4714C89.7224 13.4916 89.7013 13.5424 89.7013 13.5689C89.6875 13.5932 89.6822 13.6578 89.6737 13.6875C89.6748 13.6843 89.6758 13.6822 89.6769 13.6843C89.6737 13.7002 89.6727 13.7097 89.6674 13.7193C89.6674 13.7076 89.6716 13.7118 89.6737 13.6981C89.6568 13.7267 89.6525 13.7796 89.6388 13.8241C89.6388 13.8315 89.6377 13.841 89.6367 13.8506C89.6314 13.859 89.6271 13.8834 89.6218 13.9035L89.1686 15.5969C89.1686 15.5969 89.1707 15.5832 89.1654 15.5863C89.1633 15.6001 89.158 15.6033 89.1611 15.6086C89.1622 15.6022 89.1643 15.6043 89.1664 15.6012L89.1453 15.6795C89.1453 15.6732 89.1463 15.6679 89.1463 15.6647C89.1442 15.6795 89.141 15.67 89.1378 15.6817C89.1463 15.6721 89.1326 15.7272 89.1326 15.7081C89.1304 15.7166 89.1304 15.724 89.1315 15.7282L89.1283 15.741C89.122 15.7515 89.1156 15.7759 89.1082 15.7854C89.1082 15.7759 89.1145 15.7526 89.1177 15.7367C89.1124 15.741 89.1029 15.7812 89.1008 15.7928C89.1008 15.7928 89.104 15.796 89.1029 15.8024C89.1008 15.8087 89.0965 15.813 89.0944 15.8193C89.0859 15.8479 89.0828 15.8924 89.0711 15.9062C89.0754 15.8913 89.0754 15.8829 89.0732 15.8786C89.0595 15.9528 89.0447 15.9972 89.0266 16.0798C89.0256 16.0798 89.0266 16.0756 89.0245 16.0746C89.0214 16.1042 89.0086 16.1339 89.0076 16.1677C89.0055 16.1667 89.0076 16.1603 89.0055 16.1582C89.0023 16.1773 89.0012 16.1921 88.9991 16.208C88.9991 16.1974 88.9917 16.2218 88.9875 16.2239C88.9906 16.2239 88.9906 16.2281 88.9875 16.2376C88.9832 16.2472 88.9853 16.2313 88.9822 16.2408C88.979 16.2641 88.9737 16.2895 88.9726 16.3075C88.9705 16.3075 88.9726 16.2842 88.9684 16.297C88.9684 16.3266 88.9419 16.3976 88.9356 16.423C88.9398 16.4103 88.9356 16.4378 88.9324 16.441C88.9345 16.4473 88.9409 16.4251 88.9387 16.4378C88.9324 16.442 88.9292 16.4717 88.926 16.4759C88.9197 16.4812 88.9292 16.4611 88.926 16.4622C88.9186 16.4791 88.9123 16.4992 88.9049 16.5215C88.9091 16.4791 88.9377 16.4007 88.9409 16.3404C88.9366 16.3435 88.9377 16.3594 88.9356 16.3668C88.926 16.3668 88.9313 16.3817 88.926 16.3923C88.9176 16.3785 88.9377 16.3457 88.9387 16.3255C88.9377 16.3308 88.9356 16.3361 88.9345 16.334C88.9345 16.3298 88.9345 16.3287 88.9345 16.3245C88.9419 16.297 88.9578 16.2504 88.9515 16.2451C88.9567 16.2239 88.9695 16.2091 88.9716 16.19C88.9642 16.2122 88.9568 16.2324 88.9472 16.2398C88.9451 16.2398 88.9536 16.208 88.9483 16.2218C88.9451 16.2546 88.9419 16.2662 88.9345 16.297C88.9377 16.2938 88.9387 16.2758 88.943 16.28C88.9398 16.2927 88.9366 16.315 88.9324 16.3139C88.9324 16.3001 88.9239 16.3192 88.926 16.3213C88.9303 16.3097 88.9303 16.3266 88.9292 16.3319C88.9271 16.3319 88.926 16.3425 88.9239 16.3488C88.9218 16.3488 88.9197 16.3488 88.9176 16.352C88.9144 16.3658 88.9144 16.3732 88.9133 16.3838C88.8932 16.4378 88.889 16.5204 88.872 16.5734C88.872 16.5702 88.872 16.5681 88.872 16.5691C88.8752 16.5797 88.8646 16.6062 88.8689 16.6051C88.8667 16.6094 88.8583 16.6327 88.8604 16.6358C88.8636 16.6337 88.8646 16.6147 88.8678 16.6147C88.8689 16.6157 88.8678 16.62 88.8678 16.6242C88.8614 16.6348 88.8625 16.6369 88.8614 16.6507C88.8593 16.6549 88.8572 16.6591 88.854 16.6623C88.8498 16.6899 88.8466 16.7015 88.8413 16.729C88.8392 16.729 88.8392 16.7259 88.8381 16.7237C88.8371 16.7354 88.8339 16.746 88.8297 16.7545C88.8307 16.7417 88.8307 16.7312 88.8297 16.7216C88.8275 16.7417 88.8191 16.7725 88.8233 16.7799C88.8254 16.7725 88.8233 16.7608 88.8286 16.7576C88.8265 16.7714 88.8254 16.7841 88.8254 16.7936C88.8233 16.7926 88.8212 16.7968 88.8201 16.8063C88.8201 16.7958 88.8117 16.8095 88.8085 16.8169C88.8127 16.8212 88.8159 16.8085 88.8201 16.8106C88.8148 16.8307 88.8201 16.8159 88.8201 16.8244C88.8159 16.8466 88.8095 16.8477 88.8053 16.8667C88.8021 16.8604 88.8053 16.8424 88.8053 16.8339C88.799 16.8582 88.8042 16.8625 88.799 16.8837C88.7958 16.8826 88.7968 16.8741 88.7926 16.8868C88.7947 16.9165 88.7788 16.9716 88.7714 17.0065C88.7757 17.0012 88.7714 16.9927 88.7767 16.9896C88.7778 16.9917 88.7767 16.9991 88.7767 17.0033C88.7725 17.0044 88.7704 17.0192 88.7661 17.0139C88.7651 17.0393 88.7545 17.0658 88.7492 17.0976C88.746 17.1008 88.7365 17.1061 88.7386 17.1177C88.7396 17.1124 88.7418 17.1071 88.7428 17.1092C88.7396 17.1283 88.7365 17.141 88.7301 17.1707C88.7206 17.1707 88.7132 17.2077 88.7036 17.2247C88.7036 17.2353 88.7079 17.2204 88.7068 17.23C88.6899 17.2734 88.6846 17.3009 88.6676 17.3592C88.6719 17.3295 88.6592 17.3856 88.6602 17.3666C88.6581 17.3867 88.6528 17.4216 88.6475 17.4333C88.6475 17.4259 88.6549 17.428 88.6528 17.4344C88.6486 17.4428 88.6475 17.4344 88.6465 17.4513C88.6422 17.4471 88.639 17.4513 88.6359 17.463C88.6359 17.4693 88.6412 17.4651 88.639 17.4735C88.6337 17.4862 88.6337 17.4905 88.6306 17.499C88.6306 17.4926 88.6306 17.4873 88.6306 17.4852C88.6285 17.5 88.6263 17.4915 88.6253 17.4884C88.621 17.5011 88.6168 17.5148 88.6115 17.5223C88.6179 17.5233 88.6242 17.5138 88.6263 17.5265C88.6306 17.5127 88.6348 17.5159 88.639 17.5117C88.6253 17.5763 88.5999 17.661 88.5766 17.7139C88.5744 17.7044 88.5702 17.7034 88.5638 17.715C88.5829 17.7478 88.5342 17.8241 88.5321 17.8834C88.5374 17.8919 88.5405 17.8813 88.549 17.8834C88.5458 17.8972 88.5448 17.9056 88.5437 17.9141L88.4982 18.0825C88.4982 18.0825 88.4982 18.0719 88.4982 18.0655C88.494 18.0846 88.4918 18.0857 88.4929 18.0963C88.4887 18.0994 88.4844 18.1047 88.4812 18.1217C88.4812 18.1291 88.4812 18.1344 88.4812 18.1407L88.3171 18.7529C88.3065 18.7719 88.2949 18.8206 88.2896 18.8344C88.2959 18.827 88.3001 18.8132 88.3044 18.7995L88.3065 18.8016ZM90.3547 11.1458C90.3568 11.1331 90.361 11.1331 90.3632 11.1204C90.3589 11.1172 90.3504 11.1437 90.3547 11.1458ZM90.271 11.4444C90.2742 11.4519 90.2827 11.4264 90.2805 11.419C90.2784 11.4391 90.2731 11.4296 90.271 11.4444ZM90.2636 10.6057C90.2636 10.6057 90.2721 10.5845 90.2668 10.5877C90.2647 10.5898 90.2551 10.6459 90.2636 10.6057ZM89.8061 13.1728C89.804 13.1823 89.7955 13.2035 89.7997 13.2077C89.7997 13.1972 89.8082 13.1834 89.8061 13.1728ZM89.8156 13.0817C89.8124 13.0923 89.8093 13.0902 89.8061 13.0976C89.8093 13.0976 89.8082 13.1061 89.8125 13.104C89.8156 13.0934 89.8177 13.0828 89.8146 13.0817H89.8156ZM89.8538 12.925C89.8538 12.925 89.8559 12.9218 89.8569 12.9165C89.8485 12.9165 89.8442 12.979 89.8453 12.979C89.8453 12.9673 89.8559 12.9366 89.8548 12.926C89.8548 12.9282 89.8527 12.9303 89.8538 12.926V12.925ZM89.9056 12.7947C89.9004 12.8117 89.9025 12.7947 89.9014 12.7894C89.8982 12.8053 89.894 12.8233 89.8961 12.8297C89.8982 12.8148 89.9099 12.7894 89.9056 12.7947ZM89.9491 12.5967C89.9522 12.584 89.9491 12.6041 89.9522 12.602C89.9544 12.5893 89.9533 12.5808 89.9522 12.5744C89.9491 12.585 89.9491 12.5924 89.9501 12.5967H89.9491ZM89.9268 12.6835C89.9141 12.7142 89.9173 12.7333 89.9046 12.7757C89.9088 12.7757 89.912 12.7576 89.9162 12.7555C89.9141 12.7206 89.9374 12.6602 89.9406 12.6221C89.9364 12.638 89.9258 12.6687 89.9279 12.6835H89.9268ZM89.894 12.7079C89.9004 12.675 89.8993 12.6719 89.9088 12.6517C89.9067 12.6517 89.9067 12.6486 89.9056 12.6465C89.8993 12.6645 89.8908 12.6952 89.894 12.7089V12.7079ZM89.8834 12.746C89.876 12.7693 89.8707 12.8117 89.8834 12.7502C89.8845 12.7524 89.8908 12.7386 89.8876 12.7375C89.8802 12.7428 89.8972 12.7142 89.8887 12.7142C89.8866 12.728 89.8834 12.7269 89.8813 12.7407C89.8813 12.7418 89.8834 12.7407 89.8823 12.746H89.8834ZM89.8633 12.8392C89.8665 12.8265 89.8718 12.8095 89.8675 12.8074C89.8643 12.8212 89.8612 12.8339 89.8633 12.8392ZM89.8569 12.8699C89.8601 12.8572 89.8622 12.8455 89.858 12.8466C89.8538 12.8614 89.8548 12.8667 89.8569 12.8699ZM89.8368 12.9292C89.8368 12.9366 89.8421 12.9324 89.8453 12.9271C89.8326 12.9345 89.859 12.8794 89.8527 12.8784C89.8453 12.9049 89.8442 12.9049 89.8368 12.9303V12.9292ZM89.805 13.0976C89.8125 13.0648 89.8252 13.0182 89.8209 13.0182C89.8262 13.0076 89.8347 12.979 89.8368 12.9853C89.8326 13.0076 89.8167 13.0605 89.8188 13.069C89.8262 13.0394 89.8421 12.9726 89.8442 12.9409C89.8379 12.962 89.8379 12.9652 89.8315 12.9885C89.8209 12.997 89.805 13.0807 89.805 13.0976ZM89.7997 13.1336C89.8019 13.1283 89.805 13.1209 89.8082 13.1167C89.8082 13.123 89.8029 13.14 89.8093 13.1357C89.8135 13.1198 89.8082 13.1188 89.8093 13.1082C89.8072 13.1198 89.804 13.123 89.8029 13.1156C89.8019 13.122 89.7987 13.1315 89.7997 13.1336ZM89.5466 14.0105C89.5509 13.9935 89.5604 13.9628 89.5615 13.9544C89.5572 13.9692 89.5466 13.9978 89.5466 14.0105ZM89.5117 14.1556C89.5159 14.145 89.5212 14.127 89.518 14.1206C89.5159 14.1312 89.5085 14.1524 89.5117 14.1556ZM89.4979 14.235C89.5032 14.2191 89.5096 14.2043 89.5085 14.1916C89.5064 14.2085 89.4969 14.2297 89.4979 14.235ZM89.4884 14.2509C89.4937 14.2467 89.4916 14.2371 89.4937 14.2244C89.4873 14.2339 89.4884 14.2414 89.4884 14.2509ZM89.4746 14.2752C89.4746 14.2752 89.481 14.2657 89.4842 14.2594C89.4831 14.2594 89.482 14.2594 89.4799 14.2594C89.4778 14.2678 89.4757 14.2689 89.4746 14.2763V14.2752ZM89.4757 14.4013C89.4672 14.4097 89.481 14.3653 89.4757 14.378C89.4693 14.397 89.4683 14.4225 89.4757 14.4013ZM89.4587 14.378C89.4587 14.378 89.4609 14.378 89.463 14.378C89.463 14.3663 89.4714 14.3536 89.4661 14.3515C89.464 14.3653 89.4608 14.3642 89.4587 14.3769V14.378ZM89.4481 14.5199C89.4513 14.5082 89.4534 14.4945 89.4566 14.4892C89.4545 14.4892 89.4534 14.4892 89.4513 14.4881C89.4503 14.4987 89.4439 14.5188 89.4481 14.5199ZM89.4418 14.4479C89.4428 14.4415 89.446 14.432 89.445 14.4299C89.445 14.432 89.4429 14.4341 89.4439 14.4299C89.4439 14.4267 89.446 14.4214 89.4439 14.4203C89.4407 14.4341 89.4365 14.4489 89.4418 14.4479ZM89.3931 14.6353C89.3952 14.6194 89.3963 14.6046 89.3984 14.5898C89.3931 14.611 89.391 14.6279 89.3931 14.6353ZM89.3867 14.6989C89.3899 14.683 89.3888 14.6745 89.3899 14.6629C89.3899 14.666 89.3888 14.6682 89.3878 14.6671C89.3878 14.6703 89.3867 14.6734 89.3857 14.6756C89.391 14.6798 89.3825 14.6989 89.3867 14.6989ZM89.3031 14.988C89.3062 14.9816 89.3094 14.9679 89.3126 14.9626C89.3126 14.9657 89.3105 14.971 89.3126 14.9721C89.3136 14.9689 89.3147 14.9636 89.3158 14.9636C89.3105 14.9795 89.3083 15.0049 89.3126 14.9954C89.3105 14.9869 89.3179 14.9679 89.3221 14.9562C89.3221 14.9446 89.3136 14.9636 89.3168 14.9456C89.3274 14.9191 89.3295 14.8704 89.3412 14.8588C89.3412 14.8757 89.3221 14.9202 89.3295 14.935C89.3359 14.9096 89.3391 14.8789 89.3497 14.8609C89.3497 14.8567 89.3497 14.8514 89.3497 14.8471C89.356 14.8312 89.3507 14.8514 89.3549 14.844C89.3539 14.8344 89.3677 14.8016 89.3571 14.8217C89.3698 14.7857 89.3782 14.7539 89.3835 14.7169C89.3761 14.7465 89.3729 14.7476 89.3677 14.7635C89.3708 14.7328 89.3846 14.7179 89.3825 14.6978C89.3804 14.7042 89.3793 14.6999 89.3782 14.6978C89.3751 14.7095 89.373 14.7243 89.3698 14.7232C89.3687 14.7179 89.3814 14.6883 89.3761 14.683C89.3528 14.7942 89.3306 14.88 89.3052 14.9901L89.3031 14.988ZM89.2925 15.0642C89.2935 15.0526 89.302 15.0505 89.2988 15.0431C89.2914 15.0547 89.2999 15.0282 89.3031 15.0303C89.3009 15.0303 89.2999 15.0303 89.2978 15.0293C89.2935 15.0441 89.2914 15.0579 89.2925 15.0653V15.0642ZM89.2501 15.2252C89.2565 15.2114 89.2628 15.1934 89.2628 15.1775C89.2618 15.1807 89.2607 15.1828 89.2596 15.1818C89.2575 15.1987 89.2501 15.2146 89.2512 15.2263L89.2501 15.2252ZM89.2385 15.2962C89.2416 15.2824 89.2448 15.2697 89.2427 15.2644C89.2374 15.2771 89.2395 15.2835 89.2385 15.2962ZM89.1569 15.6149C89.1548 15.6308 89.1474 15.6446 89.1484 15.6499C89.1516 15.6361 89.1611 15.6213 89.1569 15.6149ZM89.1421 15.6245C89.1421 15.6107 89.1506 15.5959 89.1495 15.5842C89.1463 15.598 89.1347 15.6213 89.1421 15.6245ZM89.1304 15.6213C89.1304 15.6213 89.1357 15.6012 89.1389 15.5959C89.1336 15.5948 89.1294 15.6118 89.1304 15.6213ZM89.0468 15.9348C89.051 15.9401 89.0531 15.9115 89.0563 15.9093C89.0552 15.9093 89.0542 15.9093 89.0521 15.9093C89.0499 15.9178 89.0478 15.9273 89.0457 15.9358L89.0468 15.9348ZM88.9567 16.208C88.9567 16.1995 88.9631 16.1794 88.962 16.172C88.9589 16.1826 88.9525 16.2038 88.9567 16.208ZM88.728 17.1664C88.728 17.1505 88.7407 17.1368 88.7333 17.1304C88.7322 17.1421 88.7216 17.1675 88.728 17.1664ZM88.6284 17.4841C88.6316 17.4682 88.6284 17.464 88.6348 17.4492C88.6274 17.4492 88.6242 17.482 88.6284 17.4841ZM88.5437 17.625C88.5458 17.6186 88.548 17.6207 88.5501 17.6176C88.5511 17.6006 88.5564 17.5869 88.5617 17.5837C88.5596 17.5837 88.5575 17.5816 88.5575 17.5784C88.5554 17.5911 88.5522 17.6027 88.549 17.5996C88.5469 17.6155 88.5406 17.6207 88.5437 17.626V17.625ZM88.513 17.9469C88.5204 17.93 88.5204 17.9533 88.5247 17.9448C88.5194 17.9395 88.5331 17.9162 88.5247 17.9173C88.5215 17.931 88.5109 17.93 88.512 17.9469H88.513ZM88.2843 18.863C88.2864 18.8556 88.2949 18.8471 88.2927 18.8376C88.2885 18.8408 88.2747 18.8937 88.2843 18.863ZM77.5499 6.40025C77.5499 6.40025 77.5424 6.39072 77.5393 6.39072C77.5414 6.39495 77.5477 6.40237 77.5499 6.40025ZM77.5689 6.41825C77.5774 6.43096 77.5954 6.44473 77.607 6.45638C77.6018 6.44473 77.5785 6.42143 77.5689 6.41825ZM88.8953 16.5268C88.8985 16.5024 88.9144 16.4653 88.9144 16.4389C88.9123 16.4537 88.9091 16.4516 88.9059 16.4558C88.9038 16.4749 88.8953 16.4897 88.89 16.5119C88.8932 16.5141 88.8953 16.5193 88.8953 16.5268ZM69.821 9.65785C69.821 9.65785 69.8221 9.65467 69.8231 9.65149L69.821 9.65785ZM95.5757 17.0065C95.5694 17.0044 95.5641 17.0235 95.5683 17.0277C95.5757 17.0203 95.5683 17.0203 95.5704 17.0118C95.5726 17.0118 95.5747 17.0118 95.5757 17.0065ZM101.651 17.4587C101.629 17.4545 101.598 17.4587 101.566 17.4587C101.569 17.4587 101.573 17.4587 101.577 17.4598H101.634C101.64 17.4598 101.646 17.4598 101.651 17.4587ZM101.125 17.4577C101.102 17.4577 101.089 17.4577 101.104 17.4534C101.095 17.4534 101.091 17.4534 101.089 17.4534C101.09 17.4555 101.091 17.4566 101.092 17.4587H101.123C101.123 17.4587 101.125 17.4587 101.125 17.4577ZM101.585 17.4471C101.569 17.4492 101.546 17.446 101.551 17.4524C101.565 17.4513 101.589 17.4513 101.585 17.4471ZM95.5313 17.0817C95.5313 17.0817 95.545 17.0658 95.5376 17.0669C95.5376 17.0764 95.5334 17.0743 95.5313 17.0817ZM95.4868 17.2617C95.4868 17.2617 95.4772 17.2808 95.4868 17.2787C95.4889 17.2713 95.49 17.266 95.4868 17.2617ZM69.9724 9.12303C69.9799 9.11774 69.9661 9.14739 69.9724 9.1421C69.9756 9.13257 69.9767 9.12515 69.9767 9.11986C69.9746 9.11986 69.9735 9.11774 69.9714 9.12303H69.9724ZM102.186 17.4153C102.166 17.4153 102.161 17.4195 102.165 17.4216C102.187 17.4216 102.181 17.4174 102.186 17.4153ZM101.104 17.4524C101.118 17.4524 101.131 17.4502 101.132 17.4481C101.118 17.4481 101.102 17.4492 101.104 17.4524ZM91.6859 17.4598L93.7584 9.72351H91.6584L92.4685 6.70102C92.4982 6.70102 92.5278 6.70102 92.5564 6.6989C92.5299 6.6989 92.478 6.6989 92.513 6.69572C92.5003 6.69678 92.4855 6.69784 92.4696 6.69784L92.4728 6.68725H93.0235C93.0235 6.68725 93.0277 6.68725 93.0298 6.68725H93.0319H93.212C93.2448 6.68725 93.2776 6.68725 93.3115 6.68725H93.3698C93.3825 6.68725 93.3941 6.68725 93.4068 6.68725C93.4089 6.68831 93.4079 6.69043 93.4248 6.69043C93.4227 6.68937 93.4142 6.68831 93.4164 6.68725H93.4672C93.4799 6.68725 93.4915 6.68937 93.5053 6.68937C93.5043 6.68937 93.5 6.68725 93.499 6.68725H93.535C93.5689 6.68831 93.6239 6.69043 93.6271 6.68725C93.733 6.68831 93.8124 6.69043 93.8897 6.68937C93.9046 6.6936 93.9798 6.69043 94.0221 6.69254C94.0465 6.69254 94.056 6.69572 94.0825 6.69678C94.1058 6.69678 94.1587 6.69678 94.1979 6.69678C94.2837 6.6989 94.3081 6.69678 94.396 6.6989C94.396 6.70102 94.3695 6.6989 94.3737 6.70102C94.4023 6.70102 94.4023 6.69784 94.4288 6.69784C94.4468 6.70102 94.5283 6.69784 94.5061 6.70313C94.5527 6.70313 94.5442 6.6989 94.5855 6.69996C94.6046 6.69996 94.6035 6.70313 94.629 6.70313C94.6342 6.70102 94.647 6.69996 94.6766 6.70102C94.6808 6.70208 94.6872 6.70208 94.6787 6.70313C94.7825 6.69996 94.8037 6.70631 94.9022 6.70737C94.8979 6.70525 94.8958 6.70313 94.9244 6.70419C94.917 6.70737 94.989 6.70843 95.0197 6.71055C95.024 6.70737 94.9753 6.71055 94.9837 6.70631C95.0134 6.70737 95.0219 6.70949 95.0324 6.70631C95.043 6.70843 95.0314 6.70949 95.06 6.71055C95.0568 6.70843 95.0557 6.70631 95.0812 6.70631C95.0759 6.70843 95.0949 6.70843 95.0928 6.71055C95.2125 6.70631 95.384 6.71478 95.5524 6.71267C95.6287 6.71478 95.7462 6.71902 95.8077 6.71584C95.904 6.71902 95.9708 6.71796 96.0703 6.71796C96.0894 6.72008 96.1074 6.72114 96.1296 6.72008C96.1169 6.72008 96.1275 6.71902 96.137 6.71796C96.1508 6.71902 96.1646 6.72008 96.1804 6.72114C96.1847 6.72008 96.1963 6.72008 96.2122 6.72008C96.244 6.72749 96.2906 6.71584 96.3531 6.72326C96.4378 6.7169 96.6199 6.72855 96.6856 6.72008C96.6507 6.71902 96.6485 6.72432 96.621 6.72114C96.6708 6.71267 96.7491 6.71902 96.8466 6.71584C96.8466 6.71478 96.8413 6.71372 96.836 6.71372C96.8678 6.71161 96.9451 6.71267 96.9684 6.7169C97.015 6.71161 97.1336 6.71902 97.2066 6.7169C97.213 6.72008 97.2289 6.72008 97.231 6.7169C97.2395 6.71796 97.2374 6.72114 97.2511 6.7222C97.2712 6.7169 97.3623 6.72537 97.3888 6.72008C97.4322 6.72537 97.4936 6.72326 97.5402 6.72537C97.5519 6.72114 97.626 6.72326 97.662 6.72326C97.662 6.7222 97.6514 6.72114 97.6514 6.72008C97.6779 6.72008 97.6663 6.71796 97.6822 6.71796C97.7288 6.71796 97.733 6.72114 97.7648 6.71902C97.7542 6.71902 97.7584 6.72432 97.7669 6.72114C97.7626 6.71584 97.8389 6.71478 97.8865 6.7169C97.8781 6.71372 97.9162 6.71796 97.9268 6.71584C97.9247 6.71372 97.9056 6.71267 97.8908 6.71161C97.8876 6.71161 97.8834 6.71372 97.876 6.71372C97.8421 6.71161 97.823 6.70843 97.7891 6.70737C97.8114 6.70737 97.8378 6.70737 97.8368 6.70631C97.7616 6.70631 97.7446 6.70631 97.6726 6.70631C97.6747 6.70419 97.6483 6.70419 97.6451 6.70208C97.6165 6.70208 97.607 6.70419 97.5815 6.70525C97.5477 6.70102 97.4651 6.70313 97.4121 6.69784C97.3793 6.69784 97.339 6.70208 97.3221 6.69784C97.2956 6.69784 97.302 6.69996 97.2829 6.69996C97.266 6.69996 97.2818 6.69572 97.2628 6.69466C97.2617 6.69678 97.2384 6.69466 97.2246 6.69784C97.2077 6.69466 97.1653 6.69466 97.1537 6.69043C97.1664 6.69043 97.1908 6.69043 97.2045 6.68831H97.267C97.267 6.68831 97.2363 6.68831 97.2363 6.69043C97.2734 6.69043 97.2935 6.69254 97.321 6.69466C97.3306 6.69466 97.321 6.69149 97.3094 6.69043C97.3094 6.69043 97.3125 6.69254 97.303 6.69254C97.2935 6.69149 97.2829 6.68937 97.2712 6.68831H97.3602C97.3602 6.68831 97.3687 6.68937 97.374 6.69043C97.374 6.69043 97.3729 6.68937 97.3708 6.68831H100.446L99.6329 9.72563H97.5318L95.9284 15.7092C95.9263 15.7113 95.9242 15.7134 95.9199 15.7124C95.9273 15.7177 95.9072 15.7463 95.9167 15.7452C95.9146 15.7505 95.9104 15.7452 95.9083 15.7494C95.9019 15.7759 95.8977 15.8077 95.885 15.8267C95.8924 15.8236 95.8903 15.8204 95.8913 15.832C95.8924 15.8246 95.8977 15.8161 95.903 15.8077L95.6658 16.692C95.6658 16.692 95.6626 16.6994 95.6636 16.7015V16.7047C95.6636 16.7047 95.6594 16.7079 95.6615 16.71L95.6467 16.764C95.6467 16.764 95.6467 16.7598 95.6456 16.7598C95.6435 16.7693 95.6424 16.7703 95.6403 16.765C95.635 16.782 95.6329 16.7809 95.6382 16.7852C95.6329 16.7989 95.6319 16.7915 95.6266 16.7989C95.6297 16.7979 95.635 16.8138 95.634 16.8074C95.6329 16.8011 95.6361 16.7968 95.6393 16.7926L95.634 16.8138C95.6276 16.8169 95.6297 16.8095 95.6255 16.8042C95.617 16.8455 95.616 16.8381 95.6033 16.872C95.6086 16.8752 95.6096 16.8572 95.6149 16.8582C95.6139 16.8635 95.6117 16.8688 95.6107 16.8741C95.6139 16.8741 95.617 16.8741 95.6192 16.8699C95.6128 16.8699 95.6234 16.8604 95.617 16.8561C95.6192 16.8529 95.6213 16.8466 95.6244 16.8477L95.5927 16.9673C95.5927 16.9673 95.5927 16.9631 95.5906 16.9631C95.5874 16.9779 95.5842 16.9991 95.5789 16.9832C95.5757 16.9917 95.5821 16.9917 95.5789 17.0002C95.5768 17.0002 95.5747 16.9991 95.5715 16.998C95.5736 16.9917 95.581 16.9684 95.5736 16.9779C95.5768 16.9853 95.5673 16.998 95.5651 17.0023C95.5673 17.0086 95.5588 17.0436 95.5482 17.0446C95.5461 17.0436 95.5461 17.0404 95.5461 17.0372C95.5493 17.0266 95.5588 17.0139 95.5535 17.0086C95.5567 17.0054 95.5609 17.0065 95.562 17.0107C95.5673 16.9959 95.5577 17.0076 95.5577 16.9991C95.563 16.9959 95.5673 16.9917 95.5641 16.9843C95.5567 16.9906 95.5355 17.0446 95.5365 17.0637C95.526 17.0743 95.526 17.1166 95.5069 17.1166C95.5069 17.1251 95.5005 17.141 95.4942 17.1431C95.49 17.1527 95.4974 17.1505 95.4942 17.1601C95.4857 17.177 95.4794 17.1707 95.4667 17.177C95.4762 17.1791 95.4667 17.2045 95.4603 17.212C95.4582 17.212 95.4603 17.2056 95.4582 17.2045C95.4497 17.2141 95.4624 17.2236 95.4508 17.23C95.4433 17.2353 95.4529 17.212 95.4476 17.2225C95.4476 17.2342 95.4381 17.2353 95.4433 17.2448C95.4412 17.2501 95.437 17.249 95.4338 17.2522C95.4391 17.2617 95.4211 17.3189 95.4116 17.3062C95.4031 17.3528 95.3766 17.4089 95.3576 17.4577H95.3449C95.3449 17.4577 95.3449 17.4545 95.3449 17.4534C95.3449 17.4534 95.3449 17.4566 95.3438 17.4577H95.3173C95.3173 17.4577 95.3194 17.4545 95.3216 17.4545C95.3216 17.4566 95.3216 17.4587 95.3216 17.4577C95.3226 17.4513 95.3237 17.4471 95.3216 17.4439C95.3216 17.4524 95.3152 17.4534 95.3131 17.4577H95.1913C95.1913 17.4577 95.1924 17.4534 95.1934 17.4513C95.1913 17.4534 95.1892 17.4555 95.1881 17.4577H91.6912L91.6859 17.4598ZM100.015 6.75503C100.015 6.75503 100.06 6.75926 100.066 6.75715C100.036 6.75715 100.041 6.75503 100.015 6.75503ZM99.8987 6.75291C99.8722 6.75291 99.8595 6.75291 99.8405 6.75185C99.8299 6.75503 99.9061 6.75609 99.8987 6.75291ZM99.8129 6.76985C99.7377 6.77091 99.6964 6.76456 99.6467 6.76562C99.6901 6.76985 99.7716 6.77197 99.8129 6.76985ZM99.6414 6.74761C99.6287 6.74761 99.7473 6.75185 99.725 6.74973C99.7144 6.74973 99.706 6.74973 99.6986 6.74761C99.6795 6.74761 99.6604 6.74761 99.6414 6.74761ZM98.8397 6.70419C98.9064 6.70208 98.9308 6.70737 98.8397 6.70419V6.70419ZM98.2922 6.70419C98.3409 6.70525 98.3292 6.6936 98.325 6.69466C98.3155 6.69784 98.3176 6.70313 98.2922 6.70419ZM98.2773 6.7169C98.2509 6.7169 98.1937 6.71584 98.2138 6.71902C98.2223 6.7169 98.2562 6.71902 98.271 6.71902C98.2699 6.71796 98.2731 6.7169 98.2773 6.7169ZM98.163 6.69678C98.163 6.69678 98.2117 6.69466 98.217 6.69254C98.1926 6.69254 98.1407 6.69466 98.163 6.69678ZM98.002 6.6989C98.002 6.6989 98.0158 6.69678 98.0073 6.69466C97.9734 6.69466 97.984 6.69784 98.002 6.6989ZM97.5434 6.76244C97.6123 6.76032 97.6281 6.76244 97.7012 6.76562C97.697 6.7635 97.7002 6.76244 97.7065 6.76138C97.662 6.76032 97.6218 6.76138 97.5741 6.75926C97.5805 6.76244 97.5339 6.75926 97.5434 6.76244ZM97.4629 6.74338C97.4799 6.74338 97.5508 6.74444 97.5286 6.74338C97.5116 6.74338 97.4407 6.74232 97.4629 6.74338ZM97.3846 6.7582C97.3846 6.7582 97.4343 6.76244 97.4343 6.75926C97.4142 6.75926 97.3952 6.75926 97.3846 6.7582ZM96.962 6.75079C96.9832 6.75397 96.9948 6.75503 97.0319 6.75715C97.0277 6.75397 97.0499 6.75715 97.0563 6.75715C97.0541 6.75397 97.0774 6.75397 97.1113 6.75397C97.1219 6.75503 97.124 6.75715 97.1389 6.7582C97.1315 6.75291 97.2098 6.7582 97.2194 6.75609C97.1738 6.75609 97.2056 6.75291 97.2151 6.75079C97.1399 6.75503 97.0499 6.75079 96.961 6.75079H96.962ZM96.8063 6.75079C96.8603 6.75397 96.9069 6.75079 96.9482 6.75503C96.9482 6.75397 96.962 6.75503 96.9631 6.75397C96.9472 6.74973 96.9059 6.75397 96.8942 6.74973C96.8762 6.75079 96.8201 6.74973 96.8053 6.74973L96.8063 6.75079ZM96.7407 6.74973C96.7555 6.74973 96.7904 6.75291 96.7979 6.74973C96.7788 6.74867 96.7513 6.74656 96.7407 6.74973ZM96.6496 6.74867C96.6687 6.74867 96.71 6.74973 96.7142 6.74867C96.6888 6.74867 96.6528 6.74444 96.6496 6.74867ZM96.549 6.7455C96.5818 6.74761 96.6072 6.74973 96.6401 6.74656C96.6115 6.74338 96.5945 6.7455 96.5829 6.74656C96.5786 6.74656 96.5723 6.74444 96.5649 6.74338C96.5479 6.74444 96.5215 6.74338 96.5003 6.74444C96.3764 6.74338 96.5808 6.74761 96.55 6.74444L96.549 6.7455ZM96.1402 14.8588C96.1455 14.8302 96.1646 14.7984 96.1624 14.7846C96.155 14.8016 96.1391 14.8376 96.1402 14.8588ZM96.1158 14.953C96.1211 14.9467 96.118 14.9477 96.119 14.9403C96.1264 14.9138 96.1105 14.9488 96.1158 14.953ZM95.903 15.6954C95.8998 15.706 95.9009 15.7113 95.9051 15.7124C95.9061 15.705 95.9083 15.6954 95.903 15.6954ZM95.9347 15.3089C95.9443 15.312 95.9379 15.2951 95.9464 15.2951C95.9506 15.2856 95.9432 15.2877 95.9464 15.2782C95.9559 15.2782 95.9549 15.2623 95.9612 15.258C95.9517 15.2623 95.9655 15.2496 95.9665 15.239C95.9506 15.2517 95.9453 15.2866 95.9347 15.3078V15.3089ZM95.9263 15.3301C95.9263 15.3301 95.9316 15.3226 95.9369 15.3258C95.9379 15.3205 95.9369 15.3173 95.9369 15.3152C95.9347 15.3258 95.9284 15.3173 95.9273 15.329L95.9263 15.3301ZM95.9051 15.4148C95.9051 15.4148 95.8998 15.419 95.8956 15.4148C95.8881 15.4412 95.8956 15.4243 95.9051 15.4148ZM95.8934 15.5291C95.8956 15.5228 95.8934 15.5228 95.8934 15.5186C95.9009 15.5207 95.9136 15.508 95.9083 15.4984C95.9242 15.4857 95.9443 15.4561 95.9496 15.419C95.9591 15.4031 95.9771 15.3798 95.976 15.3586C95.9835 15.3586 95.9845 15.3353 95.9898 15.329C95.9877 15.329 95.9856 15.3269 95.9877 15.3216C96.011 15.2824 96.0184 15.2358 96.0396 15.1945C96.0311 15.1903 96.0449 15.1712 96.0428 15.1648C96.0375 15.1765 96.0311 15.1807 96.0258 15.1903C96.0279 15.1903 96.0311 15.1903 96.0301 15.1945C96.0269 15.1987 96.0248 15.204 96.0205 15.2019C96.0142 15.2019 96.0237 15.186 96.0174 15.1871C96.0163 15.2453 95.9665 15.2707 95.9644 15.3237C95.9612 15.3237 95.9591 15.3248 95.957 15.329C95.9633 15.3428 95.9411 15.3586 95.9475 15.3703C95.939 15.3661 95.9358 15.3925 95.9347 15.401C95.9167 15.418 95.9167 15.4529 95.9009 15.4762C95.9019 15.4794 95.9009 15.4868 95.903 15.49C95.8956 15.4868 95.8945 15.4984 95.903 15.4931C95.9009 15.4984 95.9009 15.5027 95.9009 15.5059C95.8945 15.5059 95.8966 15.4984 95.8924 15.5037C95.8881 15.5111 95.8987 15.5143 95.8903 15.5133C95.8881 15.5217 95.8903 15.5334 95.8956 15.5281L95.8934 15.5291ZM95.8151 16.0957C95.8151 16.0957 95.8119 16.1063 95.8108 16.1116C95.8172 16.1159 95.8214 16.0968 95.8151 16.0957ZM95.8087 16.0301C95.813 16.0248 95.8183 16.0057 95.8119 16.0047C95.8108 16.0131 95.8077 16.0248 95.8087 16.0301ZM95.7611 16.1625C95.7769 16.1233 95.8087 16.0671 95.8119 16.028C95.7971 16.047 95.7801 16.0767 95.7791 16.1137C95.7727 16.1233 95.7791 16.1021 95.7717 16.1116C95.7727 16.1286 95.7568 16.1593 95.7611 16.1625ZM95.7081 15.9771C95.7113 15.9708 95.7176 15.9581 95.7123 15.9549C95.7123 15.9612 95.7049 15.975 95.7081 15.9771ZM95.6001 16.298C95.6075 16.2991 95.6096 16.2821 95.6075 16.2768C95.6054 16.2853 95.6033 16.2948 95.6001 16.298ZM95.5609 16.4357C95.5641 16.4198 95.5694 16.4124 95.5651 16.4071C95.562 16.4187 95.5588 16.4304 95.5609 16.4357ZM95.1871 6.72855C95.1585 6.72855 95.1076 6.72855 95.0716 6.72643C95.0865 6.72855 95.1754 6.73067 95.1871 6.72855ZM95.4624 17.1887C95.4624 17.1887 95.4518 17.1971 95.455 17.2003C95.455 17.1982 95.4561 17.1971 95.4571 17.1971C95.4571 17.1993 95.455 17.2035 95.4571 17.2035C95.4582 17.1982 95.4603 17.1929 95.4614 17.1876L95.4624 17.1887ZM95.4899 17.1315C95.4836 17.1442 95.4847 17.1474 95.4783 17.1516C95.4825 17.1399 95.4688 17.1474 95.4709 17.1368C95.4698 17.141 95.4677 17.1431 95.4667 17.1452C95.473 17.1474 95.4772 17.1579 95.4878 17.1505C95.4878 17.1442 95.4921 17.1347 95.4899 17.1304V17.1315ZM95.4836 17.0732C95.4836 17.0838 95.4772 17.0923 95.4783 17.0986C95.4847 17.0944 95.4878 17.0785 95.4836 17.0732ZM95.5058 16.6401C95.5058 16.6401 95.5027 16.638 95.5016 16.6358C95.4984 16.6443 95.4974 16.6517 95.4995 16.656C95.5005 16.6486 95.5027 16.6443 95.5058 16.6411V16.6401ZM95.527 16.5045C95.5185 16.5236 95.5101 16.5448 95.5016 16.5681C95.5069 16.5702 95.4974 16.5871 95.5058 16.5861C95.4995 16.567 95.526 16.5299 95.527 16.5045ZM95.526 16.5342C95.5323 16.5246 95.5291 16.5204 95.5334 16.5056C95.5302 16.5077 95.5228 16.531 95.526 16.5342ZM95.526 16.621C95.526 16.621 95.5334 16.6178 95.5344 16.6094C95.5323 16.6094 95.5312 16.6072 95.5302 16.6051C95.5281 16.6125 95.5302 16.6157 95.526 16.621ZM95.5365 17.016C95.5365 17.016 95.5302 17.0203 95.5291 17.0309C95.5323 17.034 95.5397 17.0182 95.5365 17.016ZM95.3692 6.73173C95.4137 6.72749 95.5048 6.73279 95.5408 6.73173C95.5302 6.73173 95.5228 6.73067 95.5228 6.72855C95.4656 6.72855 95.3629 6.72537 95.3703 6.73173H95.3692ZM95.293 6.72855C95.3025 6.72855 95.3311 6.72855 95.3417 6.72855C95.3269 6.72749 95.2983 6.72749 95.293 6.72855ZM95.2877 16.7714C95.2887 16.7619 95.293 16.7629 95.2951 16.7534C95.2909 16.7513 95.2887 16.7523 95.2856 16.7534C95.2824 16.764 95.2834 16.7693 95.2877 16.7703V16.7714ZM95.257 17.3433C95.257 17.3433 95.2601 17.3475 95.2633 17.3486C95.2633 17.3306 95.2803 17.3179 95.275 17.3083C95.2686 17.3179 95.2654 17.3401 95.258 17.3443L95.257 17.3433ZM94.6639 6.71902C94.7073 6.7222 94.7687 6.71902 94.7815 6.72326C94.8598 6.72537 94.9615 6.72326 95.0462 6.72749C95.0939 6.72326 95.1871 6.72749 95.2273 6.72961C95.1955 6.72749 95.1511 6.7222 95.2104 6.71902C95.1362 6.72114 95.0515 6.71902 94.9901 6.71902C94.9964 6.71902 95.006 6.71902 95.007 6.71902C94.9467 6.71902 94.8768 6.71902 94.8344 6.71796C94.8408 6.71796 94.845 6.71796 94.8439 6.72008C94.7751 6.72008 94.7052 6.71372 94.6628 6.71796L94.6639 6.71902ZM94.5156 6.7169C94.5718 6.7169 94.6162 6.71902 94.6406 6.72008C94.6406 6.72008 94.6427 6.72008 94.6491 6.72008C94.647 6.71796 94.6321 6.7169 94.6459 6.71584C94.6342 6.71478 94.5993 6.71584 94.5866 6.71372C94.5982 6.72008 94.5199 6.71055 94.5146 6.71584L94.5156 6.7169ZM94.3239 6.71267C94.3303 6.71478 94.3176 6.71796 94.3367 6.71902C94.3367 6.71902 94.3356 6.7169 94.3345 6.7169C94.3557 6.71584 94.3737 6.71902 94.3822 6.71584C94.3737 6.71372 94.3504 6.71372 94.3229 6.71372L94.3239 6.71267ZM94.0952 6.71267C94.1736 6.71478 94.2297 6.71478 94.3102 6.71584C94.3102 6.71584 94.3197 6.71478 94.3165 6.71372C94.2191 6.71372 94.1481 6.71161 94.0952 6.71372V6.71267ZM92.692 6.70525C92.692 6.70525 92.6464 6.69996 92.639 6.70102C92.6613 6.70208 92.6697 6.70419 92.692 6.70525ZM92.7979 6.70525C92.7979 6.70525 92.7958 6.70313 92.7958 6.70208C92.7746 6.70208 92.765 6.70208 92.765 6.70525C92.7756 6.70525 92.7873 6.70525 92.7979 6.70525ZM93.2268 6.69996C93.1685 6.70102 93.0986 6.69996 93.0669 6.70525C93.0637 6.70313 93.0362 6.70525 93.0319 6.70208C93.0436 6.70208 93.0626 6.70208 93.0637 6.70208C93.0415 6.70208 93.0415 6.70102 93.0224 6.70102C93.0457 6.70631 93.0531 6.70525 93.0531 6.70949C93.0605 6.70208 93.1844 6.70525 93.2226 6.70631C93.1749 6.70419 93.2194 6.70208 93.2257 6.69996H93.2268ZM93.3465 6.70525C93.3253 6.70525 93.2956 6.70525 93.303 6.70208C93.2681 6.70208 93.2628 6.70419 93.2395 6.70419C93.2374 6.70631 93.2819 6.70843 93.2829 6.70737C93.2681 6.70737 93.2575 6.70419 93.2808 6.70419C93.2977 6.70525 93.3496 6.71055 93.3475 6.70525H93.3465ZM93.4863 6.70631C93.5752 6.70631 93.6748 6.71055 93.7733 6.70737C93.7966 6.70949 93.8198 6.70737 93.8241 6.71055C93.8823 6.70949 93.9363 6.71267 93.9872 6.71055C93.9904 6.71267 94.1068 6.71372 94.0772 6.71055C94.0137 6.70843 93.9236 6.71267 93.8686 6.70525C93.8792 6.70525 93.8919 6.70419 93.8993 6.70313C93.8749 6.70313 93.7987 6.70737 93.8103 6.70313C93.6938 6.70631 93.5212 6.70208 93.4079 6.70102C93.3772 6.70525 93.374 6.6989 93.3539 6.70525C93.4015 6.70525 93.464 6.70737 93.5106 6.70737C93.4968 6.70737 93.4862 6.70737 93.4852 6.70525L93.4863 6.70631ZM95.5461 17.1029C95.5397 17.1008 95.5355 17.1092 95.5323 17.1198C95.5397 17.1251 95.5418 17.1114 95.5461 17.1029ZM95.6393 16.782L95.6435 16.765C95.6435 16.765 95.6393 16.7767 95.6393 16.782Z" fill="white"/>
<path d="M38.1603 14.88V15.1374H37.3301V14.9446C37.3301 14.9023 37.2951 14.8673 37.2528 14.8673H34.6359C34.477 14.8673 34.3478 14.9965 34.3478 15.1554V16.4675C34.3478 16.6264 34.477 16.7556 34.6359 16.7556H37.2528C37.2951 16.7556 37.3301 16.7207 37.3301 16.6783V16.2282H35.7574V15.5758H38.1603V16.744C38.1603 17.139 37.8395 17.4599 37.4444 17.4599H34.5501C33.9803 17.4599 33.5175 16.996 33.5175 16.4273V15.1967C33.5175 14.6269 33.9814 14.1641 34.5501 14.1641H37.4444C37.8395 14.1641 38.1603 14.485 38.1603 14.88ZM27.7225 14.88V16.745C27.7225 17.14 28.0434 17.4609 28.4384 17.4609H32.0497V16.7567H28.6311C28.5888 16.7567 28.5538 16.7217 28.5538 16.6794V16.1382H31.9131V15.4858H28.5538V14.9446C28.5538 14.9023 28.5888 14.8673 28.6311 14.8673H32.0497V14.1631H28.4384C28.0434 14.1631 27.7225 14.484 27.7225 14.879V14.88ZM56.577 15.1978V16.4284C56.577 16.9981 56.1131 17.4609 55.5444 17.4609H51.9342V14.1641H55.5444C56.1142 14.1641 56.577 14.628 56.577 15.1967V15.1978ZM55.7467 15.1565C55.7467 14.9976 55.6175 14.8684 55.4587 14.8684H52.7645V16.7567H55.4587C55.6175 16.7567 55.7467 16.6275 55.7467 16.4686V15.1565ZM39.7309 14.88V16.745C39.7309 17.14 40.0518 17.4609 40.4468 17.4609H44.0581V16.7567H40.6395C40.5972 16.7567 40.5622 16.7217 40.5622 16.6794V16.1382H43.9215V15.4858H40.5622V14.9446C40.5622 14.9023 40.5972 14.8673 40.6395 14.8673H44.0581V14.1631H40.4468C40.0518 14.1631 39.7309 14.484 39.7309 14.879V14.88ZM22.7079 16.6804V14.1652H21.8777V16.7461C21.8777 17.1411 22.1985 17.462 22.5936 17.462H26.2049V16.7577H22.7852C22.7429 16.7577 22.7079 16.7228 22.7079 16.6804ZM61.9537 15.5928L58.9556 15.3418C58.9154 15.3386 58.8857 15.3058 58.8857 15.2655V14.9446C58.8857 14.9023 58.9207 14.8673 58.963 14.8673H61.6561C61.6985 14.8673 61.7335 14.9023 61.7335 14.9446V15.1374H62.5637V14.88C62.5637 14.485 62.2428 14.1641 61.8478 14.1641H58.7713C58.3763 14.1641 58.0554 14.485 58.0554 14.88V15.2666C58.0554 15.6404 58.3361 15.9476 58.7088 15.9793L61.7059 16.2303C61.7462 16.2335 61.7758 16.2674 61.7758 16.3076V16.6794C61.7758 16.7217 61.7409 16.7567 61.6985 16.7567H58.9662C58.9238 16.7567 58.8889 16.7217 58.8889 16.6794V16.4866H58.0586V16.745C58.0586 17.14 58.3795 17.4609 58.7745 17.4609H61.8902C62.2852 17.4609 62.6061 17.14 62.6061 16.745V16.3066C62.6061 15.9327 62.3255 15.6256 61.9527 15.5938L61.9537 15.5928ZM49.4846 16.4294L46.2164 14.1641H45.5747V17.4609H46.4049V15.1956L49.6731 17.4609H50.3149V14.1641H49.4846V16.4294ZM56.9286 6.68734V7.89464H60.4827V12.2197H62.4282V7.89358H65.9823V6.68734H56.9286ZM23.8231 12.2187H21.8777V6.68734H28.6926C29.8744 6.68734 30.836 7.56104 30.836 8.63491C30.836 9.70877 29.8744 10.5825 28.6926 10.5825H23.8231V12.2197V12.2187ZM23.8231 9.37412H28.0328C28.4808 9.37412 28.8451 9.04158 28.8451 8.63385C28.8451 8.22612 28.4807 7.89358 28.0317 7.89358H23.8231V9.37412ZM8.2362 6.68628L12.1102 12.2187H9.90524L9.17027 11.1681H4.61429L3.87932 12.2187H2.35431L6.22721 6.68628H8.2362ZM8.32516 9.96188L6.89228 7.91582L5.45941 9.96188H8.32516ZM19.1316 8.84989H14.9611C14.672 8.84989 14.4369 8.63597 14.4369 8.37227C14.4369 8.10857 14.6699 7.89676 14.9568 7.89464C14.9568 7.89464 14.959 7.89464 14.9611 7.89464H20.7424V6.68734H14.3002C13.2772 6.68734 12.4448 7.44349 12.4448 8.37227C12.4448 9.30104 13.2772 10.0572 14.3002 10.0572H14.3045H18.4644C18.4686 10.0572 18.4697 10.0572 18.4718 10.0572C18.7609 10.0572 18.995 10.2711 18.995 10.5348C18.995 10.7985 18.7598 11.0124 18.4718 11.0124H12.6248V12.2197H19.1326C20.1557 12.2197 20.9881 11.4636 20.9881 10.5348C20.9881 9.60604 20.1557 8.84989 19.1326 8.84989H19.1316ZM58.6347 12.2187V11.0114H53.3533V6.68734H51.4078V11.0453C51.4078 11.6923 51.9342 12.2187 52.5813 12.2187H58.6347ZM47.0202 6.68628L50.8942 12.2187H48.6893L47.9543 11.1681H43.3983L42.6634 12.2187H41.1384L45.0113 6.68628H47.0202ZM47.1092 9.96188L45.6763 7.91582L44.2435 9.96188H47.1092ZM40.6237 12.2187V6.68734H38.6782V8.84989H33.6732V6.68734H31.7278V12.2187H33.6732V10.0561H38.6782V12.2187H40.6237Z" fill="white"/>
<path d="M1.75048 12.2186H0.225464L4.09942 6.68616H5.62443L1.75048 12.2186Z" fill="white"/>
</svg>
