<svg width="93" height="35" viewBox="0 0 93 35" fill="none" xmlns="http://www.w3.org/2000/svg">
<path fill-rule="evenodd" clip-rule="evenodd" d="M0 0H23.054L20.3544 8.50163H7.80055L7.16182 8.78026V9.36254H7.80055V10.9286L6.89582 15.7134L10.5771 15.3789L10.8778 13.0582H11.6285L12.6399 11.6153H19.3657L15.5422 23.6564L10.9611 21.0349H0V0ZM10.947 12.5239L11.1042 11.6153H11.3959H12.4346L10.9228 12.7102L10.947 12.5239Z" fill="white"/>
<path d="M75.0603 20.6102V14.7697L76.7766 14.433V6.13338L75.0603 5.79671V0.00012207H92.7381V7.49469H90.7787C90.1398 7.00677 89.358 6.61642 88.4331 6.32367C87.5082 6.03091 86.4927 5.88453 85.3867 5.88453V9.06094L89.3484 8.19731V12.3691L85.3867 11.4908V14.7258C86.5023 14.7258 87.5225 14.5843 88.4474 14.3013C89.3818 14.0183 90.1589 13.6231 90.7787 13.1156H92.7381V20.6102H75.0603Z" fill="white"/>
<path d="M43.8524 20.6102V14.7697L45.5686 14.433V6.1041L43.8524 5.76743V0.00012207H54.1644L58.498 7.87528L62.7888 0.00012207H73.1008V5.76743L71.3845 6.1041V14.433L73.1008 14.7697V20.6102H62.7888V10.5247L58.498 17.9607L54.1644 10.5247V20.6102H43.8524Z" fill="white"/>
<path d="M19.71 20.6102V13.8182L21.3691 13.4815L25.3308 9.15527e-05H36.4295L40.4199 13.4815L42.0647 13.8182V20.6102H34.4129L33.6978 17.141H28.0769L27.3618 20.6102H19.71ZM28.9494 12.5154H32.8253L30.8802 4.42072L28.9494 12.5154Z" fill="white"/>
<path d="M4.73654 34.0323C3.26729 34.0323 2.1106 33.6554 1.26648 32.9015C0.422352 32.1435 0.000289917 31.0107 0.000289917 29.5029C0.000289917 28.4882 0.193403 27.6548 0.57963 27.0028C0.969838 26.3508 1.5233 25.8679 2.24001 25.5541C2.9607 25.2403 3.81477 25.0834 4.80224 25.0834C5.51497 25.0834 6.15602 25.1486 6.72541 25.279C7.29878 25.4054 7.82038 25.5765 8.29022 25.7925V28.4515H6.59999C6.44868 28.2233 6.27548 28.0358 6.08037 27.8891C5.88925 27.7384 5.61053 27.663 5.24421 27.663C4.7027 27.663 4.29258 27.828 4.01386 28.1581C3.73912 28.4882 3.60175 28.9364 3.60175 29.5029C3.60175 30.1671 3.7232 30.6643 3.96608 30.9944C4.21295 31.3204 4.65492 31.4834 5.29199 31.4834C5.47117 31.4834 5.63442 31.4711 5.78174 31.4467C5.93305 31.4222 6.08435 31.3856 6.23566 31.3367V30.6398H5.03517V29.1361H8.52913V33.1949C7.98761 33.4272 7.40827 33.6248 6.79111 33.7878C6.17394 33.9508 5.48909 34.0323 4.73654 34.0323Z" fill="white"/>
<path d="M16.3333 33.8611V31.0249L17.0261 30.8843L18.6805 25.2545H23.3153L24.9816 30.8843L25.6684 31.0249V33.8611H22.4731L22.1745 32.4124H19.8273L19.5286 33.8611H16.3333ZM20.1916 30.4809H21.8102L20.9979 27.1006L20.1916 30.4809Z" fill="white"/>
<path d="M33.4724 33.8611V31.4222L34.1891 31.2816V27.5957L33.4724 27.4551V25.2545H40.7231C41.2447 25.3809 41.6687 25.5907 41.9952 25.8841C42.3217 26.1776 42.485 26.6299 42.485 27.2412C42.485 27.4531 42.4631 27.6833 42.4193 27.9319C42.3795 28.1805 42.3018 28.4168 42.1863 28.6409C42.0709 28.861 41.9056 29.0464 41.6906 29.1972C41.4756 29.3439 41.1949 29.4254 40.8485 29.4417C41.2467 29.4621 41.613 29.5354 41.9474 29.6618C42.2819 29.784 42.5507 29.9755 42.7537 30.2363C42.9568 30.4972 43.0583 30.8456 43.0583 31.2816C43.0583 31.9173 42.9349 32.4247 42.688 32.8037C42.4452 33.1786 42.0948 33.4496 41.6369 33.6166C41.179 33.7796 40.6295 33.8611 39.9884 33.8611H33.4724ZM37.7846 28.8366H38.3101C38.6804 28.8366 38.9651 28.7836 39.1642 28.6776C39.3633 28.5676 39.4628 28.319 39.4628 27.9319C39.4628 27.5651 39.3593 27.3349 39.1523 27.2412C38.9452 27.1474 38.6645 27.1006 38.3101 27.1006H37.7846V28.8366ZM37.7846 31.7706H38.3101C38.6804 31.7706 38.9651 31.7156 39.1642 31.6056C39.3633 31.4956 39.4628 31.247 39.4628 30.8598C39.4628 30.4931 39.3593 30.2649 39.1523 30.1752C38.9452 30.0815 38.6645 30.0346 38.3101 30.0346H37.7846V31.7706Z" fill="white"/>
<path d="M53.5203 33.8611V31.4344L54.237 31.251L51.7703 27.7974L50.8625 27.6629V25.2545H55.6585V27.6629L55.097 27.7974L56.2378 29.564L57.3726 27.7974L56.8112 27.6629V25.2545H61.6012V27.6629L60.6993 27.7974L58.2327 31.251L58.9553 31.4344V33.8611H53.5203Z" fill="white"/>
<path d="M70.9642 33.8611V31.4222L71.6809 31.2816V27.5284C71.4858 27.5284 71.2887 27.561 71.0896 27.6263C70.8945 27.6915 70.7312 27.7872 70.5998 27.9135C70.4685 28.0399 70.4028 28.1968 70.4028 28.3842H69.4053V25.2545H77.5519V28.3842H76.5545C76.5545 28.1968 76.4868 28.0399 76.3514 27.9135C76.22 27.7872 76.0568 27.6915 75.8617 27.6263C75.6666 27.561 75.4715 27.5284 75.2764 27.5284V31.2816L75.9931 31.4222V33.8611H70.9642Z" fill="white"/>
<path d="M85.356 33.8611V31.4222L86.0727 31.2816V27.8157L85.356 27.6752V25.2545H92.7381V28.3842H91.9199C91.6531 28.1805 91.3266 28.0175 90.9404 27.8952C90.5541 27.773 90.1301 27.7118 89.6682 27.7118V29.0383L91.3226 28.6776V30.4197L89.6682 30.053V31.4039C90.1341 31.4039 90.5601 31.3448 90.9463 31.2266C91.3366 31.1084 91.6611 30.9434 91.9199 30.7315H92.7381V33.8611H85.356Z" fill="white"/>
</svg>
