<svg width="32" height="32" viewBox="0 0 32 32" fill="none" xmlns="http://www.w3.org/2000/svg">
<path d="M5.42401 30.6372C7.60467 30.8145 11.066 30.9998 16 30.9998C20.934 30.9998 24.3953 30.8145 26.576 30.6372C28.768 30.4592 30.4593 28.7678 30.6373 26.5758C30.8147 24.3952 31 20.9338 31 15.9998C31 13.5265 30.9533 11.4238 30.8847 9.6665H1.11534C1.03579 11.7767 0.99734 13.8882 1.00001 15.9998C1.00001 20.9338 1.18534 24.3952 1.36267 26.5758C1.54067 28.7678 3.23201 30.4592 5.42401 30.6372Z" fill="#601FEB"/>
<path fill-rule="evenodd" clip-rule="evenodd" d="M1.20999 7.66667C1.25888 6.80756 1.30977 6.06 1.36266 5.424C1.54066 3.232 3.23199 1.54067 5.42399 1.36267C7.60466 1.18533 11.066 1 16 1C20.934 1 24.3953 1.18533 26.576 1.36267C28.768 1.54067 30.4593 3.232 30.6373 5.424C30.6898 6.05956 30.7407 6.80711 30.79 7.66667H1.20999ZM4.99999 4.66667C4.99999 4.40145 5.10535 4.1471 5.29288 3.95956C5.48042 3.77202 5.73478 3.66667 5.99999 3.66667H7.33332C7.59854 3.66667 7.8529 3.77202 8.04043 3.95956C8.22797 4.1471 8.33332 4.40145 8.33332 4.66667C8.33332 4.93188 8.22797 5.18624 8.04043 5.37377C7.8529 5.56131 7.59854 5.66667 7.33332 5.66667H5.99999C5.73478 5.66667 5.48042 5.56131 5.29288 5.37377C5.10535 5.18624 4.99999 4.93188 4.99999 4.66667ZM11.3333 3.66667C11.0681 3.66667 10.8138 3.77202 10.6262 3.95956C10.4387 4.1471 10.3333 4.40145 10.3333 4.66667C10.3333 4.93188 10.4387 5.18624 10.6262 5.37377C10.8138 5.56131 11.0681 5.66667 11.3333 5.66667H12.6667C12.9319 5.66667 13.1862 5.56131 13.3738 5.37377C13.5613 5.18624 13.6667 4.93188 13.6667 4.66667C13.6667 4.40145 13.5613 4.1471 13.3738 3.95956C13.1862 3.77202 12.9319 3.66667 12.6667 3.66667H11.3333Z" fill="#601FEB"/>
</svg>
